<svg width="48" height="48" viewBox="0 0 48 48" fill="none" xmlns="http://www.w3.org/2000/svg">
    <path d="M13.3954 24.0515C13.0176 24.0515 12.6791 23.9902 12.3798 23.8675C12.0805 23.7449 11.84 23.5633 11.6585 23.3229C11.4818 23.0825 11.3886 22.793 11.3788 22.4544H12.7183C12.738 22.6458 12.8042 22.793 12.917 22.896C13.0299 22.9941 13.1771 23.0432 13.3586 23.0432C13.5451 23.0432 13.6923 23.0015 13.8002 22.9181C13.9082 22.8298 13.9622 22.7095 13.9622 22.5574C13.9622 22.4299 13.918 22.3244 13.8297 22.241C13.7463 22.1575 13.6408 22.0889 13.5132 22.0349C13.3905 21.9809 13.2139 21.9196 12.9833 21.8509C12.6496 21.7478 12.3773 21.6448 12.1663 21.5418C11.9553 21.4387 11.7738 21.2866 11.6217 21.0854C11.4696 20.8843 11.3935 20.6218 11.3935 20.2979C11.3935 19.8171 11.5677 19.4417 11.9161 19.1718C12.2645 18.8971 12.7183 18.7597 13.2777 18.7597C13.8469 18.7597 14.3056 18.8971 14.654 19.1718C15.0024 19.4417 15.1888 19.8195 15.2134 20.3053H13.8518C13.842 20.1385 13.7806 20.0084 13.6678 19.9152C13.5549 19.8171 13.4102 19.768 13.2335 19.768C13.0814 19.768 12.9588 19.8097 12.8655 19.8931C12.7723 19.9716 12.7257 20.0869 12.7257 20.239C12.7257 20.4059 12.8042 20.5359 12.9612 20.6291C13.1182 20.7223 13.3636 20.8229 13.6972 20.9309C14.0309 21.0437 14.3007 21.1517 14.5068 21.2547C14.7178 21.3578 14.8993 21.5074 15.0514 21.7037C15.2036 21.8999 15.2796 22.1526 15.2796 22.4618C15.2796 22.7562 15.2036 23.0236 15.0514 23.264C14.9042 23.5044 14.6884 23.6958 14.4038 23.8381C14.1192 23.9804 13.7831 24.0515 13.3954 24.0515Z"
          fill="#2F3747"/>
    <path d="M21.9053 18.8333V24H20.6468V20.9014L19.4913 24H18.4756L17.3127 20.8941V24H16.0541V18.8333H17.5409L18.9908 22.4102L20.426 18.8333H21.9053Z"
          fill="#2F3747"/>
    <path d="M26.0267 23.0874H24.0984L23.7893 24H22.4718L24.3413 18.8333H25.7985L27.668 24H26.3358L26.0267 23.0874ZM25.7029 22.1158L25.0625 20.2243L24.4296 22.1158H25.7029Z"
          fill="#2F3747"/>
    <path d="M30.8718 24L29.7973 22.0496H29.4955V24H28.2369V18.8333H30.3493C30.7565 18.8333 31.1024 18.9044 31.387 19.0467C31.6765 19.189 31.8924 19.3853 32.0347 19.6355C32.177 19.8809 32.2481 20.1556 32.2481 20.4598C32.2481 20.8033 32.15 21.11 31.9537 21.3798C31.7624 21.6497 31.4778 21.8411 31.1 21.9539L32.2923 24H30.8718ZM29.4955 21.159H30.2757C30.5063 21.159 30.678 21.1026 30.7909 20.9898C30.9086 20.8769 30.9675 20.7174 30.9675 20.5114C30.9675 20.3151 30.9086 20.1605 30.7909 20.0477C30.678 19.9348 30.5063 19.8784 30.2757 19.8784H29.4955V21.159Z"
          fill="#2F3747"/>
    <path d="M36.755 18.8333V19.8416H35.386V24H34.1275V19.8416H32.7585V18.8333H36.755Z" fill="#2F3747"/>
    <path d="M1.25007 30.4093C1.25007 29.899 1.36047 29.4451 1.58127 29.0477C1.80207 28.6453 2.10874 28.3338 2.50127 28.113C2.89871 27.8873 3.34767 27.7744 3.84815 27.7744C4.46148 27.7744 4.9865 27.9363 5.42319 28.2602C5.85988 28.584 6.15183 29.0256 6.29903 29.585H4.91535C4.81231 29.3691 4.66511 29.2047 4.47375 29.0918C4.2873 28.979 4.07386 28.9226 3.83343 28.9226C3.4458 28.9226 3.13178 29.0575 2.89135 29.3274C2.65092 29.5972 2.53071 29.9579 2.53071 30.4093C2.53071 30.8607 2.65092 31.2213 2.89135 31.4912C3.13178 31.7611 3.4458 31.896 3.83343 31.896C4.07386 31.896 4.2873 31.8396 4.47375 31.7267C4.66511 31.6139 4.81231 31.4495 4.91535 31.2336H6.29903C6.15183 31.793 5.85988 32.2346 5.42319 32.5584C4.9865 32.8773 4.46148 33.0368 3.84815 33.0368C3.34767 33.0368 2.89871 32.9264 2.50127 32.7056C2.10874 32.4799 1.80207 32.1683 1.58127 31.7709C1.36047 31.3734 1.25007 30.9196 1.25007 30.4093Z"
          fill="#2F3747"/>
    <path d="M9.51328 33.0515C9.02752 33.0515 8.58101 32.9387 8.17376 32.713C7.77141 32.4873 7.45003 32.1732 7.2096 31.7709C6.97408 31.3636 6.85632 30.9073 6.85632 30.4019C6.85632 29.8965 6.97408 29.4427 7.2096 29.0403C7.45003 28.638 7.77141 28.3239 8.17376 28.0982C8.58101 27.8725 9.02752 27.7597 9.51328 27.7597C9.99904 27.7597 10.4431 27.8725 10.8454 28.0982C11.2527 28.3239 11.5716 28.638 11.8022 29.0403C12.0378 29.4427 12.1555 29.8965 12.1555 30.4019C12.1555 30.9073 12.0378 31.3636 11.8022 31.7709C11.5667 32.1732 11.2478 32.4873 10.8454 32.713C10.4431 32.9387 9.99904 33.0515 9.51328 33.0515ZM9.51328 31.9034C9.92544 31.9034 10.2542 31.766 10.4995 31.4912C10.7498 31.2164 10.8749 30.8533 10.8749 30.4019C10.8749 29.9456 10.7498 29.5825 10.4995 29.3126C10.2542 29.0379 9.92544 28.9005 9.51328 28.9005C9.09621 28.9005 8.76256 29.0354 8.51232 29.3053C8.26699 29.5751 8.14432 29.9407 8.14432 30.4019C8.14432 30.8582 8.26699 31.2238 8.51232 31.4986C8.76256 31.7684 9.09621 31.9034 9.51328 31.9034Z"
          fill="#2F3747"/>
    <path d="M17.4778 33H16.2192L14.1143 29.8131V33H12.8557V27.8333H14.1143L16.2192 31.0349V27.8333H17.4778V33Z"
          fill="#2F3747"/>
    <path d="M22.1069 27.8333V28.8416H20.7379V33H19.4794V28.8416H18.1104V27.8333H22.1069Z" fill="#2F3747"/>
    <path d="M25.3734 33L24.2988 31.0496H23.9971V33H22.7385V27.8333H24.8508C25.2581 27.8333 25.604 27.9044 25.8886 28.0467C26.1781 28.189 26.394 28.3853 26.5363 28.6355C26.6786 28.8809 26.7497 29.1556 26.7497 29.4598C26.7497 29.8033 26.6516 30.11 26.4553 30.3798C26.264 30.6497 25.9794 30.8411 25.6016 30.9539L26.7939 33H25.3734ZM23.9971 30.159H24.7772C25.0078 30.159 25.1796 30.1026 25.2924 29.9898C25.4102 29.8769 25.4691 29.7174 25.4691 29.5114C25.4691 29.3151 25.4102 29.1605 25.2924 29.0477C25.1796 28.9348 25.0078 28.8784 24.7772 28.8784H23.9971V30.159Z"
          fill="#2F3747"/>
    <path d="M30.7561 32.0874H28.8278L28.5186 33H27.2012L29.0706 27.8333H30.5279L32.3974 33H31.0652L30.7561 32.0874ZM30.4322 31.1158L29.7919 29.2243L29.159 31.1158H30.4322Z"
          fill="#2F3747"/>
    <path d="M32.7529 30.4093C32.7529 29.899 32.8633 29.4451 33.0841 29.0477C33.3049 28.6453 33.6115 28.3338 34.0041 28.113C34.4015 27.8873 34.8505 27.7744 35.351 27.7744C35.9643 27.7744 36.4893 27.9363 36.926 28.2602C37.3627 28.584 37.6546 29.0256 37.8018 29.585H36.4182C36.3151 29.3691 36.1679 29.2047 35.9766 29.0918C35.7901 28.979 35.5767 28.9226 35.3362 28.9226C34.9486 28.9226 34.6346 29.0575 34.3942 29.3274C34.1537 29.5972 34.0335 29.9579 34.0335 30.4093C34.0335 30.8607 34.1537 31.2213 34.3942 31.4912C34.6346 31.7611 34.9486 31.896 35.3362 31.896C35.5767 31.896 35.7901 31.8396 35.9766 31.7267C36.1679 31.6139 36.3151 31.4495 36.4182 31.2336H37.8018C37.6546 31.793 37.3627 32.2346 36.926 32.5584C36.4893 32.8773 35.9643 33.0368 35.351 33.0368C34.8505 33.0368 34.4015 32.9264 34.0041 32.7056C33.6115 32.4799 33.3049 32.1683 33.0841 31.7709C32.8633 31.3734 32.7529 30.9196 32.7529 30.4093Z"
          fill="#2F3747"/>
    <path d="M42.2894 27.8333V28.8416H40.9204V33H39.6618V28.8416H38.2929V27.8333H42.2894Z" fill="#2F3747"/>
    <path d="M44.7905 33.0515C44.4126 33.0515 44.0741 32.9902 43.7748 32.8675C43.4755 32.7449 43.235 32.5633 43.0535 32.3229C42.8768 32.0825 42.7836 31.793 42.7738 31.4544H44.1133C44.133 31.6458 44.1992 31.793 44.312 31.896C44.4249 31.9941 44.5721 32.0432 44.7537 32.0432C44.9401 32.0432 45.0873 32.0015 45.1952 31.9181C45.3032 31.8298 45.3572 31.7095 45.3572 31.5574C45.3572 31.4299 45.313 31.3244 45.2247 31.241C45.1413 31.1575 45.0358 31.0889 44.9082 31.0349C44.7855 30.9809 44.6089 30.9196 44.3783 30.8509C44.0446 30.7478 43.7723 30.6448 43.5613 30.5418C43.3503 30.4387 43.1688 30.2866 43.0167 30.0854C42.8646 29.8843 42.7885 29.6218 42.7885 29.2979C42.7885 28.8171 42.9627 28.4417 43.3111 28.1718C43.6595 27.8971 44.1133 27.7597 44.6727 27.7597C45.2419 27.7597 45.7006 27.8971 46.049 28.1718C46.3974 28.4417 46.5838 28.8195 46.6084 29.3053H45.2468C45.237 29.1385 45.1756 29.0084 45.0628 28.9152C44.9499 28.8171 44.8052 28.768 44.6285 28.768C44.4764 28.768 44.3538 28.8097 44.2605 28.8931C44.1673 28.9716 44.1207 29.0869 44.1207 29.239C44.1207 29.4059 44.1992 29.5359 44.3562 29.6291C44.5132 29.7223 44.7586 29.8229 45.0922 29.9309C45.4259 30.0437 45.6957 30.1517 45.9018 30.2547C46.1128 30.3578 46.2943 30.5074 46.4464 30.7037C46.5986 30.8999 46.6746 31.1526 46.6746 31.4618C46.6746 31.7562 46.5986 32.0236 46.4464 32.264C46.2992 32.5044 46.0834 32.6958 45.7988 32.8381C45.5142 32.9804 45.1781 33.0515 44.7905 33.0515Z"
          fill="#2F3747"/>
</svg>
