<svg width="48" height="48" viewBox="0 0 48 48" fill="none" xmlns="http://www.w3.org/2000/svg">
    <path fill-rule="evenodd" clip-rule="evenodd"
          d="M44.4845 12.4805L44.4845 12.4806L44.4847 12.4805C44.828 13.0671 44.9977 13.7505 44.9981 14.524C45.0002 20.8424 45.0002 33.4755 45.0002 33.4755C44.9999 34.2321 44.837 34.9023 44.5093 35.4801L44.5092 35.48L44.5091 35.4801C44.1718 36.0739 43.6597 36.571 42.9667 36.9617C40.6159 38.2824 38.2642 39.6014 35.9126 40.9204C32.6701 42.739 29.4277 44.5576 26.1877 46.3805C24.6803 47.2286 23.2193 47.1979 21.7229 46.3375C20.3793 45.565 15.784 42.991 11.6227 40.6601L11.6208 40.659L11.6192 40.6582C8.89022 39.1296 6.34837 37.7058 5.03343 36.9636C4.34045 36.5727 3.82839 36.076 3.49102 35.4817C3.16285 34.9039 3.00033 34.2338 3 33.4773C3.00107 30.3181 3.00107 27.159 3.00107 23.9999C3.00107 20.8408 3.00107 17.6817 3.00214 14.5226C3.00246 12.9881 3.66784 11.8076 5.03524 11.0362C6.35425 10.2917 8.9077 8.86125 11.6462 7.32712L11.6471 7.32662L11.6479 7.32616L11.6482 7.32601C15.8026 4.99863 20.3823 2.43303 21.7235 1.66223C23.2193 0.80229 24.6803 0.771383 26.1872 1.61915C29.3814 3.41634 32.5779 5.20934 35.7744 7.00234C38.1716 8.34696 40.5688 9.69159 42.9649 11.038C43.6423 11.4202 44.1473 11.9037 44.4845 12.4805ZM30.0524 27.3185C28.8613 29.3769 26.598 30.768 24.0004 30.768C21.4188 30.768 19.1682 29.3944 17.9711 27.3577C17.3697 26.3358 17.0539 25.178 17.0551 24C17.0551 20.2622 20.1647 17.2321 24.0004 17.2321C26.5654 17.2321 28.8041 18.5886 30.0072 20.6044L36.0777 17.198C33.6648 13.1391 29.16 10.4084 24.0004 10.4084C16.2972 10.4084 10.0528 16.4937 10.0528 24C10.0528 26.4626 10.7251 28.7719 11.9001 30.7639C14.3068 34.8442 18.8245 37.5917 24.0004 37.5917C29.1858 37.5917 33.7105 34.8331 36.1139 30.7408L30.0524 27.3185ZM43.8742 24.7635H42.2766V26.3206H40.6786V24.7635H39.0812V23.2068H40.6786V21.6499H42.2766V23.2068H43.8742V24.7635ZM38.0446 24.7635H36.4471V26.3206H34.8495V24.7635H33.2518V23.2068H34.8495V21.6499H36.4471V23.2068H38.0446V24.7635Z"
          fill="#2F3747"/>
</svg>
