<svg width="48" height="48" viewBox="0 0 48 48" fill="none" xmlns="http://www.w3.org/2000/svg">
    <path d="M7.03805 17.0242C8.40587 17.0242 9.60117 17.2953 10.624 17.8375C11.6467 18.3797 12.4354 19.1437 12.9899 20.1295C13.5567 21.103 13.8402 22.2305 13.8402 23.5121C13.8402 24.7813 13.5567 25.9088 12.9899 26.8946C12.4354 27.8804 11.6406 28.6444 10.6055 29.1866C9.58268 29.7288 8.39355 29.9999 7.03805 29.9999H2.17676V17.0242H7.03805ZM6.83473 27.2643C8.03003 27.2643 8.96039 26.9378 9.62581 26.2847C10.2912 25.6316 10.624 24.7074 10.624 23.5121C10.624 22.3168 10.2912 21.3864 9.62581 20.721C8.96039 20.0555 8.03003 19.7228 6.83473 19.7228H5.33752V27.2643H6.83473Z"
          fill="#2F3747"/>
    <path d="M18.7673 19.5565V22.1812H23.0001V24.6211H18.7673V27.4676H23.5547V29.9999H15.6065V17.0242H23.5547V19.5565H18.7673Z"
          fill="#2F3747"/>
    <path d="M34.0539 17.0242V19.5565H28.7674V22.2921H32.723V24.7505H28.7674V29.9999H25.6067V17.0242H34.0539Z"
          fill="#2F3747"/>
    <path d="M46.8425 17.0242L42.3509 25.7117V29.9999H39.1901V25.7117L34.6985 17.0242H38.2844L40.7982 22.4585L43.2936 17.0242H46.8425Z"
          fill="#2F3747"/>
</svg>
