<svg width="48" height="48" viewBox="0 0 48 48" fill="none" xmlns="http://www.w3.org/2000/svg">
    <path d="M7.57072 23.2517C7.41903 22.9723 7.19948 22.7607 6.91207 22.617C6.63264 22.4653 6.30131 22.3895 5.9181 22.3895C5.25545 22.3895 4.72453 22.609 4.32535 23.0481C3.92616 23.4793 3.72657 24.0581 3.72657 24.7846C3.72657 25.559 3.93415 26.1658 4.3493 26.6049C4.77243 27.036 5.35125 27.2516 6.08575 27.2516C6.58873 27.2516 7.01186 27.1238 7.35516 26.8683C7.70645 26.6129 7.96192 26.2456 8.1216 25.7666H5.5229V24.2577H9.97781V26.1618C9.82612 26.6727 9.56665 27.1478 9.1994 27.5869C8.84013 28.026 8.38107 28.3813 7.82221 28.6527C7.26335 28.9242 6.63264 29.0599 5.93007 29.0599C5.09977 29.0599 4.35728 28.8802 3.70262 28.521C3.05594 28.1537 2.54897 27.6468 2.18172 27.0001C1.82246 26.3534 1.64282 25.6149 1.64282 24.7846C1.64282 23.9543 1.82246 23.2158 2.18172 22.5691C2.54897 21.9145 3.05594 21.4075 3.70262 21.0482C4.3493 20.681 5.08779 20.4974 5.9181 20.4974C6.92404 20.4974 7.77032 20.7409 8.45691 21.2279C9.1515 21.7149 9.61056 22.3895 9.8341 23.2517H7.57072Z"
          fill="#2F3747"/>
    <path d="M16.3454 27.515H13.2078L12.7049 29H10.5612L13.603 20.5932H15.9742L19.016 29H16.8484L16.3454 27.515ZM15.8185 25.9343L14.7766 22.8565L13.7467 25.9343H15.8185Z"
          fill="#2F3747"/>
    <path d="M29.4623 20.5932V29H27.4145V23.9583L25.5343 29H23.8817L21.9896 23.9463V29H19.9418V20.5932H22.3608L24.72 26.4133L27.0552 20.5932H29.4623Z"
          fill="#2F3747"/>
    <path d="M32.9828 22.2338V23.9343H35.7252V25.5151H32.9828V27.3593H36.0844V29H30.9349V20.5932H36.0844V22.2338H32.9828Z"
          fill="#2F3747"/>
    <path d="M42.8867 20.5932V22.2338H39.4617V24.0062H42.0245V25.5989H39.4617V29H37.4139V20.5932H42.8867Z"
          fill="#2F3747"/>
    <path d="M46.0109 20.5932V29H43.963V20.5932H46.0109Z" fill="#2F3747"/>
</svg>
