<svg width="36" height="36" viewBox="0 0 36 36" fill="none" xmlns="http://www.w3.org/2000/svg">
    <path d="M22.006 2.25C37.171 12.5636 32.2657 23.9373 32.2657 23.9373C32.2657 23.9373 36.578 28.8066 34.8351 33.065C34.8351 33.065 33.0563 30.0823 30.0736 30.0823C27.1988 30.0823 25.5098 33.065 19.7241 33.065C6.84112 33.065 0.75 22.3022 0.75 22.3022C12.3573 29.9385 20.2811 24.5302 20.2811 24.5302C15.0525 21.4936 3.93032 6.97556 3.93032 6.97556C13.615 15.2228 17.8015 17.3969 17.8015 17.3969C15.304 15.3306 8.29652 5.23267 8.29652 5.23267C13.9025 10.9105 25.0426 18.8344 25.0426 18.8344C28.205 10.066 22.006 2.25 22.006 2.25Z"
          fill="#2F3747"/>
</svg>
