<svg width="48" height="48" viewBox="0 0 48 48" fill="none" xmlns="http://www.w3.org/2000/svg">
    <path d="M46.387 11.3431C46.4035 11.404 46.4119 11.4669 46.4121 11.53V21.3437C46.4121 21.4697 46.3788 21.5934 46.3157 21.7024C46.2526 21.8114 46.1618 21.9018 46.0525 21.9645L37.8157 26.7067V36.1063C37.8157 36.3621 37.6798 36.5982 37.4579 36.727L20.2643 46.6248C20.2249 46.6472 20.182 46.6615 20.1391 46.6767C20.123 46.6821 20.1078 46.6919 20.0908 46.6964C19.9706 46.728 19.8442 46.728 19.724 46.6964C19.7044 46.691 19.6865 46.6803 19.6677 46.6731C19.6283 46.6588 19.5872 46.6463 19.5496 46.6248L2.35956 36.727C2.25036 36.6643 2.15962 36.5739 2.0965 36.4649C2.03337 36.3559 2.00009 36.2322 2 36.1063V6.66521C2 6.60081 2.00894 6.5382 2.02504 6.47738C2.03041 6.45681 2.04293 6.43803 2.05009 6.41745C2.0635 6.37989 2.07603 6.34143 2.0957 6.30654C2.10912 6.28329 2.1288 6.26451 2.1449 6.24304C2.16547 6.21442 2.18425 6.1849 2.2084 6.15986C2.22897 6.13929 2.25581 6.12408 2.27906 6.10619C2.305 6.08473 2.32826 6.06147 2.35777 6.04448L10.9541 1.09559C11.063 1.03296 11.1864 1 11.3119 1C11.4375 1 11.5609 1.03296 11.6697 1.09559L20.2652 6.04448H20.267C20.2956 6.06236 20.3197 6.08473 20.3457 6.1053C20.3689 6.12319 20.3949 6.13929 20.4154 6.15896C20.4405 6.1849 20.4584 6.21442 20.4798 6.24304C20.495 6.26451 20.5156 6.28329 20.5281 6.30654C20.5487 6.34232 20.5603 6.37989 20.5746 6.41745C20.5818 6.43803 20.5943 6.45681 20.5997 6.47828C20.6162 6.53923 20.6246 6.60207 20.6247 6.66521V25.0538L27.7873 20.9296V11.5291C27.7873 11.4665 27.7963 11.403 27.8124 11.3431C27.8186 11.3216 27.8303 11.3028 27.8374 11.2823C27.8517 11.2447 27.8643 11.2062 27.8839 11.1714C27.8974 11.1481 27.917 11.1293 27.9322 11.1079C27.9537 11.0792 27.9716 11.0497 27.9966 11.0247C28.0172 11.0041 28.0431 10.9889 28.0664 10.971C28.0932 10.9495 28.1165 10.9263 28.1451 10.9093L36.7424 5.9604C36.8512 5.89769 36.9746 5.86467 37.1002 5.86467C37.2257 5.86467 37.3491 5.89769 37.4579 5.9604L46.0534 10.9093C46.0838 10.9272 46.1071 10.9495 46.1339 10.9701C46.1563 10.988 46.1822 11.0041 46.2028 11.0238C46.2278 11.0497 46.2457 11.0792 46.2672 11.1079C46.2833 11.1293 46.303 11.1481 46.3155 11.1714C46.3361 11.2062 46.3477 11.2447 46.362 11.2823C46.37 11.3028 46.3817 11.3216 46.387 11.3431ZM44.9792 20.9296V12.7688L41.9712 14.5004L37.8157 16.893V25.0538L44.9801 20.9296H44.9792ZM36.3837 35.6922V27.526L32.2962 29.8605L20.6238 36.5222V44.7653L36.3837 35.6922ZM3.43288 7.904V35.6922L19.191 44.7644V36.5231L10.9586 31.864L10.9559 31.8622L10.9524 31.8604C10.9246 31.8443 10.9014 31.8211 10.8754 31.8014C10.8531 31.7835 10.8271 31.7692 10.8075 31.7495L10.8057 31.7468C10.7824 31.7245 10.7663 31.6968 10.7466 31.6717C10.7288 31.6476 10.7073 31.627 10.693 31.602L10.6921 31.5993C10.676 31.5724 10.6661 31.5402 10.6545 31.5098C10.6429 31.483 10.6277 31.4579 10.6205 31.4293C10.6116 31.3953 10.6098 31.3587 10.6062 31.3238C10.6026 31.2969 10.5955 31.2701 10.5955 31.2433V12.0282L6.44085 9.63472L3.43288 7.904ZM11.3128 2.54278L4.15111 6.66521L11.311 10.7876L18.4718 6.66432L11.311 2.54278H11.3128ZM15.0372 28.2702L19.1919 25.8785V7.904L16.1839 9.63562L12.0284 12.0282V30.0027L15.0372 28.2702ZM37.1002 7.40759L29.9393 11.53L37.1002 15.6525L44.2601 11.5291L37.1002 7.40759ZM36.3837 16.893L32.2282 14.5004L29.2202 12.7688V20.9296L33.3749 23.3213L36.3837 25.0538V16.893ZM19.9065 35.2834L30.4098 29.2872L35.6601 26.2908L28.5047 22.1711L20.2661 26.9142L12.7573 31.237L19.9065 35.2834Z"
          fill="#2F3747"/>
</svg>
