<svg width="48" height="48" viewBox="0 0 48 48" fill="none" xmlns="http://www.w3.org/2000/svg">
    <path d="M40.5888 16.5518V8.47009C40.5888 7.64008 40.3704 6.85375 39.9335 6.11111C39.5404 5.41215 38.9288 4.80057 38.2298 4.40741C33.9487 2.17949 29.1434 1 24.2944 1C19.4454 1 14.6838 2.17949 10.359 4.40741C9.66002 4.84426 9.04843 5.41215 8.65527 6.11111C8.26211 6.81007 8.04368 7.64008 8 8.47009V20.6144L33.774 28.0845V33.5014C33.774 33.8509 33.6429 34.2004 33.3808 34.5062C33.1624 34.812 32.8566 35.0304 32.5071 35.1178L24.2507 39.2241L15.9506 35.0741C15.6011 34.943 15.339 34.7246 15.1206 34.4625C14.9022 34.1567 14.7711 33.8509 14.7711 33.4577V29.3951L8 27.3419V33.4577C8 35.0741 8.48053 36.6467 9.35423 38.0446C10.2279 39.3989 11.4948 40.491 12.9801 41.1463L24.2944 47L35.5651 41.1463C37.0503 40.491 38.3172 39.3989 39.1909 38.0446C40.0646 36.6904 40.5451 35.0741 40.5451 33.4577V23.2792L14.7711 15.8091V9.60589C17.7854 8.33903 21.018 7.68376 24.2507 7.68376C27.5271 7.68376 30.7597 8.33903 33.7303 9.60589V14.5423L40.5888 16.5518Z"
          fill="#2F3747"/>
</svg>
