<svg width="48" height="48" viewBox="0 0 48 48" fill="none" xmlns="http://www.w3.org/2000/svg">
    <path d="M43.3386 35.8975C40.8377 35.8351 38.8994 36.0852 37.2738 36.7729C36.8048 36.9603 36.0544 36.9605 35.9919 37.5545C36.242 37.8047 36.2733 38.2111 36.4922 38.5549C36.8677 39.18 37.5238 40.0242 38.1178 40.4621C38.7742 40.9621 39.431 41.4622 40.1184 41.8999C41.3378 42.6503 42.7135 43.0878 43.9014 43.8382C44.5894 44.2756 45.2767 44.8387 45.9646 45.3075C46.3085 45.5573 46.5272 45.9641 46.9651 46.1202V46.0266C46.746 45.745 46.6835 45.3388 46.4648 45.0261C46.1525 44.7135 45.8395 44.4321 45.5269 44.1194C44.6203 42.9004 43.4949 41.8374 42.2758 40.9621C41.2754 40.2743 39.0869 39.3365 38.6806 38.1797C38.6806 38.1797 38.6491 38.1486 38.618 38.1173C39.3057 38.0548 40.1184 37.8047 40.7752 37.6171C41.838 37.3355 42.8071 37.3982 43.9014 37.1168C44.4015 36.9918 44.9017 36.8354 45.4018 36.6791V36.3979C44.8394 35.8351 44.4329 35.0849 43.8389 34.5534C42.2445 33.1775 40.4936 31.8335 38.6806 30.7081C37.7113 30.0828 36.4607 29.6763 35.4291 29.145C35.0543 28.9572 34.4288 28.8636 34.2101 28.5509C33.6472 27.8633 33.3345 26.9567 32.9282 26.1438C32.0219 24.4242 31.1463 22.5174 30.3646 20.7043C29.8022 19.485 29.4583 18.2656 28.7705 17.1404C25.5505 11.8258 22.0491 8.6058 16.6721 5.44815C15.5153 4.79175 14.1398 4.51036 12.6705 4.16662C11.8892 4.13517 11.1074 4.07282 10.3259 4.04138C9.82564 3.82252 9.3254 3.22865 8.88768 2.94726C7.10607 1.8217 2.51021 -0.616483 1.19723 2.60352C0.353059 4.63542 2.44786 6.63606 3.16661 7.66801C3.69848 8.38694 4.38597 9.19967 4.76115 10.0126C4.98001 10.5437 5.04236 11.1069 5.26122 11.6695C5.76165 13.0446 6.23028 14.5768 6.88704 15.8587C7.23096 16.5151 7.60597 17.2028 8.04368 17.7968C8.29381 18.1406 8.73135 18.2971 8.82532 18.8597C8.38779 19.485 8.35634 20.4229 8.10604 21.2044C6.98065 24.7371 7.41855 29.1137 9.01274 31.7084C9.51281 32.4897 10.7009 34.2097 12.2953 33.5529C13.7022 32.9903 13.3896 31.2083 13.7957 29.6452C13.8898 29.2697 13.8273 29.0199 14.0147 28.7698V28.8325C14.4524 29.7076 14.89 30.5519 15.2964 31.4272C16.2656 32.9588 17.9536 34.5534 19.3604 35.6164C20.111 36.1788 20.7048 37.1481 21.6428 37.492V37.398H21.5801C21.3925 37.1166 21.1111 36.9918 20.8612 36.7727C20.2985 36.2103 19.6731 35.5224 19.2355 34.8971C17.9227 33.1463 16.7657 31.2081 15.7341 29.2073C15.2341 28.2385 14.7962 27.1754 14.3899 26.2064C14.2021 25.8308 14.2021 25.2684 13.8896 25.081C13.4207 25.7687 12.733 26.3627 12.3891 27.2067C11.7954 28.5509 11.7327 30.2078 11.5138 31.9271C11.3887 31.9587 11.4511 31.9271 11.3886 31.99C10.3884 31.7395 10.0445 30.7081 9.66914 29.8326C8.73117 27.6131 8.57484 24.0492 9.38793 21.4858C9.60679 20.8292 10.5448 18.766 10.1696 18.1407C9.98197 17.5467 9.35648 17.2028 9.01274 16.734C8.60647 16.1399 8.16857 15.3899 7.88736 14.7331C7.13698 12.9824 6.76179 11.0442 5.94907 9.29346C5.57388 8.48056 4.91766 7.63674 4.38597 6.88637C3.7921 6.04238 3.13552 5.44815 2.66654 4.44783C2.51039 4.10409 2.29135 3.54131 2.54147 3.16612C2.604 2.91599 2.72889 2.82238 2.97919 2.75985C3.38564 2.41574 4.54247 2.85346 4.94857 3.04106C6.10539 3.50968 7.07445 3.94776 8.04368 4.60416C8.48122 4.91681 8.95021 5.51086 9.51281 5.66719H10.1694C11.1699 5.88587 12.2951 5.72972 13.2331 6.01093C14.8901 6.54227 16.3905 7.32391 17.7349 8.16808C21.8304 10.7628 25.2064 14.4518 27.4887 18.8597C27.8639 19.5784 28.0201 20.2354 28.364 20.9854C29.0208 22.5174 29.8335 24.0805 30.4897 25.5811C31.1463 27.0502 31.7714 28.5509 32.7094 29.7703C33.1784 30.4265 35.0539 30.7706 35.8981 31.1145C36.5234 31.3957 37.4927 31.646 38.0553 31.9898C39.1181 32.646 40.181 33.3967 41.1815 34.1155C41.6817 34.4907 43.2446 35.2723 43.3386 35.8975Z"
          fill="#2F3747"/>
    <path d="M10.4554 10.7305C9.92402 10.7305 9.54902 10.7934 9.17383 10.887V10.9495H9.23636C9.48666 11.4498 9.92402 11.7937 10.2365 12.2312C10.4868 12.7313 10.7055 13.2317 10.9558 13.732C10.9869 13.7005 11.0181 13.6694 11.0181 13.6694C11.456 13.3566 11.6747 12.8565 11.6747 12.1062C11.4871 11.8875 11.4559 11.6686 11.2995 11.4498C11.1121 11.1369 10.7055 10.9808 10.4554 10.7305Z"
          fill="#2F3747"/>
</svg>
