<svg width="48" height="48" viewBox="0 0 48 48" fill="none" xmlns="http://www.w3.org/2000/svg">
    <path d="M30.7289 24.132L23.8203 36.5674L28.4622 24.3088L28.5329 24.1212L30.7289 24.132Z" fill="#2F3747"/>
    <path d="M25.3355 24.956L25.3214 25.0688L23.8203 36.5674L22.3182 25.0688L22.3037 24.956H23.8203" fill="#2F3747"/>
    <path d="M19.1773 24.3089L23.8207 36.5674L16.9111 24.132L19.1067 24.1212L19.1773 24.3089Z" fill="#2F3747"/>
    <path d="M16.8036 24.1858L16.856 24.2935L13.0334 23.6421L11.7803 20.5874L15.3226 21.2294L15.3516 21.2341L16.8022 24.1858"
          fill="#2F3747"/>
    <path d="M20.7441 21.3009L22.2378 25.0795L19.2177 24.2934" fill="#2F3747"/>
    <path d="M26.8956 21.3009L28.4215 24.2934L25.4015 25.0795" fill="#2F3747"/>
    <path d="M35.8589 20.5874L34.6058 23.6421L30.7832 24.2935L30.8361 24.1858H30.837L32.2881 21.2341L32.3166 21.2294"
          fill="#2F3747"/>
    <path d="M29.1299 13.9375L32.2777 21.0113L26.9844 21.0184V21.0174L27.6863 13.9244H29.1299" fill="#2F3747"/>
    <path d="M20.6552 21.0174L23.8203 13.9244L26.984 21.0174V21.0183H26.8956L23.8203 21.023L20.7441 21.0183H20.6552"
          fill="#2F3747"/>
    <path d="M20.6556 21.0174V21.0184L15.3623 21.0113L18.5106 13.9375V13.9244H19.9537" fill="#2F3747"/>
    <path d="M30.7837 24.2934L34.6062 23.642L23.8203 36.5674L30.7289 24.1315L30.8365 24.1858" fill="#2F3747"/>
    <path d="M28.4622 24.3088L23.8203 36.5674L25.3215 25.0688L25.4015 25.0795L28.4215 24.2934" fill="#2F3747"/>
    <path d="M22.3182 25.0688L23.8203 36.5674L19.177 24.3088L19.2177 24.2934L22.2378 25.0795" fill="#2F3747"/>
    <path d="M16.9108 24.132L23.8203 36.5674L13.033 23.642L16.8555 24.2934L16.8031 24.1858" fill="#2F3747"/>
    <path d="M20.6552 21.0183H20.7441V21.3009L19.2177 24.2934L19.177 24.3088L19.1063 24.1212L16.9108 24.132L16.8031 24.1858H16.8017L15.3511 21.234L15.3221 21.2293L15.3619 21.0113"
          fill="#2F3747"/>
    <path d="M25.3355 24.956H22.3037L22.3182 25.0688L22.2377 25.0791L20.7441 21.3009V21.0183L23.8203 21.023L26.8956 21.0183V21.3009L25.4015 25.0791L25.3214 25.0688"
          fill="#2F3747"/>
    <path d="M32.2778 21.0113L32.3171 21.2293L32.2885 21.234L30.8375 24.1858H30.8365L30.7289 24.132L28.5329 24.1212L28.4622 24.3088L28.4215 24.2934L26.8956 21.3009V21.0183H26.984"
          fill="#2F3747"/>
    <path d="M30.0606 13.9244L36.0333 20.1644L35.8597 20.5874L32.3175 21.2294L32.2782 21.0113L29.1299 13.9375V13.9244"
          fill="#2F3747"/>
    <path d="M27.6859 13.9244L26.984 21.0174L23.8203 13.9244" fill="#2F3747"/>
    <path d="M23.8203 13.9244L20.6552 21.0174L19.9533 13.9244" fill="#2F3747"/>
    <path d="M18.5102 13.9244V13.9375L15.3619 21.0113L15.3221 21.2293L11.7799 20.5873L11.6062 20.1643L17.579 13.9244"
          fill="#2F3747"/>
    <path d="M46.9997 23.9999C46.9997 27.0069 46.4223 29.8791 45.3732 32.5112L45.368 32.5089L41.9479 33.1893L39.8099 29.9979C40.5179 28.1342 40.9049 26.1117 40.9049 23.9999C40.9049 15.2182 34.2096 8.00073 25.6445 7.17389L25.6469 7.14862L27.9599 4.02702L26.2112 1.10522C37.8764 2.21704 46.9997 12.0437 46.9997 23.9999Z"
          fill="#2F3747"/>
    <path d="M41.4784 34.4448L44.8218 33.7799C41.1466 41.5926 33.2044 47 23.9996 47C14.7686 47 6.80809 41.5626 3.14648 33.7149L3.15116 33.7125L5.00185 30.7561L8.79073 31.3902H8.79213C11.5328 37.0236 17.3128 40.9052 23.9996 40.9052C30.7585 40.9052 36.5908 36.9385 39.296 31.2067L39.3161 31.2161"
          fill="#2F3747"/>
    <path d="M24.3318 7.09487V7.09861C24.2218 7.09627 24.1114 7.09487 24 7.09487C14.6637 7.09487 7.09487 14.6633 7.09487 24C7.09487 26.1839 7.50946 28.2694 8.26284 30.1861L8.24272 30.1945L4.41032 29.5535L2.60034 32.4439C1.56667 29.8305 1 26.9817 1 24C1 11.2974 11.2974 1 24 1C24.278 1 24.5536 1.00468 24.8292 1.01451L26.62 4.00789"
          fill="#2F3747"/>
</svg>
