<svg width="48" height="48" viewBox="0 0 48 48" fill="none" xmlns="http://www.w3.org/2000/svg">
    <path d="M30.6491 18.7352L26.471 20.1037L22.832 21.7107L21.816 21.9803C21.5568 22.2291 21.2872 22.4779 20.9866 22.7267C20.6652 23.0066 20.3645 23.2555 20.1364 23.4421C19.8772 23.6494 19.504 24.0226 19.307 24.2611C19.0167 24.624 18.7887 25.0076 18.6954 25.2978C18.5191 25.8266 18.602 26.3657 18.9442 26.8633C19.3692 27.4957 20.2297 28.1385 21.225 28.574C21.733 28.8021 22.5935 29.082 23.2363 29.2479C24.3042 29.5174 26.3777 29.8181 27.5181 29.8595C27.7462 29.8699 28.0572 29.8699 28.0676 29.8595C28.0883 29.8388 28.2749 29.507 28.4719 29.082C29.1769 27.6513 29.6745 26.3035 29.9544 25.1631C30.1203 24.4684 30.2447 23.5457 30.338 22.4468C30.3588 22.1358 30.3691 21.1094 30.3484 20.7673C30.3173 20.197 30.2655 19.7409 30.1929 19.2847C30.1825 19.2225 30.1722 19.1603 30.1825 19.1603C30.1929 19.1499 30.2344 19.1396 30.7527 18.9944L30.6491 18.7352ZM29.6952 19.2951C29.7367 19.2951 29.83 20.2696 29.8611 20.8813C29.8715 21.0057 29.8611 21.099 29.8611 21.099C29.8404 21.099 29.3324 20.7984 28.9592 20.5703C28.6481 20.3733 28.0468 19.969 27.9535 19.8964C27.9224 19.8757 27.9224 19.8757 28.1816 19.7823C28.617 19.6268 29.6538 19.2951 29.6952 19.2951ZM27.5596 20.0001C27.5907 20.0001 27.6632 20.0415 27.8395 20.1452C28.4926 20.5495 29.3739 21.0472 29.7575 21.2131C29.8715 21.2649 29.8819 21.2442 29.6227 21.4308C29.0525 21.8247 28.3267 22.2083 27.4559 22.5919C27.3004 22.6645 27.176 22.7163 27.1656 22.7163C27.1552 22.7163 27.176 22.6334 27.2071 22.5401C27.4144 21.7522 27.5388 20.9539 27.5492 20.3215C27.5284 20.0001 27.5284 20.0001 27.5596 20.0001ZM27.1241 20.1659C27.1449 20.1867 27.1345 20.8917 27.1034 21.0886C27.0515 21.5448 26.9582 21.9803 26.8131 22.4675C26.782 22.5816 26.7509 22.6852 26.7405 22.6852C26.7301 22.706 26.2947 22.2809 26.1496 22.115C25.9008 21.8351 25.7141 21.5448 25.569 21.2649C25.4964 21.1198 25.3824 20.8398 25.3927 20.8398C25.4446 20.7984 27.1137 20.1556 27.1241 20.1659ZM25.061 20.9746C25.0817 20.985 25.1025 21.0368 25.1128 21.0886C25.2165 21.3686 25.4446 21.7729 25.6416 22.0217C25.8593 22.3016 26.1392 22.6127 26.3673 22.8096C26.4399 22.8719 26.5124 22.9341 26.5228 22.9444C26.5435 22.9652 26.5435 22.9652 26.0355 23.1518C25.4342 23.3799 24.7914 23.6079 24.045 23.8464C23.8687 23.9086 23.6925 23.9604 23.5162 24.0226C23.4851 24.033 23.4955 24.0123 23.5784 23.8879C23.9517 23.3073 24.5115 22.1772 24.8225 21.3686C24.8744 21.2338 24.9262 21.0886 24.9366 21.0575C24.9469 21.0161 24.9677 20.9953 25.0092 20.9746C25.0299 20.985 25.0506 20.9746 25.061 20.9746ZM24.4286 21.2338C24.4389 21.2442 24.2731 21.5759 24.1175 21.8869C23.8065 22.4883 23.4748 23.0688 23.029 23.7842C22.9564 23.9086 22.8838 24.0226 22.8734 24.033C22.8527 24.0537 22.8527 24.0537 22.8009 23.9501C22.6972 23.7427 22.6039 23.4628 22.5624 23.214C22.5106 22.9652 22.521 22.5401 22.5832 22.2705C22.6246 22.0736 22.6246 22.0736 22.7179 22.0321C23.1015 21.8351 24.4078 21.2234 24.4286 21.2338ZM29.8715 21.4619V21.5967C29.8715 22.3016 29.7989 23.2658 29.6849 23.9708C29.6641 24.0952 29.6538 24.1989 29.6434 24.1989C29.6434 24.1989 29.5501 24.1782 29.4464 24.1471C28.9695 24.0019 28.4615 23.7842 27.995 23.525C27.684 23.3591 27.2382 23.0792 27.2589 23.0688C27.2589 23.0688 27.3937 22.9963 27.5492 22.9133C28.1712 22.5919 28.7622 22.2394 29.2805 21.8973C29.4775 21.7729 29.7678 21.5552 29.83 21.5033L29.8715 21.4619ZM22.0441 22.395C22.0544 22.395 22.0544 22.4157 22.0337 22.5297C22.0233 22.6127 22.0026 22.7682 22.0026 22.8719C21.9818 23.328 22.0544 23.6702 22.2825 24.1367C22.3447 24.2611 22.3965 24.3751 22.3965 24.3751C22.3758 24.3959 20.2816 25.0076 19.6284 25.1838C19.4314 25.2356 19.2656 25.2875 19.2448 25.2875C19.2241 25.2978 19.2241 25.2875 19.2241 25.2356C19.2967 24.7691 19.6492 24.1678 20.1468 23.6494C20.4786 23.3073 20.7377 23.1103 21.1835 22.8511C21.5049 22.6852 21.9922 22.4053 22.0441 22.395C22.0337 22.395 22.0337 22.395 22.0441 22.395ZM26.9686 23.2762C26.9686 23.2762 27.0515 23.3177 27.1345 23.3695C27.8084 23.7635 28.7518 24.1263 29.5501 24.3129L29.6227 24.3337L29.519 24.3855C29.0939 24.624 27.7151 25.1942 26.3051 25.7229C26.0977 25.7955 25.9008 25.8784 25.8593 25.8888C25.8178 25.9095 25.7867 25.9095 25.7867 25.9095C25.7867 25.9095 25.8385 25.7955 25.9111 25.6607C26.3051 24.9246 26.699 24.0226 26.9064 23.4006C26.9479 23.328 26.9686 23.2762 26.9686 23.2762ZM26.471 23.4421C26.471 23.4421 26.4502 23.5146 26.4191 23.5872C26.1392 24.2507 25.7867 24.9765 25.3202 25.7955C25.2061 26.0028 25.1025 26.1687 25.1025 26.1687C25.1025 26.1687 25.0091 26.1169 24.8951 26.0443C24.2212 25.6296 23.6303 25.132 23.2467 24.6343L23.1948 24.5618L23.4851 24.4788C24.5115 24.1989 25.3927 23.8982 26.2636 23.525C26.3569 23.4835 26.4606 23.4421 26.471 23.4421ZM29.5916 24.5307C29.5916 24.6032 29.4361 25.2564 29.3013 25.7229C29.1872 26.1169 29.0939 26.4279 28.9177 26.9774C28.8451 27.2158 28.7725 27.4128 28.7725 27.4128C28.7725 27.4128 28.7518 27.4128 28.7311 27.4024C27.798 27.2366 26.9479 26.9981 26.1599 26.6767C25.9422 26.5834 25.6208 26.4486 25.6001 26.4279C25.5897 26.4175 25.7867 26.3346 26.0252 26.2309C27.4662 25.5985 28.9488 24.8935 29.4672 24.5825C29.5294 24.5514 29.5812 24.5307 29.5916 24.5307ZM22.3862 24.7795C22.3965 24.7898 21.9922 25.36 21.4324 26.148C21.2354 26.4279 21.0073 26.7493 20.9244 26.8633C20.8414 26.9877 20.7066 27.1744 20.6341 27.2884L20.4993 27.4958L20.3542 27.3713C20.1883 27.2366 19.898 26.9359 19.7632 26.77C19.4937 26.4279 19.307 26.0754 19.2345 25.754C19.2034 25.5985 19.2034 25.5259 19.2345 25.5156C19.2863 25.5052 20.1261 25.3082 20.914 25.1216C21.3494 25.0179 21.8574 24.9039 22.0441 24.852C22.2307 24.8106 22.3758 24.7795 22.3862 24.7795ZM22.7905 24.935L22.8942 25.049C23.3504 25.557 23.8169 25.9303 24.3767 26.262C24.4804 26.3139 24.553 26.3657 24.5426 26.3761C24.5219 26.3968 22.5935 27.0811 21.6916 27.3817C21.1939 27.558 20.7792 27.7031 20.7689 27.7031L20.7066 27.6616L20.6548 27.6202L20.7481 27.4854C21.0488 27.0603 21.422 26.5834 22.2307 25.6089L22.7905 24.935ZM25.3098 26.7389C25.3098 26.7389 25.455 26.7908 25.6208 26.853C26.0355 27.0085 26.3569 27.1018 26.7924 27.2158C27.3315 27.3506 28.109 27.4854 28.5652 27.5269C28.6378 27.5372 28.6689 27.5372 28.6585 27.5476C28.6378 27.558 28.1712 27.7135 27.8291 27.8275C27.29 27.9934 25.6312 28.491 24.2731 28.8746C24.0242 28.9472 23.8065 29.0094 23.7962 29.0094C23.7651 29.0198 23.6614 28.9887 23.6614 28.9783C23.6614 28.9679 23.7339 28.8746 23.8273 28.771C24.2834 28.2318 24.7292 27.6202 25.1128 27.0499C25.2165 26.8633 25.3098 26.7389 25.3098 26.7389ZM24.75 26.7493C24.75 26.7493 24.5322 27.1122 24.1383 27.7342C23.9724 27.9934 23.7858 28.294 23.7132 28.3977C23.651 28.5014 23.5577 28.6569 23.5059 28.7502L23.4126 28.9161L23.3607 28.9057C23.2467 28.8746 22.4484 28.5947 22.241 28.5118C21.9818 28.4081 21.7123 28.2837 21.5049 28.1696C21.2561 28.0349 20.9347 27.8275 20.9658 27.8275C20.9762 27.8275 21.4013 27.7031 21.93 27.5683C23.3089 27.1951 24.0761 26.9774 24.5841 26.8115C24.667 26.77 24.75 26.7493 24.75 26.7493ZM28.6792 27.672C28.7 27.7031 28.1816 29.1234 27.995 29.5692C27.9535 29.6729 27.9431 29.6937 27.912 29.6937C27.8602 29.6937 27.1137 29.59 26.6679 29.5174C25.88 29.393 24.5633 29.1649 24.2316 29.0923L24.159 29.0716L24.6256 28.9679C25.6416 28.7398 26.1185 28.6154 26.6161 28.4703C27.2382 28.2837 27.8498 28.0452 28.4719 27.7549C28.5756 27.7135 28.6585 27.672 28.6792 27.672Z"
          fill="#2F3747"/>
    <path d="M26.3361 9.0002C26.2635 8.98983 25.1438 9.39416 24.4181 9.68445C23.4436 10.0784 22.6868 10.462 22.2202 10.7938C22.044 10.9182 21.8263 11.1359 21.7952 11.2188C21.7848 11.2499 21.7744 11.2914 21.7744 11.3225L22.1995 11.7268L23.2051 12.0482L25.6 12.4733L28.337 12.9398L28.3681 12.7014H28.3474L27.9845 12.6495L27.912 12.5251C27.5387 11.872 27.124 11.053 26.8856 10.5035C26.699 10.0784 26.5227 9.58077 26.4294 9.22828C26.3776 9.01056 26.3672 9.0002 26.3361 9.0002ZM26.2843 9.15571C26.2946 9.15571 26.305 9.24902 26.3154 9.35269C26.3672 9.79849 26.4709 10.2236 26.6264 10.6797C26.7404 11.0322 26.7404 11.0115 26.6057 10.97C26.2843 10.8767 24.8432 10.6279 23.7961 10.4827C23.6302 10.462 23.485 10.4413 23.485 10.4309C23.4747 10.4205 24.2419 10.0162 24.5736 9.8607C25.0091 9.66371 26.2013 9.17644 26.2843 9.15571ZM23.2362 10.5761L23.3606 10.6175C24.0345 10.8456 25.7141 11.167 26.6471 11.2396C26.7508 11.2499 26.8441 11.2603 26.8441 11.2603C26.8441 11.2603 26.7612 11.3121 26.6471 11.364C26.2013 11.5921 25.7037 11.8616 25.3616 12.0793C25.2579 12.1415 25.1646 12.1934 25.1542 12.1934C25.1438 12.1934 25.0713 12.183 25.0091 12.1726L24.8847 12.1519L24.5736 11.8409C24.0138 11.3018 23.5784 10.8871 23.4125 10.7212L23.2362 10.5761ZM23.1118 10.6694L23.5576 11.2292C23.7961 11.5402 24.0449 11.8305 24.0967 11.9031C24.1486 11.9653 24.19 12.0275 24.19 12.0275C24.1797 12.0379 23.5473 11.9135 23.2155 11.8409C22.8734 11.7579 22.7282 11.7268 22.5209 11.6543L22.3446 11.6024V11.561C22.3446 11.3536 22.6142 11.0322 23.0703 10.7108L23.1118 10.6694ZM26.8959 11.4262C26.9063 11.4262 26.9271 11.4573 26.9582 11.5402C27.0618 11.7787 27.404 12.4111 27.4869 12.5355C27.5076 12.577 27.5595 12.577 27.1137 12.5044C26.0458 12.3282 25.7037 12.2763 25.7037 12.266C25.7037 12.266 25.7348 12.2452 25.7763 12.2141C26.108 12.0275 26.4398 11.7994 26.7404 11.5506C26.813 11.4884 26.8752 11.4366 26.8959 11.4262Z"
          fill="#6A778B"/>
    <path d="M21.8164 11.167C21.8164 11.167 21.7438 11.281 21.8164 11.4469C21.8579 11.5506 21.9823 11.675 22.1171 11.7994C22.1171 11.7994 23.527 13.1679 23.6929 13.3649C24.4705 14.2669 24.8126 15.1481 24.8437 16.3611C24.8644 17.149 24.7193 17.8333 24.3461 18.6316C23.6929 20.0623 22.3037 21.6485 20.168 23.4006L20.479 23.2969C20.676 23.1414 20.9559 22.9859 21.5987 22.6334C23.0916 21.8144 24.7608 21.0679 26.8135 20.3007C29.7683 19.1914 34.6306 17.8851 37.3987 17.4601L37.689 17.4186L37.6475 17.346C37.3987 16.952 37.2225 16.7136 37.0151 16.4544C36.4138 15.6976 35.6777 15.0963 34.7757 14.5883C33.542 13.8936 31.9351 13.3545 29.903 12.9502C29.5194 12.8776 28.6797 12.7325 27.9954 12.6288C26.544 12.4007 25.6109 12.2452 24.5845 12.069C24.2113 12.0068 23.6618 11.9135 23.2989 11.8305C23.1123 11.789 22.7495 11.7061 22.4592 11.6024C22.2104 11.5299 21.889 11.4365 21.8164 11.167ZM22.6354 11.9653C22.6354 11.9653 22.6873 11.986 22.7598 12.0068C22.8842 12.0482 23.0398 12.1001 23.216 12.1415C23.3508 12.183 23.4959 12.2141 23.6307 12.2556C23.8173 12.3074 23.9832 12.3489 23.9832 12.3489C24.0039 12.3696 24.3253 13.396 24.429 13.7796C24.4705 13.9247 24.5016 14.0595 24.5016 14.0595C24.5016 14.0595 24.4601 14.0077 24.4186 13.9351C24.0454 13.282 23.4648 12.6288 22.7909 12.0897C22.6976 12.0171 22.6354 11.9653 22.6354 11.9653ZM24.1906 12.3904C24.2113 12.3904 24.2735 12.4007 24.3564 12.4215C24.8955 12.5459 25.8597 12.7221 26.4714 12.8258C26.5751 12.8465 26.658 12.8569 26.658 12.8673C26.658 12.8776 26.6165 12.8984 26.5751 12.9191C26.4714 12.9709 26.0463 13.2198 25.9116 13.3131C25.5591 13.5515 25.248 13.8003 25.02 14.0284L24.8541 14.1943C24.8541 14.1943 24.8333 14.1425 24.823 14.0699C24.7089 13.6345 24.4705 12.9813 24.2528 12.5251C24.2113 12.4629 24.1802 12.3904 24.1906 12.3904C24.1802 12.3904 24.1802 12.3904 24.1906 12.3904ZM26.9172 12.9087C26.9379 12.9191 26.969 13.0228 27.0312 13.2612C27.1453 13.7174 27.1971 14.2358 27.1868 14.7127C27.1764 14.8474 27.1764 14.9719 27.166 14.9822L27.1556 15.0133L26.9898 14.9615C26.6476 14.8578 26.0982 14.6919 25.6316 14.5572C25.3621 14.4846 25.1444 14.4224 25.1444 14.412C25.1444 14.3913 25.5383 13.9973 25.7042 13.8522C26.0256 13.5722 26.8965 12.8984 26.9172 12.9087ZM27.1349 12.9398C27.1453 12.9295 28.4412 13.1575 29.0322 13.2716C29.4676 13.3545 30.1104 13.4893 30.1519 13.51C30.1726 13.5204 30.1 13.5515 29.8927 13.6448C29.0633 14.018 28.4412 14.3602 27.8192 14.7645C27.6533 14.8682 27.5185 14.9615 27.5185 14.9615C27.5185 14.9615 27.5081 14.8682 27.5081 14.7645C27.5081 14.1632 27.3837 13.5619 27.166 13.0435C27.1556 12.9917 27.1349 12.9502 27.1349 12.9398ZM30.494 13.6033C30.5043 13.6137 30.4629 13.8729 30.4214 14.018C30.3074 14.4846 29.9963 15.1896 29.6231 15.8427C29.5609 15.9568 29.4987 16.0501 29.4883 16.0604C29.478 16.0604 29.395 16.019 29.3017 15.9568C28.9389 15.7391 28.5138 15.5421 28.068 15.3555C27.9436 15.3036 27.8295 15.2621 27.8295 15.2518C27.8088 15.231 28.8248 14.5572 29.3639 14.2358C29.789 13.9766 30.4836 13.593 30.494 13.6033ZM30.7324 13.6448C30.7635 13.6448 31.3337 13.8003 31.6344 13.8936C32.3809 14.1114 33.231 14.4224 33.7805 14.6816L34.0086 14.7852L33.8427 14.8267C32.4845 15.1377 31.3234 15.5006 30.2037 15.9568C30.1104 15.9982 30.0274 16.0293 30.0274 16.0293C30.0171 16.0293 30.0482 15.9568 30.0896 15.8635C30.4318 15.1481 30.6495 14.4016 30.7013 13.7589C30.7221 13.6967 30.7324 13.6448 30.7324 13.6448ZM25.0096 14.9615C25.02 14.9511 25.4554 15.0548 25.6938 15.1274C26.0567 15.231 26.8135 15.4799 26.8135 15.5006C26.8135 15.5006 26.7306 15.5732 26.6269 15.6665C26.2122 16.0086 25.8182 16.3715 25.3413 16.838C25.1962 16.9728 25.0822 17.0868 25.0718 17.0868C25.0614 17.0868 25.0614 17.0661 25.0614 17.0454C25.134 16.5166 25.1133 15.8324 25.02 15.1377C25.02 15.0341 25.0096 14.9615 25.0096 14.9615ZM34.2366 14.9719C34.247 14.9822 34.0293 15.3036 33.9049 15.4902C33.7183 15.7598 33.4383 16.1226 32.8059 16.9106C32.4742 17.3253 32.1009 17.8022 31.9765 17.9577C31.8521 18.1132 31.7484 18.248 31.7381 18.248C31.7381 18.248 31.6966 18.1961 31.6448 18.1236C31.2923 17.5948 30.8672 17.1283 30.3696 16.7136C30.2763 16.6307 30.1726 16.5477 30.1311 16.527C30.1 16.5062 30.0689 16.4751 30.0689 16.4751C30.0689 16.4648 30.608 16.2367 31.0124 16.0708C31.7277 15.7805 32.7023 15.428 33.428 15.2103C33.8219 15.0755 34.2366 14.9615 34.2366 14.9719ZM34.4855 15.0341C34.4958 15.0341 34.5788 15.0652 34.6617 15.1274C35.4289 15.5628 36.1857 16.133 36.7767 16.7136C36.9426 16.8795 37.3573 17.3045 37.3469 17.3149C37.3469 17.3149 37.2017 17.3253 37.0359 17.3356C35.7088 17.4393 34.0086 17.7192 32.3705 18.1132C32.2565 18.1339 32.1631 18.165 32.1528 18.165C32.1424 18.165 32.2668 18.0406 32.4223 17.8955C33.3865 16.9728 33.8219 16.3818 34.3403 15.3451C34.4129 15.1688 34.4751 15.0444 34.4855 15.0341C34.4751 15.0341 34.4751 15.0341 34.4855 15.0341ZM27.4459 15.7494C27.4874 15.7598 27.9021 15.9568 28.2131 16.1019C28.4931 16.2471 28.9285 16.4751 28.9492 16.4855C28.9492 16.4855 28.8041 16.5684 28.6175 16.6618C28.0265 16.9624 27.5185 17.2423 26.9794 17.5637C26.8239 17.657 26.6995 17.7296 26.6995 17.7296C26.6891 17.7296 26.6891 17.7192 26.7721 17.5637C27.052 17.0454 27.2801 16.4233 27.4148 15.822C27.4252 15.7805 27.4356 15.7494 27.4459 15.7494ZM27.0416 15.8324C27.052 15.8427 26.9483 16.2263 26.8757 16.444C26.7513 16.8484 26.5232 17.346 26.3159 17.7296C26.264 17.8229 26.1915 17.9473 26.15 18.0199L26.0671 18.1443L25.8908 17.9784C25.6835 17.7814 25.5176 17.657 25.2999 17.543C25.2169 17.5015 25.1444 17.4601 25.1444 17.4497C25.1444 17.4289 25.6835 16.9313 26.0982 16.5788C26.3988 16.3196 27.0312 15.822 27.0416 15.8324ZM29.5505 16.8587L29.706 16.9624C30.0585 17.1905 30.4732 17.5015 30.7946 17.7711C30.9709 17.9162 31.3234 18.2272 31.396 18.3102L31.4374 18.3517L31.1782 18.4242C29.7268 18.8286 28.6175 19.1811 27.3112 19.658C27.166 19.7098 27.0416 19.7513 27.0312 19.7513C27.0105 19.7513 27.0001 19.772 27.3215 19.4713C28.1509 18.7041 28.8974 17.854 29.4469 17.035L29.5505 16.8587ZM28.887 17.0246C28.8974 17.035 28.462 17.6363 28.2028 17.9888C27.8917 18.4035 27.3423 19.0877 26.969 19.5335C26.8135 19.7202 26.6787 19.8757 26.6684 19.8757C26.658 19.8757 26.658 19.8342 26.658 19.7616C26.658 19.378 26.5647 18.9737 26.3885 18.6212C26.3159 18.4761 26.3055 18.445 26.3159 18.4242C26.3781 18.3724 27.2904 17.8436 27.8814 17.5326C28.265 17.3253 28.8767 17.0143 28.887 17.0246ZM24.8955 17.9992C24.9059 17.9992 24.9785 18.0406 25.0614 18.0821C25.2584 18.1961 25.445 18.3206 25.6005 18.445C25.6109 18.4553 25.528 18.5175 25.4139 18.6005C25.1133 18.8182 24.6571 19.1603 24.3979 19.3677C24.118 19.5854 24.1076 19.5958 24.1387 19.5439C24.3461 19.2225 24.4497 19.0463 24.5638 18.8182C24.6571 18.6108 24.7608 18.3724 24.8333 18.1547C24.8541 18.0717 24.8852 17.9992 24.8955 17.9992ZM25.9634 18.8389C25.9841 18.8389 25.9945 18.8597 26.0878 18.9944C26.264 19.264 26.4092 19.6269 26.4403 19.9171L26.4507 19.9793L26.0152 20.1452C25.2377 20.4459 24.5223 20.7465 24.0454 20.9643C23.9106 21.0265 23.6722 21.1405 23.5167 21.2131C23.3612 21.296 23.2367 21.3479 23.2367 21.3479C23.2367 21.3479 23.3301 21.2753 23.4545 21.182C24.3979 20.4977 25.2169 19.7409 25.8286 18.9944C25.8908 18.9115 25.953 18.8389 25.9634 18.8389ZM25.4761 18.953C25.4865 18.9633 25.1236 19.378 24.8852 19.6269C24.2735 20.2489 23.6722 20.7362 22.9257 21.2131C22.8324 21.2753 22.7495 21.3271 22.7391 21.3375C22.7184 21.3479 22.7495 21.3168 23.0709 20.9643C23.2782 20.7362 23.4337 20.5496 23.6203 20.3215C23.7447 20.166 23.7655 20.1452 23.9314 20.0208C24.3875 19.6683 25.4554 18.9426 25.4761 18.953Z"
          fill="#243752"/>
    <path d="M11.791 32.0367C11.7288 32.0367 11.677 32.0471 11.6148 32.0471C10.4329 32.1093 9.64496 32.6277 9.17842 33.6437C8.78446 34.556 8.82593 35.7587 9.17842 36.671C9.59312 37.573 10.267 38.0499 11.3867 38.2261C11.6251 38.2676 11.7807 38.392 12.2472 38.9311L12.8174 39.5946H13.8438L13.1595 38.9104C12.7863 38.5372 12.4753 38.2054 12.4753 38.1743C12.4753 38.1432 12.6204 38.081 12.7967 38.0291C13.3772 37.8529 13.8542 37.4071 14.1859 36.7228C14.4555 36.1734 14.4969 36.0075 14.5384 35.3232C14.6421 33.2912 13.5742 32.0264 11.791 32.0367ZM12.693 37.3449C12.1954 37.5833 11.4696 37.6352 10.9927 37.4589C10.5055 37.2827 10.0286 36.7747 9.81084 36.1941C9.57238 35.5617 9.60349 34.4005 9.88341 33.8822C10.3188 33.0528 10.8994 32.6692 11.7392 32.6692C12.9833 32.6692 13.6986 33.4364 13.7919 34.8671C13.8645 36.0697 13.4602 36.9717 12.693 37.3449ZM30.4318 33.7681C29.9963 33.7681 29.6749 33.9444 29.4468 34.2865L29.2706 34.556V33.8511H28.5241V38.0914H29.2706V36.7332C29.2706 35.4891 29.281 35.344 29.4572 35.0122C29.6957 34.5457 30.1104 34.3176 30.5043 34.4213L30.7739 34.4938V33.7577L30.4318 33.7681ZM26.0567 33.7266C25.9115 33.7266 25.756 33.7474 25.6005 33.7785C24.6052 34.0377 24.0454 34.9915 24.0765 35.9764C24.0765 36.7954 24.232 37.2101 24.6363 37.6455C25.445 38.3091 26.1811 38.3609 27.1764 38.0084C27.3422 37.9358 27.5289 37.8529 27.5289 37.8529V37.1894L27.1764 37.376C26.3781 37.7285 25.7664 37.7285 25.2791 37.3138C24.9681 37.0028 24.8333 36.6192 24.7711 36.1941H27.7777V35.6239C27.7777 34.4524 27.0727 33.7163 26.0567 33.7266ZM24.8437 35.5928C24.8437 35.5928 24.9577 34.8671 25.3621 34.5768C25.559 34.442 25.7871 34.3694 26.0152 34.3694C26.2433 34.3694 26.461 34.442 26.6476 34.5871C27.0209 34.8774 27.0934 35.5928 27.0934 35.5928H24.8437ZM6.86647 34.8256C6.05781 34.3383 5.69495 33.9858 5.74678 33.5711C5.87119 32.4203 7.29154 32.5759 8.07947 33.0113L8.08983 32.2337C8.08983 32.2337 7.6544 32.0471 7.03235 32.0367C6.07854 32.0264 5.45649 32.3374 5.16621 32.9802C4.74114 33.9236 5.11437 34.639 6.48288 35.4269C7.25007 35.8727 7.5922 36.2563 7.5922 36.6814C7.5922 37.5522 6.54508 37.8529 5.4565 37.3138C5.22841 37.1997 5.0418 37.1064 5.03143 37.1064C4.98996 37.3553 5.01069 37.9462 5.01069 37.9462C5.01069 37.9462 5.34245 38.081 5.84009 38.1847C7.08419 38.4335 8.20388 37.8529 8.31792 36.9095C8.40086 36.0179 8.07947 35.5513 6.86647 34.8256ZM37.0358 33.7266C36.8907 33.7266 36.7352 33.7474 36.5797 33.7785C35.5844 34.0377 35.0245 34.9915 35.0556 35.9764C35.0556 36.7954 35.2112 37.2101 35.6155 37.6352C36.4242 38.2987 37.1602 38.3609 38.1659 37.998C38.3318 37.9255 38.5184 37.8425 38.5184 37.8425V37.179L38.1659 37.3656C37.3572 37.7181 36.7559 37.7181 36.2686 37.3034C35.9576 36.9924 35.8228 36.6192 35.7606 36.1837H38.7568V35.6135C38.7568 34.442 38.0518 33.7059 37.0358 33.7266ZM35.8125 35.5824C35.8125 35.5824 35.9265 34.8567 36.3308 34.5664C36.5278 34.4213 36.7559 34.3591 36.9736 34.3591C37.1913 34.3591 37.4194 34.4316 37.606 34.5768C37.9793 34.8671 38.0518 35.5824 38.0518 35.5824H35.8125ZM22.1481 34.836C21.3395 34.3487 20.987 33.9962 21.0284 33.5815C21.1529 32.4307 22.5732 32.5862 23.3611 33.0217L23.3715 32.2441C23.3715 32.2441 22.9361 32.0575 22.314 32.0471C21.3602 32.0367 20.7382 32.3478 20.4479 32.9906C20.0228 33.934 20.4064 34.6493 21.7645 35.4373C22.5317 35.8831 22.8635 36.2667 22.8635 36.6814C22.8635 37.5522 21.8164 37.8633 20.7278 37.3138C20.5101 37.1997 20.3131 37.1064 20.3027 37.1064C20.2613 37.3553 20.282 37.9462 20.282 37.9462C20.282 37.9462 20.6137 38.081 21.1114 38.1847C22.3555 38.4335 23.4752 37.8529 23.5892 36.9095C23.6825 36.0282 23.3611 35.5617 22.1481 34.836ZM41.4109 33.7577C40.9755 33.7577 40.6437 33.934 40.426 34.2761L40.2498 34.5457V33.8407H39.5033V38.081H40.2498V36.7332C40.2498 35.4891 40.2601 35.344 40.4364 35.0122C40.6748 34.5457 41.0895 34.3176 41.4835 34.4316L41.753 34.5042V33.7681L41.4109 33.7577ZM16.2179 34.8152V32.1093H15.4715V38.0914H18.6336V37.3864H16.2283L16.2179 34.8152ZM33.6042 35.655L32.9822 37.262L32.3912 35.6446L31.7899 33.8511H31.0227C31.5203 35.261 32.0594 36.7021 32.6089 38.0914C32.8474 38.1017 33.0858 38.0914 33.3243 38.0914L34.164 35.9868L35.0142 33.8407H34.2781C34.2677 33.8511 33.9463 34.7012 33.6042 35.655ZM17.9597 30.4816C18.0841 30.4816 18.1774 30.4402 18.2603 30.3572C18.3433 30.2743 18.3847 30.181 18.3847 30.0566C18.3847 29.9321 18.3433 29.8388 18.2603 29.7559C18.1774 29.6833 18.0841 29.6419 17.9597 29.6419C17.8353 29.6419 17.7316 29.6833 17.659 29.7663C17.5761 29.8492 17.5346 29.9529 17.5346 30.0669C17.5346 30.1913 17.5761 30.295 17.659 30.3676C17.7316 30.4402 17.8353 30.4816 17.9597 30.4816ZM17.6901 29.787C17.7627 29.7144 17.8456 29.6833 17.9597 29.6833C18.0634 29.6833 18.1567 29.7144 18.2292 29.787C18.3018 29.8596 18.3433 29.9425 18.3433 30.0566C18.3433 30.1602 18.3018 30.2535 18.2292 30.3261C18.1567 30.3987 18.0634 30.4298 17.9597 30.4298C17.856 30.4298 17.7627 30.3987 17.6901 30.3261C17.6175 30.2535 17.5761 30.1602 17.5761 30.0566C17.5864 29.9529 17.6175 29.8596 17.6901 29.787ZM17.8664 30.098H17.9182C17.9493 30.098 17.9908 30.1291 18.0115 30.1913L18.0737 30.3261H18.167L18.0945 30.181C18.0633 30.1188 18.0322 30.0877 18.0011 30.0773C18.0426 30.0669 18.0737 30.0566 18.1048 30.0255C18.1256 30.0047 18.1359 29.9632 18.1359 29.9321C18.1359 29.8907 18.1256 29.8596 18.0945 29.8285C18.0633 29.7974 18.0115 29.787 17.9389 29.787H17.7834V30.3261H17.856L17.8664 30.098ZM17.8664 29.8492H17.9389C17.9908 29.8492 18.0219 29.8596 18.0426 29.8699C18.0633 29.8803 18.0634 29.901 18.0634 29.9425C18.0634 30.0047 18.0219 30.0358 17.9493 30.0358H17.8664V29.8492ZM5.4565 30.0462C5.4565 29.8596 5.44613 29.7144 5.44613 29.6315C5.46686 29.7248 5.4876 29.7974 5.50833 29.8492L6.23406 31.4562H6.35847L7.08419 29.8285C7.10492 29.787 7.12566 29.7144 7.14639 29.6211H7.15676C7.14639 29.787 7.13603 29.9218 7.13603 30.0358V31.4562H7.38485V29.3412H7.07382L6.39994 30.8237C6.3792 30.886 6.33773 30.9689 6.29626 31.0829H6.28589C6.27553 31.0207 6.23406 30.9378 6.19259 30.8341L5.53944 29.3516H5.20768V31.4665H5.44613L5.4565 30.0462ZM7.91359 30.0566H8.13131V31.3732H7.91359V30.0566ZM8.01726 29.5693C8.05873 29.5693 8.1002 29.5589 8.13131 29.5278C8.16241 29.4967 8.18314 29.4656 8.18314 29.4138C8.18314 29.3723 8.17277 29.3308 8.13131 29.2997C8.1002 29.2686 8.05873 29.2583 8.01726 29.2583C7.97579 29.2583 7.93432 29.2686 7.90322 29.2997C7.87212 29.3308 7.85138 29.3723 7.85138 29.4138C7.85138 29.4656 7.86175 29.4967 7.90322 29.5278C7.93432 29.5589 7.97579 29.5693 8.01726 29.5693ZM9.64496 31.394V31.1659C9.53091 31.2488 9.40651 31.3007 9.27173 31.3007C9.11622 31.3007 8.99181 31.2488 8.8985 31.1451C8.80519 31.0415 8.75335 30.9067 8.75335 30.7304C8.75335 30.5438 8.80519 30.3987 8.8985 30.295C8.99181 30.1913 9.12658 30.1395 9.27173 30.1395C9.39614 30.1395 9.52055 30.181 9.63459 30.2535V29.9944C9.53091 29.9425 9.41687 29.9218 9.2821 29.9218C9.04364 29.9218 8.84666 29.9944 8.71188 30.1499C8.57711 30.295 8.50453 30.5024 8.50453 30.7512C8.50453 30.9689 8.56674 31.1555 8.70152 31.2903C8.83629 31.4354 9.01254 31.508 9.21989 31.508C9.39614 31.4976 9.53091 31.4665 9.64496 31.394ZM10.2566 30.6993C10.2566 30.5231 10.2981 30.3883 10.3707 30.2846C10.4433 30.2017 10.5158 30.1499 10.6195 30.1499C10.7024 30.1499 10.7646 30.1602 10.8061 30.2017V29.9529C10.775 29.9425 10.7232 29.9321 10.661 29.9321C10.578 29.9321 10.4951 29.9632 10.4329 30.0151C10.3603 30.0773 10.2981 30.1602 10.267 30.2743H10.2566V29.9632H10.0182V31.4769H10.2566V30.6993ZM11.6459 31.4976C11.874 31.4976 12.0606 31.4251 12.1954 31.2799C12.3301 31.1348 12.4027 30.9378 12.4027 30.6993C12.4027 30.4505 12.3405 30.2639 12.2161 30.1188C12.0917 29.9736 11.9154 29.9114 11.6874 29.9114C11.4593 29.9114 11.2727 29.984 11.1379 30.1084C10.9927 30.2535 10.9202 30.4609 10.9202 30.7201C10.9202 30.9482 10.9824 31.1348 11.1171 31.2799C11.2415 31.4251 11.4178 31.4976 11.6459 31.4976ZM11.3038 30.2743C11.3971 30.181 11.5215 30.1291 11.6666 30.1291C11.8221 30.1291 11.9362 30.181 12.0295 30.2743C12.1124 30.3779 12.1643 30.5231 12.1643 30.7097C12.1643 30.8963 12.1228 31.0415 12.0398 31.1348C11.9569 31.2384 11.8325 31.2903 11.677 31.2903C11.5215 31.2903 11.3971 31.2384 11.3038 31.1348C11.2104 31.0311 11.169 30.8963 11.169 30.7097C11.1586 30.5231 11.2001 30.3779 11.3038 30.2743ZM13.4498 31.3732C13.5431 31.2903 13.595 31.1866 13.595 31.0622C13.595 30.9482 13.5535 30.8549 13.4809 30.7823C13.4187 30.7201 13.3358 30.6682 13.201 30.6164C13.087 30.5646 13.0144 30.5231 12.9729 30.492C12.9314 30.4505 12.9107 30.409 12.9107 30.3365C12.9107 30.2743 12.9314 30.2224 12.9833 30.1913C13.0351 30.1499 13.0973 30.1291 13.1803 30.1291C13.315 30.1291 13.4187 30.1602 13.5224 30.2328V29.9944C13.4291 29.9425 13.315 29.9218 13.201 29.9218C13.0455 29.9218 12.9107 29.9632 12.8174 30.0462C12.7137 30.1291 12.6723 30.2328 12.6723 30.3572C12.6723 30.4713 12.7034 30.5646 12.7656 30.6268C12.8174 30.689 12.9107 30.7408 13.0351 30.7926C13.1595 30.8445 13.2425 30.8963 13.2839 30.9378C13.3254 30.9793 13.3461 31.0207 13.3461 31.0829C13.3461 31.2281 13.2528 31.3007 13.0559 31.3007C12.9107 31.3007 12.7759 31.2488 12.6619 31.1555V31.4147C12.7656 31.4769 12.89 31.508 13.0351 31.508C13.2114 31.4976 13.3565 31.4562 13.4498 31.3732ZM14.6006 29.9218C14.3725 29.9218 14.1859 29.9944 14.0511 30.1188C13.906 30.2639 13.8334 30.4713 13.8334 30.7304C13.8334 30.9585 13.8956 31.1451 14.0304 31.2903C14.1652 31.4354 14.3414 31.508 14.5695 31.508C14.7976 31.508 14.9842 31.4354 15.119 31.2903C15.2538 31.1451 15.3263 30.9482 15.3263 30.7097C15.3263 30.4609 15.2641 30.2743 15.1397 30.1291C15.0049 29.984 14.8287 29.9218 14.6006 29.9218ZM15.0775 30.7097C15.0775 30.8963 15.036 31.0415 14.9531 31.1348C14.8702 31.2384 14.7458 31.2903 14.5902 31.2903C14.4347 31.2903 14.3103 31.2384 14.217 31.1348C14.1237 31.0311 14.0822 30.8963 14.0822 30.7097C14.0822 30.5127 14.1341 30.3676 14.2274 30.2639C14.3207 30.1706 14.4451 30.1188 14.5902 30.1188C14.7354 30.1188 14.8598 30.1706 14.9427 30.2639C15.036 30.3676 15.0775 30.5127 15.0775 30.7097ZM15.7307 31.4665H15.9691V30.1602H16.3216V29.9529H15.9691V29.7248C15.9691 29.5174 16.0521 29.4034 16.2179 29.4034C16.2801 29.4034 16.332 29.4138 16.3735 29.4449V29.2272C16.332 29.2064 16.2698 29.2064 16.1972 29.2064C16.0624 29.2064 15.9588 29.2479 15.8758 29.3308C15.7721 29.4241 15.7203 29.5485 15.7203 29.7248V29.9736H15.4611V30.181H15.7203L15.7307 31.4665ZM16.7259 31.0518C16.7259 31.3421 16.8607 31.4976 17.1199 31.4976C17.2132 31.4976 17.2858 31.4873 17.348 31.4458V31.2384C17.3065 31.2696 17.2547 31.2903 17.1925 31.2903C17.1095 31.2903 17.0577 31.2695 17.0162 31.2281C16.9851 31.1866 16.9644 31.114 16.9644 31.0104V30.1602H17.348V29.9529H16.9644V29.5071C16.8815 29.5382 16.7985 29.5589 16.7259 29.5797V29.9425H16.4668V30.1499H16.7259V31.0518ZM42.6965 33.8407C42.6135 33.7681 42.5202 33.7266 42.3958 33.7266C42.2714 33.7266 42.1677 33.7681 42.0952 33.8511C42.0122 33.934 41.9708 34.0377 41.9708 34.1517C41.9708 34.2761 42.0122 34.3694 42.0952 34.4524C42.1781 34.5249 42.2818 34.5664 42.3958 34.5664C42.5202 34.5664 42.6135 34.5249 42.6965 34.442C42.7794 34.3591 42.8209 34.2658 42.8209 34.1413C42.8313 34.0169 42.7794 33.9133 42.6965 33.8407ZM42.6654 34.4109C42.5928 34.4835 42.5099 34.5146 42.3958 34.5146C42.2921 34.5146 42.1988 34.4835 42.1263 34.4109C42.0537 34.3383 42.0122 34.245 42.0122 34.1413C42.0122 34.0377 42.0433 33.9444 42.1159 33.8718C42.1885 33.7992 42.2714 33.7681 42.3855 33.7681C42.4891 33.7681 42.5824 33.7992 42.655 33.8718C42.7276 33.9444 42.7691 34.0377 42.7691 34.1413C42.7691 34.245 42.7379 34.3383 42.6654 34.4109ZM42.4477 34.1621C42.4891 34.1517 42.5202 34.131 42.5513 34.1102C42.5721 34.0895 42.5824 34.048 42.5824 34.0169C42.5824 33.9755 42.5721 33.9444 42.541 33.9133C42.5099 33.8822 42.458 33.8718 42.3855 33.8718H42.2299V34.4109H42.3025V34.1828H42.3544C42.3855 34.1828 42.4166 34.2139 42.4477 34.2761L42.5099 34.4109H42.6032L42.5306 34.2658C42.4995 34.2035 42.4684 34.1724 42.4477 34.1621ZM42.3958 34.1102H42.3129V33.934H42.3855C42.4373 33.934 42.4684 33.9444 42.4891 33.9547C42.5099 33.9651 42.5099 33.9858 42.5099 34.0273C42.4995 34.0895 42.4684 34.1102 42.3958 34.1102ZM28.887 29.8907H28.9596V29.3516H29.1358V29.279H28.7107V29.3516H28.887V29.8907ZM29.2913 29.4863V29.3619C29.2913 29.393 29.3017 29.4138 29.3121 29.4241L29.5194 29.8907H29.5505L29.7579 29.4241C29.7682 29.4138 29.7682 29.393 29.7786 29.3619V29.8907H29.8512V29.279H29.7682L29.5816 29.7041C29.5816 29.7144 29.5609 29.7455 29.5505 29.787H29.5401C29.5401 29.7663 29.5298 29.7455 29.509 29.7144L29.3224 29.2894H29.2291V29.901H29.3017L29.2913 29.4863Z"
          fill="#2F3747"/>
</svg>
