<svg width="48" height="48" viewBox="0 0 48 48" fill="none" xmlns="http://www.w3.org/2000/svg">
    <path d="M45.1887 34.4291C42.7343 35.7162 30.0201 40.9755 27.3133 42.3952C24.6065 43.8151 23.1028 43.8014 20.9644 42.773C18.8262 41.7446 5.29599 36.2461 2.85867 35.074C1.64064 34.4884 1 33.9939 1 33.5269V28.8501C1 28.8501 18.6148 24.9922 21.4585 23.9658C24.302 22.9393 25.2886 22.9023 27.7085 23.794C30.1288 24.6862 44.5989 27.3127 46.9906 28.194L46.9896 32.8046C46.9899 33.267 46.438 33.7741 45.1887 34.4291Z"
          fill="#2F3747"/>
    <path d="M45.1878 29.7799C42.7336 31.0664 30.0197 36.3259 27.3129 37.7455C24.6063 39.1655 23.1026 39.1516 20.9644 38.1232C18.826 37.0955 5.29631 31.5962 2.85917 30.4248C0.422023 29.2527 0.371002 28.4461 2.76503 27.503C5.15906 26.5595 18.6146 21.2485 21.4586 20.222C24.3021 19.196 25.2886 19.1586 27.7085 20.0507C30.1286 20.9425 42.7666 26.0034 45.158 26.8845C47.5502 27.7667 47.642 28.493 45.1878 29.7799Z"
          fill="#42526B"/>
    <path d="M45.1887 26.8618C42.7343 28.149 30.0201 33.4081 27.3133 34.8284C24.6065 36.2477 23.1028 36.234 20.9644 35.2056C18.826 34.1777 5.29599 28.6787 2.85867 27.5066C1.64064 26.921 1 26.4273 1 25.96V21.2827C1 21.2827 18.6148 17.425 21.4585 16.3986C24.302 15.3721 25.2886 15.3349 27.7085 16.2269C30.129 17.1188 44.5991 19.7448 46.9906 20.6262L46.9896 25.2375C46.9899 25.6996 46.438 26.2068 45.1887 26.8618Z"
          fill="#2F3747"/>
    <path d="M45.1878 22.2126C42.7336 23.4994 30.0197 28.7586 27.3129 30.1787C24.6063 31.5982 23.1026 31.5843 20.9644 30.5559C18.826 29.5282 5.29631 24.029 2.85917 22.8574C0.422023 21.6857 0.371002 20.8789 2.76503 19.9354C5.15906 18.9925 18.6147 13.6811 21.4586 12.6549C24.3021 11.6286 25.2886 11.5914 27.7085 12.4833C30.1286 13.3751 42.7666 18.4356 45.158 19.3171C47.5502 20.1991 47.642 20.9257 45.1878 22.2126Z"
          fill="#42526B"/>
    <path d="M45.1887 19.0139C42.7343 20.3007 30.0201 25.5602 27.3133 26.9805C24.6065 28.4 23.1028 28.3861 20.9644 27.3577C18.826 26.3298 5.29599 20.8306 2.85867 19.6591C1.64064 19.073 1 18.579 1 18.1123V13.4348C1 13.4348 18.6148 9.57726 21.4585 8.55102C24.302 7.52442 25.2886 7.48755 27.7085 8.37932C30.129 9.27127 44.5991 11.8972 46.9906 12.7787L46.9896 17.3897C46.9899 17.8515 46.438 18.3587 45.1887 19.0139Z"
          fill="#2F3747"/>
    <path d="M45.1877 14.3647C42.7335 15.6516 30.0196 20.9111 27.3128 22.3306C24.6062 23.7501 23.1025 23.7362 20.9643 22.7084C18.8261 21.6799 5.29622 16.1811 2.85926 15.0094C0.421933 13.8378 0.371092 13.0308 2.76494 12.0876C5.15897 11.1445 18.6146 5.83378 21.4585 4.80718C24.302 3.78076 25.2885 3.74389 27.7084 4.63584C30.1285 5.52779 42.7665 10.5883 45.1579 11.4698C47.5501 12.3511 47.6419 13.0778 45.1877 14.3647Z"
          fill="#42526B"/>
    <path d="M29.6155 9.81486L25.6614 10.2279L24.7762 12.3707L23.3466 9.97952L18.7807 9.56671L22.1876 8.33063L21.1654 6.43323L24.3551 7.68828L27.3621 6.69783L26.5494 8.65976L29.6155 9.81486ZM24.5402 20.2106L17.1606 17.1314L27.7349 15.4984L24.5402 20.2106ZM14.309 11.0059C17.4305 11.0059 19.9609 11.9928 19.9609 13.2099C19.9609 14.4273 17.4305 15.414 14.309 15.414C11.1876 15.414 8.65723 14.4272 8.65723 13.2099C8.65723 11.9928 11.1876 11.0059 14.309 11.0059Z"
          fill="white"/>
    <path d="M34.2881 10.4007L40.5464 12.8888L34.2935 15.3745L34.2881 10.4007Z" fill="#2F3747"/>
    <path d="M27.3643 13.156L34.288 10.4006L34.2934 15.3744L33.6145 15.6415L27.3643 13.156Z" fill="#42526B"/>
</svg>
