<svg width="48" height="48" viewBox="0 0 48 48" fill="none" xmlns="http://www.w3.org/2000/svg">
    <path d="M4.26924 24C4.26924 31.8103 8.80763 38.5596 15.389 41.7582L5.97745 15.97C4.84923 18.4966 4.26713 21.2329 4.26924 24ZM37.3189 23.0042C37.3189 20.5659 36.443 18.877 35.6919 17.5627C34.6917 15.9374 33.7542 14.561 33.7542 12.9356C33.7542 11.1218 35.1298 9.43333 37.0675 9.43333C37.155 9.43333 37.2378 9.44416 37.3231 9.44921C33.8128 6.233 29.1361 4.26943 23.9995 4.26943C17.1066 4.26943 11.0424 7.8062 7.51448 13.1631C7.97734 13.177 8.4135 13.1866 8.78419 13.1866C10.8478 13.1866 14.0423 12.9364 14.0423 12.9364C15.106 12.8736 15.2314 14.4358 14.1689 14.5617C14.1689 14.5617 13.1 14.6874 11.9106 14.7497L19.0959 36.1224L23.4137 23.172L20.3396 14.7491C19.2772 14.6869 18.2706 14.5612 18.2706 14.5612C17.2075 14.4987 17.3321 12.8731 18.3953 12.9358C18.3953 12.9358 21.6537 13.1862 23.5922 13.1862C25.6558 13.1862 28.8505 12.9358 28.8505 12.9358C29.9148 12.8731 30.04 14.4352 28.9772 14.5612C28.9772 14.5612 27.9061 14.6869 26.7188 14.7491L33.8491 35.9598L35.8171 29.3831C36.6699 26.6539 37.3191 24.6938 37.3191 23.0044L37.3189 23.0042ZM24.3457 25.726L18.4259 42.9287C20.2358 43.4618 22.1128 43.7325 23.9995 43.7326C26.2971 43.7326 28.5004 43.3353 30.5515 42.6141C30.4968 42.5278 30.4498 42.4369 30.411 42.3423L24.3457 25.726ZM41.312 14.5336C41.3968 15.162 41.445 15.8367 41.445 16.5624C41.445 18.5648 41.071 20.8155 39.9447 23.6298L33.918 41.0557C39.7837 37.6349 43.729 31.2797 43.729 24.0005C43.7293 20.57 42.8532 17.3441 41.312 14.5336ZM23.9995 1C11.3178 1 1 11.3177 1 24C1 36.6839 11.3178 47.0013 23.9995 47.0013C36.6807 47.0013 47 36.6839 47 24C46.9998 11.3177 36.6807 1 23.9995 1ZM23.9995 45.9471C11.8996 45.9471 2.05451 36.1016 2.05451 24C2.05451 11.8993 11.899 2.05457 23.9995 2.05457C36.0992 2.05457 45.9433 11.8993 45.9433 24C45.9433 36.1016 36.0992 45.9471 23.9995 45.9471Z"
          fill="#2F3747"/>
</svg>
