<svg width="48" height="48" viewBox="0 0 48 48" fill="none" xmlns="http://www.w3.org/2000/svg">
    <path fill-rule="evenodd" clip-rule="evenodd"
          d="M26.4832 12.2635C25.2834 9.46468 25.4501 6.31199 27.1924 3.77339L28.4823 2C26.0826 6.30243 28.3558 11.5843 32.032 14.3582C32.6587 14.8327 33.3334 15.2459 34.1192 15.6285L34.0464 15.596C34.4553 15.792 34.8751 15.9644 35.3038 16.1125L35.2405 16.0915C35.585 16.221 35.937 16.3296 36.2947 16.4167C40.4049 17.4088 43.7552 16.7257 45.7548 13.8805C45.693 13.9695 45.6144 14.1083 45.5146 14.2846C44.6186 15.8676 42.0155 20.4665 34.4777 19.0222C34.342 18.9923 34.2085 18.9486 34.0763 18.9053C34.031 18.8904 33.986 18.8757 33.941 18.8615L33.7723 18.8099C33.7304 18.7949 33.6893 18.7805 33.6486 18.7663C33.5647 18.7369 33.4825 18.7082 33.3986 18.676C30.3626 17.5702 27.7578 15.2363 26.4832 12.2635ZM19.5549 26.4486L19.7274 26.6208C19.946 26.8312 20.1702 27.0359 20.3983 27.2406L20.427 27.2655C20.657 27.4682 20.9158 27.6806 21.1822 27.8872L21.2225 27.9178C21.2568 27.941 21.2884 27.9662 21.3199 27.9914C21.3483 28.0141 21.3765 28.0366 21.4065 28.0575C21.6748 28.2641 21.945 28.4611 22.2268 28.6582L22.2555 28.6754C22.3661 28.7554 22.4832 28.8289 22.607 28.9065L22.6071 28.9066L22.6351 28.9241C22.6572 28.9383 22.6806 28.9544 22.7045 28.9709C22.7386 28.9944 22.7737 29.0186 22.8076 29.0388C23.0015 29.1631 23.192 29.2785 23.3874 29.397L23.3877 29.3972L23.4151 29.4138C23.4329 29.4211 23.4496 29.4296 23.466 29.4379L23.466 29.4379C23.4739 29.4419 23.4817 29.4459 23.4896 29.4497C23.4954 29.4525 23.5012 29.4552 23.5071 29.4578C23.6796 29.563 23.8675 29.6644 24.0476 29.7562C24.0858 29.7793 24.1232 29.7989 24.1612 29.8188C24.1862 29.8319 24.2115 29.8451 24.2374 29.8595C24.3658 29.9227 24.4923 29.9896 24.615 30.0547L24.6763 30.0815C24.919 30.1999 25.1667 30.3115 25.41 30.4212L25.4583 30.443L25.4638 30.4451L25.4638 30.4451C25.5266 30.4691 25.5806 30.4897 25.6347 30.5157C25.8474 30.6075 26.064 30.6955 26.2767 30.7759C26.3201 30.7906 26.3623 30.8065 26.4039 30.8221C26.4541 30.8411 26.5034 30.8597 26.5527 30.8754C26.689 30.926 26.83 30.9739 26.9684 31.021L26.9688 31.0211C27.0288 31.0415 27.0884 31.0617 27.1469 31.082L27.4152 31.1681C27.4889 31.1907 27.5628 31.2152 27.6372 31.2399C27.8454 31.3089 28.057 31.3791 28.2758 31.4129C43.4809 33.9114 46.9999 22.2858 46.9999 22.2858C43.8316 26.814 37.7001 28.9719 31.1662 27.2865C30.84 27.2044 30.5166 27.1119 30.1964 27.0091L30.268 27.0292C30.2804 27.0328 30.2929 27.0363 30.3056 27.0397L30.268 27.0292C30.224 27.0164 30.1821 27.003 30.1401 26.9894C30.1088 26.9793 30.0774 26.9692 30.0449 26.9594C29.9785 26.9364 29.9114 26.9137 29.8444 26.8909C29.7102 26.8455 29.576 26.8 29.4469 26.7528L29.1709 26.6495C29.1018 26.6217 29.0322 26.5946 28.9627 26.5675C28.8165 26.5104 28.6704 26.4534 28.5288 26.3912C28.506 26.3811 28.4838 26.3722 28.4625 26.3637C28.4231 26.3479 28.3868 26.3333 28.3544 26.3147L28.1933 26.2425C27.9783 26.1464 27.7633 26.0503 27.5532 25.9493L27.1584 25.7446L26.9303 25.6298C26.7732 25.548 26.6268 25.4632 26.4774 25.3766L26.4224 25.3448C26.3794 25.3246 26.3378 25.3016 26.2978 25.2759L26.3036 25.2778C26.2303 25.2323 26.1561 25.1873 26.082 25.1423L26.082 25.1423C25.9504 25.0625 25.8191 24.9829 25.6941 24.9009C25.6536 24.8784 25.6154 24.8529 25.5775 24.8276C25.5544 24.8122 25.5314 24.7968 25.5082 24.7823L25.1095 24.5241C24.9237 24.3953 24.7405 24.2605 24.557 24.1254L24.5569 24.1253C24.4678 24.0597 24.3787 23.9941 24.2891 23.9291C24.2477 23.8916 24.2071 23.8585 24.1667 23.8255L24.1667 23.8255C24.1474 23.8097 24.1282 23.7941 24.109 23.778C21.2359 21.534 18.9704 18.4674 17.8951 14.9952C16.7623 11.3853 17.0115 7.33733 18.9684 4.05264L16.563 7.43489C13.6094 11.6455 13.7762 17.2737 16.0762 21.7272C16.4959 22.5498 16.9214 23.2443 17.391 23.9062C17.4344 23.968 17.4782 24.031 17.5225 24.0946L17.5225 24.0946C17.9249 24.6726 18.3688 25.3103 18.8937 25.7618C19.1007 25.9971 19.323 26.2209 19.5549 26.4486ZM3.6944 32.314C3.73849 32.4135 3.78832 32.5053 3.84199 32.5971C3.86607 32.6489 3.8991 32.7025 3.92897 32.7509L3.93207 32.7559C3.96972 32.8311 4.00955 32.904 4.0491 32.9765L4.04911 32.9765L4.08732 33.0467L4.38824 33.5518L4.40083 33.573C4.452 33.6594 4.50228 33.7443 4.56074 33.8291C4.61857 33.9278 4.68215 34.0253 4.74582 34.1229C4.79822 34.2032 4.85067 34.2836 4.9 34.3648C4.91424 34.3861 4.92816 34.4074 4.94209 34.4288C4.9769 34.482 5.01171 34.5353 5.05141 34.5886C5.26225 34.9157 5.45392 35.1874 5.659 35.4514C5.80467 35.6484 5.95033 35.8417 6.1075 36.0349C6.13855 36.0785 6.17166 36.1221 6.20478 36.1657C6.22686 36.1948 6.24895 36.2239 6.27042 36.253L6.69401 36.7657C6.71659 36.7915 6.73918 36.8192 6.76208 36.8473C6.79166 36.8836 6.82176 36.9205 6.85309 36.955C7.01128 37.1452 7.17763 37.3298 7.34526 37.516L7.34534 37.516L7.43959 37.6208C7.43959 37.6231 7.44174 37.6255 7.44428 37.6282C7.4459 37.63 7.44768 37.6319 7.44918 37.6342C7.69643 37.9441 7.96285 38.2196 8.25418 38.4644L8.26185 38.4721C8.41518 38.629 8.56852 38.7839 8.73144 38.937L8.92502 39.1225C9.13777 39.3215 9.35052 39.5185 9.57478 39.7098C9.5771 39.7098 9.57872 39.7112 9.58048 39.7128C9.58163 39.7138 9.58285 39.7148 9.58436 39.7156L9.69361 39.8112C9.88911 39.9815 10.0865 40.1498 10.2878 40.3067L10.5274 40.5076C10.6292 40.5889 10.7333 40.6672 10.8378 40.7458L10.8382 40.7461C10.9007 40.7932 10.9633 40.8403 11.0257 40.8883L11.2864 41.0872C11.409 41.1794 11.5372 41.2697 11.6645 41.3595C11.7222 41.4002 11.7797 41.4407 11.8365 41.4813C11.9035 41.5291 11.9706 41.577 12.0396 41.621L12.0952 41.6649L12.6338 42.0169L12.8638 42.17C13.1455 42.3498 13.4254 42.5182 13.7052 42.6865C13.7857 42.7267 13.8662 42.7707 13.941 42.8166C14.148 42.9352 14.3626 43.0557 14.5716 43.1648C14.6578 43.2135 14.7461 43.2569 14.835 43.3005C14.8647 43.3151 14.8945 43.3297 14.9242 43.3446C15.068 43.4249 15.2175 43.5034 15.3708 43.5837C15.413 43.5971 15.4475 43.6105 15.482 43.6296L15.4896 43.622C15.5402 43.6449 15.5882 43.669 15.6368 43.6934L15.6736 43.7119C15.9037 43.8267 16.1432 43.9357 16.3924 44.0429L16.4162 44.0527C16.4554 44.0687 16.4967 44.0857 16.5381 44.1079C16.8141 44.2284 17.0901 44.3432 17.3757 44.4542C17.4169 44.4663 17.4597 44.4837 17.5025 44.5012L17.5026 44.5013C17.5274 44.5114 17.5523 44.5216 17.5769 44.5307C17.8357 44.6283 18.1021 44.7277 18.3666 44.8215L18.4624 44.8559C18.7557 44.9554 19.0451 45.051 19.3441 45.1409C19.3749 45.1495 19.406 45.1592 19.4376 45.169L19.438 45.1691C19.477 45.1812 19.5166 45.1935 19.5568 45.2041C19.6379 45.2285 19.7183 45.2542 19.7985 45.2797C20.0196 45.3503 20.2389 45.4202 20.4653 45.4623C40.1554 49.0263 45.8767 33.7048 45.8767 33.7048C41.0696 39.9222 32.5385 41.5616 24.4597 39.7366C24.2347 39.6848 24.0096 39.6178 23.783 39.5503L23.7829 39.5502L23.7826 39.5502C23.7082 39.528 23.6337 39.5058 23.5589 39.4841C23.1314 39.3633 22.7077 39.23 22.2881 39.0843L22.4702 39.1397L22.3514 39.0938C22.1167 39.0146 21.8897 38.9276 21.6608 38.8398L21.5847 38.8107C21.5223 38.7843 21.459 38.76 21.3949 38.738L21.3739 38.7323C21.0921 38.6194 20.818 38.5046 20.5458 38.3841C20.5104 38.3727 20.4784 38.3586 20.4458 38.3442C20.4236 38.3344 20.4012 38.3245 20.3772 38.3152C20.0548 38.175 19.7353 38.0283 19.4188 37.8752L19.6833 37.9919C19.6143 37.9615 19.5465 37.9283 19.4802 37.8924C19.3445 37.829 19.2088 37.7591 19.0748 37.6901C19.0308 37.6674 18.987 37.6449 18.9435 37.6227C18.8092 37.5592 18.6769 37.4916 18.5468 37.4199L18.5851 37.439C18.4717 37.379 18.3584 37.3163 18.2448 37.2534L18.2447 37.2534C18.1412 37.1962 18.0375 37.1388 17.9334 37.0832C17.8831 37.0478 17.8271 37.0169 17.7698 36.9853C17.7529 36.976 17.7358 36.9666 17.7187 36.957C17.394 36.7685 17.0732 36.5734 16.7566 36.3716L16.8773 36.4443C16.7981 36.3954 16.7207 36.3438 16.6452 36.2895L16.6512 36.2931L16.6397 36.2855L16.6452 36.2895C16.4413 36.1643 16.2413 36.0328 16.0455 35.8952C16.007 35.8704 15.9706 35.8442 15.9334 35.8175L15.9332 35.8174L15.9331 35.8173C15.9073 35.7988 15.8812 35.7801 15.8538 35.7613C15.6473 35.6206 15.4441 35.4752 15.2443 35.3251L15.2903 35.3577C15.2254 35.3052 15.1567 35.2553 15.0874 35.2048L15.0872 35.2046L15.0373 35.1683C14.977 35.1211 14.9164 35.0746 14.8558 35.028L14.8557 35.028C14.7468 34.9444 14.6377 34.8607 14.5294 34.7723L14.3032 34.5924C14.0622 34.401 13.8257 34.2039 13.5941 34.0013L13.5921 33.9994L12.927 33.3968L12.7354 33.217C12.631 33.1115 12.525 33.0095 12.4184 32.9069L12.4184 32.9069L12.4181 32.9066C12.3642 32.8548 12.3102 32.8028 12.2562 32.7502L12.0703 32.5589C11.8719 32.3627 11.6782 32.1618 11.4895 31.9563L11.478 31.9429L11.4455 31.9161C11.2425 31.6936 11.0425 31.4685 10.8455 31.2408C10.8173 31.2084 10.7901 31.1748 10.7626 31.1408L10.7625 31.1407C10.7397 31.1125 10.7165 31.0839 10.6922 31.0552L10.2571 30.5291C10.061 30.2833 9.86929 30.0339 9.68211 29.7811L9.60544 29.674C5.12425 23.5982 3.50274 15.2134 7.08884 8.33406L3.92249 12.3304C-0.150454 18.1441 0.353632 25.7045 3.46824 31.8778C3.5259 32.0007 3.58862 32.1173 3.65127 32.2337L3.6944 32.314Z"
          fill="#2F3747"/>
</svg>
