<svg width="48" height="48" viewBox="0 0 48 48" fill="none" xmlns="http://www.w3.org/2000/svg">
    <path d="M9.61226 30.2903C9.61226 32.2142 8.27176 33.7894 6.63406 33.7894C4.99636 33.7894 3.6543 32.2158 3.6543 30.2903V18.8389C3.6543 16.915 4.9948 15.3399 6.63406 15.3399C8.27332 15.3399 9.61226 16.915 9.61226 18.8389V30.2903ZM44.3449 30.2903C44.3449 32.2142 43.0044 33.7894 41.3651 33.7894C39.7259 33.7894 38.3854 32.2158 38.3854 30.2903V18.8389C38.3854 16.915 39.7259 15.3399 41.3651 15.3399C43.0044 15.3399 44.3449 16.915 44.3449 18.8389V30.2903ZM30.5128 4.27172L32.4243 0.841476C32.5807 0.561487 32.5338 0.234574 32.3226 0.11726C32.1114 -5.34585e-05 31.808 0.131338 31.6531 0.411326L29.6979 3.92135C27.861 3.20699 25.9063 2.84406 23.9355 2.85145C21.8551 2.85145 19.8874 3.24249 18.1323 3.93855L16.1677 0.41289C16.0113 0.132902 15.7094 -5.33769e-05 15.4983 0.118824C15.2871 0.237702 15.2402 0.563052 15.3966 0.84304L17.3174 4.29049C13.3209 6.16751 10.629 9.69161 10.629 13.7303C10.629 14.1401 10.6587 14.5453 10.7119 14.9441H37.1606C37.2153 14.5453 37.2435 14.1417 37.2435 13.7303C37.2435 9.67909 34.5343 6.14561 30.516 4.27329L30.5128 4.27172ZM17.8946 10.2594C17.7418 10.2594 17.5904 10.2293 17.4492 10.1708C17.3081 10.1123 17.1798 10.0266 17.0717 9.91855C16.9636 9.81049 16.8779 9.68219 16.8194 9.541C16.7609 9.39981 16.7308 9.24848 16.7308 9.09565C16.7308 8.94283 16.7609 8.7915 16.8194 8.65031C16.8779 8.50911 16.9636 8.38082 17.0717 8.27276C17.1798 8.16469 17.3081 8.07897 17.4492 8.02049C17.5904 7.96201 17.7418 7.9319 17.8946 7.9319C18.2032 7.9319 18.4992 8.05451 18.7175 8.27276C18.9357 8.491 19.0583 8.78701 19.0583 9.09565C19.0583 9.4043 18.9357 9.7003 18.7175 9.91855C18.4992 10.1368 18.2032 10.2594 17.8946 10.2594ZM30.0389 10.2594C29.8861 10.2594 29.7347 10.2293 29.5935 10.1708C29.4524 10.1123 29.3241 10.0266 29.216 9.91855C29.1079 9.81049 29.0222 9.68219 28.9637 9.541C28.9052 9.39981 28.8751 9.24848 28.8751 9.09565C28.8751 8.94283 28.9052 8.7915 28.9637 8.65031C29.0222 8.50911 29.1079 8.38082 29.216 8.27276C29.3241 8.16469 29.4524 8.07897 29.5935 8.02049C29.7347 7.96201 29.8861 7.9319 30.0389 7.9319C30.3475 7.9319 30.6435 8.05451 30.8618 8.27276C31.08 8.491 31.2026 8.78701 31.2026 9.09565C31.2026 9.4043 31.08 9.7003 30.8618 9.91855C30.6435 10.1368 30.3475 10.2594 30.0389 10.2594ZM10.6258 16.1001V35.6069H10.6368C10.7729 37.254 12.2886 38.5632 14.1249 38.5632H33.7413C35.5761 38.5632 37.0918 37.254 37.2294 35.6069H37.2404V16.1001H10.6274H10.6258ZM22.0287 38.4663V44.5009C22.0287 46.4248 20.6882 47.9999 19.049 47.9999C17.4097 47.9999 16.0708 46.4248 16.0708 44.5009V38.471L22.0287 38.4663ZM31.9581 38.4631V44.5009C31.9581 46.4248 30.6176 47.9999 28.9784 47.9999C27.3391 47.9999 25.9986 46.4248 25.9986 44.5009V38.4631H31.9581Z"
          fill="#2F3747"/>
</svg>
