<svg width="48" height="48" viewBox="0 0 48 48" fill="none" xmlns="http://www.w3.org/2000/svg">
    <path fill-rule="evenodd" clip-rule="evenodd"
          d="M20.7368 12H24.2497L23.2569 16.862H26.4134C28.1443 16.8961 29.4339 17.2524 30.2826 17.9311C31.148 18.6097 31.4026 19.8998 31.0462 21.8003L29.3407 30.2769H25.777L27.4061 22.1821C27.5757 21.3334 27.5248 20.7312 27.2534 20.3748C26.982 20.0184 26.3966 19.8402 25.497 19.8402L22.6714 19.8148L20.5841 30.2769H17.0713L20.7368 12ZM4.6401 16.862H11.4621C13.4644 16.8788 14.9154 17.4561 15.815 18.5929C16.7145 19.7298 17.0114 21.2825 16.7059 23.2512C16.5873 24.1508 16.3241 25.0331 15.9168 25.8986C15.5263 26.7641 14.9836 27.5445 14.2876 28.2405C13.439 29.1228 12.5312 29.6828 11.5639 29.9205C10.5966 30.1583 9.59523 30.2769 8.56021 30.2769H5.50558L4.53828 35.1134H1L4.6401 16.862ZM6.09105 27.4004L7.61327 19.7893H8.12747C8.3143 19.7893 8.5093 19.7807 8.71294 19.7639C10.0707 19.7471 11.1989 19.8743 12.0985 20.1457C13.0149 20.4171 13.3203 21.4439 13.0149 23.2258C12.6417 25.3472 11.9117 26.5859 10.8257 26.9423C9.7398 27.2818 8.38202 27.4427 6.75289 27.4259H6.39651C6.29469 27.4259 6.19287 27.4173 6.09105 27.4004ZM41.64 16.862H34.818L31.1779 35.1134H34.7162L35.6835 30.2769H38.7381C39.7732 30.2769 40.7746 30.1583 41.7419 29.9205C42.7092 29.6828 43.6169 29.1228 44.4656 28.2405C45.1615 27.5445 45.7042 26.7641 46.0947 25.8986C46.502 25.0331 46.7652 24.1508 46.8838 23.2512C47.1893 21.2825 46.8925 19.7298 45.9929 18.5929C45.0933 17.4561 43.6424 16.8788 41.64 16.862ZM37.7912 19.7893L36.269 27.4004C36.3708 27.4173 36.4726 27.4259 36.5744 27.4259H36.9308C38.5599 27.4427 39.9177 27.2818 41.0037 26.9423C42.0896 26.5859 42.8196 25.3472 43.1928 23.2258C43.4983 21.4439 43.1928 20.4171 42.2764 20.1457C41.3768 19.8743 40.2486 19.7471 38.8909 19.7639C38.6872 19.7807 38.4922 19.7893 38.3054 19.7893H37.7912Z"
          fill="#2F3747"/>
</svg>
