<svg width="36" height="36" viewBox="0 0 36 36" fill="none" xmlns="http://www.w3.org/2000/svg">
    <path fill-rule="evenodd" clip-rule="evenodd"
          d="M14.6848 30.1237C15.919 29.9965 16.0819 28.6904 15.5004 28.1197C15.0216 27.6501 12.3791 25.6884 11.6896 24.9171C11.3697 24.5594 10.9357 24.3836 10.752 23.9813C10.3294 23.0559 10.0333 21.735 10.5694 20.7869C10.6665 20.6153 10.7288 20.6921 10.6546 21.0493C10.2336 23.0728 11.5513 24.7262 11.8414 23.8781C12.0417 23.2924 11.8562 22.2448 11.9631 21.4128C12.1526 19.9404 13.493 17.1128 14.0816 16.9513C13.1739 15.2693 15.1464 13.953 15.1224 12.4769C15.1063 11.5169 15.9652 13.6571 16.8286 14.1108C17.7926 14.6174 18.8522 13.1558 20.3565 12.4141C20.7817 12.2042 21.3279 11.9632 21.2912 11.7843C21.1143 10.9211 19.3157 12.8491 17.7087 12.914C16.9754 12.9433 16.7033 12.7699 16.42 12.4964C15.5638 11.6687 16.5074 12.3594 17.7802 12.1293C18.3464 12.0268 18.5365 11.9324 19.1367 11.6898C19.7372 11.4472 20.4235 11.0879 21.103 10.9034C21.5757 10.7749 21.5366 10.4196 21.3524 10.3127C21.2463 10.2512 21.0895 10.2573 20.9652 10.4721C20.6735 10.9763 19.3025 11.2677 18.8751 11.3984C18.3256 11.5662 17.7177 11.7233 16.9107 11.6906C15.6844 11.6409 15.9703 11.0787 15.0928 10.5756C14.8355 10.428 14.9052 10.0408 15.2467 9.69898C15.4257 9.51975 15.9167 9.41866 16.16 9.0111C16.1941 8.95382 16.5077 8.62598 16.7537 8.45599C16.8387 8.39713 16.8461 6.89968 16.0777 6.8688C15.4249 6.8424 15.2393 7.34841 15.2668 7.85284C15.294 8.35674 15.5611 8.77248 15.739 8.77063C16.0816 8.76694 15.7609 9.14546 15.5733 9.20643C15.2882 9.29935 14.8975 8.08434 14.9424 7.50098C14.9894 6.89335 15.3056 5.81744 16.0748 5.8383C16.7674 5.85704 17.2692 6.7252 17.2439 8.22291C17.2391 8.47684 18.3667 8.10176 18.7432 8.49928C19.0119 8.78357 17.8214 5.84595 20.4729 5.64376C21.1713 5.77732 21.8423 6.00987 22.1211 7.61581C22.0178 7.78289 22.2947 8.90314 21.8637 9.03618C21.3374 9.19851 21.0124 9.01268 21.3168 8.51169C21.525 8.00832 21.3215 6.72811 20.2567 6.80492C19.1916 6.88173 19.3328 8.77142 19.6245 8.80891C19.9167 8.84613 20.6521 9.36798 21.1655 9.46802C22.8498 9.79585 21.6124 10.7617 21.831 11.9308C22.078 13.2511 22.9475 12.9024 23.7291 16.3988C23.8925 16.6118 24.5395 16.8132 25.1706 19.4996C25.7381 21.9159 24.9343 23.6733 26.299 23.5292C26.6063 23.4967 27.0553 23.4107 27.2506 22.726C27.7616 20.9366 26.9948 18.8035 26.2212 17.3644C25.7706 16.5253 25.3459 15.9541 25.122 15.7577C26.0087 16.2819 27.1424 17.9559 27.404 19.1992C27.7479 20.832 27.9926 21.5228 27.4731 23.2494C27.7732 23.3993 28.5197 23.7166 28.5197 24.0727C27.7424 23.4334 25.3614 23.3199 25.3002 24.8485C24.894 24.8566 24.5872 24.8896 24.3259 25.2001C23.3685 26.3359 24.2573 28.617 24.1604 29.8399C24.0749 30.9164 23.7764 31.983 23.6077 33.0642C23.0381 33.0426 23.0937 32.6255 23.2767 32.0403C23.438 31.5243 23.698 30.8773 23.7148 30.257C23.7304 29.6956 23.6689 29.345 23.5277 29.2579C23.386 29.1708 23.1642 29.3471 22.858 29.8405C22.2042 30.8932 20.7881 31.3561 19.4656 31.5222C18.1432 31.6877 16.9139 31.5562 16.263 30.8272C16.0405 30.5777 15.6714 30.8953 15.6276 30.9613C15.5688 31.0499 15.843 31.222 16.0497 31.6016C16.3517 32.1554 16.6386 32.9956 15.9235 33.3791C15.9328 31.4295 15.3156 31.3152 14.6848 30.1237ZM14.2123 30.0722C14.6861 30.8182 16.3559 33.9591 13.4288 34.3669C12.4498 34.5031 10.8737 33.7972 9.34643 33.4235C7.97436 33.088 6.58092 32.8895 5.80091 32.6699C5.33133 32.5384 5.1352 32.3697 5.09429 32.1728C4.98607 31.6515 5.66444 30.9206 5.69876 30.3035C5.73307 29.6863 5.4736 29.3651 5.26111 28.862C5.0481 28.3568 4.99293 27.9788 5.16318 27.7623C5.29569 27.5942 5.56493 27.5237 6.00311 27.5665C6.55848 27.6216 7.22894 27.5076 7.58924 27.288C8.19609 26.9174 8.48143 26.159 8.2085 25.2449C8.2085 26.1395 7.91524 26.4782 7.18011 26.887C6.48721 27.2727 5.41764 26.9607 4.92615 27.3875C4.33461 27.9004 5.13732 29.226 5.07159 30.1981C5.02117 30.9457 4.24117 31.7874 4.58907 32.5371C4.93908 33.2912 6.57089 33.3739 8.27211 33.7291C10.6905 34.2354 12.1003 35.116 13.2177 35.1572C14.8476 35.2179 15.0973 33.5446 17.6567 33.5219C18.4032 33.4829 19.1333 33.4596 19.8626 33.4504C20.6891 33.4401 21.5145 33.4467 22.3621 33.4673C24.0654 33.5085 23.4797 34.3972 24.5846 34.965C25.5172 35.4438 27.1933 35.2548 27.5943 34.8721C28.1372 34.3545 29.594 33.1094 30.7103 32.5469C32.1017 31.8458 35.3692 30.6387 32.9973 29.1669C32.4445 28.8234 31.1372 28.461 31.0273 25.9518C30.5324 26.3916 30.5897 28.7295 31.9707 29.1935C33.5133 29.7117 34.4773 30.5793 31.6094 31.5604C29.7102 32.2095 29.3879 32.4096 27.8846 33.6608C26.3632 34.927 24.1063 34.4244 24.5001 31.7584C24.7058 30.3695 24.824 29.222 24.4785 28.0144C24.3093 27.4252 24.2253 26.6682 24.341 26.1379C24.5653 25.1063 25.1236 24.7959 25.6711 25.7863C26.0145 26.4079 26.1351 27.1344 27.3652 27.1937C29.2973 27.2861 29.6801 25.3265 30.2975 25.2373C30.7095 25.1779 31.1213 24.0117 30.8075 22.126C30.4714 20.1072 29.2836 16.9188 27.76 15.3021C26.4938 13.9585 25.6959 12.7802 25.1936 11.0988C24.7717 9.68605 24.5368 8.31108 24.6234 6.99655C24.7358 5.29322 23.7914 2.92285 22.2874 1.80789C21.3461 1.10971 19.87 0.735678 18.5341 0.75046C17.7845 0.758643 17.0794 0.867922 16.5372 1.16224C14.307 2.37302 13.9956 4.10249 14.0291 6.07639C14.0605 7.93045 14.1236 10.0464 14.3342 12.0593C14.0848 12.9834 12.7864 14.7356 11.9549 15.8017C10.837 16.9062 10.2724 19.0403 9.54915 20.9049C9.16324 21.899 8.51337 22.348 8.45873 23.6261C8.44342 23.9837 8.45583 24.9081 8.79739 24.6436C10.1045 23.6324 11.7408 26.182 14.2123 30.0722ZM20.9982 3.34572C20.928 3.55636 20.6379 3.73189 20.8218 3.87945C21.0058 4.027 21.1117 3.67329 21.4823 3.54079C21.5781 3.50647 22.0237 3.55504 22.1055 3.34334C22.1411 3.25096 21.8756 3.14564 21.7177 2.99439C21.5593 2.8434 21.4041 2.70905 21.2558 2.71855C20.872 2.7431 21.0605 3.1591 20.9982 3.34572ZM23.2701 11.0344C23.4081 10.8894 23.4794 11.2846 23.8505 11.5187C24.1448 11.7046 24.431 11.5668 24.5051 11.9429C24.5582 12.2127 24.3901 12.5051 24.1638 12.4671C23.7708 12.4009 22.8625 11.463 23.2701 11.0344ZM17.1383 8.66162C16.5267 8.61595 16.4847 9.05809 16.6872 9.05069C16.8938 9.0433 16.7669 8.70095 17.1383 8.66162ZM16.0893 7.53239C16.1616 7.51656 16.2643 7.63983 16.2324 7.81246C16.188 8.05213 16.2073 8.20233 16.3733 8.20285C16.4008 8.20285 16.4303 8.19757 16.4406 8.13554C16.5203 7.65804 16.2722 7.3075 16.1709 7.28163C15.9373 7.22198 15.9655 7.55879 16.0893 7.53239ZM20.5405 7.33046C20.6957 7.37666 20.8451 7.64511 20.8775 7.9352C20.8807 7.96239 21.0803 7.89349 21.0816 7.83014C21.0945 7.3632 20.6954 7.14358 20.5914 7.15308C20.3512 7.17473 20.4193 7.29404 20.5405 7.33046ZM18.2585 8.71863C18.8147 8.46074 19.0092 8.86012 18.8173 8.92426C18.6215 8.98998 18.6199 8.62466 18.2585 8.71863ZM11.5428 18.1927C11.2799 18.1608 11.6194 17.9633 11.7633 17.7149C11.9214 17.4415 11.8907 17.1002 12.057 17.1506C12.2231 17.201 12.1307 17.3921 12.0169 17.7054C11.9198 17.9723 11.6397 18.2043 11.5428 18.1927Z"
          fill="#2F3747"/>
</svg>
