<svg width="48" height="48" viewBox="0 0 48 48" fill="none" xmlns="http://www.w3.org/2000/svg">
    <path fill-rule="evenodd" clip-rule="evenodd"
          d="M14.256 20.5323C14.256 21.129 14.3185 21.6129 14.428 21.9677C14.5532 22.3226 14.7096 22.7097 14.9287 23.129C15.0069 23.2581 15.0382 23.3871 15.0382 23.5C15.0382 23.6613 14.9443 23.8226 14.7409 23.9839L13.7554 24.6613C13.6146 24.7581 13.4738 24.8065 13.3486 24.8065C13.1922 24.8065 13.0357 24.7258 12.8793 24.5806C12.6603 24.3387 12.4725 24.0806 12.3161 23.8226C12.1597 23.5484 12.0032 23.2419 11.8311 22.871C10.6109 24.3548 9.07778 25.0968 7.23178 25.0968C5.91768 25.0968 4.86953 24.7097 4.10297 23.9355C3.33641 23.1613 2.94531 22.129 2.94531 20.8387C2.94531 19.4677 3.41463 18.3548 4.36892 17.5161C5.32321 16.6774 6.59038 16.2581 8.20171 16.2581C8.73361 16.2581 9.28115 16.3065 9.85998 16.3871C10.4388 16.4677 11.0333 16.5968 11.659 16.7419V15.5645C11.659 14.3387 11.4087 13.4839 10.9238 12.9839C10.4232 12.4839 9.57839 12.2419 8.3738 12.2419C7.82626 12.2419 7.26307 12.3065 6.68424 12.4516C6.10541 12.5968 5.54222 12.7742 4.99468 13C4.74438 13.1129 4.55665 13.1774 4.44714 13.2097C4.33763 13.2419 4.25941 13.2581 4.19684 13.2581C3.97782 13.2581 3.86831 13.0968 3.86831 12.7581V11.9677C3.86831 11.7097 3.8996 11.5161 3.97782 11.4032C4.05604 11.2903 4.19684 11.1774 4.41585 11.0645C4.96339 10.7742 5.62044 10.5323 6.387 10.3387C7.15356 10.129 7.96705 10.0323 8.82748 10.0323C10.6891 10.0323 12.0501 10.4677 12.9262 11.3387C13.7866 12.2097 14.2247 13.5323 14.2247 15.3065V20.5323H14.256ZM7.90448 22.9839C8.42073 22.9839 8.95263 22.8871 9.51581 22.6935C10.079 22.5 10.5796 22.1452 11.002 21.6613C11.2523 21.3548 11.44 21.0161 11.5339 20.629C11.6278 20.2419 11.6903 19.7742 11.6903 19.2258V18.5484C11.2367 18.4355 10.7517 18.3387 10.2511 18.2742C9.75047 18.2097 9.26551 18.1774 8.78054 18.1774C7.73239 18.1774 6.96583 18.3871 6.44958 18.8226C5.93333 19.2581 5.68302 19.871 5.68302 20.6774C5.68302 21.4355 5.87075 22 6.26185 22.3871C6.63731 22.7903 7.18485 22.9839 7.90448 22.9839ZM20.4666 24.7258C20.1851 24.7258 19.9973 24.6774 19.8722 24.5645C19.747 24.4677 19.6375 24.2419 19.5436 23.9355L15.8673 11.4677C15.7734 11.1452 15.7265 10.9355 15.7265 10.8226C15.7265 10.5645 15.8517 10.4194 16.102 10.4194H17.6351C17.9323 10.4194 18.1357 10.4677 18.2452 10.5806C18.3703 10.6774 18.4642 10.9032 18.5581 11.2097L21.1863 21.8871L23.6267 11.2097C23.705 10.8871 23.7988 10.6774 23.924 10.5806C24.0491 10.4839 24.2682 10.4194 24.5497 10.4194H25.8013C26.0985 10.4194 26.3019 10.4677 26.427 10.5806C26.5522 10.6774 26.6617 10.9032 26.7243 11.2097L29.196 22.0161L31.9024 11.2097C31.9963 10.8871 32.1058 10.6774 32.2153 10.5806C32.3405 10.4839 32.5439 10.4194 32.8254 10.4194H34.2803C34.5306 10.4194 34.6714 10.5484 34.6714 10.8226C34.6714 10.8914 34.66 10.9603 34.647 11.0392L34.647 11.0393L34.6402 11.0806C34.6245 11.1774 34.5932 11.3065 34.5306 11.4839L30.7604 23.9516C30.6666 24.2742 30.5571 24.4839 30.4319 24.5806C30.3068 24.6774 30.1034 24.7419 29.8374 24.7419H28.492C28.1948 24.7419 27.9914 24.6935 27.8663 24.5806C27.7411 24.4677 27.6316 24.2581 27.569 23.9355L25.1442 13.5323L22.735 23.9194C22.6568 24.2419 22.563 24.4516 22.4378 24.5645C22.3126 24.6774 22.0936 24.7258 21.812 24.7258H20.4666ZM40.5693 25.1613C39.7558 25.1613 38.9423 25.0645 38.1601 24.871C37.3779 24.6774 36.7677 24.4677 36.361 24.2258C36.1107 24.0806 35.9386 23.9194 35.876 23.7742C35.8135 23.629 35.7822 23.4677 35.7822 23.3226V22.5C35.7822 22.1613 35.9073 22 36.142 22C36.2359 22 36.3297 22.0161 36.4236 22.0484C36.4842 22.0692 36.5643 22.1035 36.6556 22.1425L36.6557 22.1426L36.6559 22.1426C36.7059 22.164 36.7593 22.1868 36.8147 22.2097C37.3466 22.4516 37.9254 22.6452 38.5355 22.7742C39.1613 22.9032 39.7714 22.9677 40.3972 22.9677C41.3827 22.9677 42.1493 22.7903 42.6812 22.4355C43.2131 22.0806 43.4947 21.5645 43.4947 20.9032C43.4947 20.4516 43.3539 20.0806 43.0723 19.7742C42.7907 19.4677 42.2588 19.1935 41.4922 18.9355L39.2239 18.2097C38.0818 17.8387 37.2371 17.2903 36.7208 16.5645C36.2046 15.8548 35.9386 15.0645 35.9386 14.2258C35.9386 13.5484 36.0794 12.9516 36.361 12.4355C36.6426 11.9194 37.0181 11.4677 37.4874 11.1129C37.9567 10.7419 38.4886 10.4677 39.1144 10.2742C39.7401 10.0806 40.3972 10 41.0855 10C41.4297 10 41.7895 10.0161 42.1337 10.0645C42.4935 10.1129 42.822 10.1774 43.1505 10.2419C43.4634 10.3226 43.7606 10.4032 44.0422 10.5C44.3238 10.5968 44.5428 10.6935 44.6993 10.7903C44.9183 10.9194 45.0747 11.0484 45.1686 11.1935C45.2625 11.3226 45.3094 11.5 45.3094 11.7258V12.4839C45.3094 12.8226 45.1842 13 44.9496 13C44.8244 13 44.6211 12.9355 44.3551 12.8065C43.4634 12.3871 42.4622 12.1774 41.3515 12.1774C40.4597 12.1774 39.7558 12.3226 39.2708 12.629C38.7858 12.9355 38.5355 13.4032 38.5355 14.0645C38.5355 14.5161 38.692 14.9032 39.0048 15.2097C39.3177 15.5161 39.8966 15.8226 40.7257 16.0968L42.9471 16.8226C44.0735 17.1935 44.887 17.7097 45.372 18.371C45.8569 19.0323 46.0916 19.7903 46.0916 20.629C46.0916 21.3226 45.9508 21.9516 45.6849 22.5C45.4033 23.0484 45.0278 23.5323 44.5428 23.9194C44.0579 24.3226 43.479 24.6129 42.8064 24.8226C42.1024 25.0484 41.3671 25.1613 40.5693 25.1613ZM42.5876 32.8915C37.5542 36.7244 30.2413 38.7591 23.9534 38.7591C15.1412 38.7591 7.20099 35.3994 1.20379 29.8157C0.729516 29.374 1.15789 28.7746 1.72395 29.1217C8.21073 33.0019 16.2121 35.3521 24.4889 35.3521C30.073 35.3521 36.2079 34.1533 41.8532 31.6927C42.6947 31.2984 43.4137 32.2605 42.5876 32.8915ZM38.794 30.2257C40.431 30.0207 44.0416 29.579 44.6841 30.4308C45.3267 31.2668 43.9651 34.7842 43.3531 36.3458C43.1695 36.819 43.5673 37.0082 43.9804 36.6455C46.673 34.311 47.3768 29.4371 46.826 28.7273C46.2752 28.0332 41.5478 27.4339 38.6716 29.5159C38.228 29.8472 38.3045 30.2888 38.794 30.2257Z"
          fill="#2F3747"/>
</svg>
