<svg width="48" height="48" viewBox="0 0 48 48" fill="none" xmlns="http://www.w3.org/2000/svg">
    <path fill-rule="evenodd" clip-rule="evenodd"
          d="M27.6995 33.833C27.7441 33.8332 27.7887 33.8333 27.8333 33.8333C29.2873 33.8333 30.6583 33.7401 31.9415 33.5643C30.8899 31.7134 29.9064 31.7454 28.4623 31.7922C28.2216 31.8001 27.9682 31.8083 27.6995 31.8083V33.833ZM20.0371 37.0186V41.6686H27.6995V37.048C29.6547 36.8446 31.5367 36.4848 33.3075 35.9857C34.8596 38.8055 36.3197 41.6686 36.3197 41.6686H45.4187C45.4187 41.6686 41.793 35.7439 40.0614 33.0711C44.3156 30.4192 47 26.6726 47 22.3333C47 13.7083 36.4583 7 24 7C11.5417 7 1 13.7083 1 22.3333C1 29.6125 9.36683 35.787 20.0371 37.0186ZM20.0371 32.7206C14.2181 30.9755 10.1055 27.3692 10.1055 23.2833C10.1055 17.5333 17.2917 12.75 26.875 12.75C38.9782 12.75 44.5872 17.4059 44.5872 23.1559C44.5872 26.4562 42.5504 29.4855 38.816 31.4677C38.2684 31.052 37.6567 30.8944 36.9287 30.7069C36.5926 30.6203 36.2317 30.5273 35.8408 30.3995C38.7142 29.93 41.393 28.7378 42.3243 26.1833C43.1385 23.8357 43.0427 20.8493 41.2976 18.8467C39.7862 17.262 38.2353 16.3131 34.404 16.3131H20.0371V32.7206ZM32.7279 21.5938H27.6995V26.2892H32.7279C33.9252 26.2892 34.8829 25.1153 34.8829 23.9414C34.8829 22.7677 33.9203 21.5938 32.7279 21.5938Z"
          fill="#2F3747"/>
</svg>
