<svg width="48" height="48" viewBox="0 0 48 48" fill="none" xmlns="http://www.w3.org/2000/svg">
    <path fill-rule="evenodd" clip-rule="evenodd"
          d="M37.3331 16.4605C43.1839 18.2092 47 21.0291 47 24.0046C47 26.9709 43.2026 29.7908 37.3893 31.5395C38.7489 37.344 38.1582 41.9675 35.5234 43.4507C34.9046 43.7986 34.192 43.9634 33.4044 43.9634C30.8259 43.9634 27.4505 42.1872 24.0375 39.0927C20.6245 42.2055 17.2491 44 14.6706 44C13.883 44 13.1704 43.8352 12.5609 43.4873C9.91684 42.0041 9.31675 37.3715 10.6669 31.5486C4.81614 29.8 1 26.9801 1 24.0046C1 21.0382 4.79739 18.2275 10.6294 16.4697C9.26987 10.6651 9.86058 6.04166 12.4953 4.55848C13.1141 4.21057 13.8267 4.04578 14.6143 4.04578V4.03662C17.1928 4.03662 20.5683 5.81277 23.9812 8.9073C27.3942 5.79446 30.7697 4 33.3481 4V4.00916C34.1227 4.01048 34.832 4.17535 35.4391 4.52186C38.0832 6.00504 38.6832 10.6377 37.3331 16.4605ZM33.3388 6.04167C31.3887 6.04653 28.5238 7.5659 25.4721 10.3355C26.7941 11.6814 28.1068 13.2195 29.3726 14.9133C31.4823 15.133 33.4888 15.4717 35.3265 15.9112C35.5328 14.9865 35.7016 14.0801 35.8047 13.2195C36.236 9.72213 35.6828 7.00298 34.4077 6.28885C34.117 6.13321 33.7701 6.05081 33.3388 6.05081V6.04167ZM22.4904 10.3447C19.4338 7.58892 16.5552 6.07828 14.6143 6.07828V6.08743C14.183 6.08743 13.8174 6.16068 13.5361 6.32547C12.2703 7.04875 11.7265 9.76791 12.1671 13.2653C12.2797 14.1167 12.4391 15.0048 12.6547 15.9203C14.4925 15.4717 16.499 15.133 18.618 14.9133C19.8651 13.2195 21.1777 11.6905 22.4904 10.3447ZM33.5263 21.5143C34.0139 20.2966 34.4452 19.079 34.7921 17.8979C33.5638 17.6049 32.2793 17.3669 30.9478 17.1746C31.4073 17.8705 31.8667 18.5846 32.298 19.317C32.7387 20.0494 33.1419 20.7819 33.5263 21.5143ZM28.2381 31.1458C29.0163 30.0563 29.7664 28.8844 30.4978 27.6484C31.201 26.4491 31.8479 25.2222 32.4386 23.9954C31.8479 22.7686 31.201 21.5509 30.4884 20.3516C29.757 19.1247 28.9976 17.962 28.2193 16.8725C26.8316 16.7626 25.4158 16.6986 24 16.6986C22.5748 16.6986 21.159 16.7626 19.7619 16.8817C18.9837 17.9712 18.2336 19.1431 17.5022 20.379C16.799 21.5784 16.1427 22.8052 15.5614 24.032C16.1521 25.2589 16.799 26.4765 17.5116 27.6759C18.243 28.9027 19.0024 30.0655 19.7807 31.155C21.1684 31.2648 22.5842 31.3289 24 31.3289C25.4252 31.3289 26.841 31.2648 28.2381 31.1458ZM34.8202 30.1021C34.4639 28.9119 34.0326 27.6851 33.5263 26.4582C33.1419 27.1907 32.7387 27.9322 32.3074 28.6647C31.8761 29.4063 31.4166 30.1295 30.9572 30.8345C32.298 30.6423 33.5919 30.3951 34.8202 30.1021ZM21.4121 33.2973C22.2748 34.3685 23.1468 35.3481 24.0188 36.2271C24.8814 35.3481 25.7534 34.3685 26.5972 33.2973C25.744 33.3431 24.872 33.3614 23.9906 33.3614C23.1186 33.3614 22.256 33.3339 21.4121 33.2973ZM13.1985 30.1112C14.4268 30.4042 15.7114 30.6423 17.0428 30.8345C16.5834 30.1387 16.1333 29.4246 15.6926 28.6922C15.2519 27.9597 14.8488 27.2273 14.4643 26.4949C13.9768 27.7125 13.5455 28.9302 13.1985 30.1112ZM26.5785 14.7118C25.7159 13.6406 24.8439 12.661 23.9719 11.7821C23.1093 12.661 22.2373 13.6406 21.3934 14.7118C22.2466 14.6661 23.1186 14.6477 24 14.6477C24.872 14.6477 25.7346 14.6752 26.5785 14.7118ZM15.6832 19.3445C16.1146 18.6029 16.574 17.8796 17.0334 17.1746C15.6926 17.3669 14.3987 17.6141 13.1704 17.8979C13.5267 19.0881 13.958 20.3149 14.4643 21.5418C14.8488 20.8093 15.2519 20.0769 15.6832 19.3445ZM3.08153 24.0046C3.08153 25.442 5.2287 27.2547 8.5479 28.6372C9.36364 28.976 10.245 29.2872 11.1733 29.5711C11.6983 27.7858 12.3922 25.9272 13.2548 24.0229C12.3828 22.1094 11.6796 20.2417 11.1451 18.4472C10.2356 18.7311 9.35426 19.0332 8.5479 19.3719C5.2287 20.7452 3.08153 22.5672 3.08153 24.0046ZM12.1953 34.7897C11.764 38.287 12.3172 41.0062 13.5923 41.7203C13.8736 41.8759 14.2299 41.9583 14.6519 41.9675C16.6021 41.9675 19.4713 40.4477 22.5279 37.6736C21.2059 36.3278 19.8932 34.7897 18.6274 33.0959C16.5177 32.8762 14.5112 32.5374 12.6735 32.098C12.4672 33.0227 12.2984 33.929 12.1953 34.7897ZM34.4639 41.6837C35.7297 40.9604 36.2735 38.2412 35.8329 34.7439C35.7297 33.8924 35.5609 33.0043 35.3453 32.0797C33.5075 32.5283 31.501 32.867 29.382 33.0867C28.1349 34.7805 26.8223 36.3095 25.5096 37.6553C28.5662 40.4111 31.4448 41.9217 33.3856 41.9217C33.817 41.9217 34.1826 41.8485 34.4639 41.6837ZM36.8455 29.5619C37.755 29.2781 38.6364 28.976 39.4427 28.6372C42.7619 27.2639 44.9091 25.442 44.9185 24.0046C44.9185 22.5672 42.7713 20.7544 39.4521 19.3719C38.627 19.0332 37.7456 18.7219 36.8174 18.4381C36.2923 20.2234 35.5984 22.0819 34.7358 23.9863C35.6078 25.8997 36.311 27.7675 36.8455 29.5619ZM28.276 24.0046C28.276 26.3153 26.3575 28.1886 23.991 28.1886C21.6245 28.1886 19.7061 26.3153 19.7061 24.0046C19.7061 21.6938 21.6245 19.8205 23.991 19.8205C26.3575 19.8205 28.276 21.6938 28.276 24.0046Z"
          fill="#2F3747"/>
</svg>
