<svg width="48" height="48" viewBox="0 0 48 48" fill="none" xmlns="http://www.w3.org/2000/svg">
    <path d="M30.2734 15.2264L31.7468 15.2515L35.7502 11.2481L35.9443 9.55184C32.7689 6.72284 28.5764 5 23.9951 5C15.7007 5 8.70009 10.6436 6.62793 18.2882C7.06493 17.9835 7.9993 18.2121 7.9993 18.2121L15.999 16.8968C15.999 16.8968 16.4101 16.2161 16.6186 16.2499C17.554 15.2222 18.6938 14.4013 19.9649 13.8397C21.236 13.2782 22.6105 12.9884 24.0001 12.9889C26.372 12.9939 28.557 13.832 30.2734 15.2185V15.2264Z"
          fill="#42526B"/>
    <path d="M41.3725 18.3041C40.4432 14.8757 38.5277 11.8483 35.9424 9.55188L30.2736 15.2207C32.5449 17.0535 34.0018 19.858 34.0018 22.9975V23.998C36.7596 23.998 38.9999 26.2434 38.9999 28.9962C38.9999 31.7541 36.7546 33.9944 34.0018 33.9944H24.0054L23.0049 35.0007V40.9994L24.0054 41.9948H34.0018C37.4476 41.9901 40.751 40.6191 43.1876 38.1826C45.6243 35.7461 46.9954 32.4428 47.0004 28.9969C46.9953 24.573 44.7722 20.6587 41.3725 18.3041Z"
          fill="#2F3747"/>
    <path d="M13.9983 42.0012H23.9889V33.9943H13.9983C13.2885 33.9944 12.587 33.842 11.9412 33.5472L10.4987 33.9893L6.49528 37.9927L6.14453 39.344C8.4006 41.0651 11.16 41.9967 13.9976 41.9954L13.9983 42.0012Z"
          fill="#6A778B"/>
    <path d="M13.9986 16.004C10.5527 16.0088 7.24936 17.3797 4.8127 19.8162C2.37605 22.2527 1.00494 25.556 1 29.0019C1 33.2231 3.02184 36.9764 6.15056 39.3541L11.9466 33.5581C11.0693 33.1625 10.3247 32.5222 9.80214 31.7141C9.27958 30.906 9.00121 29.9643 9.00041 29.0019C9.00041 26.2441 11.2458 24.0037 13.9986 24.0037C16.0255 24.0037 17.7677 25.2256 18.5555 26.9506L24.3515 21.1546C21.9746 18.0259 18.2205 16.004 13.9993 16.004H13.9986Z"
          fill="#2F3747"/>
</svg>
