<svg width="48" height="48" viewBox="0 0 48 48" fill="none" xmlns="http://www.w3.org/2000/svg">
    <path d="M22.1055 1.49098C23.2523 0.837578 24.7477 0.835103 25.8945 1.49098C31.6632 4.73077 37.4332 7.9656 43.2019 11.2054C44.2852 11.8142 45.0111 13.0134 44.9999 14.2558V33.7465C45.0086 35.041 44.2105 36.2686 43.0662 36.8626C37.3174 40.0838 31.5698 43.31 25.821 46.5312C24.6506 47.197 23.1253 47.1462 21.991 46.426C20.2665 45.4323 18.5407 44.4448 16.8162 43.4523C16.4638 43.2431 16.0666 43.0773 15.8176 42.7382C16.038 42.4437 16.4314 42.4066 16.7514 42.2779C17.4699 42.0502 18.1311 41.6851 18.7922 41.3312C18.9591 41.2173 19.1633 41.2619 19.3239 41.3634C20.7969 42.2036 22.2587 43.0674 23.7379 43.9003C24.0529 44.0809 24.3729 43.8396 24.6419 43.6899C30.2848 40.5219 35.9328 37.3638 41.5745 34.1933C41.7837 34.0943 41.8982 33.8728 41.882 33.6463C41.8858 27.2162 41.882 20.7862 41.8845 14.3561C41.9082 14.0974 41.7575 13.8611 41.5234 13.7547C35.7933 10.5483 30.0657 7.33571 24.3381 4.1281C24.1339 3.9895 23.8662 3.9895 23.6632 4.1281C17.9343 7.33571 12.2079 10.5508 6.48031 13.7571C6.24498 13.8636 6.08809 14.0974 6.11673 14.3561V33.6463C6.09556 33.874 6.22008 34.0906 6.42801 34.1883C7.95704 35.0496 9.48732 35.9047 11.0176 36.7636C11.8792 37.2252 12.9363 37.4987 13.8864 37.1447C14.7244 36.8477 15.3121 35.9963 15.2959 35.1127C15.3034 28.721 15.2921 22.3281 15.3021 15.9364C15.2809 15.6517 15.5511 15.4179 15.8288 15.4451C16.5634 15.4401 17.2981 15.4352 18.0327 15.4476C18.3402 15.4401 18.5507 15.7458 18.5133 16.0317C18.5108 22.4642 18.5208 28.8968 18.5083 35.3293C18.5108 37.0433 17.8011 38.9094 16.2061 39.7472C14.24 40.7595 11.8107 40.5454 9.86833 39.5739C8.18739 38.7411 6.58366 37.7573 4.9326 36.8638C3.78583 36.2723 2.99144 35.0397 3.00015 33.7465V14.2571C2.9877 12.9886 3.74225 11.766 4.86163 11.1683L22.1055 1.49098Z"
          fill="#2F3747"/>
    <path d="M26.0154 14.9174C28.5449 14.7537 31.2527 14.8205 33.5285 16.0696C35.2907 17.0265 36.2666 19.0362 36.298 20.9979C36.249 21.2624 35.9727 21.4097 35.7202 21.3908C34.9867 21.3908 34.2532 21.4009 33.5198 21.3858C33.2083 21.3983 33.0274 21.11 32.9885 20.8342C32.7775 19.8949 32.2663 18.9656 31.3846 18.5123C30.0319 17.8324 28.462 17.8676 26.9862 17.8815C25.9099 17.9394 24.7506 18.0326 23.8388 18.6672C23.1379 19.1482 22.9244 20.1203 23.1744 20.9022C23.4105 21.4638 24.0573 21.6451 24.5861 21.8114C27.6343 22.6109 30.8634 22.5316 33.8538 23.583C35.091 24.0111 36.303 24.8459 36.7262 26.1441C37.2789 27.8856 37.0377 29.967 35.8018 31.3646C34.7996 32.5155 33.3402 33.1413 31.8832 33.4813C29.9478 33.9145 27.937 33.9258 25.9714 33.7331C24.1214 33.5216 22.1972 33.0356 20.7692 31.7714C19.5484 30.7086 18.9518 29.0528 19.0108 27.4549C19.0259 27.1855 19.2934 26.9966 19.5509 27.0193C20.2907 27.013 21.0292 27.0117 21.7689 27.0193C22.0641 26.9991 22.2826 27.2547 22.2964 27.5343C22.4346 28.4283 22.7687 29.3676 23.5474 29.8977C25.0495 30.8685 26.9335 30.8031 28.6529 30.8295C30.0784 30.7665 31.6773 30.7477 32.8403 29.8033C33.4532 29.2644 33.6353 28.3641 33.4683 27.5884C33.2899 26.9336 32.6067 26.6302 32.0201 26.43C29.0121 25.4768 25.7453 25.8231 22.7662 24.7427C21.5567 24.3146 20.3874 23.5049 19.9227 22.2584C19.2733 20.4955 19.571 18.3147 20.9362 16.9636C22.2675 15.62 24.1892 15.1025 26.0154 14.9174Z"
          fill="#2F3747"/>
</svg>
