<svg width="48" height="48" viewBox="0 0 48 48" fill="none" xmlns="http://www.w3.org/2000/svg">
    <path fill-rule="evenodd" clip-rule="evenodd"
          d="M25.9757 9.00086C23.6914 9.00086 21.626 9.95363 20.1424 11.4898C18.5102 9.36882 15.9356 8 13.0386 8C8.10444 8 4.10401 11.9697 4.10401 16.8667C4.10401 18.1203 4.36679 19.3127 4.83923 20.393C2.54448 21.726 1 24.2175 1 27.071C1 31.3293 4.43757 34.7806 8.67781 34.7806C9.21908 34.7806 9.74658 34.7246 10.2557 34.6171C11.4208 37.7578 14.456 39.9973 18.0174 39.9973C21.4373 39.9973 24.3715 37.933 25.631 34.989C26.589 35.4533 27.6649 35.7144 28.8025 35.7144C31.5199 35.7144 33.8874 34.2264 35.1298 32.024C35.7728 32.153 36.4272 32.2178 37.0832 32.2175C42.5599 32.2175 47 27.7665 47 22.2756C47 16.7853 42.5599 12.3343 37.0832 12.3343C35.6554 12.3343 34.2983 12.6372 33.0723 13.1815C31.6614 10.6836 29.0122 9.00086 25.9757 9.00086ZM28.4145 19.2615C28.3293 19.2355 28.252 19.2178 28.151 19.199C28.0488 19.1808 27.9269 19.1716 27.7887 19.1716C27.3064 19.1716 26.9263 19.3071 26.6597 19.574C26.3942 19.8398 26.214 20.2442 26.1236 20.7762L26.0908 20.9553H25.4854C25.4854 20.9553 25.412 20.9527 25.3962 21.0321L25.2973 21.5837C25.2901 21.6358 25.3131 21.669 25.3838 21.669H25.9729L25.3753 24.9849C25.3287 25.2519 25.275 25.4714 25.2154 25.638C25.157 25.8022 25.1001 25.9252 25.0293 26.0151C24.9612 26.1011 24.8969 26.1649 24.7855 26.202C24.6938 26.2326 24.5876 26.2469 24.4716 26.2469C24.4074 26.2469 24.3216 26.2364 24.258 26.2234C24.1951 26.211 24.1617 26.1974 24.1139 26.1772C24.1139 26.1772 24.0451 26.1512 24.0175 26.2195C23.9959 26.2762 23.8386 26.7053 23.8196 26.7581C23.8013 26.8108 23.8275 26.8519 23.8609 26.8642C23.9395 26.8916 23.9978 26.9098 24.1047 26.9352C24.2528 26.9697 24.3779 26.9717 24.4952 26.9717C24.7402 26.9717 24.9643 26.9372 25.1498 26.8708C25.3359 26.8037 25.4984 26.6871 25.6425 26.5295C25.7979 26.3589 25.8955 26.1805 25.9886 25.9363C26.0809 25.6953 26.1603 25.3958 26.2231 25.0468L26.824 21.669H27.7021C27.7021 21.669 27.7761 21.6716 27.7912 21.5915L27.8908 21.0406C27.8974 20.9879 27.8751 20.9553 27.8036 20.9553H26.9511C26.9518 20.9525 26.9532 20.9437 26.9555 20.9297L26.9555 20.9296V20.9296C26.9684 20.8487 27.0088 20.5967 27.092 20.3575C27.134 20.2384 27.2126 20.1413 27.2788 20.0749C27.3444 20.0098 27.4197 19.9636 27.5023 19.9368C27.5868 19.9095 27.6832 19.8965 27.7887 19.8965C27.8686 19.8965 27.9478 19.9056 28.0075 19.9179C28.09 19.9355 28.1221 19.9447 28.1438 19.9512C28.231 19.9772 28.2427 19.9518 28.2598 19.9102L28.4636 19.3541C28.4846 19.294 28.4328 19.2686 28.4145 19.2615ZM16.5033 24.9921C16.5033 25.0364 16.4712 25.0722 16.4266 25.0722H15.7196C15.675 25.0722 15.6436 25.0364 15.6436 24.9921V19.3371C15.6436 19.2928 15.675 19.257 15.7196 19.257H16.4266C16.4712 19.257 16.5033 19.2928 16.5033 19.3371V24.9921ZM7.66273 24.5929C7.63887 24.6549 7.66171 24.6763 7.67548 24.6892C7.67835 24.6919 7.68082 24.6942 7.6824 24.6964C7.75092 24.7459 7.8203 24.7845 7.89017 24.8233L7.89039 24.8234C7.90862 24.8335 7.92689 24.8437 7.94518 24.854C8.41434 25.1014 8.85735 25.1737 9.32062 25.1737C10.2642 25.1737 10.85 24.6749 10.85 23.872V23.8564C10.85 23.1139 10.1889 22.8444 9.5683 22.6497L9.48772 22.6236L9.48695 22.6234C9.01941 22.4724 8.61621 22.3422 8.61621 22.0362V22.02C8.61621 21.7582 8.8521 21.5654 9.21776 21.5654C9.62402 21.5654 10.1063 21.6996 10.4169 21.8702C10.4169 21.8702 10.508 21.9288 10.5414 21.8409C10.5597 21.794 10.717 21.3733 10.7334 21.3277C10.7511 21.2782 10.7196 21.2418 10.6875 21.2222C10.333 21.008 9.84288 20.8615 9.33573 20.8615L9.24138 20.8621C8.37774 20.8621 7.7749 21.3805 7.7749 22.1235V22.1391C7.7749 22.9225 8.43999 23.1765 9.06318 23.3536L9.16342 23.3842L9.16482 23.3846C9.61833 23.5231 10.0087 23.6424 10.0087 23.9599V23.9755C10.0087 24.266 9.75451 24.4821 9.34429 24.4821C9.18506 24.4821 8.67722 24.4789 8.12877 24.1343C8.09071 24.1123 8.06177 24.0936 8.03433 24.076L8.0343 24.0759C8.014 24.0629 7.99453 24.0503 7.97281 24.0373C7.94596 24.0204 7.87846 23.9911 7.84899 24.0797L7.66273 24.5929ZM21.4765 24.5929C21.4526 24.6549 21.4754 24.6763 21.4892 24.6892C21.491 24.6908 21.4926 24.6924 21.494 24.6938C21.4948 24.6947 21.4955 24.6956 21.4961 24.6964C21.5646 24.7459 21.6339 24.7844 21.7036 24.8231L21.7039 24.8233C21.7222 24.8334 21.7405 24.8436 21.7589 24.854C22.228 25.1014 22.6711 25.1737 23.1343 25.1737C24.0779 25.1737 24.6637 24.6749 24.6637 23.872V23.8564C24.6637 23.1139 24.0025 22.8444 23.382 22.6497L23.3014 22.6236L23.3006 22.6234C22.833 22.4724 22.4298 22.3422 22.4298 22.0362V22.02C22.4298 21.7582 22.6657 21.5654 23.0314 21.5654C23.4377 21.5654 23.9199 21.6996 24.2306 21.8702C24.2306 21.8702 24.3216 21.9288 24.355 21.8409C24.3734 21.794 24.5306 21.3733 24.547 21.3277C24.5648 21.2782 24.5333 21.2418 24.5012 21.2222C24.1467 21.008 23.6565 20.8615 23.1494 20.8615L23.055 20.8621C22.1913 20.8621 21.5885 21.3805 21.5885 22.1235V22.1391C21.5885 22.9225 22.2536 23.1765 22.8768 23.3536L22.977 23.3842L22.9793 23.3849C23.4324 23.5233 23.823 23.6426 23.823 23.9599V23.9755C23.823 24.266 23.5681 24.4821 23.1579 24.4821C22.9987 24.4821 22.4909 24.4789 21.9424 24.1343C21.8906 24.1043 21.8553 24.0814 21.8186 24.0576L21.8185 24.0576L21.7871 24.0373C21.77 24.0263 21.6901 23.9956 21.6626 24.0797L21.4765 24.5929ZM30.9067 23.0201C30.9067 23.474 30.8215 23.8315 30.6538 24.0841C30.488 24.3342 30.237 24.456 29.8872 24.456C29.5366 24.456 29.287 24.3349 29.1238 24.0841C28.9586 23.8321 28.8748 23.474 28.8748 23.0201C28.8748 22.5669 28.9586 22.21 29.1238 21.9599C29.287 21.7125 29.5366 21.592 29.8872 21.592C30.2371 21.592 30.488 21.7125 30.6545 21.9599C30.8216 22.21 30.9067 22.5668 30.9067 23.0201ZM31.6944 22.1787C31.617 21.9189 31.4965 21.6897 31.336 21.4989C31.1754 21.3074 30.9723 21.1538 30.7311 21.0417C30.4906 20.9304 30.2063 20.8738 29.8872 20.8738C29.5674 20.8738 29.283 20.9304 29.0425 21.0417C28.8014 21.1538 28.5983 21.3075 28.4371 21.4989C28.2772 21.6903 28.1566 21.9196 28.0786 22.1787C28.002 22.4372 27.9633 22.7199 27.9633 23.0201C27.9633 23.3203 28.002 23.6036 28.0786 23.8614C28.1566 24.1206 28.2765 24.3499 28.4377 24.5413C28.5983 24.7327 28.8021 24.8858 29.0426 24.9945C29.2837 25.1033 29.5674 25.1586 29.8872 25.1586C30.2063 25.1586 30.4901 25.1033 30.7312 24.9945C30.9717 24.8858 31.1754 24.7327 31.336 24.5413C31.4965 24.3505 31.6171 24.1213 31.6944 23.8614C31.7718 23.6029 31.8104 23.3196 31.8104 23.0201C31.8104 22.7205 31.7717 22.4372 31.6944 22.1787ZM38.1623 24.3348C38.1361 24.2586 38.0621 24.2872 38.0621 24.2872C37.9475 24.3309 37.8255 24.3712 37.6958 24.3914C37.5641 24.4116 37.4193 24.422 37.2639 24.422C36.8826 24.422 36.5799 24.3094 36.363 24.0867C36.1454 23.864 36.0236 23.5039 36.0248 23.0167C36.0262 22.5733 36.1336 22.2398 36.327 21.9859C36.519 21.7333 36.8112 21.6036 37.2011 21.6036C37.5261 21.6036 37.7738 21.6407 38.0332 21.7222C38.0332 21.7222 38.0955 21.7488 38.125 21.6681C38.147 21.6072 38.1672 21.5519 38.1869 21.4979L38.1874 21.4967L38.1874 21.4966C38.2291 21.3825 38.2685 21.2744 38.3183 21.1328C38.3393 21.0735 38.2881 21.0482 38.2698 21.041C38.1676 21.0012 37.9264 20.9368 37.7442 20.9095C37.5739 20.8834 37.3747 20.8697 37.1532 20.8697C36.8222 20.8697 36.5274 20.9257 36.2752 21.0378C36.0235 21.1491 35.8099 21.3028 35.6409 21.4943C35.4718 21.6857 35.3434 21.9149 35.2575 22.1741C35.1723 22.4326 35.1291 22.7165 35.1291 23.0167C35.1291 23.666 35.3054 24.1908 35.6533 24.5751C36.0019 24.9606 36.5255 25.1566 37.2083 25.1566C37.612 25.1566 38.0261 25.0752 38.3236 24.9586C38.3236 24.9586 38.3806 24.9313 38.3557 24.8655L38.1623 24.3348ZM39.5405 22.5853C39.5778 22.3333 39.6479 22.1236 39.756 21.9601C39.9192 21.712 40.1682 21.5759 40.5182 21.5759C40.8681 21.5759 41.0994 21.7127 41.2652 21.9601C41.3753 22.1236 41.4231 22.3424 41.4421 22.5853H39.5405ZM42.1923 22.0311C42.1255 21.7804 41.9597 21.527 41.851 21.4111C41.6793 21.2275 41.5116 21.0992 41.3451 21.0276C41.1275 20.9351 40.8667 20.8739 40.5811 20.8739C40.2482 20.8739 39.9461 20.9293 39.701 21.0439C39.4553 21.1585 39.2489 21.3148 39.087 21.5095C38.9251 21.7035 38.8033 21.9347 38.726 22.1971C38.648 22.4583 38.6087 22.7429 38.6087 23.043C38.6087 23.3485 38.6493 23.633 38.7299 23.8889C38.8112 24.1468 38.9409 24.3741 39.1165 24.5622C39.2914 24.7518 39.5169 24.9003 39.7869 25.0037C40.0549 25.1067 40.3806 25.1601 40.7547 25.1594C41.5247 25.1568 41.9302 24.9862 42.0974 24.8943C42.1269 24.8781 42.155 24.8494 42.1196 24.7674L41.9453 24.2822C41.9192 24.2099 41.8451 24.2366 41.8451 24.2366C41.8284 24.2428 41.8111 24.2493 41.793 24.2562C41.6042 24.3281 41.3278 24.4332 40.7507 24.432C40.3373 24.4314 40.0306 24.3102 39.8386 24.1207C39.6413 23.9267 39.545 23.6414 39.528 23.239L42.1943 23.2416C42.1943 23.2416 42.2644 23.2403 42.2716 23.1726L42.2732 23.1604C42.285 23.0746 42.3519 22.5883 42.1923 22.0311ZM18.1873 22.5853C18.2253 22.3333 18.2948 22.1236 18.4029 21.9601C18.566 21.712 18.815 21.5759 19.1649 21.5759C19.5148 21.5759 19.7462 21.7127 19.9126 21.9601C20.022 22.1236 20.0698 22.3424 20.0889 22.5853H18.1873ZM20.8385 22.0311C20.7717 21.7804 20.6066 21.527 20.4978 21.4111C20.3261 21.2275 20.1583 21.0992 19.9919 21.0276C19.7744 20.9351 19.5136 20.8739 19.2279 20.8739C18.8957 20.8739 18.5929 20.9293 18.3479 21.0439C18.1022 21.1585 17.8957 21.3148 17.7339 21.5095C17.572 21.7035 17.4501 21.9347 17.3728 22.1971C17.2955 22.4583 17.2556 22.7429 17.2556 23.043C17.2556 23.3485 17.2962 23.633 17.3768 23.8889C17.4581 24.1468 17.5878 24.3741 17.7634 24.5622C17.9384 24.7518 18.1638 24.9003 18.4337 25.0037C18.7018 25.1067 19.0274 25.1601 19.4016 25.1594C20.1715 25.1568 20.5771 24.9862 20.7442 24.8943C20.7737 24.8781 20.8019 24.8494 20.7665 24.7674L20.5929 24.2822C20.566 24.2099 20.492 24.2366 20.492 24.2366C20.4753 24.2428 20.4579 24.2494 20.4398 24.2563C20.251 24.3281 19.9751 24.4332 19.397 24.432C18.9842 24.4314 18.6775 24.3102 18.4855 24.1207C18.2883 23.9267 18.192 23.6414 18.1749 23.239L20.8412 23.2416C20.8412 23.2416 20.9113 23.2403 20.9185 23.1726L20.9201 23.16C20.932 23.073 20.9984 22.5873 20.8385 22.0311ZM12.4241 24.3203C12.3199 24.2375 12.3055 24.2167 12.2701 24.1633C12.2177 24.0819 12.1909 23.966 12.1909 23.8188C12.1909 23.5857 12.2682 23.4183 12.4287 23.3057C12.4268 23.3064 12.6581 23.1071 13.2019 23.1142C13.5839 23.1194 13.9253 23.1754 13.9253 23.1754V24.3802H13.926C13.926 24.3802 13.5872 24.4524 13.2059 24.4752C12.6633 24.5078 12.4221 24.3196 12.4241 24.3203ZM13.485 22.4585C13.3769 22.4507 13.2366 22.4461 13.0689 22.4461C12.8402 22.4461 12.6194 22.4747 12.4123 22.5301C12.2039 22.5854 12.0165 22.6721 11.8553 22.7866C11.6944 22.9008 11.5621 23.0503 11.4687 23.2236C11.3744 23.3981 11.3265 23.6039 11.3265 23.8344C11.3265 24.0689 11.3671 24.2727 11.4484 24.4394C11.5297 24.6068 11.647 24.7461 11.7963 24.8536C11.9444 24.961 12.1273 25.0398 12.3395 25.0873C12.5486 25.1349 12.7858 25.159 13.0453 25.159C13.3185 25.159 13.5911 25.1369 13.8552 25.0919C14.1166 25.0476 14.4377 24.9831 14.5268 24.963C14.5893 24.948 14.6516 24.9322 14.7136 24.9154C14.7798 24.8992 14.7745 24.8288 14.7745 24.8288L14.7732 22.4057C14.7732 21.8743 14.6304 21.4803 14.3493 21.2361C14.0694 20.9926 13.6573 20.8695 13.1246 20.8695C12.9247 20.8695 12.603 20.8969 12.4103 20.9353C12.4103 20.9353 11.8278 21.0473 11.5879 21.2335C11.5879 21.2335 11.5355 21.2661 11.5644 21.339L11.7531 21.8431C11.7767 21.9082 11.8403 21.8861 11.8403 21.8861C11.8403 21.8861 11.8606 21.8782 11.8842 21.8646C12.3973 21.5872 13.046 21.5956 13.046 21.5956C13.3343 21.5956 13.5558 21.6529 13.7052 21.7669C13.8506 21.8776 13.9247 22.0449 13.9247 22.3978V22.5099C13.6953 22.4773 13.485 22.4585 13.485 22.4585ZM34.9898 21.0932C35.0101 21.0332 34.9675 21.0046 34.9498 20.9981C34.9046 20.9805 34.6779 20.933 34.5029 20.9219C34.1681 20.9017 33.9821 20.9577 33.8156 21.032C33.6504 21.1062 33.467 21.226 33.3647 21.3621V21.0398C33.3647 20.9948 33.3326 20.959 33.2881 20.959H32.6046C32.5601 20.959 32.528 20.9948 32.528 21.0398V24.9919C32.528 25.0362 32.5647 25.0727 32.6092 25.0727H33.3097C33.3312 25.0725 33.3517 25.064 33.3668 25.0488C33.3819 25.0337 33.3903 25.0132 33.3903 24.9919V23.0175C33.3903 22.7524 33.4198 22.4881 33.4788 22.322C33.5364 22.1579 33.6151 22.0264 33.712 21.9319C33.8097 21.8382 33.9204 21.7724 34.0416 21.7353C34.1655 21.6975 34.3024 21.6851 34.3994 21.6851C34.539 21.6851 34.6923 21.7209 34.6923 21.7209C34.7434 21.7268 34.7723 21.6955 34.7892 21.6493C34.8352 21.5282 34.9649 21.1654 34.9898 21.0932Z"
          fill="#2F3747"/>
</svg>
