<svg width="48" height="48" viewBox="0 0 48 48" fill="none" xmlns="http://www.w3.org/2000/svg">
    <path fill-rule="evenodd" clip-rule="evenodd"
          d="M23.3175 1.69404C23.2753 1.60689 23.2331 1.65239 23.191 1.69788C23.1844 1.70491 23.1779 1.71194 23.1714 1.71848C23.1951 2.22157 23.0253 2.67003 22.7596 3.09837C22.5001 3.47623 22.166 3.77586 21.8226 4.08386C21.7793 4.12266 21.7359 4.16161 21.6924 4.20085C19.5359 6.12983 17.8384 8.45984 16.4791 11.0658C14.6704 14.5731 13.7382 18.3318 13.4738 22.289C13.3528 23.7163 13.9107 28.7529 14.3462 30.2061C15.5344 34.0641 17.6687 37.2968 20.4333 40.1025C21.1122 40.7781 21.8385 41.4048 22.5898 42.0071C22.5902 42.0071 22.5906 42.0071 22.5909 42.0071C22.5915 42.0494 22.5948 42.0946 22.6145 42.1567C23.0514 43.4848 23.171 44.8374 23.2447 46.2159V46.7189C23.2447 47.0211 23.2388 47.1393 23.2942 47.2078C23.349 47.2754 23.4639 47.2945 23.7039 47.3945C23.7621 47.4169 23.8223 47.4348 23.8833 47.453C24.0264 47.4958 24.1739 47.5398 24.3105 47.6446C24.4566 47.6446 24.4802 47.5196 24.4802 47.419L24.4079 46.5925V44.2869C24.3884 43.9549 24.4342 43.6248 24.4782 43.308C24.4875 43.2408 24.4968 43.1742 24.5053 43.1082L24.5067 43.1068C24.5554 42.532 24.8224 42.0549 25.113 41.5793C25.1244 41.5798 25.1358 41.5801 25.1475 41.5801C25.9251 40.9994 26.6557 40.3543 27.3319 39.6511C31.4892 35.2167 33.5511 29.8811 33.4537 23.6673C33.4301 21.5888 33.1143 19.5334 32.5327 17.5296C31.5629 14.2495 30.205 11.2166 28.1917 8.48557C27.3344 7.33621 26.4029 6.24802 25.4035 5.22844C25.0626 4.87772 24.7732 4.50112 24.5061 4.07565L23.3181 1.77044L23.3175 1.69404Z"
          fill="#2F3747"/>
</svg>
