<svg width="48" height="48" viewBox="0 0 48 48" fill="none" xmlns="http://www.w3.org/2000/svg">
    <path fill-rule="evenodd" clip-rule="evenodd"
          d="M23.9999 47C36.7032 47 47 36.7031 47 24.0001C47 11.298 36.703 1 23.9999 1C11.2979 1 1 11.298 1 24.0001C1 36.7031 11.2979 47 23.9999 47ZM30.3396 29.7404L24.3877 15.0503V15.0505L21.3494 22.6586L30.3396 29.7404ZM25.806 11.0914L34.9611 33.1244C35.0621 33.394 35.118 33.6448 35.118 33.8027C35.118 34.7729 34.3341 35.4454 33.4373 35.4454C32.9896 35.4454 32.645 35.2707 32.1678 34.8847L20.297 25.2945L16.3192 35.2588H12.8818L22.9302 11.0914C23.1916 10.4561 23.7522 10.1196 24.3877 10.1196C25.022 10.1196 25.5445 10.4561 25.806 11.0914Z"
          fill="#2F3747"/>
</svg>
