<svg width="48" height="48" viewBox="0 0 48 48" fill="none" xmlns="http://www.w3.org/2000/svg">
    <path d="M38.3908 22.8595H36.1766V25.0172H38.3908V22.8595Z" fill="#2F3747"/>
    <path fill-rule="evenodd" clip-rule="evenodd"
          d="M44.4845 12.4806C44.8278 13.067 44.9975 13.7505 44.9979 14.5239C45 20.8423 45 33.4754 45 33.4754C45 34.232 44.8368 34.9022 44.5091 35.48C44.1718 36.0738 43.6597 36.5708 42.9667 36.9616C40.6204 38.2798 38.2733 39.5962 35.9261 40.9127C32.6791 42.7339 29.4322 44.555 26.1877 46.3805C26.0935 46.4335 25.9995 46.4831 25.9056 46.5293C25.6848 46.6378 25.4648 46.7274 25.2455 46.7983C24.0663 47.1793 22.9054 47.0177 21.7225 46.3375C20.3788 45.5649 15.7824 42.9903 11.6207 40.6592L11.6189 40.6582C8.8899 39.1296 6.34801 37.7058 5.03305 36.9637C4.34007 36.5728 3.82801 36.076 3.49064 35.4818C3.16249 34.9041 3 34.2336 3 33.4772C3.00107 30.318 3.00107 27.1589 3.00107 23.9998C3.00107 20.8407 3.00107 17.6816 3.00214 14.5225C3.00246 12.9882 3.66784 11.8077 5.03524 11.0361C6.35666 10.2903 8.91704 8.85592 11.6612 7.31863C15.8121 4.99327 20.3838 2.43218 21.7235 1.66231C23.2193 0.802373 24.6803 0.771306 26.1872 1.61907C29.3812 3.41612 32.5774 5.20898 35.7737 7.00185C38.1711 8.3466 40.5685 9.69136 42.9649 11.0379C43.6423 11.4201 44.1473 11.9036 44.4845 12.4806ZM24.1091 8.78689C29.8844 8.78689 34.9265 11.8433 37.6273 16.3864L37.601 16.3427L30.8059 20.1552C29.4673 17.9464 27.0132 16.4557 24.1977 16.425L24.109 16.4245C19.8158 16.4245 16.3353 19.8162 16.3353 23.9998C16.3339 25.3184 16.6874 26.6143 17.3605 27.7582C18.7005 30.0378 21.2195 31.5753 24.1091 31.5753C26.9933 31.5753 29.5093 30.0431 30.8507 27.7696L37.6354 31.5998C34.9642 36.1044 29.991 39.1514 24.283 39.2121L24.1091 39.213C18.3156 39.213 13.2592 36.1377 10.5651 31.5706C9.25 29.341 8.49753 26.7562 8.49753 23.9998C8.49753 15.598 15.487 8.78689 24.1091 8.78689ZM30.883 27.7143L30.8507 27.7696C30.8615 27.7512 30.8723 27.7328 30.883 27.7143ZM36.1766 19.6232V21.7809H38.3908V19.6232H39.4979V21.7809H41.7121V22.8597H39.4979V25.0172H41.7121V26.0961H39.4979V28.2538H38.3908V26.0961H36.1766V28.2538H35.0695V26.0961H32.8555V25.0172H35.0695V22.8597H32.8555V21.7809H35.0695V19.6232H36.1766Z"
          fill="#2F3747"/>
</svg>
