<svg width="48" height="48" viewBox="0 0 48 48" fill="none" xmlns="http://www.w3.org/2000/svg">
    <path d="M32.0736 26.4489C30.3033 26.4489 28.7161 27.2416 27.6293 28.4897L24.8443 26.497C25.1399 25.6744 25.3097 24.791 25.3097 23.8664C25.3097 22.9579 25.1458 22.0893 24.8599 21.2788L27.6387 19.3073C28.7254 20.549 30.3084 21.3374 32.0736 21.3374C35.3412 21.3374 38 18.6506 38 15.3477C38 12.0448 35.3412 9.35799 32.0736 9.35799C28.806 9.35799 26.1473 12.0448 26.1473 15.3477C26.1473 15.9389 26.2356 16.509 26.3942 17.0489L23.6136 19.0214C22.452 17.565 20.7796 16.5481 18.874 16.2377V12.8506C21.5585 12.2808 23.5812 9.87014 23.5812 6.9897C23.5812 3.68677 20.9224 1 17.6548 1C14.3872 1 11.7285 3.68677 11.7285 6.9897C11.7285 9.83156 13.6987 12.2125 16.3295 12.823V16.254C12.7392 16.891 10 20.0579 10 23.8664C10 27.6936 12.7663 30.872 16.3826 31.4873V35.1103C13.7249 35.7007 11.7285 38.0962 11.7285 40.9574C11.7285 44.2603 14.3872 46.9471 17.6548 46.9471C20.9224 46.9471 23.5812 44.2603 23.5812 40.9574C23.5812 38.0962 21.5848 35.7007 18.9271 35.1103V31.4872C20.7575 31.1756 22.4134 30.2022 23.5865 28.7484L26.3901 30.754C26.2344 31.289 26.1473 31.8534 26.1473 32.4386C26.1473 35.7416 28.806 38.4283 32.0736 38.4283C35.3412 38.4283 38 35.7416 38 32.4386C38 29.1357 35.3412 26.4489 32.0736 26.4489ZM32.0736 12.4436C33.6581 12.4436 34.9469 13.7467 34.9469 15.3477C34.9469 16.9487 33.6581 18.2517 32.0736 18.2517C30.4891 18.2517 29.2003 16.9487 29.2003 15.3477C29.2003 13.7467 30.4891 12.4436 32.0736 12.4436ZM14.7814 6.9897C14.7814 5.3887 16.0703 4.08572 17.6548 4.08572C19.2393 4.08572 20.5281 5.3887 20.5281 6.9897C20.5281 8.59071 19.2393 9.89369 17.6548 9.89369C16.0703 9.89369 14.7814 8.59071 14.7814 6.9897ZM20.5281 40.9574C20.5281 42.5584 19.2393 43.8613 17.6548 43.8613C16.0703 43.8613 14.7814 42.5584 14.7814 40.9574C14.7814 39.3564 16.0703 38.0534 17.6548 38.0534C19.2393 38.0534 20.5281 39.3564 20.5281 40.9574ZM17.6546 27.9165C15.4447 27.9165 13.6469 26.0998 13.6469 23.8664C13.6469 21.6329 15.4447 19.8159 17.6546 19.8159C19.8644 19.8159 21.6622 21.6329 21.6622 23.8664C21.6622 26.0998 19.8644 27.9165 17.6546 27.9165ZM32.0736 35.3427C30.4891 35.3427 29.2003 34.0396 29.2003 32.4386C29.2003 30.8376 30.4891 29.5347 32.0736 29.5347C33.6581 29.5347 34.9469 30.8376 34.9469 32.4386C34.9469 34.0396 33.6581 35.3427 32.0736 35.3427Z"
          fill="#2F3747"/>
</svg>
