<svg width="48" height="48" viewBox="0 0 48 48" fill="none" xmlns="http://www.w3.org/2000/svg">
    <path d="M33.7733 35.5468L43.5335 44.2092L24.329 42.7004C28.0915 40.4273 31.1954 37.7129 33.5195 35.5518C33.5578 35.5592 33.5985 35.5633 33.6392 35.5633C33.6836 35.5633 33.7285 35.558 33.7733 35.5468ZM44.5758 40.7231L46.3734 17.18C45.4842 19.4516 44.0773 22.0971 42.2535 24.922L44.5758 40.7231ZM34.4261 35.012L44.1637 43.6546L41.564 25.9675C39.421 29.1575 36.8477 32.419 34.4261 35.012ZM23.0522 43.4387C20.9548 44.6007 18.7961 45.5262 16.6098 46.202L39.0515 44.6928L23.0595 43.4366L23.0522 43.4387ZM4.31047 32.0982L10.1889 45.8344L15.027 29.8062L4.31047 32.0982ZM16.4544 28.9929L32.8223 34.2503L28.6456 17.7007L16.4544 28.9929ZM29.5616 16.057L44.8197 15.0357L32.8901 5.29229L29.5616 16.057ZM38.2404 1.04528L28.228 1L32.6792 4.11668L38.2404 1.04528ZM1.38498 26.2769L1.05552 36.0387L3.45696 31.6588L1.38498 26.2769ZM6.85494 30.1986C8.75819 30.32 10.6808 29.8982 12.6202 29.0493C13.9266 28.4302 15.2819 27.6467 16.6422 26.7257C18.5932 25.3473 20.5594 23.6232 22.54 21.6603C29.6639 14.6001 32.5931 6.70427 29.4801 3.56046C28.7373 2.8108 27.6739 2.42762 26.3187 2.42169C22.2164 2.40399 16.085 5.4921 10.8594 10.6731C5.86531 15.6233 2.62689 21.4989 2.60955 25.6427C2.60344 27.1161 3.01106 28.2768 3.82091 29.0933C4.54119 29.821 5.5646 30.1158 6.85494 30.1986ZM21.7182 43.2055C21.9416 43.0899 22.1641 42.9731 22.3838 42.8543L15.7963 30.1439L10.8384 46.5661C10.8799 46.5607 11.2148 46.5204 11.2148 46.5204C11.6475 46.4653 12.0749 46.402 12.4969 46.3304C15.2208 45.866 17.9159 45.0157 20.5069 43.8023C20.9169 43.6106 21.3201 43.4112 21.7182 43.2055ZM35.1714 32.7217L35.3277 32.5423C35.4368 32.4144 35.5466 32.284 35.656 32.1532C35.656 32.1532 35.9945 31.7502 36.126 31.5901C36.3474 31.3224 36.5674 31.0491 36.7883 30.7744C36.9911 30.521 37.1935 30.2669 37.3954 30.0081C37.6073 29.7367 37.8191 29.4647 38.0294 29.1875C38.5053 28.561 38.9865 27.9042 39.5007 27.1786C40.0449 26.411 40.5706 25.6385 41.0655 24.88L40.1732 24.3344C37.804 22.8857 33.0423 19.9675 29.9128 18.0451L33.9624 34.0907C34.3397 33.6764 34.7379 33.226 35.1714 32.7217ZM46.6168 6.88791L34.018 5.11898L46.0291 14.9413C46.4511 13.5491 46.7259 12.1989 46.8456 10.9254C46.8628 10.7469 46.8739 10.5674 46.8846 10.3865C46.8949 10.2201 46.9007 10.0531 46.9052 9.88573C46.9341 8.80104 46.8369 7.79345 46.6168 6.88791ZM41.7733 24.1192C41.8043 24.0785 41.8388 24.0328 41.8766 23.9779C42.1164 23.6384 42.4574 23.0829 42.8366 22.4138C43.8921 20.5525 45.1941 17.8988 45.737 15.9457L30.0672 16.9911C33.3356 18.9997 38.1101 21.9257 40.4838 23.3776L41.7494 24.15C41.757 24.1406 41.7647 24.1303 41.7733 24.1192ZM22.9905 42.6617L23.0395 42.6341C26.4577 40.7399 29.5127 38.4096 32.9351 35.0794L16.2763 29.7062L22.9905 42.6617ZM1 37.7934C1.07358 39.9628 1.53394 41.7538 2.36931 43.1294L3.14718 33.8653L1 37.7934ZM4.03528 33.2532L3.13774 43.9446C4.41658 45.6175 6.12523 46.3645 8.66565 46.3645C8.92152 46.3645 9.18728 46.3575 9.47227 46.3436L9.0235 45.2285C8.05238 42.816 5.28123 35.9342 4.03528 33.2532ZM46.429 6.22792C46.2442 5.66289 46.0085 5.14117 45.7272 4.67308C44.5923 2.78502 42.6319 1.57698 39.8989 1.08149L33.7931 4.45341L46.429 6.22792Z"
          fill="#2F3747"/>
</svg>
