<svg width="48" height="48" viewBox="0 0 48 48" fill="none" xmlns="http://www.w3.org/2000/svg">
    <path fill-rule="evenodd" clip-rule="evenodd"
          d="M1 20.1336V16H5.13073V18.9453L6.55752 20.3732H9.50817V24.5068H6.54571L5.13073 25.9229V28.88H1V24.7464H3.94838L5.37744 23.3163V21.5627L3.94943 20.1336H1ZM2.69796 17.6913V18.4423H3.44802V17.6913H2.69796ZM2.69796 26.4377V27.1887H3.44802V26.4377H2.69796ZM14.2609 28.9273C13.7804 28.9273 13.3457 28.6526 13.1475 28.2405V26.2943C13.3457 25.8974 13.7728 25.6074 14.2609 25.6074C15.1532 25.6074 15.6794 26.3172 15.6794 27.2712C15.6794 28.2099 15.1455 28.9273 14.2609 28.9273ZM11.5078 32.4076H13.1475V29.744C13.4067 30.0569 13.994 30.3622 14.6269 30.3622C16.3505 30.3622 17.3266 28.9426 17.3266 27.2788C17.3266 25.6074 16.3428 24.1802 14.6269 24.1802C13.994 24.1802 13.4144 24.4778 13.1475 24.7984V24.3099H11.5078V32.4076ZM21.6354 30.2248H23.2751H23.2827V24.3175H21.6278V28.0725C21.5058 28.5839 21.0711 28.8892 20.5678 28.8892C19.9195 28.8892 19.6145 28.4694 19.6145 27.8436V24.3099H17.9749V28.1718C17.9749 29.4845 18.7299 30.3546 20.0492 30.3546C20.7355 30.3546 21.3075 30.0569 21.6354 29.6829V30.2248ZM27.1187 28.9273C26.6383 28.9273 26.2036 28.6526 26.0053 28.2405V26.2943C26.2036 25.8974 26.6306 25.6074 27.1187 25.6074C28.011 25.6074 28.5372 26.3172 28.5372 27.2712C28.5372 28.2099 28.0033 28.9273 27.1187 28.9273ZM24.3656 32.4076H26.0053V29.744C26.2646 30.0569 26.8518 30.3622 27.4848 30.3622C29.2083 30.3622 30.1844 28.9426 30.1844 27.2788C30.1844 25.6074 29.2007 24.1802 27.4848 24.1802C26.8518 24.1802 26.2722 24.4778 26.0053 24.7984V24.3099H24.3656V32.4076ZM33.6468 28.9273C33.1663 28.9273 32.7316 28.6526 32.5333 28.2405V26.2943C32.7316 25.8974 33.1587 25.6074 33.6468 25.6074C34.539 25.6074 35.0652 26.3172 35.0652 27.2712C35.0652 28.2099 34.5314 28.9273 33.6468 28.9273ZM30.8937 32.4076H32.5333V29.744C32.7926 30.0569 33.3798 30.3622 34.0128 30.3622C35.7363 30.3622 36.7125 28.9426 36.7125 27.2788C36.7125 25.6074 35.7287 24.1802 34.0128 24.1802C33.3798 24.1802 32.8002 24.4778 32.5333 24.7984V24.3099H30.8937V32.4076ZM41.0289 26.6224H38.7411C38.886 25.8974 39.3359 25.5081 39.9689 25.5081C40.6476 25.5081 41.0137 25.9966 41.0289 26.6224ZM42.5986 28.3015C42.5991 28.299 42.5995 28.2964 42.5999 28.2939V28.3015H42.5986ZM39.9841 30.3622C41.4606 30.3622 42.3827 29.5564 42.5986 28.3015H41.0823C40.9527 28.8052 40.5409 29.0418 39.9841 29.0418C39.2597 29.0418 38.7563 28.5076 38.7029 27.6223H42.6457V27.1185C42.6457 25.386 41.6924 24.1802 39.9613 24.1802C38.3064 24.1802 37.1167 25.4929 37.1167 27.2788C37.1167 29.1029 38.2682 30.3622 39.9841 30.3622ZM42.8135 25.6303H43.7057V28.4313C43.7057 29.744 44.4607 30.3393 45.6657 30.3393C46.1004 30.3393 46.5046 30.2782 46.7257 30.1561V28.6984C46.5351 28.8205 46.2605 28.8968 46.0089 28.8968C45.5894 28.8968 45.3378 28.6907 45.3378 28.2252V25.6303H46.6342V24.3099H45.3378V22.7072H43.7134V24.3099H42.8135V25.6303Z"
          fill="#2F3747"/>
</svg>
