<svg width="48" height="48" viewBox="0 0 48 48" fill="none" xmlns="http://www.w3.org/2000/svg">
    <path fill-rule="evenodd" clip-rule="evenodd"
          d="M44.067 3H23.4287C23.4287 5.47087 24.4103 7.84055 26.1574 9.58772C27.9046 11.3349 30.2743 12.3164 32.7452 12.3164H36.547V15.9872C36.5503 21.1278 40.7167 25.2944 45.8574 25.2977V4.79037C45.8574 3.80186 45.056 3 44.067 3ZM33.8559 13.2833H13.2178C13.221 18.424 17.3874 22.5905 22.5282 22.5939H26.33V26.2764C26.3365 31.417 30.5058 35.5807 35.6464 35.5807V15.074C35.6464 14.0852 34.8447 13.2833 33.8559 13.2833ZM3 23.5608H23.6383C24.6271 23.5608 25.4288 24.3625 25.4288 25.3513V45.8582C20.2927 45.8484 16.1335 41.6837 16.1302 36.5478V32.8772H12.3164C7.17127 32.8772 3 28.7061 3 23.5608Z"
          fill="#2F3747"/>
</svg>
