<svg width="48" height="48" viewBox="0 0 48 48" fill="none" xmlns="http://www.w3.org/2000/svg">
    <g clip-path="url(#clip0_514_4569)">
        <path fill-rule="evenodd" clip-rule="evenodd"
              d="M24.2416 1.79122C21.3669 1.79121 18.5205 2.36025 15.8646 3.46586C13.2088 4.57146 10.7957 6.19198 8.76298 8.23488C6.73031 10.2778 5.1179 12.703 4.01783 15.3722C2.91775 18.0414 2.35155 20.9022 2.35156 23.7913C2.35285 27.4355 3.25486 31.0224 4.97653 34.2296L11.9106 29.0286C12.8171 28.3461 13.9867 28.0093 15.1953 28.1794C16.4056 28.353 17.4296 28.9981 18.1067 29.901L21.4278 34.3309C22.2326 35.4048 23.448 36.1716 24.8876 36.3724C27.7618 36.7774 30.4295 34.7767 30.8459 31.9051C31.093 30.2209 30.5107 28.6149 29.4104 27.4908C28.4896 26.7334 27.3566 26.3136 26.8646 26.1346C26.3325 25.9414 25.4334 25.7182 25.1137 25.642L25.0174 25.6198C22.0528 24.9371 18.6594 24.1557 16.9053 22.1396C15.1322 20.1017 14.8094 18.1068 15.153 15.7481C15.8335 11.0681 20.1803 7.80864 24.864 8.46782C27.2032 8.7961 29.1837 10.0448 30.4972 11.7954L33.2631 15.4844L34.2347 16.7816C35.0844 17.8262 36.2449 18.0084 37.4779 17.588L38.5477 17.1329C38.6526 17.0896 38.7406 17.0079 38.7846 16.8922C38.8219 16.7986 38.8219 16.6966 38.7948 16.6055L38.6593 16.1675C38.622 16.0433 38.6254 15.9064 38.6762 15.7754C38.7608 15.5508 38.9572 15.4036 39.1772 15.3722L42.9621 15.0225C43.6053 14.9367 43.7915 15.3101 43.7915 15.3101L44.472 16.8675C44.472 16.8675 44.6176 17.2579 44.1233 17.6832C44.1233 17.6832 42.2958 19.4409 41.3949 20.304C41.2624 20.431 40.9789 20.4648 40.7755 20.4156C40.572 20.3663 40.4577 20.1862 40.3495 19.9907C40.2413 19.7953 40.1468 19.6281 39.954 19.5665C39.7915 19.5146 39.6813 19.5723 39.5919 19.6192C39.5753 19.6279 39.5594 19.6363 39.544 19.6435L38.3613 20.2053C35.9306 21.4199 33.6962 20.6544 31.709 18.0822L28.2322 13.4915C27.3554 12.3168 26.0256 11.4824 24.4575 11.2595C21.3175 10.8189 18.5679 13.0454 17.8847 16.1396C17.4493 18.1112 18.5641 20.3853 19.9822 21.1565C21.2247 21.8321 22.7802 22.2697 25.3361 22.8354C27.892 23.4012 30.8715 24.6063 32.3793 26.6791C33.4524 28.2782 33.9535 30.2672 33.6557 32.3271C33.0124 36.7537 28.9026 39.8362 24.4745 39.2136C22.3696 38.9162 20.5719 37.8356 19.3346 36.31L15.8214 31.5649C15.5709 31.2301 15.1892 30.9933 14.7406 30.9287C14.3192 30.8708 13.9129 30.9729 13.5854 31.1975L6.43785 36.5835C8.46242 39.4305 11.1335 41.751 14.2294 43.3524C17.3262 44.9543 20.7587 45.7904 24.2416 45.7912C30.0472 45.7912 35.6149 43.4734 39.7201 39.3476C43.8253 35.2218 46.1316 29.6261 46.1316 23.7913C46.1316 21.2267 45.6855 18.6844 44.8158 16.2787L45.9619 15.7489L48.0676 16.488L48.352 15.7114L46.4663 15.0582L47.1468 13.2039L46.3546 12.9249L45.5996 14.9987L44.5191 15.5038C44.5013 15.4599 44.4834 15.416 44.4653 15.3722C43.3653 12.703 41.7529 10.2778 39.7202 8.23488C37.6875 6.19198 35.2744 4.57146 32.6185 3.46586C29.9627 2.36025 27.1162 1.79121 24.2416 1.79122Z"
              fill="#2F3747"/>
    </g>
    <defs>
        <clipPath id="clip0_514_4569">
            <rect width="48" height="48" fill="white"/>
        </clipPath>
    </defs>
</svg>
