<svg width="48" height="48" viewBox="0 0 48 48" fill="none" xmlns="http://www.w3.org/2000/svg">
    <path d="M31.0053 30.086C30.1603 30.0604 29.3366 30.3534 28.6978 30.9071C28.059 31.4607 27.6518 32.2344 27.5572 33.0744C27.5529 33.0907 27.5526 33.1077 27.5561 33.1241C27.5596 33.1406 27.5669 33.156 27.5774 33.1691C27.5879 33.1822 27.6013 33.1927 27.6166 33.1997C27.6318 33.2068 27.6485 33.2102 27.6653 33.2096H34.3588C34.3742 33.2098 34.3894 33.2066 34.4035 33.2003C34.4176 33.1941 34.4302 33.1849 34.4405 33.1733C34.4507 33.1618 34.4584 33.1482 34.4629 33.1335C34.4675 33.1188 34.4689 33.1032 34.4669 33.0879C34.4011 32.2327 34.0008 31.4379 33.3527 30.8759C32.7047 30.3139 31.8612 30.0301 31.0053 30.086Z"
          fill="#2F3747"/>
    <path d="M45.3517 7.63933L31.1535 23.5818C31.113 23.6257 31.0639 23.6606 31.0092 23.6846C30.9545 23.7085 30.8955 23.7208 30.8358 23.7208C30.7761 23.7208 30.717 23.7085 30.6624 23.6846C30.6077 23.6606 30.5585 23.6257 30.518 23.5818L23.2702 16.1041C23.2087 16.0274 23.1753 15.932 23.1753 15.8337C23.1753 15.7354 23.2087 15.64 23.2702 15.5633L25.6636 12.4937C25.7037 12.4379 25.7564 12.3924 25.8176 12.361C25.8787 12.3297 25.9464 12.3133 26.0152 12.3133C26.0839 12.3133 26.1516 12.3297 26.2128 12.361C26.2739 12.3924 26.3267 12.4379 26.3667 12.4937L30.4234 16.9831C30.464 17.0314 30.5147 17.0703 30.5719 17.0969C30.6291 17.1236 30.6915 17.1374 30.7546 17.1374C30.8178 17.1374 30.8802 17.1236 30.9374 17.0969C30.9946 17.0703 31.0453 17.0314 31.0859 16.9831L42.3904 1.48679C42.4218 1.441 42.4404 1.38762 42.4443 1.3322C42.4481 1.27677 42.437 1.22134 42.4122 1.17165C42.3873 1.12196 42.3496 1.07983 42.303 1.04965C42.2564 1.01946 42.2025 1.00232 42.147 1L2.33805 1C2.24839 1 2.16241 1.03562 2.09901 1.09901C2.03562 1.16241 2 1.24839 2 1.33805V46.6369C2 46.7266 2.03562 46.8126 2.09901 46.876C2.16241 46.9394 2.24839 46.975 2.33805 46.975H45.6086C45.6983 46.975 45.7843 46.9394 45.8477 46.876C45.9111 46.8126 45.9467 46.7266 45.9467 46.6369V7.84216C45.9736 7.76326 45.968 7.67691 45.9313 7.6021C45.8945 7.52729 45.8295 7.47015 45.7506 7.44326C45.6717 7.41636 45.5854 7.42191 45.5106 7.45868C45.4357 7.49545 45.3786 7.56043 45.3517 7.63933ZM14.251 41.9313C11.4104 42.0744 8.62591 41.1042 6.48932 39.2268C6.42182 39.1503 6.38458 39.0517 6.38458 38.9496C6.38458 38.8476 6.42182 38.749 6.48932 38.6724L8.17958 36.3061C8.20749 36.2576 8.24482 36.2152 8.28936 36.1814C8.33391 36.1476 8.38477 36.123 8.43895 36.1092C8.49314 36.0953 8.54955 36.0924 8.60486 36.1007C8.66017 36.109 8.71327 36.1282 8.76103 36.1573C10.3051 37.5889 12.3347 38.3814 14.4403 38.375C16.6579 38.375 17.7397 37.3473 17.7397 36.2655C17.7397 32.912 6.81385 35.2108 6.81385 28.0712C6.81385 24.9205 9.51826 22.2972 14.0076 22.2972C16.5839 22.2056 19.1061 23.0512 21.1067 24.6771C21.1819 24.7552 21.2239 24.8594 21.2239 24.9678C21.2239 25.0763 21.1819 25.1805 21.1067 25.2586L19.4434 27.5708C19.4091 27.6168 19.3657 27.6553 19.3159 27.6838C19.2661 27.7123 19.2109 27.7303 19.1539 27.7366C19.0968 27.743 19.0391 27.7375 18.9842 27.7206C18.9294 27.7038 18.8786 27.6758 18.835 27.6384C17.3598 26.466 15.5267 25.8359 13.6425 25.8535C11.9117 25.8535 10.9381 26.6243 10.9381 27.7601C10.9381 30.7756 21.8369 28.7608 21.8369 35.8734C21.8369 39.308 19.3623 41.9313 14.2375 41.9313H14.251ZM38.0768 35.346C38.0787 35.3962 38.0702 35.4463 38.0519 35.4931C38.0335 35.5399 38.0057 35.5824 37.9702 35.618C37.9346 35.6535 37.8921 35.6813 37.8453 35.6997C37.7985 35.718 37.7485 35.7265 37.6982 35.7246H27.6919C27.6759 35.7263 27.6604 35.7312 27.6462 35.7389C27.6321 35.7466 27.6196 35.7571 27.6096 35.7696C27.5995 35.7822 27.592 35.7967 27.5876 35.8122C27.5832 35.8276 27.5818 35.8439 27.5837 35.8599C27.746 36.7949 28.2523 37.6354 29.003 38.2159C29.7537 38.7965 30.6945 39.0751 31.6403 38.997C32.8814 38.9707 34.0866 38.5753 35.102 37.8611C35.1416 37.8279 35.1878 37.8035 35.2376 37.7895C35.2874 37.7754 35.3396 37.7722 35.3907 37.7798C35.4418 37.7875 35.4908 37.806 35.5342 37.834C35.5777 37.862 35.6147 37.8989 35.6429 37.9422L36.8599 39.7136C36.9106 39.7923 36.9303 39.887 36.9154 39.9794C36.9004 40.0718 36.8517 40.1553 36.7787 40.214C35.1721 41.3864 33.223 41.9949 31.2347 41.9448C30.2414 42.0002 29.2476 41.8474 28.3168 41.4963C27.386 41.1451 26.5389 40.6033 25.8298 39.9057C25.1206 39.208 24.5651 38.3698 24.1989 37.4449C23.8326 36.52 23.6637 35.5287 23.7029 34.5347C23.6753 33.5645 23.8447 32.5988 24.2009 31.696C24.5571 30.7931 25.0926 29.9718 25.7751 29.2817C26.4576 28.5917 27.2729 28.0471 28.1717 27.681C29.0706 27.3149 30.0344 27.1348 31.0048 27.1517C35.2102 27.1517 38.0633 30.3023 38.0633 34.9133L38.0768 35.346Z"
          fill="#2F3747"/>
</svg>
