<svg width="48" height="48" viewBox="0 0 48 48" fill="none" xmlns="http://www.w3.org/2000/svg">
    <path d="M1.50857 32.6461C2.54726 33.4473 4.98076 34.7828 7.97811 34.7828C12.4 34.7828 14.9522 31.9635 14.9522 28.5507C14.9522 21.8437 5.12914 22.8527 5.12914 18.9057C5.12914 17.4812 6.37557 16.5315 8.33424 16.5315C9.96646 16.5315 11.1239 17.1844 11.9845 17.6889C12.6077 18.0154 13.2309 18.1341 13.6761 17.2735L14.2102 16.2941C14.5664 15.6412 14.4773 15.0774 13.8244 14.6025C12.9341 13.9497 10.8864 13 8.39359 13C4.38722 13.0002 1.30083 15.4041 1.30083 19.1137C1.30083 25.6722 11.1239 24.8413 11.1239 28.8479C11.1239 30.2721 9.93678 31.2515 7.97811 31.2515C5.90074 31.2515 4.38722 30.1833 3.70465 29.7083C2.96273 29.2928 2.45823 29.3225 1.9834 29.9754L1.33051 30.925C0.736973 31.7263 1.03374 32.2308 1.50857 32.6461ZM19.0772 16.7098H20.383C21.1843 16.7098 21.6294 16.2944 21.6294 15.4931V14.6028C21.6294 13.8015 21.1843 13.3564 20.383 13.3564H19.0772C18.276 13.3564 17.8605 13.8015 17.8605 14.6028V15.4931C17.8605 16.2944 18.276 16.7098 19.0772 16.7098ZM17.8605 33.1805C17.8605 34.0114 18.276 34.4269 19.0772 34.4269H20.383C21.1843 34.4269 21.5998 34.0114 21.5998 33.1805V20.5381C21.5998 19.7369 21.1843 19.2917 20.383 19.2917H19.0772C18.276 19.2917 17.8605 19.7369 17.8605 20.5381V33.1805ZM25.3094 29.7083C25.3094 34.0411 27.891 34.5753 29.909 34.5753C30.7993 34.5753 31.1557 34.0708 31.1557 33.2992V32.2902C31.1557 31.6076 30.7697 31.2814 30.2357 31.222C29.6716 31.1627 29.0484 30.8954 29.0484 29.4115V14.6028C29.0484 13.8015 28.6329 13.3564 27.8317 13.3564H26.5261C25.7248 13.3564 25.3094 13.8015 25.3094 14.6028V29.7083ZM33.6189 33.1805C33.6189 34.0114 34.0643 34.4269 34.8655 34.4269H36.1416C36.9724 34.4269 37.3878 34.0114 37.3878 33.1805V27.809H39.3465L42.878 33.566C43.2045 34.1598 43.6496 34.4269 44.3322 34.4269H45.935C46.9438 34.4269 47.2704 33.8037 46.7657 32.9431L42.3142 26.1176V26.058L46.0831 20.7756C46.6472 19.9743 46.3206 19.2917 45.3118 19.2917H43.8871C43.2047 19.2917 42.7596 19.5291 42.4035 20.1227L39.2575 24.6335H37.3878V14.6028C37.3878 13.8015 36.9724 13.3564 36.1416 13.3564H34.8655C34.0643 13.3564 33.6189 13.8015 33.6189 14.6028V33.1805Z"
          fill="#2F3747"/>
</svg>
