<svg width="48" height="48" viewBox="0 0 48 48" fill="none" xmlns="http://www.w3.org/2000/svg">
    <path d="M27.5016 29.9117C27.5758 30.2832 27.613 30.9332 27.613 31.8619V39.139H25.607V31.9399C25.607 31.1226 25.529 30.5119 25.3731 30.1067C25.217 29.7018 24.9403 29.3786 24.5428 29.1371C24.1454 28.8961 23.6792 28.775 23.1442 28.775C22.2898 28.775 21.5525 29.0462 20.9321 29.5885C20.3117 30.1309 20.0016 31.1599 20.0016 32.6754V39.139H17.9957V27.304H19.801V28.9867C20.6702 27.6865 21.9258 27.0365 23.5677 27.0365C24.2809 27.0365 24.9365 27.1646 25.5346 27.4209C26.1327 27.6773 26.5804 28.0135 26.8775 28.4295C27.1746 28.8456 27.3826 29.3396 27.5016 29.9117ZM46.9102 39.2118C46.3456 39.3307 45.8403 39.3901 45.3946 39.3901C44.6665 39.3901 44.1018 39.275 43.7007 39.0446C43.2995 38.8144 43.0172 38.5115 42.8537 38.1364C42.6903 37.7616 42.6085 36.9719 42.6085 35.7683V28.622H38.2534C38.2633 28.6327 38.2745 28.6416 38.2845 28.6524C39.2875 29.7296 39.7891 31.2452 39.7891 33.1992C39.7891 33.318 39.7853 33.4964 39.7779 33.7341H30.9518C31.0261 35.0343 31.3938 36.0299 32.0549 36.7208C32.7162 37.4116 33.5409 37.7571 34.529 37.7571C35.2645 37.7571 35.8923 37.564 36.4124 37.1776C36.9324 36.7913 37.3448 36.1747 37.6494 35.3277L39.7222 35.584C39.3953 36.7951 38.7898 37.7348 37.9057 38.4035C37.0215 39.0722 35.8923 39.4065 34.5178 39.4065C32.7867 39.4065 31.4142 38.8734 30.4001 37.8073C29.386 36.7416 28.8789 35.246 28.8789 33.3218C28.8789 31.3307 29.3915 29.7854 30.4167 28.6858C31.442 27.5862 32.7719 27.0365 34.4063 27.0365C34.6039 27.0365 34.7975 27.045 34.9862 27.0617H42.6084V24.4941H44.6032V27.0617H46.6203V28.6219H44.6032V35.8796C44.6032 36.4517 44.6385 36.8195 44.7091 36.9829C44.7797 37.1463 44.8948 37.2764 45.0546 37.3729C45.2143 37.4695 45.4427 37.5178 45.7399 37.5178C45.9628 37.5178 46.2563 37.4918 46.6204 37.4398L46.9102 39.2118ZM37.6717 32.0848C37.5825 31.0893 37.3298 30.3426 36.9139 29.8448C36.2749 29.0721 35.4465 28.6858 34.4287 28.6858C33.5074 28.6858 32.7329 28.9942 32.1052 29.6108C31.4774 30.2275 31.13 31.0521 31.0632 32.0848H37.6717ZM15.1397 36.7293C14.7772 36.7293 14.4696 36.8582 14.2162 37.1205C13.9628 37.3808 13.8373 37.6959 13.8373 38.0681C13.8373 38.4307 13.9628 38.7446 14.2162 39.0091C14.4696 39.2736 14.7772 39.4066 15.1397 39.4066C15.5116 39.4066 15.8281 39.2737 16.0884 39.0091C16.3495 38.7447 16.4793 38.4307 16.4793 38.0681C16.4793 37.7048 16.3496 37.3898 16.0884 37.1258C15.828 36.86 15.5116 36.7293 15.1397 36.7293ZM28.0023 25.2092C26.9621 25.6661 25.6509 25.8946 24.0685 25.8946C21.2898 25.8946 19.3656 25.3596 18.2957 24.2898C18.2912 24.2853 18.2871 24.2805 18.2826 24.2761L18.7861 25.616H13.4997L12.682 22.919H6.95098L6.15452 25.616H1L7.14046 9.2787H12.6472L16.7488 20.1942L21.2824 19.9102C21.3864 20.6903 21.5981 21.2848 21.9176 21.6933C22.4377 22.3546 23.1806 22.6851 24.1464 22.6851C24.8671 22.6851 25.4225 22.5163 25.8125 22.178C26.2026 21.8399 26.3977 21.448 26.3977 21.0023C26.3977 20.5788 26.212 20.1998 25.8404 19.8656C25.4689 19.5312 24.6071 19.2156 23.255 18.9183C21.0411 18.4207 19.4624 17.7594 18.5188 16.9347C17.5678 16.11 17.0924 15.0588 17.0924 13.7809C17.0924 12.9414 17.3357 12.1482 17.8223 11.4016C18.3089 10.6549 19.0408 10.0682 20.0178 9.64086C20.9947 9.21365 22.3338 9 24.0352 9C26.1229 9 27.7147 9.38839 28.8105 10.1646C29.9063 10.941 30.5582 12.1762 30.7663 13.87L26.0077 14.1487C25.8815 13.4131 25.6158 12.8782 25.2109 12.5439C24.8061 12.2096 24.247 12.0425 23.5338 12.0425C22.9469 12.0425 22.5048 12.1669 22.2076 12.4158C21.9104 12.6647 21.7619 12.9674 21.7619 13.3239C21.7619 13.5841 21.8844 13.8182 22.1296 14.0259C22.3674 14.2416 22.932 14.4422 23.8235 14.6277C26.0301 15.1033 27.6106 15.5845 28.5653 16.0709C29.52 16.5575 30.2147 17.1613 30.6492 17.8818C30.872 18.2509 31.0367 18.6429 31.1453 19.0568V9.2787H39.5368C41.3644 9.2787 42.7332 9.71327 43.6433 10.5825C44.5535 11.4518 45.0085 12.6887 45.0085 14.2936C45.0085 15.9429 44.5125 17.2319 43.5207 18.1606C42.5288 19.0895 41.0151 19.5536 38.9795 19.5536H36.2157V25.6161H31.1451V21.585C31.0037 22.1497 30.7663 22.6874 30.4318 23.1978C29.8522 24.0819 29.0424 24.7523 28.0023 25.2092ZM36.2155 16.2437H37.4526C38.4258 16.2437 39.1093 16.0748 39.5031 15.7366C39.8969 15.3986 40.0936 14.966 40.0936 14.4383C40.0936 13.9257 39.9228 13.4911 39.5811 13.1344C39.2393 12.7778 38.5966 12.5995 37.6531 12.5995H36.2155V16.2437ZM11.6349 19.3864L9.83173 13.5135L8.04716 19.3864H11.6349Z"
          fill="#2F3747"/>
</svg>
