<svg width="48" height="48" viewBox="0 0 48 48" fill="none" xmlns="http://www.w3.org/2000/svg">
    <path d="M42.5168 10.6C43.1768 10.6 43.6568 10.78 43.9568 11.2C44.4368 11.74 44.6168 12.58 44.4968 13.54C44.0768 17.02 42.2768 19.9 40.4168 23.02L40.3568 23.14C40.2968 23.2 40.2368 23.38 39.9968 23.86L35.0768 17.8C35.8568 16.42 37.4768 13.42 38.3168 11.8C38.4968 11.5 38.5568 11.44 38.6768 11.38C40.1168 10.84 41.3168 10.6 42.4568 10.54C42.4568 10.6 42.5168 10.6 42.5168 10.6ZM42.5168 9.57996C42.4568 9.57996 42.3968 9.57996 42.3368 9.57996C40.8968 9.63996 39.5768 9.99996 38.2568 10.48C37.7768 10.66 37.5368 10.96 37.2968 11.38C36.3968 13.06 34.6568 16.36 33.7568 17.98C35.7968 20.44 37.8968 22.96 40.1768 25.72C40.2368 25.54 41.1368 23.8 41.2568 23.68C43.1768 20.56 45.0368 17.44 45.5168 13.72C45.8168 11.68 44.9768 9.57996 42.5168 9.57996Z"
          fill="#2F3747"/>
    <path d="M5.67672 10.6C7.05672 10.6 8.37672 11.02 9.63672 11.5C10.4767 13 11.3167 14.5 12.1567 16L12.5767 16.78C12.6367 16.84 12.6967 16.96 13.5967 17.98C13.7167 18.1 13.8367 18.22 13.9567 18.34C13.1767 19.24 12.2767 20.14 11.4367 20.98C10.4767 21.94 9.51672 22.9 8.61672 23.92C8.25672 23.62 7.83672 23.2 7.71672 22.96C5.97672 20.2 4.35672 17.5 3.69672 14.5C3.51672 13.72 3.51672 12.76 3.69672 11.62C3.75672 11.02 4.53672 10.6 5.19672 10.54C5.37672 10.6 5.55672 10.6 5.67672 10.6ZM5.67672 9.57996C5.49672 9.57996 5.31672 9.57996 5.13672 9.57996C3.99672 9.63996 2.79672 10.42 2.61672 11.56C2.49672 12.64 2.43672 13.78 2.67672 14.8C3.39672 18.04 5.07672 20.86 6.81672 23.62C7.05672 23.98 8.31672 25.3 8.79672 25.3C8.85672 25.3 8.91672 25.3 8.97672 25.24C10.8967 22.78 13.2967 20.92 15.3367 18.4C15.2167 18.4 13.4767 16.36 13.4767 16.36C12.5167 14.56 11.4967 12.82 10.5367 11.02C10.4167 10.84 10.2367 10.66 9.99672 10.6C8.61672 9.99996 7.23672 9.57996 5.67672 9.57996Z"
          fill="#2F3747"/>
    <path d="M29.9164 24.0999C31.8364 26.1999 33.5164 28.4799 34.8364 30.3399C34.4164 30.7599 33.9364 31.2999 33.3964 31.8999C32.5564 32.7999 31.6564 33.6999 31.1164 34.2999L30.2164 35.2599L31.3564 35.9199C31.7764 36.1599 32.1364 36.3399 32.5564 36.5799C33.8164 37.2999 35.1364 38.0199 36.3964 38.7399C36.5164 38.7999 36.6364 38.9199 36.6364 38.9799C37.3564 40.5999 37.6564 42.0399 37.5964 43.4799C37.5364 44.4399 36.8764 45.1599 35.9164 45.2199C35.7364 45.2199 35.6164 45.2199 35.4364 45.2199C34.2964 45.2199 33.1564 44.9799 31.8964 44.5599C30.6964 44.1399 29.5564 43.4799 28.4764 42.8799C27.5764 42.3999 26.7364 41.7999 25.7764 41.2599C25.3564 41.0199 24.9364 40.7199 24.5164 40.4799L23.9164 40.1199L23.3164 40.5399C20.5564 42.4599 17.8564 44.1999 14.6764 44.9799C14.0764 45.0999 13.6564 45.2199 13.1764 45.2199C12.8764 45.2199 12.5764 45.2199 12.2164 45.1599C11.0164 44.7999 10.4164 44.0199 10.4164 42.6999C10.4164 41.1999 10.8364 40.0599 11.2564 39.1599V39.0999C11.3164 38.9799 11.5564 38.7999 11.9164 38.6199C13.0564 37.9599 14.0764 37.4199 15.1564 36.8199C15.6364 36.5799 16.1164 36.2799 16.5964 36.0399L17.7364 35.3799L16.8964 34.4199C16.4164 33.8799 15.6964 33.0399 14.9164 32.1999C14.3764 31.5999 13.8364 30.9999 13.3564 30.4599L16.7764 26.0799L18.1564 24.2799C18.8164 24.9999 19.5964 25.7799 20.3764 26.5599C21.3964 27.5799 22.3564 28.5999 23.0164 29.2599L23.7364 30.0399L24.5164 29.3199C25.2964 28.5399 26.3764 27.5199 27.4564 26.4399C28.4764 25.5399 29.2564 24.7599 29.9164 24.0999ZM29.9164 22.5399C28.3564 24.0999 25.4764 26.9199 23.9764 28.4199C22.5364 26.9799 19.8964 24.2199 18.2764 22.5999C16.1764 25.2999 14.1364 27.8799 12.1564 30.3399C13.2364 31.5999 15.2764 33.8199 16.2964 34.9599C14.6764 35.8599 13.2364 36.6399 11.6164 37.5999C11.2564 37.7799 10.5964 38.2599 10.4764 38.6199C10.0564 39.4599 9.51642 40.8399 9.51642 42.6399C9.57642 44.4999 10.5964 45.6999 12.1564 46.1199C12.5764 46.1799 12.9964 46.2399 13.3564 46.2399C13.9564 46.2399 14.4964 46.1799 15.0964 45.9999C18.4564 45.1599 21.2764 43.2999 24.0964 41.3799C25.4164 42.2199 26.7364 43.0599 28.0564 43.8399C30.3964 45.1599 32.7964 46.2999 35.4964 46.2999C35.6764 46.2999 35.8564 46.2999 36.0364 46.2999C37.5364 46.2399 38.6764 45.0399 38.7364 43.5399C38.7964 41.7999 38.3764 40.1199 37.6564 38.5599C37.5364 38.2599 37.2364 38.0199 36.9964 37.8399C35.2564 36.8199 33.5764 35.9199 31.9564 34.9599C32.9764 33.8199 35.2564 31.4199 36.2164 30.3999C34.2964 27.6399 32.2564 24.9999 29.9164 22.5399Z"
          fill="#2F3747"/>
    <path d="M3.93643 9.21991C6.03643 7.11991 8.13643 4.89991 10.3564 2.79991C11.4364 1.77991 12.9364 1.89991 14.1964 2.25991C15.9364 2.73991 17.6164 3.39991 19.2364 4.17991C20.6164 4.83991 21.8764 5.61991 23.1364 6.51991C23.8564 6.99991 24.2764 7.05991 24.9964 6.51991C27.3964 4.83991 29.8564 3.39991 32.6164 2.55991C33.3364 2.31991 34.1164 2.19991 34.8964 2.07991C36.3364 1.89991 37.5364 2.25991 38.5564 3.39991C40.1764 5.13991 41.9164 6.81991 43.5964 8.49991C43.7764 8.67991 43.9564 8.91991 44.3164 9.27991C41.6164 8.55991 39.3964 9.39991 37.2364 10.4199C35.4364 11.2599 33.6964 12.3399 31.7764 13.3599C32.7964 14.3799 33.6964 15.3399 34.5964 16.2399C35.3764 17.0199 36.1564 17.6799 36.8764 18.5199C38.2564 20.1999 39.6964 21.8799 40.8964 23.6799C42.9964 26.9199 45.1564 30.1599 45.9964 34.0599C46.4164 35.9799 46.1764 37.6599 44.5564 39.0399C42.8164 40.5399 41.3164 42.2799 39.6964 43.8999C39.5164 44.0799 39.3364 44.2599 38.9764 44.5599C39.7564 41.3799 38.4964 38.7399 37.2364 36.1599C35.8564 33.2799 33.8764 30.7599 31.8964 28.2399C29.6764 25.4799 27.4564 22.7199 24.8164 20.3199C24.5764 20.1399 24.3964 19.8999 24.0364 19.6599C22.5964 21.1599 21.0964 22.5399 19.7764 24.0999C18.4564 25.5999 17.2564 27.0999 15.9964 28.6599C13.2364 32.1999 10.5964 35.7999 9.33643 40.1799C8.91643 41.6199 8.67643 43.0599 9.39643 44.7399C9.09643 44.4399 8.91643 44.3199 8.73643 44.1399C6.93643 42.3399 5.19643 40.4799 3.33643 38.7399C2.13643 37.5999 1.83643 36.2799 2.07643 34.7799C2.37643 32.7399 3.09643 30.8799 4.05643 29.0799C5.91643 25.5999 7.95643 22.2399 10.6564 19.2999C12.2164 17.5599 13.8964 15.9399 15.5164 14.2599C15.7564 14.0199 15.9964 13.7799 16.4164 13.4199C12.3964 11.1999 8.79643 8.43991 3.93643 9.21991Z"
          fill="#2F3747"/>
</svg>
