<svg width="48" height="48" viewBox="0 0 48 48" fill="none" xmlns="http://www.w3.org/2000/svg">
    <path fill-rule="evenodd" clip-rule="evenodd"
          d="M17.9162 1.45462C19.4633 1.17146 21.2218 1.00912 23.0634 1.00041C24.9051 0.991272 26.8246 1.13617 28.6755 1.45421C31.5985 1.95783 34.0613 4.22436 34.0613 7.24114V17.8422C34.0613 20.9507 31.6705 23.4992 28.6755 23.4992H17.9162C14.2631 23.4992 11.187 26.7401 11.187 30.4146V35.5007H7.48325C4.35282 35.5007 2.52407 33.1523 1.75834 29.8566C0.725444 25.4289 0.769235 22.7829 1.75834 18.5427C2.61567 14.8433 5.35719 12.8986 8.48761 12.8986H23.3021V11.4844H12.5304V7.24155C12.5304 4.0288 13.358 2.28708 17.9162 1.45462ZM19.2593 6.5403C19.2593 5.36697 18.3509 4.41244 17.238 4.41244C16.1216 4.41244 15.2169 5.36697 15.2169 6.5403C15.2169 7.70988 16.1216 8.65527 17.238 8.65527C18.3505 8.65527 19.2593 7.70947 19.2593 6.5403Z"
          fill="#2F3747"/>
    <path fill-rule="evenodd" clip-rule="evenodd"
          d="M36.3218 17.405V12.4993H40.5314C43.7955 12.4993 45.3343 14.9044 46.14 18.1006C47.2616 22.5399 47.3114 25.8683 46.14 29.3287C45.0063 32.69 43.7917 34.9299 40.5314 34.9299H23.7185V36.3333H34.9228V40.5435C34.9228 43.7315 32.1382 45.3524 29.3142 46.1575C25.0656 47.3719 21.6606 47.186 18.1099 46.1575C15.1445 45.2988 12.5013 43.5378 12.5013 40.5435V30.0237C12.5013 26.9965 15.0407 24.4097 18.1099 24.4097H29.3142C33.0477 24.4097 36.3218 21.2086 36.3218 17.405ZM32.1248 41.239C32.1248 40.0783 31.1826 39.1401 30.0199 39.1401C28.8615 39.1401 27.9152 40.0787 27.9152 41.239C27.9152 42.4035 28.8611 43.3507 30.0199 43.3507C31.1826 43.3507 32.1248 42.4035 32.1248 41.239Z"
          fill="#2F3747"/>
</svg>
