<svg width="48" height="48" viewBox="0 0 48 48" fill="none" xmlns="http://www.w3.org/2000/svg">
    <path d="M22.1415 1H29.6337V35.4531C25.7961 36.1814 22.9709 36.4679 19.9141 36.4679C10.7634 36.4583 6 32.3567 6 24.4792C6 16.8892 11.0527 11.9633 18.8824 11.9633C20.0974 11.9633 21.023 12.0592 22.1415 12.3466V1ZM22.404 18.5555C21.5265 18.2679 20.8035 18.1721 19.8777 18.1721C16.0883 18.1721 13.8995 20.4912 13.8995 24.5555C13.8995 28.5125 15.992 30.6975 19.8296 30.6975C20.6588 30.6975 21.3338 30.6506 22.404 30.5068V18.5555Z"
          fill="#2F3747"/>
    <path d="M41.8857 12.8883V30.1385C41.8857 36.0791 41.4421 38.9359 40.1404 41.3989C38.9254 43.7668 37.3248 45.26 34.0174 46.9092L27.0652 43.6222C30.3726 42.0801 31.9732 40.7174 32.9954 38.6379C34.0655 36.5114 34.403 34.0484 34.403 27.57V12.8884L41.8857 12.8883ZM33.648 1H41.1402V8.63794H33.648V1Z"
          fill="#2F3747"/>
</svg>
