<svg width="48" height="48" viewBox="0 0 48 48" fill="none" xmlns="http://www.w3.org/2000/svg">
    <path fill-rule="evenodd" clip-rule="evenodd"
          d="M6.67871 17.2533C7.17254 16.636 7.60465 16.2039 7.85157 16.0804C8.3454 15.7718 8.7775 16.4508 8.7775 16.4508C8.7775 16.4508 9.14788 16.8829 8.96269 17.8706L8.87451 17.8881L8.8701 17.9014C8.85467 17.9477 8.83924 17.994 8.83924 18.0557C8.83924 18.1792 8.77751 18.3644 8.71578 18.4878C8.65405 18.7347 8.53059 18.9817 8.40714 19.2286C8.28368 19.5372 8.16022 19.7841 7.97503 20.0311C7.97503 20.1545 7.9133 20.2162 7.85157 20.278L7.85157 20.278C7.66661 20.5862 7.48166 20.7713 7.05071 20.9563H7.20719H7.2532H7.2992L7.30727 20.9683C7.48517 20.9198 7.65422 20.8624 7.79006 20.7719C7.79006 20.7101 7.91352 20.6484 7.85179 20.7101C7.79006 20.7719 7.79006 20.8336 7.79006 20.8953C7.79006 20.8953 7.72833 20.9571 7.72833 21.0188V21.0805C7.72833 21.1114 7.7129 21.1422 7.69746 21.1731C7.68203 21.204 7.6666 21.2348 7.6666 21.2657C7.63573 21.3274 7.60487 21.4046 7.57401 21.4818L7.574 21.4818C7.54314 21.5589 7.51228 21.6361 7.48141 21.6978C7.48141 21.7287 7.46598 21.7441 7.45055 21.7595C7.43511 21.775 7.41968 21.7904 7.41968 21.8213C7.35795 21.8213 7.35795 21.883 7.35795 21.883C7.35795 21.9447 7.29623 22.0065 7.2345 22.0682L7.23449 22.0682L7.17277 22.1299L7.04931 22.2534L6.98758 22.3151C6.9502 22.3338 6.90717 22.3581 6.86019 22.3847L6.86018 22.3847C6.75198 22.4459 6.62286 22.519 6.49374 22.562H6.6172C6.92585 22.5003 7.17277 22.3768 7.29622 22.2534C7.04931 22.7472 6.74066 23.1793 6.1851 23.3645H6.37029C6.43201 23.3336 6.50917 23.3028 6.58633 23.2719L6.58634 23.2719L6.58635 23.2719L6.58635 23.2719L6.58637 23.2719C6.66352 23.241 6.74067 23.2102 6.80239 23.1793C6.74066 23.488 6.6172 23.7966 6.49374 24.0435C6.36719 24.2544 6.26947 24.4654 6.18087 24.6566L6.18085 24.6566L6.18079 24.6568L6.18074 24.6569L6.18068 24.657L6.18062 24.6571L6.18062 24.6571C6.13966 24.7455 6.10065 24.8297 6.06164 24.9077C5.87645 25.2164 5.69126 25.525 5.44435 25.7719C4.95051 26.3275 4.14803 26.7596 3.59247 26.8213L3.12053 26.8803L3.10207 26.9365L3.53064 26.883C4.20966 27.0064 4.76522 26.883 5.32079 26.3274C5.28992 26.3891 5.25906 26.4354 5.22819 26.4817L5.22819 26.4817C5.19732 26.528 5.16646 26.5743 5.1356 26.636C4.88868 27.0681 4.58003 27.3768 3.96274 27.6237C4.36619 27.6237 4.55439 27.5699 4.72831 27.3618C4.71879 27.3771 4.71114 27.3924 4.70349 27.4077C4.68806 27.4385 4.67263 27.4694 4.64176 27.5002C4.27139 28.1175 3.53064 28.3645 2.66643 28.3027C2.85162 28.4879 2.97507 28.7348 2.97507 28.9818C2.85162 28.7348 2.72816 28.4879 2.54297 28.4262C2.6047 28.1175 2.66643 27.9324 2.72816 27.8089C2.78989 27.7472 2.78988 27.7472 2.78988 27.6854C2.82075 27.562 2.86705 27.454 2.91334 27.3459C2.95964 27.2379 3.00594 27.1299 3.0368 27.0064C3.0368 26.9755 3.05223 26.9601 3.05995 26.9524C3.06276 26.9496 3.06454 26.9478 3.06419 26.9467C3.06393 26.9458 3.06237 26.9453 3.05901 26.945H3.03791L3.03774 26.9447H3.0368L3.03768 26.9446L2.97656 26.8223C3.00153 26.7468 3.03691 26.6713 3.07423 26.5916L3.07423 26.5916C3.12861 26.4756 3.1871 26.3507 3.22347 26.2043C3.22347 26.1727 3.239 26.1414 3.25443 26.1104C3.26967 26.0797 3.28482 26.0492 3.28482 26.0187C3.29922 25.9607 3.31709 25.8994 3.33762 25.8362C3.32074 25.8777 3.30282 25.9182 3.28336 25.9571C3.22163 26.0188 3.22163 26.0806 3.22163 26.0806C3.19077 26.1732 3.14447 26.2812 3.09817 26.3892L3.09817 26.3892C3.05187 26.4972 3.00558 26.6053 2.97471 26.6979L2.35742 25.525C2.38829 25.3707 2.43458 25.2163 2.48088 25.062C2.52718 24.9077 2.57347 24.7534 2.60434 24.5991C2.6352 24.5373 2.65063 24.4756 2.66607 24.4139C2.6815 24.3521 2.69693 24.2904 2.7278 24.2287C2.7278 24.167 2.74323 24.0898 2.75866 24.0126C2.77409 23.9355 2.78952 23.8583 2.78952 23.7966C2.83283 23.6233 2.90652 23.4501 2.98928 23.2556L2.98929 23.2556L2.9893 23.2555C3.0245 23.1728 3.06133 23.0862 3.09817 22.9941C3.1599 22.8706 3.22163 22.7317 3.28336 22.5929C3.34509 22.454 3.40682 22.3151 3.46855 22.1916C3.46855 22.1608 3.48398 22.1453 3.49941 22.1299C3.51484 22.1145 3.53028 22.099 3.53028 22.0682C3.59201 21.883 3.71546 21.6361 3.83892 21.4509C4.02411 21.2039 4.14757 20.957 4.27103 20.7101C4.33276 20.5867 4.40992 20.4786 4.48708 20.3706L4.48708 20.3706C4.56424 20.2626 4.6414 20.1545 4.70313 20.0311V19.9694L5.32043 21.1422C5.28956 21.2348 5.24326 21.312 5.19697 21.3891C5.15067 21.4663 5.10437 21.5435 5.07351 21.6361C5.04264 21.6978 5.02721 21.7441 5.01178 21.7904C4.99635 21.8367 4.98091 21.883 4.95005 21.9447C4.88832 22.0682 4.82659 22.207 4.76486 22.3459C4.70313 22.4848 4.6414 22.6237 4.57967 22.7472C4.51795 22.8706 4.45622 23.0095 4.39449 23.1484L4.39449 23.1484L4.39448 23.1484C4.33275 23.2873 4.27103 23.4262 4.2093 23.5497C4.19679 23.5997 4.18175 23.6523 4.16469 23.7063C4.18006 23.6737 4.19558 23.6418 4.21112 23.611C4.27323 23.4875 4.33457 23.3487 4.39591 23.2099L4.39592 23.2099C4.45726 23.0711 4.51861 22.9323 4.58072 22.8089C4.64545 22.6802 4.71018 22.5349 4.7747 22.3901L4.7747 22.39L4.77471 22.39C4.834 22.2569 4.8931 22.1242 4.95185 22.0053C4.98195 21.9451 4.99728 21.8996 5.01252 21.8545L5.01252 21.8545L5.01253 21.8545C5.02834 21.8076 5.04405 21.761 5.07607 21.6986C5.10703 21.6041 5.15361 21.5261 5.20004 21.4484C5.24562 21.372 5.29106 21.2959 5.32145 21.2047L5.38279 21.2661H5.41311L5.41348 21.2657C5.42891 21.2503 5.44435 21.2348 5.44435 21.204L6.98758 21.0188H7.04931L7.11364 21.0107V21.0038H7.01855V20.9607L5.50586 21.1422L5.87623 20.4014C6.06142 20.0928 6.18488 19.8459 6.30834 19.5989C6.37007 19.4755 6.44723 19.352 6.52439 19.2286L6.5244 19.2286C6.60156 19.1051 6.67872 18.9817 6.74044 18.8582V18.7965C6.83476 18.6078 6.9651 18.4192 7.07642 18.2581C7.11082 18.2083 7.14341 18.1612 7.17255 18.1174H7.17259C7.40807 17.7642 7.60145 17.4952 7.75271 17.297C7.53516 17.5595 7.31012 17.8385 7.11081 18.1175L6.67871 17.2533ZM4.76522 27.3151C4.74965 27.3306 4.73801 27.3462 4.72831 27.3618C4.74066 27.347 4.75294 27.3314 4.76522 27.3151ZM7.15965 21.005L7.17026 21.0037L7.15965 21.0038V21.005ZM3.186 26.6753C3.25049 26.4711 3.30287 26.3052 3.37755 26.1437C3.33008 26.2505 3.29152 26.3661 3.25296 26.4818L3.25296 26.4818L3.25295 26.4818C3.23052 26.5491 3.20809 26.6164 3.18391 26.682L3.186 26.6753ZM3.90065 24.3521C3.91597 24.3215 3.93128 24.2899 3.94648 24.2576C3.92929 24.3118 3.91408 24.3645 3.90133 24.4146C3.84209 24.5331 3.78285 24.6666 3.73051 24.8007L3.74633 24.7534C3.79263 24.6145 3.83892 24.4756 3.90065 24.3521ZM3.59201 25.1546C3.61339 25.1118 3.63293 25.0672 3.65125 25.0214C3.62917 25.0891 3.60996 25.1548 3.59461 25.2167C3.53478 25.3356 3.47495 25.4687 3.42214 25.6024L3.43768 25.5559C3.48398 25.417 3.53028 25.2781 3.59201 25.1546ZM5.75252 20.3398C5.81425 20.2163 5.89141 20.0928 5.96858 19.9694C6.04574 19.8459 6.1229 19.7225 6.18463 19.599C6.24635 19.4756 6.32351 19.3521 6.40067 19.2286L6.40068 19.2286C6.47784 19.1052 6.555 18.9817 6.61673 18.8583V18.7965C6.71105 18.6079 6.84139 18.4193 6.95271 18.2582C6.98711 18.2084 7.01969 18.1612 7.04884 18.1175L6.61673 17.2533L6.49327 17.3768L6.49327 17.3768C6.36981 17.5619 6.24636 17.7471 6.06117 17.9323C5.94571 18.0478 5.85425 18.1872 5.75686 18.3357L5.75685 18.3357L5.75685 18.3357C5.69803 18.4254 5.63706 18.5184 5.56733 18.6113C5.4821 18.7818 5.36743 18.9229 5.24366 19.0751C5.18816 19.1434 5.13083 19.2139 5.0735 19.2904C5.01177 19.383 4.95004 19.491 4.88832 19.599L4.88831 19.599C4.82658 19.707 4.76485 19.8151 4.70312 19.9077L5.32042 21.0805C5.50561 20.8336 5.62906 20.5867 5.75252 20.3398ZM2.17285 26.6978L2.35804 25.5867L2.91361 26.6361C2.91361 26.6669 2.89817 26.6978 2.88274 26.7287C2.86731 26.7595 2.85188 26.7904 2.85188 26.8213C2.82101 26.9447 2.77472 27.0527 2.72842 27.1608C2.68212 27.2688 2.63582 27.3768 2.60496 27.5003V27.562C2.60496 27.5929 2.58953 27.6237 2.5741 27.6546C2.55866 27.6855 2.54323 27.7163 2.54323 27.7472C1.80248 29.9077 1.30864 31.5127 1.24692 31.7596C1.18519 31.8831 1.12346 31.9448 1 32.0065C1.12937 31.5999 1.2532 31.1989 1.37482 30.805C1.65941 29.8833 1.93185 29.001 2.23459 28.1793C1.98767 28.1176 1.61729 28.1793 1.18519 28.3645C1.24689 28.3275 1.3086 28.288 1.3703 28.2485L1.37037 28.2484C1.61729 28.0904 1.86421 27.9324 2.11113 27.9324C1.98767 27.9324 1.74075 27.8707 1.43211 27.562C1.74075 27.6855 1.98767 27.7472 2.17285 27.6855C2.11113 27.1916 1.86421 26.6361 1.49383 26.1422C1.49383 26.1422 1.98767 26.4509 2.17285 26.7595V26.6978ZM9.07239 31.6762H9.68584C9.77509 31.6762 9.87733 31.6632 9.99256 31.6486C10.2733 31.6129 10.6312 31.5675 11.0661 31.6762C11.3728 31.6762 11.6795 31.5229 11.9862 31.2161C12.293 30.9094 12.4463 30.6027 12.5997 30.296L12.5997 30.296L12.5997 30.296C12.7531 29.9892 12.7531 29.5292 12.7531 29.0691V29.0691V20.7876H10.9127V29.0691C10.9127 29.2488 10.8601 29.3758 10.8165 29.4811C10.7857 29.5555 10.7594 29.619 10.7594 29.6825L10.4526 29.9892C10.376 29.9892 10.2993 30.0276 10.2226 30.0659L10.2226 30.0659C10.1459 30.1043 10.0692 30.1426 9.99255 30.1426H9.07239C8.91903 29.9892 8.76567 29.9892 8.6123 29.9892V31.5229C8.76566 31.6762 8.91903 31.6762 9.07238 31.6762H9.07239ZM16.8935 29.0692L15.0532 22.3213V29.0692H13.3662V20.481H15.82L17.6603 27.0755L19.654 20.481H22.1078V29.0692H20.4208V25.0818V24.7751V24.315V23.8549V23.3948V22.3213L18.4271 29.0692H16.8935ZM25.9418 23.7015C25.6351 23.7015 25.3284 23.8549 25.175 24.0083C25.0216 24.1616 24.8683 24.6217 24.8683 25.0818H27.1687V24.4683C27.1687 24.3917 27.1303 24.315 27.092 24.2383L27.092 24.2383C27.0537 24.1616 27.0153 24.0849 27.0153 24.0083L26.7086 23.7015H25.9418ZM26.0952 29.2225C25.6351 29.2225 25.175 29.2225 24.8683 29.0692C24.4082 28.9158 24.1015 28.7624 23.7947 28.4557C23.488 28.149 23.3347 27.8423 23.1813 27.3822L23.1813 27.3822C23.0279 26.9221 22.8746 26.462 22.8746 25.8486C22.8746 25.2351 22.8746 24.7751 23.0279 24.315C23.1813 23.8549 23.3347 23.5482 23.6414 23.2415C23.9481 22.9347 24.2548 22.7814 24.5616 22.628C24.8683 22.4746 25.3284 22.4746 25.7884 22.4746C26.2485 22.4746 26.5552 22.4746 27.0153 22.628C27.322 22.7814 27.6288 22.9347 27.9355 23.2415C28.2422 23.5482 28.3956 23.8549 28.5489 24.1616C28.7023 24.4683 28.7023 24.9284 28.7023 25.3885V26.3087H24.7149C24.7149 26.6154 24.7149 26.7688 24.8683 26.9221C24.8683 27.0755 25.0216 27.2288 25.175 27.3822C25.3284 27.5356 25.4817 27.6889 25.6351 27.6889C25.7118 27.6889 25.8268 27.7273 25.9418 27.7656C26.0568 27.8039 26.1718 27.8423 26.2485 27.8423H26.862C27.0153 27.8423 27.1687 27.8423 27.322 27.6889C27.3987 27.6889 27.4754 27.6506 27.5521 27.6122C27.6288 27.5739 27.7054 27.5356 27.7821 27.5356C27.8588 27.5356 27.9355 27.4972 28.0122 27.4589C28.0888 27.4205 28.1655 27.3822 28.2422 27.3822V28.7624C28.0888 28.9158 27.9355 28.9158 27.7821 28.9158C27.7054 28.9158 27.6288 28.9541 27.5521 28.9925C27.4754 29.0308 27.3987 29.0692 27.322 29.0692C27.1687 29.0692 27.0153 29.0692 26.7086 29.2225H26.0952ZM32.383 27.8423H32.843C32.9197 27.8423 32.9964 27.8039 33.0731 27.7656C33.1498 27.7273 33.2264 27.6889 33.3031 27.6889V29.0692C33.1498 29.2225 32.9964 29.2225 32.6897 29.2225C32.5363 29.2225 32.4213 29.2609 32.3063 29.2992C32.1912 29.3375 32.0762 29.3759 31.9229 29.3759C31.6161 29.3759 31.3094 29.3759 31.1561 29.2225C31.0794 29.1458 30.9644 29.1075 30.8493 29.0692C30.7343 29.0308 30.6193 28.9925 30.5426 28.9158C30.4659 28.8391 30.3893 28.7241 30.3126 28.6091C30.2359 28.4941 30.1592 28.379 30.0825 28.3024C29.9292 27.9956 29.9292 27.6889 29.9292 27.2288V23.8549H29.009V23.0881L29.9292 22.4746L30.3893 21.0944H31.4628V22.4746H32.9964V23.8549H31.4628V27.0755C31.4628 27.3822 31.4628 27.5356 31.6161 27.6889C31.7695 27.6889 31.8845 27.7273 31.9995 27.7656C32.1146 27.8039 32.2296 27.8423 32.383 27.8423ZM36.6771 23.7015C36.3703 23.7015 36.0636 23.8549 35.9102 24.0083C35.7569 24.1616 35.6035 24.6217 35.6035 25.0818H37.9039V24.4683C37.9039 24.3917 37.8656 24.315 37.8273 24.2383C37.7889 24.1616 37.7506 24.0849 37.7506 24.0083L37.4439 23.7015H36.6771ZM36.8304 29.2225C36.3703 29.2225 35.9103 29.2225 35.6035 29.0692C35.5311 29.033 35.4502 28.9968 35.3647 28.9585C35.0881 28.8349 34.7643 28.69 34.53 28.4557C34.2233 28.149 34.0699 27.8423 33.9166 27.3822C33.7632 26.9221 33.6098 26.462 33.6098 25.8486C33.6098 25.2351 33.6098 24.7751 33.7632 24.315C33.9166 23.8549 34.0699 23.5482 34.3766 23.2415C34.6834 22.9347 34.9901 22.7814 35.2968 22.628C35.6035 22.4746 36.0636 22.4746 36.5237 22.4746C36.9838 22.4746 37.2905 22.4746 37.7506 22.628C38.0573 22.7814 38.364 22.9347 38.6707 23.2415C38.9775 23.5482 39.1308 23.8549 39.2842 24.1616C39.4375 24.4683 39.4375 24.9284 39.4375 25.3885V26.3087H35.4502C35.4502 26.6154 35.4502 26.7688 35.6035 26.9221C35.6035 27.0755 35.7569 27.2288 35.9102 27.3822C36.0636 27.5356 36.217 27.6889 36.3703 27.6889C36.447 27.6889 36.562 27.7273 36.6771 27.7656C36.7921 27.8039 36.9071 27.8423 36.9838 27.8423H37.5972C37.7506 27.8423 37.9039 27.8423 38.0573 27.6889C38.134 27.6889 38.2107 27.6506 38.2873 27.6122C38.364 27.5739 38.4407 27.5356 38.5174 27.5356C38.5941 27.5356 38.6707 27.4972 38.7474 27.4589C38.8241 27.4205 38.9008 27.3822 38.9775 27.3822V28.7624C38.8241 28.9158 38.6707 28.9158 38.5174 28.9158C38.4407 28.9158 38.364 28.9541 38.2873 28.9925C38.2107 29.0308 38.134 29.0692 38.0573 29.0692C37.9039 29.0692 37.7506 29.0692 37.4439 29.2225H36.8304ZM43.4249 22.4746H44.0384V24.1616H43.4249C43.1182 24.1616 42.9648 24.1616 42.8115 24.315C42.6581 24.315 42.5048 24.4683 42.3514 24.6217C42.198 24.7751 42.0447 24.9284 42.0447 25.0818C42.0447 25.1453 42.0184 25.2351 41.9876 25.3404L41.9875 25.3404C41.9439 25.4892 41.8913 25.6689 41.8913 25.8486V29.2225H40.051V22.628H41.2779L41.5846 23.5482H41.738C41.8146 23.4715 41.853 23.3948 41.8913 23.3181C41.9297 23.2414 41.968 23.1648 42.0447 23.0881L42.3514 22.7814C42.5048 22.628 42.6581 22.628 42.8115 22.628C42.9648 22.4746 43.1182 22.4746 43.4249 22.4746ZM44.3458 22.4746H44.8059V20.941H45.266V20.6343H43.8857V20.941H44.3458V22.4746ZM46.3391 22.4746L45.879 20.941V22.6279H45.5723V20.7876H46.1857L46.6458 22.1678L47.1059 20.7876H47.4126V22.6279H47.1059V21.7078V21.5544V21.401V21.0943L46.6458 22.6279H46.3391V22.4746ZM11.9799 16.2328L10.6963 19.2801H11.0705L11.4447 18.317H12.8357L13.2083 19.2801H13.5304L12.2468 16.2328H11.9799ZM11.4447 18.0501L12.0873 16.5533L12.6746 18.0501H11.4447ZM13.8509 16.2328V19.2801H14.1714V18.1575H15.1867C15.6682 18.1575 16.0424 17.6744 16.0424 17.1944C16.0424 16.7144 15.6682 16.2328 15.1346 16.2328H13.8509ZM15.0809 17.837H14.1178H14.0641V16.446H15.0272C15.4014 16.446 15.6682 16.7665 15.6682 17.1407C15.6682 17.5149 15.4551 17.837 15.0809 17.837ZM17.1114 16.2328L15.8293 19.2801H16.2035L16.5777 18.317H17.9671L18.3398 19.2801H18.6618L17.3782 16.2328H17.1114ZM16.6298 18.0501L17.2709 16.5533L17.8598 18.0501H16.6298ZM21.2276 16.8202C21.0681 16.446 20.6402 16.1791 20.105 16.1791C19.1971 16.1791 18.6618 16.9812 18.6097 17.6223C18.6097 18.4243 19.1971 19.2264 20.0513 19.2264C20.5329 19.2264 21.0665 19.0117 21.2813 18.5317L21.0144 18.4243C20.7997 18.8522 20.3734 19.0117 20.0513 19.0117C19.4103 19.0117 18.9287 18.4243 18.9287 17.7296C18.9287 17.0886 19.3029 16.446 20.0513 16.446C20.3718 16.446 20.746 16.5533 20.9607 16.9812L21.2276 16.8202ZM24.1138 19.2264V16.1791L23.847 16.1822V17.5165H22.0297V16.1807H21.7076V19.2249H22.0297V17.7833H23.7933V19.2264H24.1138ZM26.8943 19.2264V18.9596L26.8927 19.0102H25.1812V17.8354H26.678V17.5671H25.1812V16.4445H26.8943V16.1776H24.8622V19.2264H26.8943Z"
          fill="#2F3747"/>
</svg>
