<svg width="48" height="48" viewBox="0 0 48 48" fill="none" xmlns="http://www.w3.org/2000/svg">
    <path d="M46.4007 5.58123C46.2548 3.79061 44.8886 2.37139 43.0051 2.30507C40.9758 2.15917 34.3306 2.07958 32.4472 2.07958C35.8427 4.38748 36.2937 8.72475 36.5987 16.8555C36.8242 21.6304 36.6783 38.4887 36.6783 39.2315L36.5324 43.781L18.7324 26.1003V20.5826L32.9114 34.682C32.9114 31.8436 32.991 28.2623 32.991 24.9066C32.991 21.6968 32.9114 18.792 32.8451 17.2268C32.3145 8.41968 31.4922 4.24158 26.81 2.67645C25.3776 2.15917 24.091 2 21.8361 2C20.0322 2 7.28572 2 5.40226 2.07958C3.43922 2.22548 2.1659 3.56513 2.08631 5.43533C2.00673 7.22594 1.94041 40.5711 2.08631 42.3618C2.1659 44.1524 3.59839 45.5716 5.40226 45.6379C7.43163 45.7838 14.0768 45.7838 15.9603 45.7838C12.5647 43.4759 12.1137 39.0723 11.8087 31.0079C11.5832 26.1534 11.8087 9.37467 11.8087 8.6319L11.8883 4.08242L29.7546 21.6835V27.2012L15.4828 13.1947C15.4828 15.9535 15.4032 19.6143 15.4032 22.8905C15.4032 26.1667 15.4828 29.0847 15.5491 30.5702C16.0796 39.4437 16.902 43.5555 21.5841 45.1869C23.0166 45.7042 24.3695 45.7838 26.558 45.8634C28.3619 45.8634 41.188 45.8634 42.9919 45.7838C44.9549 45.6379 46.2282 44.2187 46.3874 42.4281C46.467 40.6375 46.467 7.37184 46.4007 5.58123Z"
          fill="#2F3747"/>
</svg>
