<svg width="48" height="48" viewBox="0 0 48 48" fill="none" xmlns="http://www.w3.org/2000/svg">
    <path fill-rule="evenodd" clip-rule="evenodd"
          d="M35.3149 3.90354C37.5291 1.94597 39.7696 1.2893 41.6225 2.93192V2.92535C46.1437 6.94714 41.6553 16.167 37.535 22.6532C34.5318 23.6192 31.0488 25.7418 31.0488 25.7418L32.4157 25.1372L36.6544 24.0069C34.4463 27.3518 32.5406 29.6913 32.5406 29.6913C32.5406 29.6913 28.6765 31.2685 27.4805 34.9223C28.1771 31.0253 29.3271 26.951 30.9503 22.6137C32.396 18.7431 37.2393 8.28117 40.8208 5.04796C36.891 8.17602 32.6063 14.7344 29.498 22.9686C27.6645 28.377 26.6788 33.5685 26.5145 37.8729C26.4093 40.6921 26.659 43.1301 27.2505 44.9965L26.9745 45.1476C26.567 44.2013 26.245 42.4336 26.0742 40.3767C26.0717 40.3461 26.0692 40.3154 26.0668 40.2848H8.28578C6.48517 40.2848 5 38.8128 5 36.9991V7.19048C5 5.38988 6.47203 3.9047 8.28578 3.9047H35.3049C35.3006 3.91172 35.2963 3.91874 35.292 3.92576L35.3136 3.9047H35.3049L35.3212 3.87842L35.3149 3.90354Z"
          fill="#2F3747"/>
</svg>
