<svg width="48" height="48" viewBox="0 0 48 48" fill="none" xmlns="http://www.w3.org/2000/svg">
    <path d="M14.2728 4C13.0305 4.0027 11.8144 4.70797 11.189 5.78376L1.46184 22.6808C0.846053 23.7595 0.846053 25.1695 1.46184 26.2482L11.189 43.1454C11.8144 44.2212 13.0305 44.9267 14.2728 44.9292H33.7272C34.9696 44.9265 36.1857 44.2212 36.811 43.1454L46.5382 26.2482C47.154 25.1695 47.1538 23.7595 46.5382 22.6808L36.811 5.78376C36.1857 4.70779 34.9696 4.00252 33.7272 4L14.2728 4ZM14.4495 13.8851C14.4762 13.8824 14.5043 13.8824 14.531 13.8851H17.8865C17.9611 13.8876 18.0338 13.9088 18.098 13.9469C18.1621 13.985 18.2156 14.0386 18.2535 14.1029L23.9458 24.2466C23.9745 24.2969 23.9928 24.3527 23.9997 24.4102C24.0069 24.3527 24.0252 24.2969 24.0539 24.2466L29.7326 14.1029C29.7717 14.0368 29.8274 13.982 29.894 13.9438C29.9607 13.9056 30.0362 13.8854 30.113 13.8851H33.4687C33.7657 13.8877 33.9883 14.2619 33.8491 14.525L28.2926 24.4646L33.8491 34.3905C34.0014 34.655 33.7736 35.0466 33.4687 35.0441H30.113C30.0348 35.0424 29.9585 35.0201 29.8917 34.9795C29.8249 34.9388 29.77 34.8813 29.7326 34.8126L24.0539 24.6687C24.0252 24.6186 24.0069 24.5627 23.9999 24.5054C23.9929 24.5629 23.9745 24.6185 23.9458 24.6689L18.2533 34.8126C18.2171 34.8793 18.1644 34.9357 18.1002 34.9762C18.036 35.0167 17.9625 35.0401 17.8867 35.0441H14.5309C14.2259 35.0467 13.9981 34.655 14.1505 34.3905L19.7069 24.4646L14.1505 14.525C14.0173 14.2849 14.1799 13.9364 14.4495 13.8851Z"
          fill="#2F3747"/>
</svg>
