<svg width="48" height="48" viewBox="0 0 48 48" fill="none" xmlns="http://www.w3.org/2000/svg">
    <path d="M29.3414 3C49.5613 16.7514 43.021 31.9164 43.021 31.9164C43.021 31.9164 48.7707 38.4088 46.4468 44.0866C46.4468 44.0866 44.0751 40.1097 40.0982 40.1097C36.265 40.1097 34.013 44.0866 26.2988 44.0866C9.1215 44.0866 1 29.7363 1 29.7363C16.4764 39.9181 27.0415 32.7069 27.0415 32.7069C20.0699 28.6582 5.24043 9.30075 5.24043 9.30075C18.1534 20.2971 23.7354 23.1959 23.7354 23.1959C20.4053 20.4409 11.062 6.9769 11.062 6.9769C18.5367 14.5474 33.3902 25.1125 33.3902 25.1125C37.6066 13.4214 29.3414 3 29.3414 3Z"
          fill="#2F3747"/>
</svg>
