<svg width="48" height="48" viewBox="0 0 48 48" fill="none" xmlns="http://www.w3.org/2000/svg">
    <path fill-rule="evenodd" clip-rule="evenodd"
          d="M19.5797 40.1649C21.2254 39.9953 21.4425 38.2538 20.6672 37.4929C20.0288 36.8668 16.5054 34.2511 15.5861 33.2227C15.1596 32.7458 14.581 32.5114 14.336 31.9751C13.7726 30.7412 13.3777 28.98 14.0925 27.7158C14.222 27.4871 14.3051 27.5895 14.2062 28.0657C13.6448 30.7637 15.4017 32.9683 15.7885 31.8375C16.0556 31.0565 15.8082 29.6596 15.9508 28.5503C16.2035 26.5871 17.9906 22.8171 18.7755 22.6017C17.5651 20.3591 20.1952 18.6039 20.1632 16.6358C20.1417 15.3558 21.287 18.2094 22.4382 18.8144C23.7235 19.4898 25.1362 17.541 27.142 16.5521C27.709 16.2723 28.4371 15.9509 28.3882 15.7123C28.1524 14.5614 25.7542 17.1321 23.6116 17.2186C22.6339 17.2577 22.271 17.0265 21.8934 16.6619C20.7517 15.5582 22.0099 16.4792 23.707 16.1723C24.4619 16.0357 24.7153 15.9097 25.5156 15.5863C26.3163 15.2629 27.2314 14.7839 28.1373 14.5379C28.7676 14.3665 28.7155 13.8927 28.4699 13.7502C28.3284 13.6682 28.1193 13.6763 27.9536 13.9628C27.5647 14.635 25.7367 15.0235 25.1668 15.1978C24.4341 15.4216 23.6236 15.631 22.5477 15.5874C20.9125 15.5212 21.2937 14.7716 20.1238 14.1007C19.7806 13.904 19.8736 13.3877 20.329 12.9319C20.5676 12.693 21.2222 12.5582 21.5467 12.0147C21.5921 11.9384 22.0102 11.5013 22.3382 11.2746C22.4516 11.1961 22.4614 9.19952 21.4369 9.15835C20.5665 9.12315 20.3191 9.79783 20.3557 10.4704C20.392 11.1423 20.7481 11.6966 20.9854 11.6941C21.4422 11.6892 21.0146 12.1939 20.7643 12.2752C20.3842 12.3991 19.8634 10.7791 19.9232 10.0013C19.9858 9.19108 20.4075 7.75654 21.433 7.78434C22.3565 7.80933 23.0256 8.96689 22.9918 10.9638C22.9855 11.3024 24.489 10.8023 24.9909 11.3323C25.3492 11.7114 23.7619 7.79455 27.2972 7.52496C28.2284 7.70304 29.1231 8.01311 29.4947 10.1544C29.3571 10.3771 29.7263 11.8708 29.1516 12.0482C28.4498 12.2646 28.0166 12.0169 28.4224 11.3489C28.7 10.6777 28.4287 8.97076 27.0089 9.07317C25.5888 9.17559 25.7771 11.6952 26.166 11.7452C26.5556 11.7948 27.5362 12.4906 28.2207 12.624C30.4665 13.0611 28.8165 14.3489 29.108 15.9076C29.4374 17.6681 30.5967 17.2032 31.6388 21.865C31.8567 22.1491 32.7193 22.4176 33.5608 25.9994C34.3175 29.2211 33.2458 31.5644 35.0654 31.3722C35.475 31.3289 36.0737 31.2142 36.3341 30.3012C37.0155 27.9154 35.9931 25.0713 34.9615 23.1525C34.3608 22.0336 33.7945 21.272 33.496 21.0102C34.6782 21.7091 36.1898 23.9412 36.5386 25.5989C36.9972 27.776 37.3235 28.697 36.6308 30.9991C37.031 31.199 38.0263 31.6221 38.0263 32.0969C36.9898 31.2444 33.8152 31.0931 33.7336 33.1312C33.1919 33.1421 32.783 33.1861 32.4346 33.6C31.158 35.1145 32.343 38.156 32.2139 39.7865C32.0999 41.2218 31.7018 42.644 31.4769 44.0856C30.7174 44.0567 30.7917 43.5007 31.0356 42.7204C31.2506 42.0323 31.5973 41.1697 31.6198 40.3426C31.6406 39.594 31.5586 39.1267 31.3703 39.0105C31.1813 38.8944 30.8856 39.1295 30.4774 39.7873C29.6056 41.1908 27.7174 41.8081 25.9542 42.0295C24.1909 42.2502 22.5519 42.0749 21.684 41.1028C21.3873 40.7702 20.8953 41.1936 20.8368 41.2816C20.7584 41.3999 21.124 41.6293 21.3996 42.1354C21.8022 42.8738 22.1848 43.9941 21.2314 44.5055C21.2437 41.906 20.4208 41.7536 19.5797 40.1649ZM18.9497 40.0963C19.5814 41.0909 21.8079 45.2787 17.9051 45.8224C16.5997 46.004 14.4983 45.0629 12.4619 44.5646C10.6325 44.1173 8.77455 43.8526 7.73455 43.5598C7.10844 43.3845 6.84694 43.1596 6.79239 42.8971C6.64809 42.202 7.55259 41.2274 7.59835 40.4046C7.6441 39.5817 7.29813 39.1534 7.01482 38.4826C6.7308 37.809 6.65724 37.305 6.88425 37.0164C7.06092 36.7922 7.41991 36.6982 8.00414 36.7552C8.74464 36.8288 9.63858 36.6767 10.119 36.3839C10.9281 35.8898 11.3086 34.8786 10.9447 33.6599C10.9447 34.8526 10.5536 35.3041 9.57347 35.8493C8.64961 36.3635 7.22352 35.9475 6.5682 36.5166C5.77948 37.2004 6.84975 38.9679 6.76212 40.2641C6.6949 41.2609 5.65489 42.3832 6.11876 43.3827C6.58544 44.3883 8.76118 44.4984 11.0295 44.9721C14.254 45.6472 16.1338 46.8213 17.6236 46.8762C19.7968 46.9571 20.1298 44.7261 23.5423 44.6959C24.5376 44.6438 25.5111 44.6128 26.4835 44.6005C27.5854 44.5868 28.686 44.5956 29.8161 44.623C32.0872 44.6779 31.3062 45.8629 32.7795 46.62C34.0229 47.2584 36.2578 47.0064 36.7924 46.4961C37.5163 45.8059 39.4587 44.1458 40.9471 43.3958C42.8022 42.461 47.159 40.8515 43.9964 38.8891C43.2594 38.4312 41.5162 37.948 41.3698 34.6024C40.7099 35.1887 40.7863 38.3059 42.6277 38.9246C44.6844 39.6155 45.9697 40.7724 42.1458 42.0805C39.6136 42.946 39.1838 43.2128 37.1795 44.881C35.1509 46.5693 32.1417 45.8992 32.6668 42.3445C32.941 40.4926 33.0987 38.9626 32.638 37.3525C32.4124 36.5669 32.3005 35.5576 32.4546 34.8505C32.7538 33.4751 33.4981 33.0612 34.2281 34.3817C34.686 35.2105 34.8468 36.1791 36.4869 36.2583C39.0631 36.3815 39.5735 33.7686 40.3967 33.6496C40.946 33.5705 41.4951 32.0156 41.0766 29.5012C40.6286 26.8096 39.0448 22.5584 37.0134 20.4027C35.3251 18.6113 34.2612 17.0402 33.5914 14.7983C33.029 12.9147 32.7158 11.0814 32.8312 9.32869C32.9811 7.05757 31.7219 3.89709 29.7165 2.41046C28.4614 1.47956 26.4933 0.980854 24.7121 1.00056C23.7126 1.01147 22.7725 1.15718 22.0497 1.5496C19.076 3.16398 18.6608 5.46994 18.7054 8.1018C18.7473 10.5739 18.8314 13.3951 19.1123 16.079C18.7797 17.3112 17.0485 19.6474 15.9398 21.0689C14.4494 22.5415 13.6965 25.387 12.7322 27.8731C12.2177 29.1986 11.3512 29.7972 11.2783 31.5014C11.2579 31.9782 11.2744 33.2108 11.7299 32.8581C13.4727 31.5098 15.6544 34.9093 18.9497 40.0963ZM27.9976 4.46091C27.9039 4.74176 27.5172 4.97581 27.7625 5.17254C28.0078 5.36928 28.1489 4.89767 28.643 4.721C28.7708 4.67524 29.3649 4.74 29.474 4.45774C29.5215 4.33456 29.1674 4.19413 28.957 3.99247C28.7458 3.79115 28.5389 3.61201 28.3411 3.62468C27.8293 3.65741 28.0806 4.21208 27.9976 4.46091ZM31.0268 14.7124C31.2108 14.5192 31.3059 15.0461 31.8007 15.3582C32.1931 15.606 32.5746 15.4223 32.6735 15.9238C32.7443 16.2835 32.5201 16.6735 32.2185 16.6228C31.6944 16.5345 30.4834 15.284 31.0268 14.7124ZM22.851 11.5488C22.0356 11.4879 21.9796 12.0774 22.2496 12.0675C22.5251 12.0577 22.3558 11.6012 22.851 11.5488ZM21.4524 10.0431C21.5488 10.022 21.6857 10.1864 21.6432 10.4166C21.584 10.7361 21.6097 10.9364 21.8311 10.9371C21.8677 10.9371 21.9071 10.93 21.9208 10.8473C22.0271 10.2107 21.6963 9.74328 21.5611 9.70879C21.2497 9.62925 21.2873 10.0783 21.4524 10.0431ZM27.3873 9.7739C27.5942 9.83549 27.7934 10.1934 27.8367 10.5802C27.8409 10.6165 28.107 10.5246 28.1088 10.4401C28.126 9.81754 27.5939 9.52472 27.4552 9.53739C27.1349 9.56625 27.2257 9.72533 27.3873 9.7739ZM24.3447 11.6248C25.0862 11.2809 25.3456 11.8134 25.0898 11.899C24.8286 11.9866 24.8265 11.4995 24.3447 11.6248ZM15.3905 24.2569C15.0399 24.2143 15.4925 23.951 15.6843 23.6199C15.8951 23.2552 15.8543 22.8002 16.0761 22.8674C16.2974 22.9346 16.1742 23.1894 16.0226 23.6072C15.893 23.963 15.5196 24.2724 15.3905 24.2569Z"
          fill="#2F3747"/>
</svg>
