<svg width="48" height="48" viewBox="0 0 48 48" fill="none" xmlns="http://www.w3.org/2000/svg">
    <path fill-rule="evenodd" clip-rule="evenodd"
          d="M32.7364 21.2872H33.6356V25.8941H37.534L36.9615 26.7941H32.7364V21.2872ZM25.6757 26.7941L22.3498 21.5462C22.1453 21.2056 21.6002 21.2056 21.3684 21.5599L18.0699 26.7941H19.1603L20.1554 25.2128H22.2818L22.8408 24.3131H20.7145L21.8731 22.5005L24.5857 26.7941H25.6757ZM27.6995 21.289C26.1799 21.289 25.1796 22.5209 25.1796 24.0406C25.1796 25.5602 26.1802 26.7926 27.6995 26.7926L31.3944 26.7881L31.9726 25.8961H27.7266C26.7024 25.8961 26.103 25.0654 26.103 24.0406C26.103 23.0159 26.7021 22.1852 27.7266 22.1852H31.509L32.0673 21.2862L27.6995 21.289ZM4.63726 22.1852H8.53542C9.56013 22.1852 10.1593 23.0159 10.1593 24.0406C10.1593 25.0654 9.56038 25.8961 8.53542 25.8961H4.63726C3.61255 25.8961 3.01366 25.0654 3.01366 24.0406C3.01366 23.0159 3.61255 22.1852 4.63726 22.1852ZM4.63726 21.289C3.1175 21.289 2.11719 22.5209 2.11719 24.0406C2.11719 25.5602 3.1175 26.7926 4.63726 26.7926H8.53542C10.0552 26.7926 11.0555 25.5602 11.0555 24.0406C11.0555 22.5209 10.0552 21.289 8.53542 21.289H4.63726ZM38.4949 24.4769C38.6414 25.2912 39.2017 25.8961 40.0762 25.8961H44.3223L43.7435 26.7881L40.0491 26.7926C38.5291 26.7926 37.5293 25.5602 37.5293 24.0406C37.5293 22.5209 38.5293 21.289 40.0491 21.289L44.4166 21.2865L43.8588 22.1854H40.0765C39.2141 22.1854 38.6513 22.7801 38.4952 23.5775H43.8317L43.2592 24.4772L38.4949 24.4769ZM16.1412 24.5566C16.5696 24.5491 16.9779 24.3737 17.2782 24.0681C17.5785 23.7625 17.7468 23.3512 17.7468 22.9228C17.7468 22.4944 17.5785 22.0831 17.2782 21.7775C16.9779 21.4719 16.5696 21.2965 16.1412 21.289L11.5545 21.287V26.7938H12.5633V22.1854H16.1412C16.3368 22.1854 16.5243 22.2631 16.6626 22.4014C16.8009 22.5397 16.8786 22.7272 16.8786 22.9228C16.8786 23.1184 16.8009 23.3059 16.6626 23.4442C16.5243 23.5825 16.3368 23.6601 16.1412 23.6601H13.272L16.5088 26.7876H17.8109L15.4938 24.5586L16.1412 24.5566ZM45.3589 21.2922C45.5927 21.2922 45.7778 21.477 45.7778 21.722C45.7778 21.971 45.593 22.1543 45.3589 22.1543C45.1221 22.1543 44.9378 21.971 44.9378 21.722C44.9378 21.477 45.1221 21.2922 45.3589 21.2922V21.2061C45.0743 21.2061 44.8337 21.4249 44.8337 21.7218C44.8337 22.0216 45.0745 22.2405 45.3589 22.2405C45.6411 22.2405 45.8819 22.0216 45.8819 21.7218C45.8819 21.4249 45.6411 21.2061 45.3589 21.2061V21.2922Z"
          fill="#2F3747"/>
    <path fill-rule="evenodd" clip-rule="evenodd"
          d="M45.2501 21.5016H45.3736C45.4363 21.5016 45.5033 21.5153 45.5033 21.5893C45.5033 21.6809 45.4348 21.6866 45.3579 21.6866H45.2498V21.7633H45.3539L45.5115 22.0221H45.6126L45.4428 21.7593C45.5305 21.7484 45.5975 21.7021 45.5975 21.5952C45.5975 21.4775 45.5275 21.4254 45.3868 21.4254H45.1592V22.0221H45.2496V21.5016H45.2501Z"
          fill="#2F3747"/>
</svg>
