<svg width="48" height="48" viewBox="0 0 48 48" fill="none" xmlns="http://www.w3.org/2000/svg">
    <path d="M43.6363 46.8182H35.8637L36.4091 40.2726H32.5909L32.0454 46.8182H15.9546L15.4089 40.2726H11.5911L12.1367 46.8182H4.3635L0 18.4544L10.9091 1H37.0909L48 18.4544L43.6363 46.8182ZM34.9091 9.72719H27.8961L28.3637 13H19.6363L20.1039 9.72719H13.0909L8.72719 18.4546L10.9091 35.9089H37.0909L39.2728 18.4546L34.9091 9.72719ZM31.0909 30.1163C30.4884 30.1163 30 28.2994 30 26.0582C30 23.8169 30.4884 22 31.0909 22C31.6933 22 32.1818 23.8169 32.1818 26.0582C32.1818 28.2994 31.6933 30.1163 31.0909 30.1163ZM17.3182 30.4546C16.7158 30.4546 16.2272 28.6377 16.2272 26.3963C16.2272 24.1551 16.7158 22.3383 17.3182 22.3383C17.9207 22.3383 18.4091 24.1551 18.4091 26.3963C18.4091 28.6377 17.9207 30.4546 17.3182 30.4546Z"
          fill="#2F3747"/>
</svg>
