<svg width="48" height="48" viewBox="0 0 48 48" fill="none" xmlns="http://www.w3.org/2000/svg">
    <path fill-rule="evenodd" clip-rule="evenodd"
          d="M28.5022 1C28.5022 1 33.2677 5.77283 23.9824 13.1117C18.2247 17.6641 20.3564 20.7034 22.4026 23.6209C23.0025 24.4763 23.5951 25.3212 23.9793 26.1907C19.633 22.2648 16.4434 18.8086 18.5833 15.5921C19.6283 14.021 21.2889 12.7192 22.9689 11.4022C26.338 8.761 29.7852 6.05862 28.5022 1ZM26.0457 22.9555C28.258 25.5055 25.4645 27.8002 25.4645 27.8002C25.4645 27.8002 31.0817 24.897 28.502 21.2614C28.3989 21.1164 28.2969 20.9745 28.1968 20.8353L28.1956 20.8337L28.1955 20.8336C25.9557 17.7189 24.6744 15.9371 34.2476 10.3785C34.2476 10.3785 18.5466 14.3046 26.0457 22.9555ZM17.8937 36.5107C17.8937 36.5107 16.1411 37.5311 19.141 37.8763C22.7754 38.2914 24.6327 38.232 28.6379 37.473C28.6379 37.473 29.6909 38.134 31.1613 38.7066C22.1831 42.559 10.8416 38.4834 17.8937 36.5107ZM16.7966 31.4834C16.7966 31.4834 14.8308 32.9402 17.833 33.2511C21.7153 33.652 24.7812 33.6849 30.0865 32.6621C30.0865 32.6621 30.8203 33.4069 31.9741 33.8142C21.1188 36.9922 9.02797 34.0648 16.7966 31.4834ZM36.4917 42.1267C39.2172 41.299 37.9202 40.2291 37.9202 40.2291C42.6684 42.3735 27.6047 46.6839 9.29892 43.7117C2.58643 42.6225 12.5296 38.8186 14.3495 40.1022C14.3495 40.1022 13.7741 40.0614 12.7674 40.2799C11.8022 40.4876 8.73336 41.4767 10.3698 42.1893C14.9221 44.1732 31.3094 43.6985 36.4917 42.1267ZM15.7849 28.9766C10.4011 28.2569 18.7366 26.2747 18.7366 26.2747C18.7366 26.2747 15.4996 26.0561 11.5184 27.9828C6.8108 30.2627 23.163 31.2996 31.6277 29.0707C32.5077 28.4691 33.7241 27.9475 33.7241 27.9475C33.7241 27.9475 30.2602 28.5671 26.8106 28.8582C22.5895 29.2124 18.058 29.2813 15.7849 28.9766ZM35.5391 26.4438C38.316 25.8641 42.2946 30.166 33.6897 34.6427C33.65 34.7493 33.5168 34.8684 33.5168 34.8683C45.0089 31.8437 40.7838 24.2069 35.2902 26.1406C34.8077 26.3121 34.555 26.7083 34.555 26.7083C34.555 26.7083 34.8584 26.5855 35.5391 26.4438ZM40.826 42.5668C40.5256 46.4796 27.8422 47.3026 19.5827 46.7732C14.182 46.4266 13.1097 45.5589 13.0987 45.55L13.0986 45.55C18.2556 46.4012 26.9503 46.5563 33.9999 45.2281C40.2486 44.0502 40.826 42.5668 40.826 42.5668Z"
          fill="#2F3747"/>
</svg>
