<svg width="48" height="48" viewBox="0 0 48 48" fill="none" xmlns="http://www.w3.org/2000/svg">
    <path d="M4.38334 27.0718C3.85669 27.0718 3.38476 26.9863 2.96754 26.8153C2.55033 26.6443 2.21519 26.3913 1.96212 26.0561C1.7159 25.721 1.58594 25.3175 1.57227 24.8455H3.43948C3.46683 25.1123 3.55917 25.3175 3.71648 25.4611C3.87379 25.5979 4.07898 25.6663 4.33204 25.6663C4.59195 25.6663 4.79714 25.6081 4.94761 25.4919C5.09808 25.3688 5.17331 25.2012 5.17331 24.9892C5.17331 24.8113 5.11176 24.6643 4.98864 24.548C4.87237 24.4317 4.72532 24.336 4.54749 24.2607C4.3765 24.1855 4.13027 24.1 3.80881 24.0043C3.34372 23.8606 2.96412 23.717 2.67002 23.5734C2.37592 23.4297 2.12285 23.2177 1.91083 22.9373C1.6988 22.6569 1.59278 22.2909 1.59278 21.8395C1.59278 21.1692 1.83559 20.646 2.3212 20.2698C2.80681 19.8868 3.43948 19.6953 4.21919 19.6953C5.01258 19.6953 5.65208 19.8868 6.1377 20.2698C6.62331 20.646 6.88321 21.1727 6.91741 21.8498H5.01942C5.00574 21.6172 4.92025 21.436 4.76294 21.306C4.60563 21.1692 4.40386 21.1008 4.15763 21.1008C3.94561 21.1008 3.77462 21.159 3.64466 21.2753C3.51471 21.3847 3.44973 21.5454 3.44973 21.7575C3.44973 21.99 3.55917 22.1712 3.77804 22.3012C3.9969 22.4312 4.33888 22.5714 4.80397 22.7218C5.26907 22.8791 5.64524 23.0296 5.93251 23.1732C6.22661 23.3169 6.47968 23.5255 6.6917 23.7991C6.90373 24.0727 7.00974 24.4249 7.00974 24.8558C7.00974 25.2662 6.90373 25.6389 6.6917 25.9741C6.48652 26.3092 6.18557 26.5759 5.78888 26.7743C5.39218 26.9726 4.92367 27.0718 4.38334 27.0718Z"
          fill="#2F3747"/>
    <path d="M11.4955 27.0718C10.8184 27.0718 10.196 26.9145 9.62829 26.5999C9.06745 26.2853 8.61945 25.8475 8.28431 25.2867C7.95601 24.719 7.79186 24.0829 7.79186 23.3784C7.79186 22.674 7.95601 22.0413 8.28431 21.4804C8.61945 20.9196 9.06745 20.4819 9.62829 20.1672C10.196 19.8526 10.8184 19.6953 11.4955 19.6953C12.1726 19.6953 12.7916 19.8526 13.3525 20.1672C13.9201 20.4819 14.3647 20.9196 14.6862 21.4804C15.0145 22.0413 15.1786 22.674 15.1786 23.3784C15.1786 24.0829 15.0145 24.719 14.6862 25.2867C14.3579 25.8475 13.9133 26.2853 13.3525 26.5999C12.7916 26.9145 12.1726 27.0718 11.4955 27.0718ZM11.4955 25.4714C12.07 25.4714 12.5283 25.2798 12.8703 24.8968C13.2191 24.5138 13.3935 24.0077 13.3935 23.3784C13.3935 22.7424 13.2191 22.2362 12.8703 21.86C12.5283 21.477 12.07 21.2855 11.4955 21.2855C10.9141 21.2855 10.449 21.4736 10.1002 21.8498C9.75825 22.226 9.58726 22.7355 9.58726 23.3784C9.58726 24.0145 9.75825 24.5241 10.1002 24.9071C10.449 25.2833 10.9141 25.4714 11.4955 25.4714Z"
          fill="#2F3747"/>
    <path d="M17.909 25.6458H20.2071V27H16.1546V19.7979H17.909V25.6458Z" fill="#2F3747"/>
    <path d="M22.7982 19.7979V27H21.0439V19.7979H22.7982Z" fill="#2F3747"/>
    <path d="M26.7678 19.7979C27.527 19.7979 28.1905 19.9484 28.7581 20.2493C29.3258 20.5503 29.7636 20.9743 30.0713 21.5215C30.386 22.0618 30.5433 22.6876 30.5433 23.399C30.5433 24.1034 30.386 24.7293 30.0713 25.2764C29.7636 25.8236 29.3224 26.2476 28.7479 26.5486C28.1802 26.8495 27.5202 27 26.7678 27H24.0696V19.7979H26.7678ZM26.655 25.4816C27.3184 25.4816 27.8348 25.3004 28.2041 24.9379C28.5735 24.5754 28.7581 24.0624 28.7581 23.399C28.7581 22.7355 28.5735 22.2191 28.2041 21.8498C27.8348 21.4804 27.3184 21.2958 26.655 21.2958H25.8239V25.4816H26.655Z"
          fill="#2F3747"/>
    <path d="M33.278 19.7979V27H31.5237V19.7979H33.278Z" fill="#2F3747"/>
    <path d="M39.7304 19.7979V21.2034H37.8222V27H36.0678V21.2034H34.1595V19.7979H39.7304Z" fill="#2F3747"/>
    <path d="M46.787 19.7979L44.294 24.6198V27H42.5396V24.6198L40.0466 19.7979H42.0369L43.4322 22.8142L44.8172 19.7979H46.787Z"
          fill="#2F3747"/>
</svg>
