<svg width="48" height="48" viewBox="0 0 48 48" fill="none" xmlns="http://www.w3.org/2000/svg">
    <path fill-rule="evenodd" clip-rule="evenodd"
          d="M2.58656 39H18.5495C18.5495 39 15.4984 24.3294 25.6015 18.3887C27.804 17.2602 34.8156 13.0443 46.2928 21.9872C46.6565 21.6678 47 21.4123 47 21.4123C47 21.4123 36.4927 10.3614 24.7933 11.5963C18.9133 12.15 11.6794 17.7925 7.43607 25.2449C3.19275 32.6974 2.58656 39 2.58656 39Z"
          fill="#2F3747"/>
    <path fill-rule="evenodd" clip-rule="evenodd"
          d="M2.58656 39H18.5495C18.5495 39 15.4984 24.3294 25.6015 18.3887C27.804 17.2602 34.8156 13.0443 46.2928 21.9872C46.6565 21.6678 47 21.4123 47 21.4123C47 21.4123 36.4927 10.3614 24.7933 11.5963C18.9133 12.15 11.6794 17.7925 7.43607 25.2449C3.19275 32.6974 2.58656 39 2.58656 39Z"
          fill="#2F3747"/>
    <path fill-rule="evenodd" clip-rule="evenodd"
          d="M2.58656 39H18.5495C18.5495 39 15.4984 24.3552 25.6015 18.4249C27.804 17.2984 34.8156 13.0899 46.2928 22.0171C46.6565 21.6983 47 21.4432 47 21.4432C47 21.4432 36.4927 10.4117 24.7933 11.6445C18.893 12.1972 11.6592 17.8298 7.41587 25.2692C3.17254 32.7085 2.58656 39 2.58656 39ZM35.8461 12.8349L35.9269 11.4108C35.7451 11.3045 35.24 11.0494 33.9669 10.6668L33.8861 12.0697C34.5529 12.3035 35.1995 12.5586 35.8461 12.8349Z"
          fill="#2F3747"/>
    <path fill-rule="evenodd" clip-rule="evenodd"
          d="M33.8877 16.9936L33.8065 18.3436C34.4761 18.3651 35.1456 18.4508 35.8151 18.6008L35.8963 17.2721C35.2064 17.1221 34.5369 17.0364 33.8877 16.9936ZM26.381 10.3072H26.5839L26.1781 9C25.5491 9 24.8999 9.04286 24.2304 9.12858L24.6159 10.393C25.2042 10.3287 25.7926 10.3072 26.381 10.3072ZM27.3548 18.1936L27.8215 19.6723C28.4098 19.3723 28.9982 19.1152 29.5865 18.9223L29.1402 17.5079C28.4504 17.7222 27.862 17.9579 27.3548 18.1936ZM18.1438 12.5573L17.2308 11.0787C16.7237 11.3572 16.1961 11.6573 15.6483 12.0001L16.5816 13.5003C17.1091 13.1574 17.6164 12.8359 18.1438 12.5573ZM22.303 22.2012L23.2768 23.7442C23.6217 23.2083 24.0275 22.7154 24.4738 22.2226L23.5609 20.7653C23.0942 21.2153 22.6682 21.7083 22.303 22.2012ZM19.3611 29.1016L21.0045 30.4731C21.0856 29.6374 21.2277 28.8016 21.4306 27.9659L19.9698 26.7443C19.7061 27.5372 19.5234 28.3301 19.3611 29.1016ZM10.4747 18.9222L9.03424 17.5935C8.50674 18.1293 7.99952 18.6651 7.53289 19.2008L9.0951 20.6152C9.52116 20.0366 9.98784 19.458 10.4747 18.9222ZM4.34761 28.5015L2.01443 27.6014C1.62894 28.523 1.20289 29.5945 1 30.1731L3.33319 31.0731C3.59693 30.3445 4.02299 29.2944 4.34761 28.5015ZM19.0568 34.5448C19.0974 35.6806 19.1988 36.6021 19.3003 37.245L21.7349 38.1665C21.5523 37.3308 21.3697 36.3878 21.2479 35.3806L19.0568 34.5448Z"
          fill="#2F3747"/>
</svg>
