<svg width="48" height="48" viewBox="0 0 48 48" fill="none" xmlns="http://www.w3.org/2000/svg">
    <path fill-rule="evenodd" clip-rule="evenodd"
          d="M42.9462 23.9634C42.9266 23.9232 42.9126 23.8925 42.9008 23.8669L42.9008 23.8667C42.8882 23.8391 42.8783 23.8175 42.8671 23.7965L42.632 23.3524C42.1354 22.4141 41.6397 21.4774 41.1385 20.5407C41.081 20.4311 41.0882 20.3667 41.1673 20.2737C41.8864 19.4387 42.6025 18.6008 43.3192 17.7622L43.9004 17.0823C43.9316 17.0441 43.9603 17.006 43.9723 16.9393L43.174 17.1466C42.0687 17.4374 40.9659 17.7282 39.8631 18.0214C39.76 18.0476 39.7144 18.019 39.6617 17.9332C39.0336 16.8916 38.4054 15.8524 37.7749 14.8132C37.7413 14.7584 37.7078 14.706 37.6382 14.6607C37.6227 14.7461 37.6069 14.8318 37.5911 14.9176L37.5909 14.9186L37.5907 14.9199C37.5555 15.1109 37.5202 15.3023 37.4872 15.4925L36.9622 18.4313C36.9566 18.4618 36.9504 18.4925 36.9442 18.5233L36.9441 18.5236C36.929 18.5985 36.9138 18.674 36.907 18.7483C36.8974 18.8484 36.8471 18.8866 36.7536 18.9152C35.4518 19.3204 34.1523 19.7303 32.8529 20.1403C32.7954 20.1593 32.7402 20.1808 32.6779 20.2356C33.2536 20.4625 33.8286 20.69 34.4062 20.9187L34.4075 20.9192L34.4109 20.9205C34.8999 21.114 35.3908 21.3083 35.8857 21.5036C35.8745 21.5127 35.8643 21.5211 35.8548 21.529L35.8547 21.5291C35.8317 21.5481 35.8125 21.564 35.7922 21.5775L35.4015 21.8284C34.8669 22.1716 34.3315 22.5153 33.7975 22.8622C33.7184 22.9146 33.6561 22.9218 33.565 22.8813C33.1442 22.693 32.722 22.5066 32.2996 22.3202C31.9254 22.1551 31.551 21.9898 31.1771 21.823C30.8199 21.6657 30.4986 21.4536 30.2493 21.1509C29.6835 20.462 29.7962 19.6803 30.549 19.2036C30.7959 19.0463 31.0764 18.9295 31.3545 18.8389C32.4556 18.4829 33.5585 18.1376 34.6616 17.7922L35.1856 17.6281C35.2935 17.5947 35.3415 17.5471 35.3631 17.4326C35.5333 16.453 35.7107 15.4734 35.8881 14.4938C35.9054 14.3991 35.9213 14.3041 35.9371 14.209C36.0089 13.7776 36.0807 13.3467 36.2909 12.9541C36.3892 12.7706 36.5066 12.5894 36.6481 12.4345C37.1564 11.8744 37.8636 11.8529 38.4006 12.3868C38.5828 12.568 38.7387 12.7801 38.8729 12.997C39.4651 13.9552 40.0453 14.9205 40.6255 15.8858C40.6926 16.0002 40.7549 16.024 40.882 15.9883C41.8329 15.7356 42.7839 15.4851 43.7348 15.2346C44.2104 15.1093 44.6859 14.984 45.1615 14.8585C45.4564 14.7822 45.7536 14.7536 46.0557 14.8084C46.7126 14.93 47.0003 15.4281 46.7797 16.0598C46.6791 16.3482 46.504 16.5913 46.3074 16.8201C45.3125 17.9856 44.3176 19.1511 43.3178 20.3119C43.2363 20.4072 43.2339 20.4763 43.2914 20.5812C43.8071 21.5468 44.3174 22.5124 44.8285 23.4795L44.8287 23.4798L45.0704 23.9371C45.2118 24.2041 45.3197 24.483 45.3245 24.7904C45.3317 25.4888 44.8162 26.0608 44.1186 26.1633C43.7278 26.2205 43.3634 26.1371 42.9966 26.0251C42.1023 25.751 41.2081 25.4793 40.3114 25.2123C40.2275 25.1885 40.1963 25.1551 40.1819 25.0669C40.1142 24.6548 40.0422 24.2437 39.9703 23.8323C39.9328 23.6179 39.8952 23.4035 39.8583 23.1887C39.8568 23.1786 39.858 23.1676 39.8597 23.1519C39.8608 23.1418 39.8621 23.1298 39.8631 23.1148C40.3456 23.248 40.8264 23.3801 41.3108 23.5132C41.8493 23.6611 42.3921 23.8103 42.9462 23.9634ZM41.2029 33.0921C40.3974 33.0897 39.5895 33.0873 38.7839 33.0897C38.6784 33.0897 38.6185 33.0587 38.5586 32.9681C37.6044 31.5238 36.6454 30.0794 35.6864 28.6374C35.6552 28.5921 35.6241 28.5468 35.5689 28.4705C35.3627 30.0293 35.1614 31.5524 34.96 33.0802H32.8478L32.8646 32.9356L32.8646 32.9354C32.8823 32.7815 32.8996 32.631 32.9197 32.4819C33.1259 30.916 33.3321 29.3524 33.5407 27.7865C33.7373 26.292 33.9363 24.7952 34.1353 23.3008C34.14 23.2555 34.1712 23.2007 34.2072 23.1768C34.6763 22.8721 35.1464 22.5703 35.6168 22.2683C35.8749 22.1027 36.1331 21.9369 36.3913 21.7706C36.3965 21.7667 36.4039 21.7649 36.4154 21.7621C36.425 21.7599 36.4373 21.7569 36.4536 21.7515L36.2847 23.032L36.2829 23.0454C36.12 24.2802 35.9578 25.5102 35.7943 26.7401C35.8009 26.7434 35.8064 26.7478 35.8123 26.7526L35.8207 26.7592L35.8268 26.7524L35.8297 26.7493C36.9703 25.4917 38.1109 24.2341 39.2778 22.9504L39.3689 23.4748L39.4223 23.7869C39.4855 24.1579 39.549 24.5297 39.6182 24.9001C39.635 24.9954 39.611 25.055 39.5463 25.1218C38.8079 25.8916 38.0695 26.6639 37.3335 27.4337L37.3049 27.4647C37.2828 27.489 37.2595 27.5144 37.2328 27.541C37.2412 27.5544 37.249 27.5675 37.2567 27.5803C37.2708 27.604 37.2843 27.6266 37.2999 27.6482L41.1166 32.9729C41.1337 32.995 41.1545 33.0147 41.1755 33.0345L41.1755 33.0346C41.1839 33.0425 41.1923 33.0505 41.2006 33.0587C41.2029 33.073 41.2029 33.0826 41.2029 33.0921ZM16.1759 28.4777C16.1674 28.4327 16.1594 28.3823 16.1508 28.3281C16.1281 28.184 16.1011 28.0137 16.0488 27.8508C15.694 26.7663 14.5768 26.1705 13.4164 26.4398C12.1458 26.733 11.2371 27.7269 11.1053 29.0163C11.007 29.9697 11.5248 30.8898 12.4862 31.233C13.2606 31.5118 14.0038 31.3951 14.6967 30.9827C15.6125 30.4369 16.1112 29.6241 16.1759 28.4777ZM10.5946 32.5105C10.5729 32.673 10.5515 32.8321 10.5304 32.989L10.5304 32.9892C10.4909 33.2833 10.4523 33.5697 10.4148 33.8572C10.3381 34.4411 10.2614 35.0275 10.1871 35.6114C10.1775 35.6805 10.1583 35.7091 10.084 35.7091C9.50378 35.7068 8.92359 35.7068 8.34341 35.7068C8.33561 35.7068 8.32679 35.7037 8.313 35.699L8.31296 35.699C8.30556 35.6964 8.29674 35.6934 8.28587 35.6901C8.30385 35.5518 8.32123 35.4136 8.33861 35.2754C8.35599 35.1371 8.37338 34.9989 8.39136 34.8606C8.51842 33.8906 8.64789 32.9205 8.77735 31.9504C8.8224 31.6145 8.86459 31.2779 8.90678 30.9413L8.90679 30.9412C9.00382 30.1672 9.10088 29.3928 9.23287 28.6255C9.56851 26.6734 11.2347 24.993 13.1887 24.5736C14.3203 24.3304 15.4063 24.4425 16.3941 25.0765C17.3794 25.7081 17.9452 26.6257 18.0747 27.7793C18.2569 29.4096 17.6527 30.7634 16.4876 31.8837C15.7228 32.6202 14.807 33.0873 13.7497 33.2446C12.6612 33.4067 11.6375 33.2279 10.7217 32.5892C10.7009 32.5744 10.6793 32.5615 10.6522 32.5454L10.6522 32.5454C10.6354 32.5354 10.6166 32.5242 10.5946 32.5105ZM9.65002 23.2364C9.00031 23.7179 8.37218 24.1827 7.74405 24.6474C7.71749 24.6053 7.6916 24.5634 7.66589 24.5217L7.66588 24.5217C7.59412 24.4054 7.52379 24.2915 7.44436 24.1827C7.17105 23.8037 6.83061 23.5201 6.33914 23.4843C5.92917 23.4557 5.57674 23.5892 5.29864 23.8919C5.0493 24.1612 5.01574 24.5426 5.24829 24.8477C5.50482 25.1813 5.78772 25.4983 6.07302 25.8082C6.29125 26.0426 6.51349 26.273 6.73584 26.5035C6.9996 26.777 7.26352 27.0506 7.52108 27.3312C7.95262 27.8008 8.29546 28.3275 8.40095 28.9687C8.52801 29.7314 8.37458 30.4583 8.01016 31.1305C7.33888 32.3723 6.2792 33.0921 4.88388 33.3161C4.26773 33.4162 3.65159 33.3948 3.04983 33.2208C2.25147 32.9872 1.69526 32.4652 1.33804 31.7311C1.25163 31.5545 1.17964 31.3712 1.10622 31.1843L1.10622 31.1843L1.1062 31.1842C1.07167 31.0963 1.03681 31.0076 1 30.9184C1.38324 30.7148 1.76002 30.5141 2.13583 30.3139L2.13656 30.3135C2.44699 30.1482 2.75677 29.9832 3.06901 29.8172C3.07794 29.8385 3.08587 29.8585 3.09342 29.8775C3.10615 29.9096 3.1178 29.9389 3.13134 29.9674C3.16699 30.0382 3.20066 30.1105 3.23435 30.1827L3.23438 30.1828C3.31168 30.3486 3.38911 30.5147 3.49096 30.6657C3.9225 31.3045 4.62016 31.4975 5.32741 31.1829C5.50962 31.1019 5.68463 30.9875 5.83327 30.8564C6.28879 30.4536 6.3751 29.8935 6.03706 29.3882C5.85914 29.1218 5.64098 28.8814 5.42313 28.6413L5.42312 28.6413L5.36337 28.5754C5.14271 28.3318 4.91837 28.091 4.69395 27.8502L4.69394 27.8502C4.34537 27.4762 3.99662 27.102 3.66118 26.7163C3.28238 26.2777 3.02345 25.7677 2.94194 25.1813C2.85323 24.5426 2.9803 23.9395 3.31594 23.4009C4.14786 22.0638 5.35618 21.3678 6.95528 21.425C7.86632 21.4584 8.59275 21.8826 9.15615 22.5857C9.2775 22.7357 9.39258 22.8906 9.51136 23.0505C9.55685 23.1117 9.60289 23.1737 9.65002 23.2364ZM25.0944 30.4178C24.989 31.2234 24.8883 31.9885 24.7852 32.7536C24.7804 32.7918 24.7492 32.8442 24.7156 32.8609C23.1429 33.5855 21.0691 33.4854 19.7769 32.0243C19.0816 31.2401 18.7915 30.3106 18.8347 29.2761C18.9354 26.8808 20.9325 24.7881 23.3227 24.4973C24.718 24.3257 25.9431 24.7023 26.8901 25.7796C27.535 26.5137 27.8323 27.3908 27.7892 28.3585C27.7664 28.8633 27.6988 29.3665 27.6312 29.8695C27.6133 30.003 27.5953 30.1365 27.5782 30.2701C27.4977 30.9134 27.4112 31.5567 27.3246 32.2L27.3245 32.2006C27.2899 32.4581 27.2552 32.7155 27.221 32.9729L27.2197 32.9814C27.2153 33.01 27.2105 33.0409 27.2018 33.0778H25.3198C25.3438 32.8704 25.3677 32.6678 25.3941 32.4652C25.4348 32.155 25.4766 31.8451 25.5184 31.5354L25.5185 31.5346C25.6168 30.8048 25.7152 30.0756 25.7993 29.3429C25.8736 28.6946 25.8281 28.0487 25.5284 27.448C25.2119 26.8093 24.6773 26.4708 23.9772 26.3969C22.5268 26.2444 21.1482 27.2454 20.839 28.6636C20.6352 29.6003 20.9564 30.4965 21.7068 30.9946C22.4381 31.4785 23.222 31.4785 24.018 31.1662C24.4232 31.0089 24.766 30.7563 25.0944 30.4178ZM32.8436 26.0146L32.8434 26.0161L32.7639 26.6186C32.6307 26.6186 32.4983 26.6183 32.3665 26.618H32.3663C32.1042 26.6175 31.8443 26.617 31.5844 26.6186C31.2679 26.621 30.9802 26.8236 30.8843 27.1167C30.8522 27.2123 30.8386 27.3146 30.8252 27.4152L30.8172 27.4742C30.6182 28.9639 30.4216 30.4536 30.225 31.9456C30.1954 32.1669 30.1667 32.3874 30.1378 32.609C30.1175 32.7645 30.0971 32.9205 30.0764 33.0778H28.1176C28.1536 32.7918 28.1896 32.5129 28.2255 32.2364C28.3526 31.2711 28.4796 30.3058 28.6091 29.3405C28.6432 29.0879 28.676 28.8348 28.7089 28.5817L28.709 28.5809C28.7845 27.9983 28.8601 27.4151 28.9519 26.8355C29.127 25.72 30.2442 24.7285 31.3782 24.6808C31.7454 24.6663 32.1127 24.6703 32.4852 24.6745H32.4853C32.6623 24.6764 32.8405 24.6784 33.0204 24.6784C32.9609 25.1257 32.9025 25.5685 32.8436 26.0146ZM43.5145 32.2579V33.0802H43.6776V32.0958H43.4282L43.1381 32.8442L42.8432 32.0958H42.5915V33.0802H42.7545V32.2579H42.7593L43.083 33.0802H43.1861L43.5097 32.2579H43.5145ZM42.0761 33.0802V32.2269H42.3877V32.0958H41.6038V32.2269H41.913V33.0802H42.0761ZM12.7624 21.854H12.2757L12.6473 21.1223L12.7624 21.854ZM12.0287 22.3259H12.8367L12.9134 22.8265H13.4432L13.0141 20.4811H12.4627L11.1992 22.8265H11.7722L12.0287 22.3259ZM15.4427 20.9531H15.7304C15.8575 20.9531 15.9462 21.0246 15.9462 21.1676C15.9462 21.3797 15.8071 21.4941 15.6345 21.4941H15.3468L15.4427 20.9531ZM15.788 20.4811H15.0328L14.6156 22.8265H15.1071L15.2605 21.9684H15.5866C16.102 21.9684 16.4616 21.6276 16.4616 21.1199C16.4616 20.7147 16.1835 20.4811 15.788 20.4811ZM18.6217 21.854H18.1351L18.5067 21.1223L18.6217 21.854ZM17.8905 22.3259H18.6985L18.7752 22.8265H19.305L18.8759 20.4811H18.3245L17.061 22.8265H17.634L17.8905 22.3259ZM21.3572 22.8646C21.5418 22.8646 21.7265 22.8193 21.8919 22.743L21.9566 22.1853C21.8223 22.2973 21.621 22.376 21.4124 22.376C21.0719 22.376 20.8562 22.109 20.8562 21.7682C20.8562 21.3201 21.2398 20.934 21.6689 20.934C21.8775 20.934 22.0453 21.0126 22.1484 21.1271L22.2179 20.5646C22.0789 20.4883 21.9087 20.443 21.7217 20.443C20.9713 20.443 20.3407 21.0698 20.3407 21.8159C20.3407 22.3998 20.7339 22.8646 21.3572 22.8646ZM23.877 21.8802H24.9031L24.7377 22.8241H25.2291L25.6463 20.4787H25.1524L24.987 21.4059H23.9609L24.1263 20.4787H23.6348L23.2177 22.8241H23.7091L23.877 21.8802ZM27.1255 20.4811L26.7108 22.8265L28.0126 22.8241L28.0965 22.3522H27.2814L27.3653 21.8802H28.1157L28.1996 21.4083H27.4516L27.5355 20.9531H28.3506L28.4345 20.4811H27.1255Z"
          fill="#2F3747"/>
</svg>
