<svg width="48" height="48" viewBox="0 0 48 48" fill="none" xmlns="http://www.w3.org/2000/svg">
    <path fill-rule="evenodd" clip-rule="evenodd"
          d="M24.549 1.03773C24.321 1.05596 24.0927 1.07422 23.8641 1.07554C22.9611 3.66159 22.0388 6.24067 21.1166 8.81965C20.3919 10.8463 19.6672 12.873 18.9519 14.9028C19.4788 14.9122 20.0058 14.9098 20.5326 14.9074C21.1882 14.9045 21.8436 14.9016 22.4986 14.9211C23.3624 14.9564 24.268 15.3171 24.745 16.0724C25.2911 16.9258 25.2611 18.0196 24.9175 18.9448C24.2143 20.9233 23.5082 22.9007 22.802 24.8783C21.8938 27.4216 20.9855 29.965 20.0835 32.5109C19.3161 32.5214 18.5488 32.5198 17.7815 32.5181C17.1296 32.5167 16.4777 32.5153 15.8259 32.5214C15.783 32.5205 15.7398 32.5209 15.6965 32.5213C15.5402 32.5229 15.3825 32.5244 15.2352 32.465C16.5358 28.8773 17.8146 25.2807 19.0933 21.6845C19.5863 20.298 20.0793 18.9115 20.5735 17.5256C20.1587 17.5192 19.744 17.5204 19.3292 17.5215C18.8971 17.5226 18.4651 17.5238 18.0331 17.5165C17.9209 17.7487 17.8376 17.9934 17.7543 18.2382C17.7405 18.2786 17.7268 18.319 17.7129 18.3594C17.0296 20.2814 16.3437 22.2028 15.6579 24.1242C14.7041 26.7961 13.7503 29.4681 12.8032 32.1424C12.7778 32.1812 12.7628 32.235 12.7477 32.2899C12.7168 32.4012 12.6849 32.5166 12.5614 32.5174C11.9119 32.52 11.262 32.5192 10.6122 32.5184C9.91012 32.5175 9.20807 32.5167 8.50636 32.5201C8.45013 32.5195 8.39361 32.5205 8.33703 32.5215C8.14904 32.525 7.96028 32.5284 7.77847 32.4731C9.61518 27.378 11.431 22.2755 13.2469 17.173C15.0963 11.9761 16.9458 6.77927 18.8172 1.59042C11.5722 3.14031 5.33994 8.5623 2.64659 15.4479C1.54233 18.1739 1.06142 21.1182 1 24.0494C1.0758 25.4568 1.17511 26.8682 1.44824 28.2547C2.31989 32.8717 4.67608 37.1906 8.06989 40.4382C10.8874 43.1616 14.421 45.1323 18.2134 46.1163C21.0001 38.3236 23.7748 30.5263 26.5494 22.729C27.4506 20.1965 28.3518 17.664 29.2534 15.1317C29.2671 15.1037 29.2861 15.0652 29.3065 15.0239C29.3405 14.955 29.3782 14.8785 29.4011 14.8311C30.8084 14.8449 32.2163 14.8431 33.6243 14.8413C34.4874 14.8402 35.3504 14.8391 36.2135 14.8416C36.3899 14.8447 36.5674 14.8424 36.7452 14.8401C37.3182 14.8329 37.8945 14.8255 38.4469 14.9971C39.2808 15.2218 40.0569 15.8217 40.313 16.6698C40.5025 17.3389 40.3705 18.0511 40.1327 18.6901C39.1262 21.6287 38.0788 24.5527 37.0316 27.4763C36.5708 28.7626 36.1101 30.0489 35.6529 31.3362C35.2818 32.4338 34.1657 33.1213 33.0365 33.1605C32.1519 33.1769 31.2669 33.1739 30.3818 33.171C29.4968 33.168 28.6117 33.1651 27.727 33.1814C26.2755 37.2256 24.8366 41.2741 23.3979 45.3219C23.2253 45.8075 23.0527 46.2932 22.8801 46.7789C23.155 46.896 23.4417 46.8768 23.7297 46.8574C23.8823 46.8472 24.0352 46.837 24.1869 46.847C24.6487 46.8826 25.1083 46.834 25.5675 46.7854C25.7655 46.7645 25.9634 46.7435 26.1613 46.7294C30.4765 46.3333 34.6583 44.6618 38.0665 41.9894C40.8015 39.8567 43.0482 37.0967 44.5653 33.9773C45.8955 31.2931 46.6418 28.3371 46.856 25.3562C46.7554 24.3212 46.7855 23.2771 46.8338 22.2395C46.541 18.319 45.2435 14.4717 43.052 11.2047C40.9037 7.99252 37.9424 5.31224 34.5003 3.54934C31.8395 2.14843 28.8901 1.32645 25.8988 1.06116C25.45 0.965675 25.0001 1.00166 24.549 1.03773ZM33.6621 17.4857C33.52 17.4769 33.3748 17.4679 33.2796 17.5754C32.5113 19.7217 31.7468 21.8693 30.9824 24.0168C30.2034 26.205 29.4245 28.3931 28.6416 30.5796C28.8497 30.5809 29.0581 30.584 29.2667 30.5872C29.9107 30.5969 30.5561 30.6067 31.1977 30.5613C32.0611 28.0507 32.9564 25.5514 33.8517 23.0521C34.5148 21.201 35.1778 19.35 35.8279 17.4944C35.4855 17.4869 35.1432 17.488 34.8009 17.489C34.4872 17.4899 34.1735 17.4909 33.8597 17.4853C33.7985 17.4942 33.7307 17.49 33.6621 17.4857Z"
          fill="#2F3747"/>
</svg>
