<svg width="48" height="48" viewBox="0 0 48 48" fill="none" xmlns="http://www.w3.org/2000/svg">
    <path fill-rule="evenodd" clip-rule="evenodd"
          d="M1 5.79167V42.2083C1 44.8543 3.14571 47 5.79167 47H42.2083C44.8543 47 47 44.8543 47 42.2083V5.79167C47 3.14571 44.8543 1 42.2083 1H5.79167C3.14571 1 1 3.14571 1 5.79167ZM11.0855 25.955V24.0805L11.12 24.092V22.206L19.17 22.1715C23.5975 22.1715 27.243 22.183 27.243 22.2175C27.289 22.2405 27.289 23.08 27.289 24.115V25.955H21.309V42.975H17.0655V25.955H11.0855ZM40.836 23.8045C40.031 22.965 39.134 22.436 37.961 22.16L37.984 22.137C37.1905 21.93 35.293 21.861 34.488 22.022C32.004 22.482 30.2675 24.092 29.773 26.392C29.612 27.0475 29.6695 28.6805 29.842 29.3475C30.072 30.118 30.5665 31.0495 31.107 31.6475C32.05 32.6365 33.062 33.2805 35.4425 34.2925C37.5125 35.2125 38.2485 35.6265 38.6165 36.1325C38.881 36.535 38.9615 36.7765 38.9615 37.3055C38.9615 37.8805 38.7775 38.2945 38.352 38.6855C37.363 39.5825 35.362 39.686 33.867 38.9155C33.3725 38.6395 32.5215 37.8345 32.142 37.2365L31.843 36.834L30.5435 37.593L28.8185 38.5935L28.3815 38.8695C28.3355 38.95 29.152 40.1805 29.5775 40.6405C30.6585 41.825 32.418 42.745 34.258 43.09C35.1205 43.2395 36.9605 43.2625 37.7655 43.1245C40.33 42.699 42.124 41.3995 42.86 39.479C43.5155 37.7195 43.297 35.3735 42.3195 33.8785C41.457 32.5445 40.031 31.613 36.742 30.1985C34.9595 29.4165 34.3845 29.037 34.074 28.4045C33.936 28.1055 33.867 27.8985 33.867 27.5305C33.867 26.323 34.787 25.5985 36.167 25.6905C37.1215 25.7595 37.731 26.1275 38.329 26.9785C38.513 27.2775 38.697 27.473 38.743 27.4385C39.9505 26.691 41.94 25.3455 41.94 25.2765C41.894 25.0695 41.2615 24.2645 40.836 23.8045Z"
          fill="#2F3747"/>
</svg>
