<svg width="48" height="48" viewBox="0 0 48 48" fill="none" xmlns="http://www.w3.org/2000/svg">
    <path fill-rule="evenodd" clip-rule="evenodd"
          d="M47 1H1V47H47V1ZM16.3362 15.2605C17.5463 14.6575 18.7782 14.3772 20.2087 14.3583C21.6396 14.3772 22.8712 14.6575 24.0815 15.2605C27.1717 16.7999 28.9565 20.0417 28.9565 24.1265C28.9565 28.2208 27.201 31.3662 24.0996 32.8377C23.2619 33.2352 22.4221 33.4516 21.1473 33.6031C20.6165 33.6638 20.1035 33.6405 19.5681 33.6161C19.4697 33.6117 19.3704 33.6072 19.2702 33.6031C17.9954 33.4516 17.1556 33.2352 16.3178 32.8377C13.2167 31.3662 11.4612 28.2205 11.4612 24.1265C11.4612 20.0417 13.2457 16.7999 16.3362 15.2605ZM25.1566 21.8486C24.6409 19.4064 23.2946 17.7322 21.439 17.2378C20.6583 17.0917 19.8201 17.0596 18.9787 17.2378C17.1232 17.7322 15.7768 19.4064 15.2609 21.8486C14.8987 23.5637 14.9979 25.5454 15.5161 27.1063C16.3238 29.5371 18.0775 30.9099 20.2087 30.8879C22.34 30.9099 24.0937 29.5371 24.9016 27.1063C25.4204 25.5454 25.5193 23.5637 25.1566 21.8486ZM6.85661 14.6709C7.16167 14.4671 7.52032 14.3583 7.88721 14.3583C8.37919 14.3583 8.85102 14.5537 9.1989 14.9016C9.54678 15.2495 9.74222 15.7213 9.74222 16.2133C9.74222 16.5802 9.63343 16.9388 9.4296 17.2439C9.22576 17.5489 8.93605 17.7867 8.59709 17.9271C8.25813 18.0675 7.88515 18.1042 7.52531 18.0327C7.16547 17.9611 6.83494 17.7844 6.57551 17.525C6.31608 17.2656 6.13941 16.935 6.06783 16.5752C5.99625 16.2153 6.03299 15.8424 6.17339 15.5034C6.31379 15.1644 6.55156 14.8747 6.85661 14.6709ZM6.15397 33.6418V20.0182H9.62044V33.6418H6.15397ZM33.6273 33.5506C33.75 33.5713 33.8733 33.5921 33.9969 33.6132H33.9982C34.4081 33.6599 35.6047 33.6469 36.1126 33.5902C38.8279 33.2848 40.6282 32.1745 41.5133 30.2595C41.8777 29.471 41.973 28.9945 41.9702 27.9733C41.9624 26.7472 41.6286 25.5101 40.5727 24.4558C39.813 23.6847 38.9266 23.1664 37.0791 22.415C34.5708 21.3959 33.8893 20.8745 33.6693 19.8067C33.3584 18.1025 35.1204 17.1378 36.7456 17.1583C37.8942 17.1655 39.2518 17.5081 40.4621 17.9875C40.4989 17.9315 41.2161 15.4025 41.2161 15.3292C41.2161 15.1302 39.8122 14.6671 38.5882 14.4624C37.7388 14.3204 36.0123 14.3217 35.2051 14.4653C32.4186 14.961 30.603 16.5823 30.2246 18.913C30.0889 19.751 30.1889 20.7103 30.4913 21.464C31.1067 22.9964 32.6096 24.1752 35.1748 25.1339C37.4745 25.9937 38.3122 26.6909 38.5001 27.9008C38.6669 28.9771 38.1702 29.9097 37.1617 30.4142C35.3119 31.2646 32.5684 30.3365 30.6193 29.6747C30.5864 29.7236 29.8544 32.4589 29.8704 32.4731C30.9822 33.1045 32.2753 33.3226 33.6273 33.5506Z"
          fill="#2F3747"/>
</svg>
