<svg width="48" height="48" viewBox="0 0 48 48" fill="none" xmlns="http://www.w3.org/2000/svg">
    <path fill-rule="evenodd" clip-rule="evenodd"
          d="M24.0908 43.099C18.805 43.099 14.0133 40.9549 10.542 37.4963L7.76737 40.2602C11.9458 44.4224 17.7154 47 24.0908 47C35.8652 47 45.5795 38.2208 47.0001 26.8753H43.0473C41.6508 36.0464 33.6824 43.099 24.0908 43.099ZM24.0908 4.90098C28.3857 4.90098 32.3528 6.31454 35.5528 8.70007L37.8994 5.56726C34.0478 2.69887 29.2686 1 24.0908 1C14.2934 1 5.92208 7.07879 2.57015 15.6576L6.22399 17.0737C9.01277 9.95633 15.9703 4.90098 24.0908 4.90098ZM13.6913 23.9999C13.6913 29.7113 18.3568 34.358 24.0905 34.358C28.8239 34.358 32.8253 31.1918 34.0794 26.8753H38.1031C36.7638 33.3599 30.9908 38.2501 24.0905 38.2501C16.2028 38.2501 9.78512 31.8573 9.78512 23.9999C9.78512 16.142 16.2028 9.74915 24.0905 9.74915C30.9908 9.74915 36.7638 14.6401 38.1033 21.1247H34.0796C32.8251 16.807 28.8239 13.6402 24.0905 13.6402C18.3568 13.6402 13.6913 18.2877 13.6913 23.9999ZM24.0907 33.8802C21.3565 33.8802 18.8764 32.7716 17.0802 30.9826L20.009 28.0651C20.5445 28.5997 21.1808 29.0238 21.8812 29.3129C22.5816 29.602 23.3325 29.7505 24.0907 29.7498V33.8802ZM14.1709 23.9991C14.1709 25.4127 14.4736 26.7575 15.0126 27.9751L18.8052 26.3133C18.4822 25.5842 18.3157 24.796 18.3163 23.9991C18.3163 20.8232 20.901 18.2493 24.0885 18.2493V14.1191C18.6198 14.1191 14.1709 18.5516 14.1709 23.9991ZM26.1817 18.6428L27.6857 14.7925C30.4997 15.8865 32.6915 18.2245 33.5778 21.1237H29.087C28.429 19.9924 27.4046 19.1176 26.1817 18.6428ZM26.1837 29.3556L27.6867 33.2057C30.5009 32.1114 32.6927 29.7729 33.5798 26.8734H29.0889C28.431 28.0049 27.4066 28.8802 26.1837 29.3556ZM5.55459 28.8731C5.61279 29.0917 5.67479 29.3093 5.74056 29.5258C5.9632 30.261 6.23072 30.9821 6.5411 31.6851L2.95178 33.2575C2.57811 32.4102 2.25646 31.5412 1.98862 30.6551H1.98678C1.97406 30.614 1.96243 30.572 1.95079 30.5299C1.94347 30.5034 1.93615 30.477 1.92855 30.4507L1.92181 30.4276L1.9218 30.4276C1.87658 30.2723 1.83147 30.1174 1.78874 29.9611C1.76621 29.8766 1.74502 29.7921 1.72383 29.7076L1.69405 29.5893C1.65812 29.45 1.62323 29.311 1.59097 29.172C1.55425 29.0132 1.52015 28.8532 1.48736 28.6939L1.47442 28.6333C1.45605 28.5476 1.43771 28.4621 1.42179 28.3754C1.38244 28.1747 1.34756 27.9732 1.31346 27.7715L1.30423 27.7172C1.29572 27.6671 1.28726 27.6174 1.27936 27.5675C1.24106 27.3221 1.20696 27.0744 1.17627 26.8262L1.17348 26.8066C1.17155 26.7935 1.16963 26.7805 1.16841 26.7674C1.05824 25.856 0.999221 24.9329 1.00001 23.9983H4.9172C4.91726 24.8467 4.97492 25.694 5.08979 26.5346C5.10552 26.6567 5.12257 26.7787 5.14094 26.9004C5.16206 27.0363 5.18576 27.1698 5.2096 27.304L5.20961 27.3041L5.20962 27.3041L5.20963 27.3042L5.20964 27.3042L5.20965 27.3043L5.20966 27.3043L5.2136 27.3266C5.22671 27.406 5.24035 27.4854 5.25557 27.5649C5.298 27.7844 5.34399 28.0032 5.39354 28.2212C5.44047 28.4258 5.49058 28.6298 5.54384 28.8329L5.55459 28.8731ZM47.0002 21.1246H43.0473H43.0471C42.6549 18.5546 41.7372 16.0922 40.3506 13.8899L43.6795 11.8208C45.454 14.6439 46.5873 17.8193 47.0002 21.1246ZM38.5932 21.1246H42.5592C41.5244 14.5 36.9698 9.02192 30.8666 6.64893L29.4502 10.2769C34.0916 12.0823 37.602 16.1553 38.5932 21.1246ZM24.0923 5.37964L24.0912 9.27017C17.8286 9.27017 12.4637 13.1691 10.3116 18.6587L6.67188 17.2477C9.39193 10.3083 16.174 5.37964 24.0912 5.37964H24.0923ZM9.30383 23.999H5.39844C5.39844 31.8232 10.2699 38.5327 17.1495 41.283L18.6 37.6721C13.1573 35.4958 9.30383 30.1886 9.30383 23.999ZM24.0908 42.6192V38.7279C31.2571 38.7279 37.2475 33.625 38.5931 26.8734H42.5604C41.1681 35.7804 33.4164 42.6192 24.0908 42.6192Z"
          fill="#2F3747"/>
</svg>
