<svg width="36" height="36" viewBox="0 0 36 36" fill="none" xmlns="http://www.w3.org/2000/svg">
    <g id="Icons">
        <path id="Vector"
              d="M31.4775 15.5236C31.4615 15.4492 31.4379 15.3767 31.4072 15.307L28.7508 9.10828C28.1384 7.67602 26.6484 6.75 24.9532 6.75H11.0468C9.35298 6.75 7.86165 7.67602 7.24993 9.10828L4.59071 15.307C4.53028 15.4469 4.4994 15.5977 4.50001 15.75V28.125C4.50001 28.4234 4.61854 28.7095 4.82951 28.9205C5.04049 29.1315 5.32664 29.25 5.62501 29.25H7.87501C8.17338 29.25 8.45953 29.1315 8.6705 28.9205C8.88148 28.7095 9.00001 28.4234 9.00001 28.125V27H27V28.125C27 28.4234 27.1185 28.7095 27.3295 28.9205C27.5405 29.1315 27.8266 29.25 28.125 29.25H30.375C30.6734 29.25 30.9595 29.1315 31.1705 28.9205C31.3815 28.7095 31.5 28.4234 31.5 28.125V15.75C31.5001 15.674 31.4926 15.5981 31.4775 15.5236ZM10.125 22.5C9.68 22.5 9.24499 22.368 8.87498 22.1208C8.50497 21.8736 8.21658 21.5222 8.04628 21.111C7.87598 20.6999 7.83142 20.2475 7.91824 19.811C8.00506 19.3746 8.21935 18.9737 8.53402 18.659C8.84869 18.3443 9.2496 18.13 9.68606 18.0432C10.1225 17.9564 10.5749 18.001 10.986 18.1713C11.3972 18.3416 11.7486 18.63 11.9958 19C12.243 19.37 12.375 19.805 12.375 20.25C12.375 20.8467 12.138 21.419 11.716 21.841C11.294 22.2629 10.7217 22.5 10.125 22.5ZM25.875 22.5C25.43 22.5 24.995 22.368 24.625 22.1208C24.255 21.8736 23.9666 21.5222 23.7963 21.111C23.626 20.6999 23.5814 20.2475 23.6682 19.811C23.7551 19.3746 23.9694 18.9737 24.284 18.659C24.5987 18.3443 24.9996 18.13 25.4361 18.0432C25.8725 17.9564 26.3249 18.001 26.736 18.1713C27.1472 18.3416 27.4986 18.63 27.7458 19C27.993 19.37 28.125 19.805 28.125 20.25C28.125 20.8467 27.888 21.419 27.466 21.841C27.044 22.2629 26.4717 22.5 25.875 22.5ZM7.33079 14.625L9.31571 9.99492C9.57024 9.40008 10.2656 9 11.0468 9H24.9532C25.7337 9 26.4298 9.40008 26.6843 9.99492L28.6692 14.625H7.33079Z"
              fill="#D8CCFF"/>
    </g>
</svg>
