<svg width="36" height="36" viewBox="0 0 36 36" fill="none" xmlns="http://www.w3.org/2000/svg">
    <g id="Icons">
        <path id="Vector"
              d="M31.0008 9.58358C31.0432 9.55881 31.0785 9.52335 31.1029 9.48072C31.1274 9.4381 31.1403 9.38981 31.1403 9.34065C31.1403 9.2915 31.1274 9.2432 31.1029 9.20058C31.0785 9.15796 31.0432 9.12249 31.0008 9.09772L20.2613 2.85819C19.5741 2.45988 18.7939 2.25012 17.9997 2.25012C17.2054 2.25012 16.4252 2.45988 15.7381 2.85819L5.00063 9.09772C4.95817 9.12249 4.92295 9.15796 4.89847 9.20058C4.87399 9.2432 4.86111 9.2915 4.86111 9.34065C4.86111 9.38981 4.87399 9.4381 4.89847 9.48072C4.92295 9.52335 4.95817 9.55881 5.00063 9.58358L17.8594 17.1478C17.9026 17.1733 17.9519 17.1867 18.0021 17.1867C18.0523 17.1867 18.1016 17.1733 18.1448 17.1478L31.0008 9.58358ZM3.79688 11.4968C3.75399 11.472 3.70532 11.459 3.6558 11.4591C3.60627 11.4592 3.55765 11.4723 3.51484 11.4972C3.47203 11.5221 3.43655 11.5579 3.412 11.6009C3.38745 11.6439 3.37468 11.6927 3.37501 11.7422V23.9688C3.37607 24.558 3.53136 25.1367 3.82544 25.6472C4.11951 26.1578 4.54213 26.5825 5.05126 26.879L16.4531 33.7155C16.4959 33.7402 16.5443 33.7532 16.5937 33.7532C16.643 33.7532 16.6915 33.7403 16.7343 33.7156C16.777 33.691 16.8125 33.6555 16.8372 33.6128C16.8619 33.5701 16.875 33.5216 16.875 33.4723V19.2867C16.875 19.2374 16.8619 19.1889 16.8373 19.1462C16.8126 19.1035 16.7771 19.0681 16.7344 19.0434L3.79688 11.4968ZM19.125 19.3359V33.4687C19.1251 33.5181 19.1381 33.5665 19.1628 33.6093C19.1875 33.652 19.223 33.6874 19.2658 33.7121C19.3085 33.7367 19.357 33.7497 19.4063 33.7497C19.4557 33.7497 19.5041 33.7367 19.5469 33.712L30.9481 26.8755C31.4568 26.5794 31.8792 26.1553 32.1734 25.6454C32.4676 25.1355 32.6233 24.5575 32.625 23.9688V11.7422C32.6248 11.6929 32.6117 11.6445 32.587 11.6019C32.5622 11.5593 32.5267 11.5239 32.484 11.4993C32.4412 11.4748 32.3928 11.4619 32.3435 11.4619C32.2942 11.462 32.2458 11.475 32.2031 11.4996L19.2656 19.0933C19.223 19.1179 19.1876 19.1533 19.1629 19.1959C19.1383 19.2384 19.1252 19.2867 19.125 19.3359Z"
              fill="#D8CCFF"/>
    </g>
</svg>
