<svg width="36" height="36" viewBox="0 0 36 36" fill="none" xmlns="http://www.w3.org/2000/svg">
    <g id="industries icon">
        <path id="Vector"
              d="M17.9988 31.5C17.5472 31.4994 17.1062 31.363 16.7332 31.1084C11.2073 27.3572 8.81461 24.7852 7.49484 23.1771C4.68234 19.7494 3.33586 16.2302 3.37383 12.4193C3.41812 8.05219 6.9218 4.5 11.1841 4.5C14.2835 4.5 16.4302 6.24586 17.6803 7.69992C17.7199 7.74552 17.7688 7.78208 17.8238 7.80714C17.8787 7.8322 17.9384 7.84516 17.9988 7.84516C18.0592 7.84516 18.1189 7.8322 18.1739 7.80714C18.2288 7.78208 18.2777 7.74552 18.3173 7.69992C19.5675 6.24445 21.7141 4.5 24.8135 4.5C29.0759 4.5 32.5795 8.05219 32.6238 12.42C32.6618 16.2316 31.3139 19.7508 28.5028 23.1778C27.183 24.7859 24.7903 27.3579 19.2645 31.1091C18.8914 31.3634 18.4504 31.4996 17.9988 31.5Z"
              fill="#D8CCFF"/>
    </g>
</svg>
