<svg width="36" height="36" viewBox="0 0 36 36" fill="none" xmlns="http://www.w3.org/2000/svg">
<g id="Icons">
<path id="Vector" d="M33.75 9.00002C33.75 7.80655 33.2759 6.66195 32.432 5.81804C31.5881 4.97412 30.4435 4.50002 29.25 4.50002H28.125V3.40666C28.125 2.80127 27.6595 2.28166 27.0541 2.25143C26.902 2.2441 26.75 2.26773 26.6073 2.32088C26.4646 2.37404 26.3342 2.45562 26.2239 2.56067C26.1137 2.66573 26.0259 2.79207 25.9659 2.93205C25.9059 3.07203 25.875 3.22273 25.875 3.37502V4.50002H10.125V3.40666C10.125 2.80127 9.65953 2.28166 9.05414 2.25143C8.90203 2.2441 8.75002 2.26773 8.60731 2.32088C8.4646 2.37404 8.33417 2.45562 8.22392 2.56067C8.11367 2.66573 8.0259 2.79207 7.96592 2.93205C7.90595 3.07203 7.87501 3.22273 7.875 3.37502V4.50002H6.75C5.55653 4.50002 4.41193 4.97412 3.56802 5.81804C2.72411 6.66195 2.25 7.80655 2.25 9.00002V9.84377C2.25 9.91836 2.27963 9.9899 2.33238 10.0426C2.38512 10.0954 2.45666 10.125 2.53125 10.125H33.4688C33.5433 10.125 33.6149 10.0954 33.6676 10.0426C33.7204 9.9899 33.75 9.91836 33.75 9.84377V9.00002ZM2.25 29.25C2.25 30.4435 2.72411 31.5881 3.56802 32.432C4.41193 33.2759 5.55653 33.75 6.75 33.75H29.25C30.4435 33.75 31.5881 33.2759 32.432 32.432C33.2759 31.5881 33.75 30.4435 33.75 29.25V12.586C33.75 12.53 33.7278 12.4764 33.6882 12.4368C33.6487 12.3972 33.595 12.375 33.5391 12.375H2.46094C2.40499 12.375 2.35134 12.3972 2.31178 12.4368C2.27222 12.4764 2.25 12.53 2.25 12.586V29.25ZM26.4375 14.625C26.7713 14.625 27.0975 14.724 27.375 14.9094C27.6525 15.0948 27.8688 15.3584 27.9965 15.6667C28.1243 15.9751 28.1577 16.3144 28.0926 16.6417C28.0275 16.9691 27.8667 17.2698 27.6307 17.5058C27.3947 17.7418 27.0941 17.9025 26.7667 17.9676C26.4394 18.0327 26.1001 17.9993 25.7917 17.8716C25.4834 17.7438 25.2198 17.5276 25.0344 17.25C24.849 16.9725 24.75 16.6463 24.75 16.3125C24.75 15.865 24.9278 15.4357 25.2443 15.1193C25.5607 14.8028 25.9899 14.625 26.4375 14.625ZM26.4375 20.25C26.7713 20.25 27.0975 20.349 27.375 20.5344C27.6525 20.7198 27.8688 20.9834 27.9965 21.2917C28.1243 21.6001 28.1577 21.9394 28.0926 22.2667C28.0275 22.5941 27.8667 22.8948 27.6307 23.1308C27.3947 23.3668 27.0941 23.5275 26.7667 23.5926C26.4394 23.6577 26.1001 23.6243 25.7917 23.4966C25.4834 23.3688 25.2198 23.1526 25.0344 22.875C24.849 22.5975 24.75 22.2713 24.75 21.9375C24.75 21.49 24.9278 21.0607 25.2443 20.7443C25.5607 20.4278 25.9899 20.25 26.4375 20.25ZM20.8125 14.625C21.1463 14.625 21.4725 14.724 21.75 14.9094C22.0275 15.0948 22.2438 15.3584 22.3715 15.6667C22.4993 15.9751 22.5327 16.3144 22.4676 16.6417C22.4025 16.9691 22.2417 17.2698 22.0057 17.5058C21.7697 17.7418 21.4691 17.9025 21.1417 17.9676C20.8144 18.0327 20.4751 17.9993 20.1667 17.8716C19.8584 17.7438 19.5948 17.5276 19.4094 17.25C19.224 16.9725 19.125 16.6463 19.125 16.3125C19.125 15.865 19.3028 15.4357 19.6193 15.1193C19.9357 14.8028 20.3649 14.625 20.8125 14.625ZM20.8125 20.25C21.1463 20.25 21.4725 20.349 21.75 20.5344C22.0275 20.7198 22.2438 20.9834 22.3715 21.2917C22.4993 21.6001 22.5327 21.9394 22.4676 22.2667C22.4025 22.5941 22.2417 22.8948 22.0057 23.1308C21.7697 23.3668 21.4691 23.5275 21.1417 23.5926C20.8144 23.6577 20.4751 23.6243 20.1667 23.4966C19.8584 23.3688 19.5948 23.1526 19.4094 22.875C19.224 22.5975 19.125 22.2713 19.125 21.9375C19.125 21.49 19.3028 21.0607 19.6193 20.7443C19.9357 20.4278 20.3649 20.25 20.8125 20.25ZM20.8125 25.875C21.1463 25.875 21.4725 25.974 21.75 26.1594C22.0275 26.3448 22.2438 26.6084 22.3715 26.9167C22.4993 27.2251 22.5327 27.5644 22.4676 27.8917C22.4025 28.2191 22.2417 28.5198 22.0057 28.7558C21.7697 28.9918 21.4691 29.1525 21.1417 29.2176C20.8144 29.2827 20.4751 29.2493 20.1667 29.1216C19.8584 28.9938 19.5948 28.7776 19.4094 28.5C19.224 28.2225 19.125 27.8963 19.125 27.5625C19.125 27.115 19.3028 26.6857 19.6193 26.3693C19.9357 26.0528 20.3649 25.875 20.8125 25.875ZM15.1875 20.25C15.5213 20.25 15.8475 20.349 16.125 20.5344C16.4025 20.7198 16.6188 20.9834 16.7465 21.2917C16.8743 21.6001 16.9077 21.9394 16.8426 22.2667C16.7775 22.5941 16.6167 22.8948 16.3807 23.1308C16.1447 23.3668 15.8441 23.5275 15.5167 23.5926C15.1894 23.6577 14.8501 23.6243 14.5417 23.4966C14.2334 23.3688 13.9698 23.1526 13.7844 22.875C13.599 22.5975 13.5 22.2713 13.5 21.9375C13.5 21.49 13.6778 21.0607 13.9943 20.7443C14.3107 20.4278 14.7399 20.25 15.1875 20.25ZM15.1875 25.875C15.5213 25.875 15.8475 25.974 16.125 26.1594C16.4025 26.3448 16.6188 26.6084 16.7465 26.9167C16.8743 27.2251 16.9077 27.5644 16.8426 27.8917C16.7775 28.2191 16.6167 28.5198 16.3807 28.7558C16.1447 28.9918 15.8441 29.1525 15.5167 29.2176C15.1894 29.2827 14.8501 29.2493 14.5417 29.1216C14.2334 28.9938 13.9698 28.7776 13.7844 28.5C13.599 28.2225 13.5 27.8963 13.5 27.5625C13.5 27.115 13.6778 26.6857 13.9943 26.3693C14.3107 26.0528 14.7399 25.875 15.1875 25.875ZM9.5625 20.25C9.89626 20.25 10.2225 20.349 10.5 20.5344C10.7775 20.7198 10.9938 20.9834 11.1215 21.2917C11.2493 21.6001 11.2827 21.9394 11.2176 22.2667C11.1525 22.5941 10.9917 22.8948 10.7557 23.1308C10.5197 23.3668 10.2191 23.5275 9.89172 23.5926C9.56437 23.6577 9.22507 23.6243 8.91672 23.4966C8.60837 23.3688 8.34482 23.1526 8.1594 22.875C7.97397 22.5975 7.875 22.2713 7.875 21.9375C7.875 21.49 8.05279 21.0607 8.36926 20.7443C8.68572 20.4278 9.11495 20.25 9.5625 20.25ZM9.5625 25.875C9.89626 25.875 10.2225 25.974 10.5 26.1594C10.7775 26.3448 10.9938 26.6084 11.1215 26.9167C11.2493 27.2251 11.2827 27.5644 11.2176 27.8917C11.1525 28.2191 10.9917 28.5198 10.7557 28.7558C10.5197 28.9918 10.2191 29.1525 9.89172 29.2176C9.56437 29.2827 9.22507 29.2493 8.91672 29.1216C8.60837 28.9938 8.34482 28.7776 8.1594 28.5C7.97397 28.2225 7.875 27.8963 7.875 27.5625C7.875 27.115 8.05279 26.6857 8.36926 26.3693C8.68572 26.0528 9.11495 25.875 9.5625 25.875Z" fill="currentColor"/>
</g>
</svg>
