<svg width="36" height="36" viewBox="0 0 36 36" fill="none" xmlns="http://www.w3.org/2000/svg">
<g id="Icons">
<path id="Vector" d="M7.3125 34.875H5.0625C4.61495 34.875 4.18572 34.6972 3.86926 34.3807C3.55279 34.0643 3.375 33.6351 3.375 33.1875V23.0625C3.375 22.6149 3.55279 22.1857 3.86926 21.8693C4.18572 21.5528 4.61495 21.375 5.0625 21.375H7.3125C7.76005 21.375 8.18928 21.5528 8.50574 21.8693C8.82221 22.1857 9 22.6149 9 23.0625V33.1875C9 33.6351 8.82221 34.0643 8.50574 34.3807C8.18928 34.6972 7.76005 34.875 7.3125 34.875ZM23.0625 34.875H20.8125C20.3649 34.875 19.9357 34.6972 19.6193 34.3807C19.3028 34.0643 19.125 33.6351 19.125 33.1875V16.3125C19.125 15.8649 19.3028 15.4357 19.6193 15.1193C19.9357 14.8028 20.3649 14.625 20.8125 14.625H23.0625C23.5101 14.625 23.9393 14.8028 24.2557 15.1193C24.5722 15.4357 24.75 15.8649 24.75 16.3125V33.1875C24.75 33.6351 24.5722 34.0643 24.2557 34.3807C23.9393 34.6972 23.5101 34.875 23.0625 34.875ZM30.9375 34.875H28.6875C28.2399 34.875 27.8107 34.6972 27.4943 34.3807C27.1778 34.0643 27 33.6351 27 33.1875V8.4375C27 7.98995 27.1778 7.56072 27.4943 7.24426C27.8107 6.92779 28.2399 6.75 28.6875 6.75H30.9375C31.3851 6.75 31.8143 6.92779 32.1307 7.24426C32.4472 7.56072 32.625 7.98995 32.625 8.4375V33.1875C32.625 33.6351 32.4472 34.0643 32.1307 34.3807C31.8143 34.6972 31.3851 34.875 30.9375 34.875ZM15.1875 34.875H12.9375C12.4899 34.875 12.0607 34.6972 11.7443 34.3807C11.4278 34.0643 11.25 33.6351 11.25 33.1875V2.8125C11.25 2.36495 11.4278 1.93572 11.7443 1.61926C12.0607 1.30279 12.4899 1.125 12.9375 1.125H15.1875C15.6351 1.125 16.0643 1.30279 16.3807 1.61926C16.6972 1.93572 16.875 2.36495 16.875 2.8125V33.1875C16.875 33.6351 16.6972 34.0643 16.3807 34.3807C16.0643 34.6972 15.6351 34.875 15.1875 34.875Z" fill="currentColor"/>
</g>
</svg>
