<svg width="36" height="36" viewBox="0 0 36 36" fill="none" xmlns="http://www.w3.org/2000/svg">
<g id="Icons">
<path id="Vector" d="M33.6841 7.83001C33.6682 7.5787 33.5685 7.33999 33.4008 7.15209C33.2332 6.96419 33.0074 6.83796 32.7595 6.7936C26.6775 5.70235 24.1385 4.91345 18.4628 2.34985C18.3172 2.28404 18.1593 2.25 17.9995 2.25C17.8397 2.25 17.6817 2.28404 17.5361 2.34985C11.8605 4.91345 9.32151 5.70235 3.23948 6.7936C2.99161 6.83796 2.76578 6.96419 2.59815 7.15209C2.43051 7.33999 2.33076 7.5787 2.31487 7.83001C2.04417 12.1268 2.62143 16.1304 4.03261 19.7297C5.18821 22.6656 6.89841 25.3515 9.06979 27.6406C12.8294 31.6294 16.821 33.3619 17.5825 33.6684C17.8531 33.7779 18.1557 33.7779 18.4263 33.6684C19.1878 33.3619 23.1794 31.6294 26.939 27.6406C29.1069 25.3506 30.8137 22.6648 31.9664 19.7297C33.3775 16.1304 33.9548 12.1268 33.6841 7.83001ZM24.4732 13.1112L16.6825 22.1112C16.5824 22.2272 16.4595 22.3216 16.3216 22.3885C16.1836 22.4553 16.0334 22.4933 15.8803 22.5H15.8339C15.5394 22.5001 15.2567 22.3847 15.0464 22.1787L11.587 18.7896C11.4814 18.6862 11.3973 18.563 11.3394 18.4271C11.2814 18.2911 11.2509 18.1451 11.2494 17.9974C11.2463 17.699 11.362 17.4116 11.5708 17.1984C11.7797 16.9853 12.0646 16.8639 12.363 16.8608C12.6614 16.8578 12.9488 16.9734 13.162 17.1823L15.7635 19.7339L22.7737 11.6388C22.8704 11.5271 22.9881 11.4355 23.1202 11.3693C23.2523 11.3031 23.3961 11.2635 23.5434 11.2529C23.6908 11.2422 23.8388 11.2607 23.979 11.3073C24.1193 11.3538 24.2489 11.4276 24.3607 11.5242C24.4724 11.6209 24.564 11.7386 24.6302 11.8707C24.6964 12.0028 24.736 12.1466 24.7466 12.294C24.7573 12.4413 24.7388 12.5893 24.6922 12.7296C24.6457 12.8698 24.5719 12.9995 24.4753 13.1112H24.4732Z" fill="currentColor"/>
</g>
</svg>
