<svg width="36" height="36" viewBox="0 0 36 36" fill="none" xmlns="http://www.w3.org/2000/svg">
<g id="Icons">
<path id="Vector" d="M30.0938 15.75H20.25C19.3549 15.75 18.4964 15.3944 17.8635 14.7615C17.2306 14.1286 16.875 13.2701 16.875 12.375V2.53125C16.875 2.45666 16.8454 2.38512 16.7926 2.33238C16.7399 2.27963 16.6683 2.25 16.5938 2.25H10.125C8.93153 2.25 7.78693 2.72411 6.94302 3.56802C6.09911 4.41193 5.625 5.55653 5.625 6.75V29.25C5.625 30.4435 6.09911 31.5881 6.94302 32.432C7.78693 33.2759 8.93153 33.75 10.125 33.75H25.875C27.0685 33.75 28.2131 33.2759 29.057 32.432C29.9009 31.5881 30.375 30.4435 30.375 29.25V16.0312C30.375 15.9567 30.3454 15.8851 30.2926 15.8324C30.2399 15.7796 30.1683 15.75 30.0938 15.75Z" fill="currentColor"/>
<path id="Vector_2" d="M29.4764 13.2602L19.3648 3.14856C19.3451 3.12901 19.3201 3.11571 19.2929 3.11034C19.2657 3.10496 19.2375 3.10774 19.2119 3.11834C19.1863 3.12893 19.1643 3.14687 19.1489 3.16988C19.1334 3.1929 19.1251 3.21997 19.125 3.2477V12.375C19.125 12.6733 19.2435 12.9595 19.4545 13.1705C19.6655 13.3814 19.9516 13.5 20.25 13.5H29.3773C29.405 13.4999 29.4321 13.4915 29.4551 13.4761C29.4781 13.4606 29.496 13.4387 29.5066 13.4131C29.5172 13.3875 29.52 13.3593 29.5146 13.3321C29.5093 13.3049 29.496 13.2799 29.4764 13.2602Z" fill="currentColor"/>
</g>
</svg>
