<svg width="36" height="36" viewBox="0 0 36 36" fill="none" xmlns="http://www.w3.org/2000/svg">
<g id="Icons" clip-path="url(#clip0_601_926)">
<path id="Vector" d="M34.875 28.125H32.8823C33.4415 27.5052 33.7507 26.6999 33.75 25.8652V9.00984C33.7489 8.11247 33.3919 7.25217 32.7574 6.61763C32.1228 5.98309 31.2625 5.62612 30.3652 5.625H5.63484C4.73747 5.62612 3.87717 5.98309 3.24263 6.61763C2.60809 7.25217 2.25112 8.11247 2.25 9.00984V25.8652C2.2493 26.6999 2.55849 27.5052 3.11766 28.125H1.125C0.826631 28.125 0.540483 28.2435 0.329505 28.4545C0.118526 28.6655 0 28.9516 0 29.25C0 29.5484 0.118526 29.8345 0.329505 30.0455C0.540483 30.2565 0.826631 30.375 1.125 30.375H34.875C35.1734 30.375 35.4595 30.2565 35.6705 30.0455C35.8815 29.8345 36 29.5484 36 29.25C36 28.9516 35.8815 28.6655 35.6705 28.4545C35.4595 28.2435 35.1734 28.125 34.875 28.125Z" fill="currentColor"/>
</g>
<defs>
<clipPath id="clip0_601_926">
<rect width="36" height="36" fill="white"/>
</clipPath>
</defs>
</svg>
