<svg width="36" height="36" viewBox="0 0 36 36" fill="none" xmlns="http://www.w3.org/2000/svg">
<g id="Icons">
<path id="Vector" d="M27.7041 33.75C27.4673 33.7509 27.2362 33.6771 27.0438 33.539L18.0009 26.9831L8.95806 33.539C8.76486 33.6792 8.53211 33.7542 8.29345 33.7533C8.05479 33.7525 7.82259 33.6757 7.63042 33.5342C7.43825 33.3927 7.29606 33.1937 7.22442 32.9661C7.15278 32.7384 7.15539 32.4939 7.23189 32.2678L10.7588 21.8215L1.61814 15.5531C1.42015 15.4175 1.27071 15.2221 1.19167 14.9955C1.11263 14.7689 1.10813 14.523 1.17881 14.2936C1.2495 14.0643 1.39168 13.8635 1.58457 13.7207C1.77746 13.578 2.01096 13.5006 2.25095 13.5H13.5277L16.9308 3.02693C17.0041 2.80082 17.1472 2.60374 17.3394 2.46396C17.5317 2.32419 17.7633 2.2489 18.0009 2.2489C18.2386 2.2489 18.4702 2.32419 18.6625 2.46396C18.8548 2.60374 18.9978 2.80082 19.0711 3.02693L22.4742 13.5035H33.7509C33.9912 13.5034 34.2253 13.5802 34.4187 13.7227C34.6122 13.8652 34.7549 14.0659 34.8261 14.2954C34.8972 14.525 34.893 14.7712 34.814 14.9982C34.7351 15.2251 34.5855 15.4208 34.3873 15.5566L25.2431 21.8215L28.7679 32.265C28.825 32.4341 28.8411 32.6143 28.8148 32.7908C28.7885 32.9673 28.7205 33.1351 28.6166 33.2801C28.5127 33.4252 28.3757 33.5435 28.217 33.6252C28.0584 33.7069 27.8825 33.7497 27.7041 33.75Z" fill="currentColor"/>
</g>
</svg>
