<svg width="36" height="36" viewBox="0 0 36 36" fill="none" xmlns="http://www.w3.org/2000/svg">
<g id="Icons">
<path id="Vector" d="M28.6875 33.75H12.9375C11.5948 33.75 10.3072 33.2166 9.35777 32.2672C8.40837 31.3178 7.875 30.0302 7.875 28.6875V12.9375C7.875 11.5948 8.40837 10.3072 9.35777 9.35777C10.3072 8.40837 11.5948 7.875 12.9375 7.875H28.6875C30.0302 7.875 31.3178 8.40837 32.2672 9.35777C33.2166 10.3072 33.75 11.5948 33.75 12.9375V28.6875C33.75 30.0302 33.2166 31.3178 32.2672 32.2672C31.3178 33.2166 30.0302 33.75 28.6875 33.75Z" fill="currentColor"/>
<path id="Vector_2" d="M11.25 5.625H27.8353C27.4853 4.63869 26.8387 3.78483 25.9841 3.18058C25.1296 2.57632 24.1091 2.25126 23.0625 2.25H7.3125C5.96984 2.25 4.68217 2.78337 3.73277 3.73277C2.78337 4.68217 2.25 5.96984 2.25 7.3125V23.0625C2.25126 24.1091 2.57632 25.1296 3.18058 25.9841C3.78483 26.8387 4.63869 27.4853 5.625 27.8353V11.25C5.625 9.75816 6.21763 8.32742 7.27252 7.27252C8.32742 6.21763 9.75816 5.625 11.25 5.625Z" fill="currentColor"/>
</g>
</svg>
