<svg width="36" height="36" viewBox="0 0 36 36" fill="none" xmlns="http://www.w3.org/2000/svg">
<g id="Icons">
<path id="Vector" d="M32.625 27.0274C32.31 27.0272 31.9986 26.9608 31.7109 26.8327C31.644 26.8029 31.5802 26.7667 31.5204 26.7244L25.7048 22.6308C25.4099 22.4232 25.1692 22.1477 25.003 21.8276C24.8369 21.5075 24.7501 21.1521 24.75 20.7914V15.2086C24.7501 14.8479 24.8369 14.4925 25.003 14.1724C25.1692 13.8523 25.4099 13.5768 25.7048 13.3692L31.5204 9.27562C31.5802 9.23333 31.644 9.19706 31.7109 9.16734C32.0535 9.01504 32.4287 8.95075 32.8024 8.98031C33.1762 9.00988 33.5366 9.13235 33.8509 9.33662C34.1653 9.54088 34.4236 9.82046 34.6025 10.1499C34.7813 10.4794 34.875 10.8484 34.875 11.2233V24.7767C34.875 25.3735 34.6379 25.9458 34.216 26.3677C33.794 26.7897 33.2217 27.0267 32.625 27.0267V27.0274ZM18.8438 28.125H5.90625C4.63858 28.1237 3.42321 27.6195 2.52683 26.7232C1.63046 25.8268 1.1263 24.6114 1.125 23.3438V12.6562C1.1263 11.3886 1.63046 10.1732 2.52683 9.27684C3.42321 8.38046 4.63858 7.8763 5.90625 7.875H18.8775C20.1362 7.87649 21.3428 8.37715 22.2328 9.26715C23.1229 10.1572 23.6235 11.3638 23.625 12.6225V23.3438C23.6237 24.6114 23.1195 25.8268 22.2232 26.7232C21.3268 27.6195 20.1114 28.1237 18.8438 28.125Z" fill="currentColor"/>
</g>
</svg>
