<svg width="24" height="24" viewBox="0 0 24 24" fill="none" xmlns="http://www.w3.org/2000/svg">
    <g id="icon_menu_hamburger menu">
        <path id="menu"
              d="M22 17.1115C22.5523 17.1115 23 17.5343 23 18.0558C23 18.5772 22.5523 19 22 19H2C1.44771 19 1 18.5772 1 18.0558C1 17.5343 1.44771 17.1115 2 17.1115H22ZM2 11.0558H22C22.5523 11.0558 23 11.4786 23 12.0001C23 12.4781 22.6238 12.8732 22.1357 12.9357L22 12.9443H2C1.44771 12.9443 1 12.5216 1 12.0001C1 11.522 1.3762 11.127 1.8643 11.0644L2 11.0558ZM2 5H22C22.5523 5 23 5.42275 23 5.94424C23 6.42228 22.6238 6.81734 22.1357 6.87987L22 6.88849H2C1.44771 6.88849 1 6.46574 1 5.94424C1 5.46621 1.3762 5.07115 1.8643 5.00862L2 5Z"
              fill="#2F3747"/>
    </g>
</svg>
