<svg width="24" height="24" viewBox="0 0 24 24" fill="none" xmlns="http://www.w3.org/2000/svg">
<g id="icon">
<path id="Vector" d="M20 6.42853C20 5.82232 19.7592 5.24094 19.3305 4.81228C18.9019 4.38363 18.3205 4.14281 17.7143 4.14281H17.1429V3.58745C17.1429 3.27995 16.9064 3.01602 16.5989 3.00066C16.5217 2.99694 16.4445 3.00894 16.372 3.03594C16.2995 3.06294 16.2332 3.10438 16.1772 3.15774C16.1212 3.2111 16.0766 3.27528 16.0462 3.34638C16.0157 3.41748 16 3.49403 16 3.57138V4.14281H8V3.58745C8 3.27995 7.76357 3.01602 7.45607 3.00066C7.37881 2.99694 7.30159 3.00894 7.22911 3.03594C7.15662 3.06294 7.09037 3.10438 7.03437 3.15774C6.97837 3.2111 6.93379 3.27528 6.90333 3.34638C6.87286 3.41748 6.85715 3.49403 6.85714 3.57138V4.14281H6.28571C5.67951 4.14281 5.09812 4.38363 4.66947 4.81228C4.24082 5.24094 4 5.82232 4 6.42853V6.8571C4 6.89499 4.01505 6.93133 4.04184 6.95812C4.06863 6.98491 4.10497 6.99996 4.14286 6.99996H19.8571C19.895 6.99996 19.9314 6.98491 19.9582 6.95812C19.9849 6.93133 20 6.89499 20 6.8571V6.42853ZM4 16.7143C4 17.3205 4.24082 17.9019 4.66947 18.3305C5.09812 18.7592 5.67951 19 6.28571 19H17.7143C18.3205 19 18.9019 18.7592 19.3305 18.3305C19.7592 17.9019 20 17.3205 20 16.7143V8.28568C20 8.24779 19.9849 8.21145 19.9582 8.18466C19.9314 8.15787 19.895 8.14282 19.8571 8.14282H4.14286C4.10497 8.14282 4.06863 8.15787 4.04184 8.18466C4.01505 8.21145 4 8.24779 4 8.28568V16.7143Z" fill="#B199FF"/>
</g>
</svg>
