<svg xmlns="http://www.w3.org/2000/svg" width="1440" height="611" fill="none">
    <path stroke="url(#a)" stroke-miterlimit="10"
          d="M-207.42 141.71c.655-58.064 62.34-101.306 121.221-102.237 58.898-.951 113.495 29.156 162.01 62.134 48.53 32.957 95.67 70.343 151.93 87.549 116.448 35.589 239.138-22.726 345.004-82.19C678.612 47.502 795.314-17.194 915.051 5.482c93.869 17.794 168.419 86.105 253.959 128.202 149.3 73.497 338.35 61.25 476.47-30.93m-1856.164 54.09c.605-58 61.803-101.41 120.548-102.955 5.25-.151 10.477-.014 15.67.3 52.854 3.44 102.208 30.416 146.59 59.856 8.57 5.682 17.101 11.502 25.632 17.322 40.045 27.341 80.415 54.795 126.803 68.714 15.027 4.521 30.185 7.48 45.381 9.079 102.515 10.847 207.122-40.291 298.799-92.714 6.659-3.82 13.356-7.644 20.092-11.473C688.544 48.292 796.374-7.023 907.775 9.848c31.861 4.83 62.101 14.556 91.429 28.672 34.636 16.65 67.306 38.925 99.616 60.444 22.06 14.688 44.08 29.076 67.06 41.551a427.249 427.249 0 0 0 33.16 16.202c71.94 31.384 153.58 42.555 232.68 34.183 79.29-8.395 156.11-36.016 221.72-80.659m-1867.397 61.74c.55-57.974 61.245-101.533 119.853-103.69 5.244-.19 10.463-.127 15.65.149 52.766 2.898 102.267 29.206 146.903 58.061 8.616 5.581 17.17 11.283 25.746 17.002 40.234 26.841 80.784 53.891 127.177 67.542a249.5 249.5 0 0 0 45.395 8.887c102.582 10.456 206.849-40.907 297.982-93.951 6.617-3.852 13.288-7.73 19.959-11.609C683.71 56.977 789.952 1.667 900.544 14.323c32.315 3.686 63.473 11.505 93.867 25.317 35.929 16.318 69.379 39.968 101.659 62.959 22.04 15.685 43.82 31.21 66.68 44.787 10.78 6.384 21.78 12.3 33.14 17.712 72.3 34.472 156.88 46.845 238.28 37.827 81.58-9.021 160.12-38.708 227.22-85.233m-1878.634 69.412c.5-57.911 60.687-101.656 119.163-104.388a168.715 168.715 0 0 1 15.61-.018c52.715 2.35 102.342 27.975 147.216 56.266 8.64 5.463 17.277 11.06 25.877 16.661 40.421 26.341 81.131 52.97 127.549 66.37 15.025 4.35 30.168 7.196 45.372 8.698 102.61 10.071 206.56-41.5 297.165-95.185 6.59-3.907 13.197-7.835 19.825-11.746 98.308-58.13 203.034-113.482 312.722-105.01 32.808 2.536 64.829 8.473 96.31 21.998 37.235 15.966 71.445 41.01 103.695 65.497 22.02 16.697 43.52 33.364 66.3 48.022 10.7 6.907 21.71 13.338 33.12 19.223 72.65 37.558 160.16 51.155 243.86 41.49 83.87-9.668 164.13-41.399 232.73-89.79m-1889.796 77.067c.467-57.869 60.151-101.761 118.469-105.123 5.23-.302 10.396-.348 15.57-.185 52.642 1.787 102.4 26.764 147.511 54.492 8.702 5.341 17.347 10.841 26.013 16.358 40.609 25.84 81.516 52.044 127.944 65.213a253.314 253.314 0 0 0 45.364 8.49c102.66 9.702 206.266-42.132 296.371-96.405 6.547-3.939 13.127-7.921 19.707-11.903C674.02 74.352 777.325 18.794 886.016 23.246c33.295 1.35 66.222 5.437 98.752 18.68 38.572 15.63 73.522 42.053 105.732 68.012 21.99 17.715 43.26 35.498 65.95 51.275 10.65 7.41 21.67 14.355 33.12 20.75 72.99 40.667 163.46 55.444 249.44 45.154 86.16-10.293 168.15-44.09 238.25-94.347m-1901.055 84.628c.395-57.823 59.61-101.905 117.775-105.859a167.69 167.69 0 0 1 15.55-.335c52.57 1.223 102.458 25.555 147.825 52.697 8.747 5.24 17.436 10.639 26.126 16.039 40.797 25.339 81.885 51.139 128.317 64.04a255.203 255.203 0 0 0 45.378 8.297c102.727 9.312 205.978-42.726 295.555-97.64 6.52-3.994 13.019-8.004 19.574-12.039C669.19 83.039 771.136 27.152 878.783 27.685c33.842.175 67.579 2.406 101.19 15.325 39.857 15.298 75.587 43.096 107.807 70.545 21.97 18.727 43.01 37.648 65.56 54.509 10.62 7.93 21.58 15.378 33.1 22.261 73.35 43.754 166.74 59.755 255.02 48.818 88.44-10.956 172.16-46.781 243.77-98.904m-1912.291 92.295c.362-57.78 59.052-102.026 117.102-106.577 5.178-.41 10.367-.574 15.51-.502 52.503.697 102.533 24.323 148.099 50.907 8.792 5.138 17.522 10.399 26.257 15.698 40.968 24.86 82.233 50.217 128.69 62.868a259.053 259.053 0 0 0 45.371 8.088c102.776 8.943 205.705-43.343 294.738-98.877 6.478-4.026 12.951-8.09 19.44-12.175C664.321 91.692 764.991 35.37 871.495 32.111c34.384-1.037 68.951-.646 103.632 12.007 41.173 14.945 77.663 44.139 109.833 73.082 21.95 19.723 42.74 39.781 65.18 57.745 10.55 8.453 21.53 16.415 33.1 23.788 73.71 46.841 170.04 64.044 260.61 52.481 90.72-11.581 176.18-49.472 249.29-103.46m-1923.491 99.902c.29-57.732 58.515-102.131 116.391-107.291a174.34 174.34 0 0 1 15.49-.652c52.431.133 102.592 23.113 148.412 49.111 8.816 5.022 17.613 10.198 26.372 15.379 41.177 24.376 82.617 49.292 129.063 61.695a258.43 258.43 0 0 0 45.363 7.879c102.826 8.574 205.416-43.937 293.922-100.112 6.43-4.097 12.86-8.193 19.306-12.311 95.464-60.987 194.877-117.898 300.235-124.815 34.96-2.292 70.307-3.677 106.092 8.668 42.485 14.592 79.725 45.181 111.875 75.597 21.95 20.737 42.47 41.915 64.82 60.997 10.53 8.973 21.45 17.438 33.09 25.299 74.04 49.95 173.32 68.355 266.18 56.146 93.02-12.229 180.2-52.164 254.79-108.035M-233.635 262.814c.241-57.669 57.958-102.254 115.718-108.01a166.5 166.5 0 0 1 15.449-.819c52.38-.414 102.646 21.866 148.726 47.316 8.877 4.899 17.698 9.958 26.502 15.038 41.365 23.875 82.986 48.387 129.436 60.523 15.032 3.948 30.153 6.473 45.361 7.707 102.871 8.168 205.144-44.552 293.105-101.347 6.387-4.13 12.79-8.281 19.189-12.469 94.731-61.717 192.938-119.28 297.105-129.754 35.552-3.569 71.701-6.714 108.513 5.332 43.781 14.261 81.801 46.224 113.921 78.114 21.92 21.732 42.19 44.069 64.43 64.253 10.47 9.476 21.38 18.476 33.06 26.81 74.4 53.036 176.6 72.628 271.77 59.809 95.3-12.854 184.22-54.875 260.31-112.591M-236.9 277.954c.186-57.644 57.421-102.36 115.024-108.746 5.158-.56 10.307-.89 15.408-.985 52.292-.958 102.704 20.655 149.022 45.542 8.923 4.798 17.789 9.756 26.638 14.734 41.553 23.375 83.333 47.467 129.809 59.351a263.037 263.037 0 0 0 45.354 7.498c102.92 7.799 204.854-45.146 292.309-102.567 6.344-4.162 12.7-8.383 19.056-12.605 94.02-62.431 191.038-120.802 293.975-134.694 36.14-4.882 73.073-9.766 110.972 1.993 45.093 13.908 83.883 47.245 115.993 80.646 21.89 22.766 41.91 46.203 64.06 67.505 10.4 9.999 21.32 19.515 33.07 28.337 74.73 56.145 179.88 76.939 277.35 63.473 97.58-13.479 188.25-57.55 265.82-117.148m-1957.127 122.8c.135-57.58 56.879-102.503 114.312-109.46a167.21 167.21 0 0 1 15.389-1.136c52.241-1.504 102.78 19.425 149.334 43.748 8.947 4.68 17.858 9.537 26.753 14.415 41.724 22.895 83.718 46.54 130.182 58.178a263.858 263.858 0 0 0 45.346 7.289c102.97 7.43 204.566-45.741 291.493-103.803a2924.625 2924.625 0 0 0 18.923-12.741c93.309-63.145 189.163-122.442 290.861-139.656 36.744-6.216 74.429-12.797 113.414-1.325 46.4 13.555 85.96 48.288 118.02 83.183 21.89 23.779 41.64 48.336 63.68 70.741 10.37 10.518 21.24 20.536 33.05 29.847 75.09 59.232 183.18 81.228 282.95 67.116 99.88-14.126 192.27-60.241 271.34-121.705M-243.458 308.208c.081-57.554 56.322-102.624 113.639-110.178 5.123-.69 10.24-1.111 15.349-1.303 52.17-2.068 102.837 18.215 149.609 41.957 8.992 4.579 17.965 9.314 26.883 14.074 41.912 22.395 84.087 45.636 130.577 57.022 15.036 3.681 30.138 6.055 45.36 7.097 103.036 7.04 204.272-46.373 290.677-105.039 6.275-4.249 12.54-8.574 18.805-12.898 92.598-63.859 187.257-124.174 287.731-144.597 37.343-7.589 75.801-15.85 115.852-4.68 47.693 13.223 88.026 49.33 120.066 85.698 21.86 24.775 41.37 50.47 63.3 73.976 10.3 11.043 21.18 21.576 33.05 31.375 75.45 62.319 186.48 85.518 288.53 70.78 102.17-14.751 196.29-62.933 276.86-126.263m-1979.569 138.14c.031-57.491 55.785-102.73 112.945-110.914a166.807 166.807 0 0 1 15.346-1.474c52.097-2.633 102.912 16.983 149.921 40.162 9.054 4.457 18.034 9.095 26.998 13.754 42.099 21.895 84.434 44.715 130.949 55.85a268.97 268.97 0 0 0 45.354 6.887c103.085 6.671 203.982-46.967 289.859-106.274a2017.11 2017.11 0 0 0 18.672-13.035c91.904-64.594 185.353-126.039 284.618-149.558 37.959-8.982 77.178-18.864 118.294-7.998 49.004 12.87 90.093 50.373 122.133 88.23 21.85 25.788 41.11 52.641 62.94 77.228 10.27 11.562 21.12 22.614 33.03 32.885 75.79 65.428 189.76 89.829 294.11 74.444 104.47-15.398 200.3-65.624 282.37-130.836M-250.008 338.508c-.024-57.465 55.227-102.852 112.272-111.632a173.464 173.464 0 0 1 15.305-1.642c52.03-3.158 102.971 15.774 150.218 38.388 9.1 4.356 18.12 8.856 27.111 13.435 42.288 21.394 84.82 43.789 131.324 54.677a269.718 269.718 0 0 0 45.345 6.678c103.114 6.286 203.711-47.582 289.044-107.509 6.184-4.353 12.38-8.764 18.538-13.171C630.341 152.423 722.571 89.774 820.658 63.25c38.549-10.43 78.551-21.917 120.754-11.338 50.314 12.518 92.168 51.416 124.158 90.768 21.81 26.805 40.84 54.774 62.57 80.463 10.22 12.065 21.05 23.615 33 34.397 76.15 68.515 193.06 94.117 299.7 78.108 106.75-16.024 204.31-68.316 287.88-135.394M-253.3 353.624c-.074-57.401 54.67-102.974 111.561-112.346a172.743 172.743 0 0 1 15.265-1.808c51.958-3.723 103.046 14.542 150.53 36.592 9.123 4.239 18.21 8.654 27.264 13.111 42.48 20.931 85.188 42.884 131.696 53.505 15.025 3.433 30.141 5.615 45.344 6.506 103.163 5.917 203.421-48.177 288.248-108.728a2227.115 2227.115 0 0 0 18.405-13.308c90.481-66.023 181.498-129.973 278.395-159.443 39.155-11.898 79.906-24.948 123.175-14.672 51.609 12.186 94.217 52.442 126.207 93.283 21.8 27.818 40.57 56.908 62.2 83.715 10.15 12.589 20.99 24.654 33.01 35.924 76.5 71.602 196.34 98.428 305.28 81.772 109.05-16.671 208.33-71.007 293.4-139.951M-256.57 368.762c-.129-57.376 54.133-103.08 110.867-113.082a166.707 166.707 0 0 1 15.245-1.959c51.907-4.27 103.104 13.333 150.822 34.782 9.168 4.137 18.279 8.435 27.378 12.791 42.668 20.43 85.535 41.963 132.069 52.332 15.015 3.358 30.121 5.465 45.336 6.297 103.23 5.527 203.149-48.792 287.432-109.964 6.115-4.44 12.203-8.934 18.287-13.465 89.77-66.737 179.523-132.096 275.265-164.383 39.719-13.4 81.279-28 125.634-18.012 52.92 11.834 96.285 53.485 128.255 95.799 21.77 28.814 40.3 59.041 61.82 86.951 10.12 13.108 20.91 25.675 32.99 37.434 76.84 74.711 199.64 102.718 310.86 85.436 111.33-17.296 212.34-73.698 298.92-144.508M-259.851 383.923c-.179-57.312 53.592-103.223 110.193-113.8a166.203 166.203 0 0 1 15.205-2.126c51.835-4.833 103.163 12.123 151.119 33.008 9.23 4.015 18.385 8.212 27.508 12.45 42.856 19.93 85.92 41.038 132.442 51.16 15.022 3.262 30.124 5.331 45.329 6.088 103.279 5.158 202.859-49.387 286.615-111.2 6.089-4.494 12.134-9.02 18.154-13.601 89.059-67.451 177.525-134.236 272.151-169.345 40.278-14.939 82.657-31.015 128.077-21.33 54.231 11.481 98.358 54.528 130.318 98.332 21.77 29.827 40.01 61.196 61.44 90.186 10.06 13.632 20.85 26.714 32.97 38.945 77.2 77.798 202.92 107.028 316.44 89.1 113.64-17.943 216.36-76.389 304.44-149.065M-263.123 399.059c-.212-57.27 53.034-103.345 109.483-114.515 5.045-.985 10.098-1.762 15.185-2.275 51.747-5.377 103.238 10.891 151.432 31.212 9.274 3.914 18.454 7.993 27.622 12.131 43.044 19.429 86.289 40.132 132.815 49.987 15.013 3.187 30.126 5.197 45.343 5.895 103.329 4.79 202.571-49.981 285.799-112.435 6.046-4.527 12.044-9.124 18.02-13.738 88.348-68.164 175.458-136.463 269.021-174.285 40.832-16.515 84.029-34.067 130.498-24.664 55.525 11.15 100.425 55.57 132.345 100.869 21.74 30.823 39.75 63.329 61.09 93.437 10.02 14.152 20.78 27.753 32.97 40.473 77.53 80.906 206.22 111.317 322.02 92.763 115.92-18.568 220.37-79.08 309.93-153.638M-266.408 414.181c-.284-57.223 52.497-103.451 108.809-115.234a159.739 159.739 0 0 1 15.145-2.442c51.696-5.924 103.296 9.681 151.728 29.438 9.299 3.797 18.562 7.77 27.736 11.811 43.232 18.929 86.637 39.212 133.211 48.831 15.002 3.112 30.123 5.025 45.335 5.687 103.374 4.382 202.298-50.597 284.982-113.672 6.02-4.58 11.975-9.21 17.887-13.873 87.637-68.879 173.403-138.749 265.908-179.247C825.696 67.37 869.717 48.38 917.29 57.476c56.835 10.797 102.51 56.592 134.39 103.385 21.72 31.857 39.5 65.479 60.69 96.694 9.97 14.654 20.7 28.775 32.95 41.983 77.91 84.01 209.5 115.628 327.62 96.406 118.2-19.193 224.39-81.771 315.46-158.195M-269.678 429.316c-.317-57.18 51.939-103.573 108.115-115.968a165.977 165.977 0 0 1 15.104-2.61c51.624-6.487 103.371 8.45 152.04 27.643 9.345 3.696 18.631 7.552 27.89 11.487 43.402 18.45 87.021 38.286 133.599 47.638 15.01 3.015 30.125 4.891 45.311 5.498 103.424 4.014 201.988-51.207 284.188-114.89 5.955-4.63 11.905-9.298 17.791-14.015 86.925-69.593 171.267-141.062 262.777-184.187 41.854-19.734 86.758-40.15 135.4-31.321 58.146 10.443 104.583 57.634 136.433 105.9 21.72 32.869 39.23 67.612 60.31 99.93 9.92 15.194 20.64 29.813 32.95 43.51 78.27 87.097 212.81 119.918 333.21 100.07 120.5-19.84 228.42-84.446 320.97-162.752M-272.956 444.482c-.389-57.133 51.381-103.695 107.42-116.704a166.282 166.282 0 0 1 15.085-2.759c51.556-7.014 103.43 7.239 152.332 25.831 9.406 3.574 18.721 7.349 28.003 11.168 43.59 17.949 87.39 37.381 133.973 46.464 15 2.941 30.106 4.741 45.304 5.29 103.473 3.645 201.715-51.823 283.37-116.126a1621.222 1621.222 0 0 0 17.658-14.151c86.193-70.324 169.089-143.41 259.647-189.128 42.343-21.36 88.135-43.166 137.838-34.677 59.44 10.112 106.656 58.677 138.486 108.454 21.69 33.865 38.96 69.746 59.95 103.181 9.87 15.698 20.58 30.852 32.93 45.021 78.61 90.205 216.08 124.229 338.79 103.734 122.78-20.466 232.45-87.158 326.49-167.309M-276.229 459.617c-.422-57.092 50.861-103.822 106.73-117.402a166.287 166.287 0 0 1 15.045-2.926c51.484-7.578 103.504 6.008 152.628 24.057 9.45 3.473 18.806 7.11 28.133 10.827 43.8 17.465 87.738 36.46 134.346 45.292 15.007 2.844 30.109 4.607 45.318 5.097 103.54 3.255 201.427-52.417 282.555-117.362a1299.055 1299.055 0 0 0 17.523-14.287c85.499-71.058 166.884-145.81 256.534-194.089 42.806-23.04 89.507-46.218 140.28-37.995 60.751 9.76 108.727 59.72 140.537 110.97 21.67 34.878 38.67 71.9 59.56 106.417 9.82 16.2 20.5 31.873 32.91 46.531 78.97 93.293 219.37 128.502 344.37 107.398 125.09-21.112 236.47-89.849 332.01-171.866M-279.519 474.74c-.493-57.044 50.303-103.944 106.036-118.136a173.759 173.759 0 0 1 15.004-3.094c51.412-8.142 103.563 4.799 152.941 22.263 9.475 3.355 18.897 6.907 28.248 10.507 43.987 16.965 88.105 35.555 134.719 44.12 14.997 2.768 30.11 4.473 45.31 4.888 103.59 2.885 201.154-53.034 281.738-118.598 5.86-4.771 11.655-9.591 17.39-14.423 84.788-71.773 164.598-148.239 253.404-199.029 43.231-24.716 90.862-49.25 142.739-41.335 62.083 9.423 110.79 60.763 142.58 113.486 21.63 35.895 38.4 74.033 59.21 109.668 9.77 16.741 20.44 32.912 32.91 48.059 79.32 96.38 222.64 132.812 349.95 111.062 127.37-21.738 240.48-92.54 337.51-176.44m-2102.958 222.14c-.526-57.002 49.746-104.066 105.364-118.855a159.576 159.576 0 0 1 14.984-3.244c51.362-8.689 103.638 3.567 153.237 20.488 9.52 3.255 18.983 6.668 28.362 10.188 44.159 16.485 88.491 34.63 135.092 42.947 15.005 2.673 30.092 4.323 45.304 4.679 103.618 2.501 200.864-53.627 280.921-119.833a1076.534 1076.534 0 0 0 17.273-14.581c84.076-72.487 162.295-150.646 250.29-203.99 43.63-26.446 92.235-52.302 145.16-44.67 63.378 9.092 112.861 61.806 144.651 116.018 21.62 36.908 38.13 76.167 58.82 112.904 9.72 17.244 20.38 33.913 32.9 49.57 79.65 99.488 225.94 137.102 355.53 114.726 129.64-22.401 244.49-95.232 343.02-180.997M-286.07 505.036c-.598-56.954 49.209-104.171 104.652-119.569a159.997 159.997 0 0 1 14.944-3.411c51.273-9.232 103.696 2.358 153.529 18.677 9.565 3.153 19.072 6.466 28.514 9.864 44.346 15.985 88.838 33.708 135.465 41.774 14.995 2.598 30.093 4.189 45.317 4.486 103.685 2.111 200.576-54.221 280.105-121.068 5.79-4.858 11.495-9.782 17.14-14.717 83.365-73.201 159.927-153.104 247.181-208.915 44.011-28.153 93.629-55.337 147.619-48.008 64.688 8.739 114.934 62.848 146.674 118.555 21.6 37.904 37.86 78.3 58.45 116.139 9.67 17.784 20.31 34.952 32.89 51.097 80.02 102.575 229.23 141.412 361.12 118.39 131.92-23.027 248.5-97.923 348.54-185.554M-289.334 520.171c-.631-56.913 48.651-104.294 103.979-120.289a166.606 166.606 0 0 1 14.941-3.582c51.222-9.779 103.772 1.127 153.842 16.882 9.605 3.015 19.142 6.248 28.628 9.544 44.534 15.484 89.207 32.804 135.86 40.619 14.985 2.522 30.091 4.017 45.293 4.298 103.734 1.742 200.304-54.837 279.31-122.288a917.191 917.191 0 0 0 17.006-14.853c82.654-73.915 157.522-155.556 244.068-213.876 44.367-29.916 94.984-58.37 150.061-51.327 65.999 8.386 117.006 63.891 148.716 121.071 21.6 38.917 37.6 80.472 58.09 119.391 9.62 18.287 20.25 35.99 32.88 52.608 80.35 105.683 232.52 145.701 366.73 122.049 134.21-23.652 252.52-100.614 354.07-190.111M-292.634 535.293c-.703-56.866 48.131-104.42 103.285-121.024a166.83 166.83 0 0 1 14.9-3.749c51.151-10.343 103.83-.084 154.138 15.108 9.65 2.913 19.25 6.024 28.743 9.224 44.722 14.984 89.592 31.878 136.233 39.447 14.992 2.425 30.093 3.883 45.286 4.088 103.783 1.373 200.014-55.431 278.493-123.523a1070.196 1070.196 0 0 0 16.889-15.011c81.943-74.629 155.078-158.003 240.937-218.816 44.707-31.657 96.357-61.421 152.5-54.682 67.293 8.054 119.075 64.933 150.77 123.586 21.56 39.914 37.32 82.605 57.7 122.627 9.57 18.789 20.17 37.012 32.86 54.118 80.71 108.771 235.82 149.991 372.31 125.713C1628.92 468.1 1748.95 389.094 1852 297.731M-295.897 550.432c-.736-56.823 47.573-104.542 102.591-121.758a174.645 174.645 0 0 1 14.859-3.916c51.083-10.869 103.889-1.294 154.45 13.313 9.697 2.812 19.319 5.805 28.874 8.883 44.91 14.484 89.939 30.957 136.606 38.274 14.983 2.351 30.096 3.75 45.3 3.896 103.833 1.004 199.721-56.063 277.677-124.759a914.794 914.794 0 0 0 16.755-15.147c81.232-75.343 152.575-160.463 237.824-223.778 45.003-33.43 97.734-64.436 154.942-58 68.604 7.701 121.163 65.955 152.819 126.14 21.54 40.947 37.06 84.738 57.35 125.878 9.52 19.33 20.1 38.051 32.85 55.646 81.07 111.858 239.11 154.301 377.9 129.377 138.79-24.925 260.55-105.997 365.1-199.226M-299.183 565.593c-.808-56.776 47.015-104.664 101.901-122.456a172.972 172.972 0 0 1 14.84-4.066c51.011-11.434 103.964-2.525 154.747 11.538a987.065 987.065 0 0 1 28.987 8.564c45.103 14.021 90.308 30.053 136.979 37.102 14.99 2.254 30.077 3.599 45.293 3.687 103.879.597 199.432-56.658 276.86-125.995a929.222 929.222 0 0 0 16.622-15.283c80.521-76.057 150.034-162.918 234.694-228.718 45.299-35.205 99.107-67.489 157.401-61.34 69.915 7.349 123.233 66.998 154.859 128.656 21.54 41.96 36.79 86.872 56.97 129.114 9.47 19.832 20.05 39.089 32.84 57.156 81.4 114.966 242.4 158.591 383.48 133.041 141.09-25.571 264.56-108.688 370.6-203.799M-302.474 580.718c-.841-56.734 46.479-104.77 101.207-123.192 4.883-1.653 9.837-3.047 14.799-4.233 50.939-11.997 104.022-3.735 155.039 9.727 9.781 2.573 19.494 5.364 29.14 8.24 45.29 13.52 90.692 29.126 137.351 35.929 14.981 2.179 30.079 3.465 45.286 3.478 103.928.228 199.159-57.274 276.043-127.231a813.817 813.817 0 0 0 16.489-15.419c79.809-76.772 147.454-165.368 231.58-233.68 45.536-36.99 100.463-70.52 159.822-64.674 71.209 7.017 125.303 68.04 156.908 131.171 21.51 42.956 36.52 89.006 56.57 132.371 9.44 20.352 19.96 40.111 32.82 58.667 81.76 118.053 245.68 162.901 389.06 136.705 143.37-26.197 268.58-111.379 376.12-208.356m-2181.5 275.634c-.891-56.671 45.92-104.892 100.533-123.91 4.878-1.691 9.802-3.177 14.78-4.384 50.889-12.544 104.097-4.966 155.335 7.953 9.827 2.472 19.584 5.162 29.253 7.921 45.479 13.019 91.04 28.205 137.726 34.756 14.992 2.12 30.059 3.315 45.283 3.306 103.977-.14 198.87-57.867 275.248-128.449a810.705 810.705 0 0 0 16.371-15.577c79.116-77.507 144.859-167.796 228.45-238.62 45.773-38.776 101.836-73.572 162.282-68.013 72.52 6.664 127.373 69.082 158.949 133.687 21.51 43.968 36.24 91.16 56.22 135.622 9.37 20.876 19.9 41.15 32.81 60.194 82.12 121.141 248.99 167.192 394.65 140.369 145.67-26.843 272.61-114.053 381.63-212.913M-309.013 610.992c-1.03-61.693 54.01-113.584 114.579-129.195 60.551-15.59 124.693-2.794 185.015 13.758 60.321 16.552 120.811 36.997 183.395 36.698 111.575-.563 212.282-67.199 290.648-145.415 78.404-78.221 142.203-170.237 225.32-243.56 45.987-40.578 103.212-76.587 164.724-71.332 73.83 6.312 129.443 70.126 161.002 136.241 31.56 66.115 48.06 139.417 88.63 200.563 82.46 124.249 252.27 171.501 400.23 144.032 147.95-27.469 276.62-116.744 387.15-217.47"
          opacity=".54"/>
    <defs>
        <linearGradient id="a" x1="1829.41" x2="1456.72" y1="-19.291" y2="1159.33" gradientUnits="userSpaceOnUse">
            <stop stop-color="#EAE4FF"/>
            <stop offset=".229" stop-color="#CCBDFF"/>
            <stop offset=".711" stop-color="#8662FF"/>
            <stop offset="1" stop-color="#6C40FF"/>
        </linearGradient>
    </defs>
</svg>
