<svg width="1440" height="951" viewBox="0 0 1440 951" fill="none" xmlns="http://www.w3.org/2000/svg">
    <path opacity="0.54"
          d="M1519.83 54.577C1500.52 6.46885 1435.89 -9.86761 1387.24 8.11104C1338.58 26.0774 1303.49 68.5195 1274.32 111.413C1245.13 154.293 1218.52 200.417 1177.89 232.653C1093.79 299.355 974.202 289.905 868.052 274.141C761.903 258.376 645.164 241.709 554.189 298.714C482.87 343.419 443.752 424.006 387.139 486.277C288.324 594.987 129.146 645.007 -14.0631 612.291M1527.41 66.1313C1508.15 18.06 1443.87 1.42802 1395.14 18.8529C1390.78 20.3986 1386.53 22.1779 1382.37 24.0926C1340.09 43.7894 1308.29 81.9547 1281.37 120.588C1276.17 128.046 1271.05 135.605 1265.93 143.165C1241.89 178.671 1217.62 214.373 1184.04 240.73C1173.16 249.279 1161.67 256.568 1149.71 262.739C1069.05 304.414 966.63 295.178 874.407 280.753C867.705 279.695 860.969 278.646 854.201 277.605C754.003 262.197 647.583 250.511 561.574 300.03C536.977 314.196 515.295 331.921 495.78 353.008C472.731 377.892 453.106 406.835 433.538 435.031C420.175 454.28 406.746 473.267 391.914 490.966C384.941 499.286 377.615 507.312 369.928 515.009C321.011 564.037 257.596 599.333 189.944 617.56C122.128 635.827 50.1285 637.308 -18.1782 621.056M1534.99 77.6843C1515.79 29.6171 1451.87 12.7018 1403.05 29.573C1398.69 31.0858 1394.42 32.7995 1390.25 34.6814C1347.87 53.8984 1315.73 91.5552 1288.42 129.783C1283.15 137.171 1277.97 144.64 1272.77 152.131C1248.42 187.279 1223.88 222.703 1190.2 248.838C1179.29 257.309 1167.79 264.566 1155.8 270.691C1074.96 312.063 972.744 302.531 880.767 287.417C874.089 286.318 867.357 285.216 860.626 284.113C760.781 267.885 655.666 255.697 568.959 301.45C543.619 314.809 520.566 331.239 500.078 352.413C475.86 377.433 456.041 407.767 436.97 437.181C423.952 457.25 411.09 477.106 396.705 495.687C389.926 504.43 382.805 512.857 375.225 520.98C327.013 572.691 261.571 609.925 191.822 628.346C121.929 646.82 47.84 647.133 -22.2933 629.787M1542.58 89.2218C1523.44 41.1915 1459.88 23.96 1410.98 40.3103C1406.62 41.7697 1402.34 43.4179 1398.16 45.2669C1355.64 64.0123 1323.18 101.14 1295.49 138.974C1290.16 146.272 1284.88 153.68 1279.63 161.08C1254.96 195.872 1230.15 230.997 1196.37 256.931C1185.44 265.336 1173.93 272.527 1161.93 278.62C1080.94 319.68 978.915 309.873 887.164 294.057C880.49 292.906 873.796 291.741 867.089 290.598C767.576 273.536 663.693 260.83 576.374 302.815C550.258 315.374 525.887 330.513 504.415 351.794C479.006 376.938 459.015 408.675 440.461 439.32C427.776 460.229 415.513 480.946 401.555 500.397C395.001 509.553 388.041 518.411 380.579 526.941C333.074 581.333 265.625 620.518 193.778 639.133C121.788 657.801 45.6304 656.959 -26.3417 638.54M1550.17 100.787C1531.08 52.7815 1467.88 35.2667 1418.91 51.0427C1414.52 52.4571 1410.26 54.0642 1406.07 55.8477C1363.42 74.1008 1330.65 110.733 1302.58 148.173C1297.16 155.389 1291.84 162.719 1286.51 170.07C1261.52 204.506 1236.41 239.339 1202.55 265.084C1191.59 273.412 1180.06 280.57 1168.05 286.597C1086.9 327.367 985.074 317.231 893.545 300.767C886.896 299.574 880.205 298.357 873.515 297.139C774.355 279.257 671.572 265.927 583.772 304.248C556.873 315.976 531.16 329.864 508.734 351.244C482.123 376.533 461.973 409.653 443.915 441.515C431.595 463.257 419.878 484.831 406.356 505.184C400.007 514.742 393.206 524.03 385.872 532.999C339.094 590.086 269.596 631.196 195.673 650.018C121.606 668.893 43.3592 666.883 -30.4518 647.391M1557.75 112.344C1538.73 64.3544 1475.86 46.5317 1426.82 61.7663C1422.43 63.1273 1418.15 64.6893 1413.95 66.4399C1371.18 84.2009 1338.09 120.337 1309.62 157.371C1304.13 164.517 1298.74 171.778 1293.35 179.039C1268.05 213.117 1242.66 247.672 1208.71 273.196C1197.73 281.458 1186.19 288.551 1174.14 294.553C1092.81 335.019 991.204 324.6 899.9 307.435C893.255 306.188 886.622 304.922 879.936 303.651C781.129 284.948 679.355 270.911 591.146 305.64C563.417 316.564 536.439 329.165 513.021 350.62C485.24 376.045 464.897 410.555 447.324 443.656C435.336 466.239 424.186 488.682 411.123 509.896C404.967 519.876 398.372 529.567 391.144 538.962C345.072 598.731 273.568 641.791 197.547 660.807C121.395 679.856 41.0672 676.712 -34.5826 656.146M1565.33 123.899C1546.35 75.934 1483.85 57.8075 1434.72 72.5089C1430.33 73.8166 1426.02 75.3335 1421.82 77.0308C1378.94 94.3325 1345.5 129.927 1316.69 166.56C1311.13 173.636 1305.67 180.794 1300.21 187.985C1274.61 221.72 1248.93 255.963 1214.88 281.286C1203.86 289.47 1192.29 296.518 1180.24 302.466C1098.75 342.641 997.336 331.915 906.278 314.06C899.658 312.772 893.029 311.452 886.38 310.12C787.926 290.596 687.059 275.792 598.561 307.001C569.995 317.089 541.741 328.423 517.358 349.998C488.387 375.547 467.871 411.46 450.815 445.791C439.173 469.195 428.589 492.507 415.973 514.602C410.043 524.997 403.608 535.118 396.488 544.939C351.121 607.391 277.59 652.389 199.492 671.611C121.263 690.867 38.8462 686.555 -38.6425 664.916M1572.92 135.435C1554.01 87.4862 1491.85 69.0845 1442.66 83.224C1438.27 84.4989 1433.96 85.9624 1429.73 87.6146C1386.73 104.424 1352.98 139.522 1323.76 175.75C1318.15 182.736 1312.6 189.845 1307.08 196.945C1281.16 230.344 1255.19 264.275 1221.07 289.389C1210.03 297.507 1198.44 304.51 1186.37 310.393C1104.72 350.277 1003.51 339.255 912.679 320.698C906.075 319.337 899.471 317.976 892.846 316.603C794.745 296.259 694.719 280.563 605.98 308.363C576.535 317.59 547.066 327.695 521.678 349.365C491.516 375.038 470.828 412.354 454.269 447.903C442.959 472.147 432.954 496.308 420.773 519.306C415.036 530.123 408.806 540.646 401.792 550.894C357.153 616.04 281.594 662.975 201.399 682.393C121.073 701.843 36.5869 696.375 -42.7283 673.642M1580.52 147.002C1561.67 99.0904 1499.86 80.3727 1450.58 93.9789C1446.17 95.1882 1441.85 96.6189 1437.63 98.2178C1394.49 114.556 1360.43 149.104 1330.82 184.959C1325.12 191.863 1319.51 198.881 1313.93 205.913C1287.69 238.954 1261.44 272.607 1227.23 297.5C1216.16 305.573 1204.56 312.489 1192.48 318.36C1110.66 357.92 1009.64 346.623 919.053 327.377C912.473 325.975 905.873 324.56 899.265 323.113C801.529 301.928 702.284 285.305 613.371 309.766C583.028 318.12 552.332 327.015 526.003 348.764C494.672 374.573 473.791 413.28 457.729 450.047C446.763 475.111 437.345 500.154 425.612 524.033C420.08 535.252 414.031 546.218 407.136 556.872C363.203 624.7 285.629 673.553 203.344 693.197C120.941 712.854 34.346 706.206 -46.7875 682.412M1588.09 158.56C1569.3 110.653 1507.85 91.6721 1458.49 104.704C1454.07 105.881 1449.74 107.246 1445.52 108.791C1402.28 124.649 1367.88 158.69 1337.9 194.15C1332.12 200.984 1326.44 207.934 1320.79 214.895C1294.23 247.58 1267.72 280.934 1233.4 305.625C1222.3 313.62 1210.7 320.504 1198.59 326.309C1116.61 365.578 1015.8 353.986 925.427 334.058C918.872 332.615 912.289 331.127 905.705 329.639C808.322 307.632 709.791 289.959 620.784 311.184C589.533 318.632 557.63 326.33 530.317 348.186C497.795 374.119 476.721 414.217 461.164 452.235C450.552 478.152 441.692 504.031 430.394 528.812C425.088 540.445 419.199 551.841 412.411 562.922C369.204 633.446 289.602 684.236 205.221 704.074C120.741 723.938 32.0439 716.143 -50.9161 691.255M1595.67 170.113C1576.94 122.242 1515.82 102.934 1466.42 115.436C1462.01 116.56 1457.68 117.871 1453.42 119.392C1410.04 134.779 1375.31 168.29 1344.95 203.357C1339.12 210.101 1333.38 216.981 1327.65 223.872C1300.8 256.213 1273.97 289.264 1239.58 313.746C1228.46 321.675 1216.84 328.494 1204.71 334.254C1122.57 373.231 1021.96 361.344 931.813 340.715C925.262 339.218 918.703 337.689 912.157 336.139C815.127 313.312 717.252 294.498 628.187 312.564C596.009 319.093 562.94 325.62 534.642 347.583C500.93 373.64 479.684 415.141 464.644 454.389C454.364 481.147 446.083 507.874 435.232 533.537C430.119 545.593 424.435 557.391 417.754 568.898C375.253 642.104 293.624 694.832 207.145 714.865C120.568 734.922 29.8024 725.973 -54.9965 700.011M1603.26 181.647C1584.58 133.78 1523.83 114.188 1474.33 126.158C1469.9 127.215 1465.56 128.494 1461.31 129.962C1417.81 144.856 1382.76 177.871 1352.04 212.524C1346.14 219.199 1340.3 225.996 1334.52 232.798C1307.35 264.782 1280.24 297.553 1245.75 321.835C1234.6 329.686 1222.97 336.472 1210.8 342.187C1128.48 380.861 1028.09 368.657 938.181 347.359C931.655 345.822 925.113 344.219 918.57 342.615C821.893 318.968 724.671 298.926 635.573 313.932C602.459 319.511 568.212 324.885 538.941 346.935C504.059 373.129 482.62 416.02 468.077 456.486C458.142 484.064 450.427 511.661 440.024 538.206C435.137 550.676 429.613 562.904 423.039 574.838C381.244 650.726 297.587 705.391 209.032 725.631C120.378 745.895 27.5229 735.778 -59.1148 708.743M1610.86 193.217C1592.24 145.387 1531.84 125.5 1482.26 136.895C1477.82 137.92 1473.47 139.133 1469.18 140.555C1425.56 154.957 1390.18 187.464 1359.08 221.724C1353.09 228.316 1347.22 235.036 1341.36 241.768C1313.88 273.395 1286.5 305.867 1251.91 329.948C1240.74 337.734 1229.06 344.462 1216.9 350.123C1134.42 388.506 1034.23 376.007 944.547 354.008C938.025 352.417 931.507 350.772 925.001 349.108C828.657 324.627 732.062 303.26 642.956 315.304C608.886 319.92 573.489 324.187 543.245 346.324C507.173 372.642 485.563 416.936 471.504 458.641C461.901 487.059 454.773 515.538 444.797 542.952C440.103 555.844 434.772 568.495 428.317 580.835C387.249 659.417 301.565 716.02 210.912 736.454C120.16 756.913 25.2367 745.64 -63.2276 717.511M1618.44 204.774C1599.88 156.948 1539.84 136.777 1490.16 147.639C1485.73 148.611 1481.36 149.791 1477.06 151.148C1433.32 165.091 1397.62 197.069 1366.14 230.935C1360.08 237.457 1354.13 244.074 1348.23 250.749C1320.43 282.02 1292.75 314.201 1258.09 338.072C1246.9 345.793 1235.2 352.455 1223.02 358.071C1140.39 396.143 1040.38 383.356 950.936 360.668C944.451 359.015 937.937 357.317 931.456 355.612C835.464 330.31 739.481 307.553 650.371 316.721C615.348 320.32 578.79 323.501 547.561 345.746C510.299 372.187 488.516 417.884 474.974 460.819C465.737 490.07 459.155 519.406 449.626 547.701C445.137 560.996 439.979 574.056 433.65 586.835C393.289 668.1 305.577 726.641 212.847 747.281C120.019 767.947 23.0063 755.507 -67.2968 726.304M1626.03 216.304C1607.53 168.516 1547.84 148.028 1498.1 158.349C1493.67 159.267 1489.28 160.402 1484.99 161.706C1441.12 175.156 1405.08 206.626 1373.23 240.098C1367.11 246.531 1361.08 253.099 1355.08 259.691C1326.97 290.638 1299.01 322.508 1264.26 346.158C1253.03 353.8 1241.33 360.43 1229.13 366.014C1146.35 403.794 1046.54 390.712 957.311 367.342C950.83 365.636 944.34 363.898 937.896 362.13C842.258 336.008 746.849 311.781 657.763 318.119C621.768 320.689 584.089 322.809 551.887 345.14C513.455 371.718 491.492 418.786 478.434 462.959C469.53 493.051 463.527 523.235 454.433 552.432C450.17 566.141 445.171 579.632 438.95 592.838C399.294 676.785 309.576 737.276 214.749 758.111C119.823 778.97 20.7417 765.375 -71.4003 735.099M1633.61 227.859C1615.16 180.074 1555.83 159.324 1506.02 169.071C1501.56 169.944 1497.17 171.026 1492.87 172.296C1448.87 185.275 1412.52 216.228 1380.28 249.274C1374.09 255.637 1368 262.115 1361.94 268.638C1333.52 299.228 1305.28 330.798 1270.43 354.247C1259.19 361.824 1247.47 368.388 1235.24 373.927C1152.28 411.403 1052.67 398.026 963.692 373.967C957.236 372.22 950.783 370.419 944.323 368.586C849.037 341.644 754.211 315.841 665.162 319.468C628.218 320.968 589.374 322.055 556.187 344.493C516.565 371.195 494.429 419.666 481.868 465.057C473.308 495.969 467.872 527.022 459.226 557.101C455.155 571.232 450.362 585.126 444.248 598.758C405.319 685.399 313.552 747.815 216.648 768.857C119.646 789.923 18.4754 775.16 -75.5055 743.811M1641.21 239.431C1622.82 191.683 1563.82 170.604 1513.93 179.83C1509.48 180.649 1505.1 181.678 1500.76 182.904C1456.64 195.39 1419.98 225.847 1387.36 258.5C1381.08 264.781 1374.92 271.189 1368.8 277.621C1340.06 307.855 1311.53 339.134 1276.61 362.374C1265.33 369.873 1253.6 376.404 1241.36 381.877C1158.23 419.063 1058.83 405.39 970.078 380.629C963.625 378.829 957.198 376.987 950.774 375.093C855.841 347.33 761.61 319.931 672.565 320.854C634.665 321.251 594.672 321.371 560.512 343.896C519.699 370.721 497.391 420.595 485.315 467.225C477.088 498.978 472.251 530.892 464.031 561.841C460.186 576.386 455.554 590.71 449.558 604.748C411.335 694.072 317.562 758.438 218.56 779.674C119.461 800.934 16.2213 785.016 -79.5983 752.593M1648.79 250.983C1630.44 203.26 1571.83 181.877 1521.87 190.562C1517.41 191.348 1513.01 192.311 1508.66 193.504C1464.44 205.511 1427.42 235.447 1394.43 267.706C1388.08 273.917 1381.86 280.235 1375.67 286.598C1346.61 316.475 1317.8 347.476 1282.79 370.494C1271.49 377.927 1259.73 384.413 1247.47 389.841C1164.18 426.736 1064.99 412.767 976.457 387.305C970.029 385.463 963.618 383.548 957.219 381.613C862.639 353.029 769.032 323.94 679.982 322.266C641.117 321.527 599.975 320.68 564.863 343.304C522.881 370.266 500.379 421.531 488.82 469.391C480.938 501.964 476.667 534.747 468.883 566.598C465.231 581.565 460.791 596.312 454.902 610.776C417.406 702.795 321.585 769.086 220.507 790.529C119.33 811.996 14.0018 794.91 -83.6444 761.394M1656.38 262.52C1638.1 214.813 1579.82 193.155 1529.77 201.286C1525.3 202.007 1520.89 202.937 1516.55 204.077C1472.19 215.612 1434.87 245.031 1401.5 276.897C1395.09 283.018 1388.77 289.274 1382.54 295.559C1353.17 325.079 1324.09 355.781 1288.96 378.619C1277.65 385.986 1265.86 392.394 1253.58 397.789C1170.12 434.36 1071.12 420.116 982.841 393.964C976.417 392.07 970.031 390.114 963.669 388.117C869.442 358.712 776.429 327.887 687.384 323.65C647.567 321.755 605.283 319.973 569.166 342.693C525.993 369.778 503.299 422.434 492.257 471.524C484.728 504.95 481.003 538.59 473.699 571.315C470.253 586.684 466.006 601.853 460.223 616.744C423.421 711.465 325.605 779.686 222.409 801.311C119.156 822.985 11.7378 804.731 -87.7473 770.141M1663.95 274.073C1645.72 226.391 1587.82 204.429 1537.69 212.006C1533.21 212.674 1528.8 213.572 1524.44 214.645C1479.96 225.688 1442.3 254.599 1408.55 286.071C1402.07 292.123 1395.7 298.289 1389.37 304.512C1359.7 333.688 1330.3 364.086 1295.08 386.703C1283.73 393.993 1271.93 400.368 1259.66 405.71C1176.04 441.989 1077.26 427.43 989.176 400.617C982.789 398.661 976.394 396.672 970.036 394.621C876.162 364.396 783.803 331.786 694.724 325.047C653.979 321.955 610.509 319.267 573.428 342.107C529.065 369.316 506.198 423.375 495.653 473.683C488.456 507.95 485.311 542.439 478.454 576.044C475.221 591.848 471.146 607.427 465.471 622.745C429.375 720.148 329.531 790.307 224.258 812.139C118.908 834.007 9.40888 814.618 -91.9027 778.935M1671.55 285.649C1653.39 237.983 1595.83 215.726 1545.61 222.749C1541.13 223.384 1536.7 224.216 1532.34 225.257C1487.74 235.841 1449.76 264.223 1415.62 295.269C1409.05 301.238 1402.63 307.347 1396.24 313.48C1366.25 342.299 1336.58 372.419 1301.27 394.814C1289.9 402.038 1278.08 408.347 1265.78 413.644C1182.01 449.632 1083.41 434.765 995.572 407.263C989.19 405.254 982.832 403.203 976.499 401.112C882.99 370.045 791.295 335.63 702.159 326.429C660.486 322.14 615.838 318.579 577.775 341.473C532.243 368.818 509.184 424.268 499.143 475.827C492.291 510.914 489.712 546.272 483.291 580.78C480.263 596.986 476.369 613.008 470.812 628.731C435.443 728.829 333.572 800.926 226.202 822.951C118.774 845.026 7.16571 824.458 -95.9642 787.713M1679.13 297.201C1661.02 249.559 1603.8 227.007 1553.54 233.5C1549.06 234.082 1544.6 234.869 1540.24 235.857C1495.52 245.948 1457.2 273.822 1422.7 304.486C1416.07 310.386 1409.56 316.392 1403.11 322.456C1372.79 350.939 1342.86 380.738 1307.45 402.933C1296.05 410.079 1284.22 416.355 1271.89 421.607C1187.93 457.292 1089.56 442.141 1001.95 413.938C995.594 411.887 989.24 409.784 982.944 407.63C889.768 375.731 798.774 339.449 709.556 327.827C666.96 322.288 621.122 317.875 582.094 340.888C535.371 368.358 512.14 425.21 502.597 477.987C496.077 513.915 494.097 550.134 488.103 585.512C485.28 602.119 481.579 618.563 476.129 634.713C441.466 737.494 337.58 811.508 228.12 833.76C118.596 856.03 4.91824 834.306 -100.051 796.488M1686.72 308.738C1668.68 261.113 1611.81 238.264 1561.46 244.205C1556.95 244.741 1552.52 245.487 1548.14 246.409C1503.3 256.008 1464.66 283.386 1429.77 313.644C1423.08 319.454 1416.49 325.411 1409.98 331.384C1379.35 359.511 1349.14 389.032 1313.63 411.004C1302.22 418.085 1290.36 424.317 1278.01 429.503C1193.9 464.896 1095.71 449.438 1008.34 420.545C1001.99 418.441 995.674 416.276 989.402 414.082C896.579 381.362 806.324 343.151 716.987 329.171C673.5 322.373 626.459 317.128 586.426 340.236C538.5 367.85 515.109 426.085 506.062 480.081C499.908 516.84 498.474 553.917 492.915 590.196C490.306 607.238 486.777 624.093 481.434 640.669C447.477 746.132 341.584 822.096 230.027 844.543C118.425 867.019 2.65891 844.128 -104.136 805.216M1694.3 320.293C1676.3 272.693 1619.81 249.541 1569.36 254.948C1564.86 255.431 1560.4 256.111 1556.01 257.021C1511.03 266.148 1472.07 292.997 1436.82 322.874C1430.06 328.614 1423.39 334.469 1416.83 340.385C1385.9 368.167 1355.37 397.384 1319.8 419.148C1308.35 426.151 1296.49 432.329 1284.12 437.47C1199.85 472.552 1101.86 456.819 1014.72 427.224C1008.39 425.079 1002.08 422.861 995.823 420.593C903.353 387.052 813.857 346.925 724.359 330.561C679.986 322.451 631.718 316.416 590.733 339.623C541.637 367.373 518.053 426.999 509.491 482.233C503.669 519.833 502.814 557.759 497.702 594.92C495.298 612.364 491.942 629.628 486.726 646.644C453.496 754.801 345.554 832.69 231.921 855.344C118.234 877.994 0.386795 853.968 -108.247 813.982M1701.9 331.862C1683.97 284.278 1627.81 260.851 1577.31 265.696C1572.81 266.125 1568.33 266.76 1563.94 267.617C1518.85 276.265 1479.56 302.605 1443.92 332.056C1437.09 337.726 1430.36 343.511 1423.7 349.345C1392.46 376.77 1361.66 405.689 1325.99 427.251C1314.52 434.188 1302.64 440.321 1290.23 445.417C1205.79 480.196 1108.02 464.179 1021.11 433.883C1014.78 431.685 1008.5 429.405 1002.27 427.096C910.157 392.734 821.458 350.629 731.771 331.977C686.531 322.567 637.003 315.749 595.045 339.043C544.759 366.918 521.003 427.947 512.958 484.41C507.481 522.831 507.192 561.625 502.528 599.668C500.337 617.547 497.153 635.221 492.044 652.663C459.52 763.503 349.572 843.342 233.841 866.19C118.078 889.047 -1.85897 863.853 -112.332 822.794M1709.47 343.415C1691.59 295.856 1635.8 272.125 1585.2 276.437C1580.68 276.821 1576.22 277.415 1571.78 278.214C1526.56 286.391 1486.94 312.202 1450.93 341.259C1444.02 346.827 1437.23 352.554 1430.51 358.319C1398.95 385.388 1367.88 414.027 1332.1 435.389C1320.61 442.26 1308.69 448.316 1296.3 453.391C1211.7 487.878 1114.11 471.554 1027.43 440.589C1021.13 438.35 1014.88 436.028 1008.67 433.646C916.902 398.463 829.032 354.372 739.115 333.407C693.014 322.644 642.254 315.088 599.311 338.49C547.835 366.488 523.906 428.92 516.358 486.602C511.213 525.863 511.511 565.539 507.274 604.451C505.289 622.732 502.286 640.849 497.296 658.697C465.498 772.232 353.502 853.996 235.662 877.059C117.821 900.122 -4.20484 873.761 -116.517 831.629M1717.07 354.948C1699.26 307.405 1643.79 283.387 1593.13 287.137C1588.61 287.468 1584.13 288.017 1579.69 288.763C1534.35 296.447 1494.41 321.762 1458.02 350.426C1451.04 355.924 1444.17 361.569 1437.41 367.255C1405.53 393.968 1374.16 422.316 1338.31 443.469C1326.78 450.262 1314.86 456.285 1302.45 461.294C1217.68 495.491 1120.31 478.871 1033.85 447.204C1027.57 444.891 1021.34 442.529 1015.13 440.093C923.72 404.09 836.712 358.004 746.553 334.746C699.61 322.642 647.577 314.325 603.662 337.813C551.016 365.947 526.894 429.77 519.843 488.67C515.043 528.752 515.908 569.297 512.118 609.09C510.338 627.773 507.527 646.313 502.644 664.587C471.553 780.804 357.529 864.506 237.612 887.776C117.674 911.033 -6.42028 883.517 -120.571 840.311M1724.65 366.507C1706.88 318.988 1651.78 294.666 1601.04 297.862C1596.51 298.161 1592.01 298.644 1587.58 299.337C1542.12 306.561 1501.86 331.347 1465.07 359.605C1458.02 365.034 1451.09 370.589 1444.24 376.193C1412.05 402.549 1380.41 430.598 1344.46 451.55C1332.92 458.277 1320.96 464.255 1308.52 469.219C1223.6 503.125 1126.42 486.176 1040.2 453.841C1033.94 451.487 1027.71 449.071 1021.54 446.574C930.483 409.75 844.381 361.642 753.914 336.107C706.154 322.621 652.833 313.615 607.945 337.19C554.109 365.449 529.795 430.662 523.268 490.825C518.822 531.76 520.245 573.141 516.89 613.837C515.323 632.954 512.685 651.904 507.909 670.605C477.524 789.504 361.493 875.156 239.479 898.62C117.464 922.084 -8.71974 893.4 -124.709 849.121M1732.25 378.076C1714.55 330.574 1659.8 305.956 1608.98 308.631C1604.46 308.876 1599.95 309.327 1595.48 309.974C1549.91 316.706 1509.31 340.984 1472.16 368.861C1465.04 374.22 1458.02 379.693 1451.13 385.22C1418.64 411.251 1386.71 438.989 1350.67 459.719C1339.09 466.369 1327.14 472.293 1314.67 477.213C1229.58 510.794 1132.61 493.583 1046.62 460.546C1040.36 458.138 1034.17 455.661 1028.03 453.123C937.32 415.478 852.158 365.339 761.371 337.548C712.794 322.68 658.176 312.953 612.303 336.636C557.277 365.018 532.79 431.635 526.76 493.016C522.646 534.791 524.648 577.021 521.741 618.599C520.379 638.118 517.922 657.511 513.265 676.618C483.606 798.211 365.527 885.789 241.436 909.46C117.324 933.118 -10.9285 903.279 -128.745 857.906M1739.84 389.614C1722.18 342.136 1667.8 317.235 1616.91 319.336C1612.37 319.515 1607.85 319.933 1603.39 320.527C1557.69 326.767 1516.78 350.549 1479.24 377.999C1472.04 383.256 1464.97 388.671 1457.98 394.137C1425.17 419.811 1392.94 447.258 1356.83 467.779C1345.24 474.363 1333.26 480.242 1320.77 485.096C1235.52 518.386 1138.74 500.868 1052.99 467.141C1046.76 464.693 1040.58 462.162 1034.46 459.562C944.112 421.097 859.923 368.918 768.762 338.867C719.413 322.589 663.473 312.182 616.627 335.951C560.431 364.47 535.752 432.477 530.219 495.076C526.45 537.672 529.018 580.771 526.578 623.243C525.41 643.184 523.158 662.979 518.607 682.512C489.655 806.788 369.569 896.316 243.381 920.18C117.192 944.045 -13.1499 913.039 -132.805 866.592M1747.42 401.169C1729.82 353.728 1675.8 328.511 1624.81 330.079C1620.25 330.226 1615.73 330.557 1611.25 331.139C1565.42 336.908 1524.18 360.16 1486.29 387.23C1479.02 392.416 1471.88 397.762 1464.83 403.137C1431.7 428.455 1399.21 455.603 1362.99 475.923C1351.37 482.462 1339.39 488.255 1326.89 493.096C1241.47 526.096 1144.89 508.281 1059.36 473.874C1053.13 471.372 1046.99 468.78 1040.88 466.126C950.859 426.828 867.684 372.634 776.149 340.323C726.029 322.635 668.747 311.536 620.916 335.413C563.529 364.055 538.678 433.465 533.642 497.282C530.205 540.718 533.372 584.679 531.347 628.04C530.405 648.396 528.313 668.621 523.869 688.581C495.622 815.539 373.51 907.005 245.244 931.076C116.958 955.136 -15.4648 922.994 -136.946 875.453M1755 412.723C1735.89 361.058 1673.92 335.408 1619.15 341.708C1564.39 348.021 1515.87 379.097 1471.69 412.083C1427.52 445.068 1384.47 481.346 1332.99 501.029C1241.2 536.096 1136.96 512.721 1047.33 472.594C957.661 432.476 875.524 376.226 783.57 341.684C732.691 322.564 674.063 310.826 625.259 334.79C566.682 363.556 541.658 434.369 537.127 499.437C532.596 564.505 542.755 630.755 529.218 694.558C501.698 824.21 377.558 917.613 247.195 941.879C116.832 966.145 -17.6797 932.836 -141 884.222"
          stroke="url(#paint0_linear_449_53592)" stroke-miterlimit="10"/>
    <defs>
        <linearGradient id="paint0_linear_449_53592" x1="1701.35" y1="-30.3136" x2="833.15" y2="1490.53"
                        gradientUnits="userSpaceOnUse">
            <stop stop-color="#EAE4FF"/>
            <stop offset="0.2294" stop-color="#CCBDFF"/>
            <stop offset="0.711" stop-color="#8662FF"/>
            <stop offset="1" stop-color="#6C40FF"/>
        </linearGradient>
    </defs>
</svg>
