<svg width="24" height="24" viewBox="0 0 24 24" fill="none" xmlns="http://www.w3.org/2000/svg">
<g id="icon">
<path id="Vector" d="M12 15C13.6569 15 15 13.6569 15 12C15 10.3431 13.6569 9 12 9C10.3431 9 9 10.3431 9 12C9 13.6569 10.3431 15 12 15Z" fill="#B199FF"/>
<path id="Vector_2" d="M21.7857 11.2387C20.6832 9.4485 19.2528 7.92775 17.6495 6.84056C15.8757 5.63656 13.9174 5 11.9866 5C10.2149 5 8.47287 5.53156 6.80871 6.57981C5.11164 7.64862 3.57415 9.21006 2.23875 11.2204C2.08799 11.4476 2.00496 11.7167 2.00022 11.9936C1.99547 12.2704 2.06921 12.5425 2.21208 12.7752C3.31249 14.5834 4.72873 16.1064 6.30705 17.1787C8.08412 18.3875 9.99661 19 11.9866 19C13.9328 19 15.8953 18.3687 17.6616 17.1747C19.264 16.0911 20.6915 14.5646 21.7899 12.7595C21.9278 12.5322 22.0007 12.268 22 11.9985C21.9993 11.7289 21.9249 11.4653 21.7857 11.2387ZM12.0008 16.2C11.2096 16.2 10.4363 15.9537 9.7785 15.4922C9.1207 15.0307 8.60802 14.3747 8.30527 13.6073C8.00252 12.8398 7.92331 11.9953 8.07765 11.1806C8.23199 10.3659 8.61295 9.61753 9.17235 9.03015C9.73176 8.44277 10.4445 8.04276 11.2204 7.8807C11.9963 7.71864 12.8006 7.80182 13.5315 8.11971C14.2624 8.43759 14.8871 8.97592 15.3266 9.6666C15.7661 10.3573 16.0007 11.1693 16.0007 12C15.9995 13.1135 15.5777 14.1811 14.8278 14.9684C14.078 15.7558 13.0612 16.1987 12.0008 16.2Z" fill="#B199FF"/>
</g>
</svg>
