<svg width="36" height="36" viewBox="0 0 36 36" fill="none" xmlns="http://www.w3.org/2000/svg">
    <g id="Icons">
        <path id="Vector"
              d="M33.6851 7.83001C33.6692 7.5787 33.5694 7.33999 33.4018 7.15209C33.2342 6.96419 33.0083 6.83796 32.7605 6.7936C26.6784 5.70235 24.1394 4.91345 18.4638 2.34985C18.3182 2.28404 18.1602 2.25 18.0005 2.25C17.8407 2.25 17.6827 2.28404 17.5371 2.34985C11.8615 4.91345 9.32249 5.70235 3.24046 6.7936C2.99258 6.83796 2.76676 6.96419 2.59912 7.15209C2.43149 7.33999 2.33174 7.5787 2.31585 7.83001C2.04514 12.1268 2.62241 16.1304 4.03358 19.7297C5.18918 22.6656 6.89939 25.3515 9.07077 27.6406C12.8304 31.6294 16.822 33.3619 17.5835 33.6684C17.8541 33.7779 18.1567 33.7779 18.4273 33.6684C19.1887 33.3619 23.1804 31.6294 26.94 27.6406C29.1078 25.3506 30.8147 22.6648 31.9673 19.7297C33.3785 16.1304 33.9558 12.1268 33.6851 7.83001ZM24.4741 13.1112L16.6835 22.1112C16.5833 22.2272 16.4605 22.3216 16.3225 22.3885C16.1846 22.4553 16.0344 22.4933 15.8812 22.5H15.8348C15.5404 22.5001 15.2577 22.3847 15.0473 22.1787L11.588 18.7896C11.4824 18.6862 11.3983 18.563 11.3404 18.4271C11.2824 18.2911 11.2518 18.1451 11.2503 17.9974C11.2473 17.699 11.3629 17.4116 11.5718 17.1984C11.7806 16.9853 12.0656 16.8639 12.364 16.8608C12.6624 16.8578 12.9498 16.9734 13.163 17.1823L15.7645 19.7339L22.7747 11.6388C22.8714 11.5271 22.9891 11.4355 23.1212 11.3693C23.2532 11.3031 23.3971 11.2635 23.5444 11.2529C23.6918 11.2422 23.8398 11.2607 23.98 11.3073C24.1202 11.3538 24.2499 11.4276 24.3616 11.5242C24.4734 11.6209 24.5649 11.7386 24.6312 11.8707C24.6974 12.0028 24.737 12.1466 24.7476 12.294C24.7582 12.4413 24.7398 12.5893 24.6932 12.7296C24.6466 12.8698 24.5729 12.9995 24.4762 13.1112H24.4741Z"
              fill="white"/>
    </g>
</svg>
