<svg width="94" height="48" viewBox="0 0 94 48" fill="none" xmlns="http://www.w3.org/2000/svg">
    <path d="M14.5723 20.5174C14.223 19.8684 13.7175 19.3769 13.0558 19.0431C12.4124 18.6908 11.6496 18.5146 10.7673 18.5146C9.24163 18.5146 8.01926 19.0246 7.10018 20.0445C6.18111 21.0459 5.72157 22.3904 5.72157 24.0779C5.72157 25.8767 6.19949 27.2861 7.15533 28.306C8.12955 29.3074 9.4622 29.8081 11.1533 29.8081C12.3113 29.8081 13.2856 29.5114 14.076 28.918C14.8847 28.3245 15.473 27.4715 15.8406 26.3588H9.85741V22.854H20.1143V27.2768C19.765 28.4636 19.1676 29.567 18.3221 30.5869C17.4949 31.6069 16.438 32.4321 15.1513 33.0626C13.8646 33.6931 12.4124 34.0084 10.7949 34.0084C8.88319 34.0084 7.17371 33.5911 5.66642 32.7566C4.17752 31.9036 3.0103 30.726 2.16475 29.2239C1.33758 27.7219 0.923996 26.0065 0.923996 24.0779C0.923996 22.1493 1.33758 20.434 2.16475 18.9319C3.0103 17.4112 4.17752 16.2337 5.66642 15.3992C7.15533 14.5461 8.85561 14.1196 10.7673 14.1196C13.0834 14.1196 15.0318 14.6852 16.6126 15.8164C18.2118 16.9476 19.2687 18.5146 19.7834 20.5174H14.5723Z"
          fill="#6D40FF"/>
    <path d="M31.8799 34.064C30.0601 34.064 28.3874 33.6375 26.8617 32.7844C25.3545 31.9314 24.1505 30.7446 23.2498 29.2239C22.3675 27.6848 21.9263 25.9601 21.9263 24.0501C21.9263 22.14 22.3675 20.4247 23.2498 18.904C24.1505 17.3834 25.3545 16.1966 26.8617 15.3436C28.3874 14.4905 30.0601 14.064 31.8799 14.064C33.6997 14.064 35.3632 14.4905 36.8705 15.3436C38.3961 16.1966 39.5909 17.3834 40.4549 18.904C41.3372 20.4247 41.7783 22.14 41.7783 24.0501C41.7783 25.9601 41.3372 27.6848 40.4549 29.2239C39.5725 30.7446 38.3777 31.9314 36.8705 32.7844C35.3632 33.6375 33.6997 34.064 31.8799 34.064ZM31.8799 29.7246C33.4239 29.7246 34.6555 29.2054 35.5746 28.1669C36.512 27.1284 36.9808 25.7562 36.9808 24.0501C36.9808 22.3255 36.512 20.9532 35.5746 19.9333C34.6555 18.8948 33.4239 18.3755 31.8799 18.3755C30.3175 18.3755 29.0675 18.8855 28.1301 19.9054C27.211 20.9254 26.7514 22.3069 26.7514 24.0501C26.7514 25.7747 27.211 27.1563 28.1301 28.1947C29.0675 29.2147 30.3175 29.7246 31.8799 29.7246Z"
          fill="#6D40FF"/>
    <path d="M58.3253 14.3422V18.153H53.1969V33.8693H48.482V18.153H43.3536V14.3422H58.3253Z" fill="#6D40FF"/>
    <path d="M65.4065 18.153V22.1029H71.7205V25.7747H65.4065V30.0584H72.5477V33.8693H60.6916V14.3422H72.5477V18.153H65.4065Z"
          fill="#6D40FF"/>
    <path d="M92.924 33.8693H88.2091L80.3235 21.8248V33.8693H75.6086V14.3422H80.3235L88.2091 26.4423V14.3422H92.924V33.8693Z"
          fill="#6D40FF"/>
    <path opacity="0.54"
          d="M3.9805 45.6905C3.07909 43.1774 4.54563 40.2836 6.73818 38.7989C8.93036 37.3154 11.6613 36.9446 14.2926 36.7811C16.9239 36.6175 19.6162 36.6111 22.1025 35.7256C26.5347 34.1458 29.6129 30.0107 31.6405 25.7129C33.6696 21.4144 34.9251 16.7545 37.21 12.5909C38.4741 10.2868 40.2491 8.01314 42.7702 7.37017C45.7963 6.5986 48.8993 8.43698 51.0773 10.7052C53.2553 12.9735 54.9342 15.7463 57.4015 17.6853C62.4157 21.6251 69.8322 21.1916 75.337 18.0018C80.8418 14.812 84.717 9.3592 87.7105 3.69049"
          stroke="url(#paint0_linear_10_46257)" stroke-width="2" stroke-miterlimit="10" stroke-linecap="round"/>
    <defs>
        <linearGradient id="paint0_linear_10_46257" x1="85.3338" y1="2.30464" x2="46.9302" y2="69.6476"
                        gradientUnits="userSpaceOnUse">
            <stop stop-color="#EAE4FF"/>
            <stop offset="0.2294" stop-color="#CCBDFF"/>
            <stop offset="0.711" stop-color="#8662FF"/>
            <stop offset="1" stop-color="#6C40FF"/>
        </linearGradient>
    </defs>
</svg>
