<svg xmlns="http://www.w3.org/2000/svg" width="375" height="1041" fill="none">
    <path stroke="url(#a)" stroke-miterlimit="10"
          d="M538.01-26.858c-28.109-21.705-71.916-8.918-94.369 18.584-22.47 27.502-28.427 64.746-30.732 100.2-2.323 35.454-2 71.929-14.77 105.068-26.443 68.581-100.284 104.513-168.388 132.05-68.104 27.537-142.77 58.216-176.638 123.458-26.546 51.156-21.627 112.323-33.392 168.747-20.53 98.496-97.066 183.288-192.924 213.679M546.492-22.664c-28.06-21.704-71.766-9.212-94.462 17.993-2.035 2.426-3.923 4.951-5.713 7.527-18.103 26.308-23.604 59.883-26.063 92.041-.477 6.209-.872 12.451-1.267 18.693-1.846 29.311-3.759 58.818-14.417 86.04-3.447 8.823-7.692 17.116-12.604 24.911-33.11 52.61-96.747 82.708-156.169 106.201a3918.63 3918.63 0 0 0-13.015 5.155c-64.469 25.682-131.316 55.721-164.856 114.818-9.59 16.904-16.224 34.898-20.412 54.124-4.953 22.695-6.476 46.599-8.224 70.042-1.197 16.006-2.523 31.879-5.124 47.479a255.905 255.905 0 0 1-4.618 21.83C7.72 690.122-17.43 732.978-51.012 767.224c-33.663 34.328-75.628 60.195-121.575 74.308M554.981-18.474c-28.027-21.72-71.616-9.522-94.556 17.386a104.37 104.37 0 0 0-5.777 7.46c-18.331 26.061-24.207 59.453-27.042 91.51-.542 6.191-1.002 12.4-1.463 18.626-2.156 29.209-4.331 58.648-15.119 85.771a148.522 148.522 0 0 1-12.702 24.845c-33.321 52.493-96.94 82.345-156.457 105.346-4.321 1.67-8.676 3.355-13.03 5.041-64.546 25.074-130.797 54.364-166.057 111.48-10.309 16.685-18.202 34.389-22.933 54.005-5.596 23.182-6.75 47.974-7.782 71.963-.708 16.37-1.398 32.56-3.429 48.526-.962 7.516-2.236 14.964-3.886 22.393-10.478 47.271-36.152 91.975-70.903 127.064-34.818 35.171-78.421 61.073-125.825 75.174m735.446-862.41C535.487-36.014 492-24.127 468.833 2.5a100.373 100.373 0 0 0-5.843 7.378c-18.574 25.829-24.825 59.021-28.02 90.976-.607 6.159-1.149 12.367-1.675 18.559-2.467 29.109-4.903 58.464-15.821 85.503-3.528 8.757-7.822 17-12.783 24.762-33.517 52.361-97.118 81.984-156.745 104.492-4.338 1.637-8.692 3.273-13.046 4.925-64.639 24.468-130.344 53.024-167.274 108.127-11.045 16.482-20.164 33.881-25.439 53.902-6.255 23.668-7.022 49.349-7.322 73.885-.22 16.751-.257 33.242-1.734 49.573-.686 7.682-1.715 15.329-3.153 22.956-9.13 48.61-35.31 95.162-71.232 131.094-35.987 36.013-81.212 61.951-130.074 76.057M571.965-10.102c-27.946-21.72-71.316-10.126-94.726 16.188-2.1 2.36-4.052 4.787-5.908 7.296-18.817 25.581-25.427 58.59-28.981 90.444-.69 6.141-1.281 12.316-1.872 18.508-2.777 29.008-5.491 58.295-16.523 85.251a150.774 150.774 0 0 1-12.881 24.68c-33.713 52.244-97.311 81.605-157.033 103.653-4.337 1.604-8.707 3.207-13.078 4.811-64.716 23.86-129.988 51.666-168.475 104.772-11.796 16.263-22.141 33.39-27.943 53.8-6.915 24.171-7.297 50.723-6.88 75.807.285 17.116.868 33.923-.04 50.635-.424 7.849-1.21 15.694-2.42 23.536C27.44 699.228.72 747.628-36.355 784.403c-37.14 36.856-84.004 62.83-134.324 76.941M580.453-5.908c-27.897-21.735-71.183-10.436-94.82 15.581a99.546 99.546 0 0 0-5.972 7.23c-19.062 25.333-26.031 58.158-29.96 89.911-.755 6.124-1.412 12.282-2.068 18.44-3.088 28.907-6.063 58.127-17.226 84.984a151.857 151.857 0 0 1-12.978 24.613c-33.925 52.127-97.488 81.243-157.321 102.799-4.353 1.57-8.707 3.125-13.093 4.695-64.793 23.253-129.715 50.292-169.692 101.419-12.564 16.076-24.103 32.881-30.465 53.68-7.557 24.658-7.57 52.098-6.437 77.745.773 17.497 1.992 34.62 1.655 51.682-.164 8.031-.688 16.042-1.688 24.099C33.972 702.258 6.745 752.506-31.5 790.124c-38.311 37.683-86.796 63.709-138.574 77.823M588.938-1.714c-27.864-21.736-71.033-10.747-94.914 14.99a99.706 99.706 0 0 0-6.037 7.146c-19.288 25.102-26.649 57.728-30.922 89.363-.82 6.108-1.558 12.232-2.28 18.373-3.382 28.807-6.635 57.942-17.927 84.716a154.269 154.269 0 0 1-13.076 24.53c-34.121 52.011-97.682 80.881-157.609 101.944-4.353 1.538-8.723 3.06-13.109 4.581-64.869 22.646-129.523 48.916-170.893 98.064-13.349 15.873-26.08 32.374-32.97 53.578-8.217 25.144-7.843 53.473-5.978 79.667 1.262 17.862 3.117 35.302 3.35 52.729.113 8.197-.167 16.407-.956 24.679C40.55 705.272 12.8 757.369-26.598 795.829c-39.464 38.526-89.587 64.588-142.823 78.707M597.424 2.463c-27.814-21.752-70.883-11.04-94.99 14.383a103.71 103.71 0 0 0-6.102 7.08c-19.532 24.854-27.252 57.297-31.9 88.83-.886 6.074-1.689 12.199-2.477 18.306-3.692 28.722-7.223 57.773-18.629 84.448a153.767 153.767 0 0 1-13.174 24.447c-34.316 51.895-97.859 80.519-157.896 101.09-4.369 1.488-8.738 2.977-13.124 4.465-64.947 22.039-129.414 47.491-172.11 94.711-14.167 15.669-28.043 31.866-35.493 53.475-8.875 25.631-8.116 54.848-5.535 81.588 1.75 18.243 4.242 35.984 5.046 53.792.373 8.38.354 16.756-.224 25.242-3.703 53.966-31.975 107.911-72.543 147.214-40.634 39.368-92.38 65.466-147.073 79.573M605.924 6.657c-27.765-21.752-70.733-11.351-95.083 13.791a98.845 98.845 0 0 0-6.167 6.998c-19.776 24.623-27.87 56.85-32.879 88.298-.967 6.057-1.836 12.148-2.689 18.239-4.002 28.621-7.794 57.604-19.331 84.179a155.676 155.676 0 0 1-13.255 24.382c-34.528 51.761-98.053 80.156-158.184 100.234a2444.004 2444.004 0 0 1-13.156 4.351c-65.024 21.415-129.353 46.049-173.312 91.357-15 15.465-30.02 31.374-37.997 53.356-9.518 26.116-8.39 56.222-5.092 83.509 2.239 18.608 5.383 36.665 6.757 54.839.634 8.546.875 17.121.508 25.806-2.354 55.304-31.149 111.08-72.87 151.243-41.788 40.211-95.188 66.344-151.323 80.456m782.56-876.843c-27.733-21.768-70.584-11.645-95.177 13.184a102.434 102.434 0 0 0-6.232 6.916c-20.003 24.375-28.473 56.418-33.841 87.765-1.032 6.04-1.967 12.114-2.885 18.188-4.313 28.52-8.366 57.419-20.034 83.911a156.548 156.548 0 0 1-13.352 24.299c-34.724 51.645-98.23 79.794-158.472 99.396-4.369 1.423-8.77 2.829-13.171 4.236-65.101 20.808-129.374 44.573-174.513 88.003-15.85 15.245-31.997 30.866-40.519 53.253-10.177 26.603-8.679 57.597-4.649 85.448 2.743 18.988 6.507 37.346 8.451 55.901.912 8.712 1.396 17.486 1.241 26.386-.989 56.643-30.307 114.267-73.199 155.273-42.94 41.054-97.979 67.239-155.571 81.339M622.895 15.044c-27.683-21.767-70.45-11.955-95.254 12.578a99.411 99.411 0 0 0-6.297 6.849c-20.247 24.143-29.091 55.986-34.819 87.232-1.098 6.007-2.097 12.064-3.081 18.121-4.606 28.42-8.955 57.251-20.736 83.644a156.79 156.79 0 0 1-13.45 24.215c-34.919 51.53-98.407 79.432-158.76 98.542-4.384 1.39-8.785 2.764-13.186 4.121-65.178 20.201-129.46 43.065-175.73 84.649-16.716 15.025-33.96 30.358-43.024 53.151-10.837 27.089-8.953 58.971-4.19 87.369 3.231 19.37 7.631 38.027 10.146 56.948 1.172 8.895 1.917 17.834 1.974 26.949.359 57.982-29.482 117.454-73.544 159.303-44.11 41.897-100.771 68.118-159.821 82.222M631.382 19.22c-27.65-21.783-70.3-12.265-95.347 11.986a94.821 94.821 0 0 0-6.362 6.767c-20.491 23.896-29.694 55.556-35.781 86.684-1.163 5.99-2.245 12.03-3.293 18.054-4.918 28.318-9.527 57.081-21.438 83.391-3.854 8.509-8.359 16.553-13.548 24.15-35.131 51.412-98.601 79.053-159.048 97.686-4.385 1.358-8.802 2.682-13.219 4.006-65.254 19.594-129.577 41.507-176.93 81.295-17.6 14.789-35.937 29.85-45.546 53.032-11.48 27.576-9.226 60.346-3.747 89.291 3.72 19.734 8.756 38.708 11.841 57.995 1.449 9.06 2.439 18.199 2.706 27.528 1.707 59.321-28.657 120.641-73.872 163.333-45.264 42.74-103.562 68.997-164.071 83.105M639.884 23.415c-27.601-21.782-70.149-12.559-95.44 11.38a99.161 99.161 0 0 0-6.443 6.7c-20.735 23.648-30.313 55.124-36.76 86.151-1.244 5.973-2.375 11.98-3.489 17.987-5.227 28.217-10.098 56.896-22.14 83.123a159.904 159.904 0 0 1-13.646 24.067c-35.326 51.296-98.777 78.691-159.335 96.832a1237.803 1237.803 0 0 1-13.234 3.891c-65.348 18.986-129.761 39.898-178.148 77.941-18.498 14.552-37.899 29.358-48.051 52.929-12.139 28.062-9.5 61.721-3.305 91.229 4.209 20.115 9.898 39.406 13.536 59.057 1.71 9.243 2.96 18.564 3.439 28.092 3.072 60.661-27.815 123.828-74.2 167.362-46.434 43.583-106.354 69.876-168.32 83.972m814.023-886.52c-27.569-21.798-70-12.868-95.534 10.79a103.07 103.07 0 0 0-6.508 6.617c-20.962 23.417-30.916 54.693-37.722 85.619a739.62 739.62 0 0 0-3.685 17.919c-5.538 28.117-10.687 56.728-22.842 82.856a160.501 160.501 0 0 1-13.744 23.984c-35.522 51.163-98.971 78.329-159.623 95.977-4.4 1.275-8.833 2.534-13.249 3.776-65.425 18.379-129.961 38.258-179.349 74.603-19.413 14.283-39.877 28.851-50.573 52.827-12.798 28.549-9.773 63.096-2.845 93.151 4.713 20.479 11.022 40.087 15.23 60.104 1.97 9.409 3.465 18.912 4.171 28.655C86.52 726.485 55.11 791.501 7.571 835.878c-47.588 44.426-109.146 70.755-172.57 84.856m821.853-888.95c-27.519-21.799-69.85-13.18-95.611 10.18a103.082 103.082 0 0 0-6.573 6.536c-21.205 23.169-31.534 54.262-38.7 85.086-1.375 5.923-2.653 11.896-3.897 17.868-5.833 28.033-11.259 56.56-23.545 82.588-3.967 8.41-8.57 16.388-13.824 23.918-35.718 51.047-99.149 77.967-159.912 95.138a1309.702 1309.702 0 0 1-13.265 3.662c-65.501 17.772-130.208 36.583-180.566 71.249-20.344 14.012-41.837 28.343-53.078 52.708-13.44 29.035-10.046 64.454-2.402 95.072 5.201 20.861 12.147 40.769 16.926 61.167 2.247 9.576 3.985 19.278 4.903 29.235 5.77 63.338-26.147 130.203-74.855 175.422-48.758 45.269-111.939 71.633-176.82 85.739M665.341 35.976c-27.487-21.815-69.7-13.474-95.704 9.573a98.942 98.942 0 0 0-6.638 6.47c-21.45 22.937-32.137 53.831-39.678 84.537-1.441 5.906-2.784 11.845-4.094 17.801-6.143 27.931-11.831 56.374-24.247 82.32a164.56 164.56 0 0 1-13.922 23.835c-35.93 50.93-99.342 77.604-160.199 94.283-4.416 1.21-8.848 2.387-13.297 3.547-65.578 17.165-130.489 34.843-181.767 67.895-21.275 13.71-43.815 27.835-55.6 52.605-14.1 29.522-10.319 65.829-1.959 96.994 5.69 21.225 13.271 41.45 18.62 62.214 2.509 9.758 4.508 19.626 5.636 29.798C99.627 732.525 67.171 801.237 17.31 847.3c-49.911 46.111-114.73 72.511-181.069 86.621m837.603-893.75c-27.437-21.813-69.566-13.783-95.797 8.984a98.605 98.605 0 0 0-6.703 6.387c-21.693 22.689-32.739 53.399-40.64 84.004-1.523 5.889-2.931 11.812-4.306 17.734-6.453 27.831-12.419 56.206-24.949 82.052-4.049 8.343-8.7 16.271-14.02 23.752-36.125 50.814-99.519 77.242-160.487 93.429a927.691 927.691 0 0 1-13.312 3.431c-65.655 16.558-130.769 33.088-182.985 64.542-22.222 13.39-45.776 27.343-58.104 52.503-14.76 30.007-10.593 67.203-1.517 98.931 6.178 21.606 14.412 42.132 20.316 63.261 2.784 9.923 5.028 19.99 6.368 30.361 8.483 66.016-24.48 136.576-75.511 183.482-51.082 46.954-117.522 73.39-185.32 87.504M682.33 44.362c-27.405-21.814-69.417-14.094-95.874 8.376a98.732 98.732 0 0 0-6.768 6.32c-21.921 22.442-33.359 52.969-41.619 83.473-1.588 5.872-3.061 11.761-4.502 17.667-6.763 27.729-12.991 56.036-25.651 81.783-4.081 8.31-8.765 16.222-14.117 23.686-36.321 50.698-99.697 76.88-160.775 92.574a939.35 939.35 0 0 1-13.328 3.317c-65.732 15.95-131.066 31.265-184.185 61.187-23.187 13.055-47.755 26.836-60.61 52.384-15.402 30.494-10.866 68.578-1.058 100.853 6.667 21.971 15.537 42.813 22.01 64.324 3.046 10.106 5.55 20.355 7.101 30.941 9.848 67.355-23.654 139.763-75.839 187.511-52.235 47.797-120.314 74.269-189.569 88.371M690.815 48.541c-27.355-21.83-69.267-14.388-95.968 7.785a95.035 95.035 0 0 0-6.832 6.238c-22.164 22.21-33.961 52.537-42.581 82.94a661.425 661.425 0 0 0-4.698 17.599c-7.074 27.629-13.563 55.852-26.353 81.532a168.712 168.712 0 0 1-14.215 23.603c-36.533 50.565-99.891 76.518-161.063 91.72a789.414 789.414 0 0 1-13.343 3.201c-65.809 15.344-131.395 29.427-185.403 57.834-24.15 12.702-49.716 26.328-63.131 52.281-16.061 30.981-11.156 69.953-.615 102.775 7.17 22.352 16.661 43.51 23.721 65.37 3.307 10.273 6.071 20.704 7.833 31.505 11.197 68.71-22.812 142.95-76.183 191.541-53.388 48.64-123.106 75.147-193.818 89.254M699.301 52.733c-27.322-21.83-69.116-14.698-96.061 7.178a98.793 98.793 0 0 0-6.897 6.156c-22.408 21.962-34.58 52.105-43.559 82.406-1.719 5.822-3.339 11.677-4.911 17.549-7.368 27.528-14.151 55.683-27.072 81.264-4.162 8.244-8.911 16.106-14.296 23.52-36.728 50.449-100.067 76.14-161.35 90.881a928.463 928.463 0 0 1-13.375 3.103c-65.886 14.737-131.707 27.54-186.604 54.48-25.113 12.318-51.694 25.82-65.637 52.179-16.72 31.467-11.429 71.327-.172 104.696 7.66 22.733 17.786 44.192 25.417 66.417 3.583 10.455 6.592 21.069 8.565 32.084 12.545 70.049-21.986 146.137-76.511 195.571C-17.72 919.7-89.06 946.26-161.23 960.354M707.803 56.932c-27.273-21.845-68.967-15.008-96.154 6.57a98.74 98.74 0 0 0-6.962 6.09c-22.636 21.731-35.183 51.675-44.538 81.859-1.8 5.804-3.47 11.642-5.107 17.481-7.678 27.427-14.722 55.515-27.774 80.996-4.195 8.211-8.976 16.04-14.393 23.437-36.924 50.333-100.261 75.778-161.639 90.027a988.984 988.984 0 0 1-13.39 2.988c-65.963 14.113-132.019 25.618-187.805 51.126-26.076 11.932-53.655 25.328-68.158 52.059-17.363 31.953-11.703 72.702.287 106.634 8.148 23.098 18.911 44.874 27.111 67.48 3.844 10.621 7.113 21.434 9.298 32.648 13.91 71.388-21.144 149.324-76.84 199.601-55.71 50.325-128.705 76.921-202.317 91.02M716.29 61.122c-27.241-21.845-68.833-15.302-96.231 5.98a98.995 98.995 0 0 0-7.028 6.007c-22.878 21.483-35.801 51.243-45.499 81.325-1.866 5.788-3.617 11.593-5.319 17.414-7.989 27.343-15.295 55.33-28.476 80.728-4.244 8.178-9.042 15.99-14.492 23.371-37.136 50.216-100.438 75.416-161.926 89.172a781.49 781.49 0 0 1-13.406 2.873c-66.056 13.506-132.346 23.665-189.022 47.772-27.055 11.514-55.633 24.82-70.663 51.957-18.022 32.44-11.976 74.076.73 108.555 8.636 23.48 20.051 45.555 28.806 68.527 4.105 10.787 7.634 21.783 10.03 33.211 15.258 72.727-20.319 152.495-77.167 203.631-56.882 51.168-131.497 77.799-206.567 91.903M724.778 65.3c-27.191-21.861-68.684-15.612-96.325 5.372a103.557 103.557 0 0 0-7.092 5.925c-23.122 21.235-36.404 50.812-46.478 80.793-1.931 5.754-3.748 11.558-5.515 17.347-8.299 27.241-15.866 55.161-29.178 80.459-4.277 8.145-9.107 15.941-14.589 23.289-37.332 50.099-100.632 75.053-162.214 88.317-4.48.963-8.959 1.877-13.421 2.758-66.133 12.899-132.658 21.663-190.223 44.418-28.019 11.081-57.595 24.312-73.185 51.854-18.682 32.943-12.25 75.452 1.172 110.477 9.141 23.844 21.176 46.237 30.501 69.59 4.382 10.97 8.156 22.148 10.763 33.791 16.607 74.066-19.477 155.682-77.495 207.661-58.035 52.011-134.29 78.678-210.817 92.769M733.264 69.493c-27.159-21.861-68.534-15.923-96.418 4.781a94.951 94.951 0 0 0-7.157 5.86c-23.367 21.002-37.023 50.38-47.44 80.259a605.944 605.944 0 0 0-5.711 17.28c-8.593 27.141-16.455 54.992-29.88 80.192-4.326 8.111-9.173 15.874-14.687 23.205-37.527 49.967-100.809 74.692-162.502 87.463-4.479.93-8.975 1.811-13.453 2.643-66.21 12.291-132.953 19.661-191.44 41.064-28.998 10.613-59.573 23.804-75.69 51.735C69.56 497.404 76.362 540.801 90.5 576.39c9.629 24.225 22.301 46.918 32.196 70.637 4.642 11.136 8.66 22.496 11.495 34.354 17.971 75.405-18.652 158.869-77.823 211.69-59.205 52.838-137.081 79.557-215.066 93.653M741.765 73.687c-27.109-21.876-68.383-16.216-96.495 4.175a95.402 95.402 0 0 0-7.222 5.776c-23.593 20.756-37.625 49.95-48.418 79.711a671.118 671.118 0 0 0-5.924 17.229c-8.903 27.04-17.026 54.807-30.582 79.924-4.358 8.078-9.237 15.824-14.784 23.139-37.739 49.85-100.986 74.329-162.79 86.607-4.495.898-8.99 1.73-13.468 2.529-66.287 11.684-133.247 17.609-192.642 37.726-29.96 10.147-61.55 23.313-78.212 51.633-19.983 33.915-12.796 78.201 2.075 114.337 10.117 24.589 23.425 47.599 33.891 71.683 4.919 11.318 9.181 22.861 12.227 34.934 19.32 76.743-17.809 162.055-78.15 215.72-60.36 53.681-139.873 80.435-219.317 94.536M750.248 77.881c-27.076-21.877-68.233-16.527-96.588 3.583a99.091 99.091 0 0 0-7.303 5.71c-23.838 20.524-38.244 49.519-49.397 79.179-2.143 5.687-4.156 11.424-6.119 17.162-9.214 26.939-17.599 54.638-31.285 79.672-4.39 8.045-9.318 15.758-14.866 23.056-37.934 49.734-101.179 73.967-163.077 85.769a553.43 553.43 0 0 1-13.484 2.414c-66.364 11.077-133.525 15.541-193.859 34.372-30.939 9.647-63.511 22.805-80.717 51.53-20.643 34.402-13.07 79.576 2.518 116.259 10.605 24.97 24.566 48.297 35.585 72.746 5.18 11.484 9.703 23.226 12.96 35.497 20.685 78.083-16.984 165.243-78.496 219.766C4.61 959.12-76.543 985.911-157.445 1000.02M758.738 82.054c-27.027-21.893-68.1-16.82-96.681 2.976a99.22 99.22 0 0 0-7.369 5.627c-24.081 20.277-38.846 49.088-50.358 78.647-2.209 5.67-4.303 11.39-6.316 17.094-9.524 26.838-18.187 54.47-31.987 79.404-4.439 8.012-9.383 15.709-14.963 22.974-38.13 49.618-101.357 73.605-163.365 84.914a643.1 643.1 0 0 1-13.516 2.299c-66.441 10.47-133.786 13.457-195.06 31.018-31.901 9.148-65.489 22.297-83.238 51.411-21.286 34.889-13.343 80.951 2.96 118.18 11.094 25.336 25.691 48.978 37.281 73.793 5.44 11.651 10.223 23.574 13.692 36.061 22.033 79.421-16.158 168.429-78.824 223.796C8.314 965.614-74.461 992.44-156.82 1006.55m924.044-920.3c-26.994-21.892-67.95-17.13-96.775 2.369a104.34 104.34 0 0 0-7.433 5.545c-24.308 20.045-39.449 48.656-51.337 78.113-2.274 5.654-4.433 11.34-6.528 17.028-9.834 26.737-18.758 54.284-32.689 79.135-4.471 7.979-9.448 15.659-15.061 22.908-38.325 49.501-101.55 73.226-163.653 84.059a552.359 552.359 0 0 1-13.531 2.184c-66.517 9.863-134.031 11.341-196.277 27.665-32.863 8.614-67.451 21.805-85.744 51.308-21.944 35.375-13.632 82.325 3.42 120.118 11.598 25.716 26.815 49.659 38.975 74.856 5.717 11.833 10.745 23.939 14.424 36.64 23.383 80.76-15.316 171.616-79.15 227.826-63.836 56.209-148.249 83.071-232.066 97.186M775.727 90.443c-26.945-21.908-67.8-17.44-96.852 1.778a103.162 103.162 0 0 0-7.498 5.48c-24.552 19.796-40.068 48.224-52.299 77.58a585.843 585.843 0 0 0-6.724 16.96c-10.129 26.653-19.331 54.117-33.391 78.868-4.521 7.946-9.514 15.593-15.159 22.825-38.537 49.368-101.727 72.864-163.941 83.205a569.161 569.161 0 0 1-13.546 2.069c-66.595 9.255-134.259 9.208-197.478 24.31-33.826 8.082-69.429 21.297-88.266 51.206-22.604 35.861-13.906 83.699 3.863 122.039 12.086 26.098 27.939 50.341 40.67 75.903 5.978 11.999 11.266 24.304 15.157 37.204 24.747 82.099-14.491 174.803-79.48 231.855-65.005 57.052-151.04 83.955-236.314 98.055M784.216 94.621c-26.912-21.908-67.651-17.735-96.946 1.17a100.014 100.014 0 0 0-7.562 5.397c-24.796 19.549-40.671 47.794-53.278 77.033-2.421 5.602-4.711 11.255-6.936 16.909-10.439 26.551-19.919 53.947-34.093 78.599-4.553 7.913-9.579 15.543-15.257 22.742-38.733 49.252-101.921 72.502-164.228 82.35a492.428 492.428 0 0 1-13.562 1.954c-66.672 8.649-134.471 7.059-198.696 20.957-34.77 7.517-71.39 20.789-90.77 51.087-23.247 36.347-14.18 85.074 4.305 123.961 12.575 26.462 29.064 51.022 42.381 76.949 6.239 12.181 11.788 24.652 15.89 37.767 26.095 83.438-13.649 177.99-79.808 235.885-66.158 57.895-153.831 84.829-240.563 98.939M792.7 98.815c-26.863-21.908-67.5-18.045-97.038.58a96.02 96.02 0 0 0-7.628 5.33c-25.04 19.318-41.29 47.363-54.24 76.5-2.486 5.586-4.842 11.222-7.132 16.842-10.749 26.451-20.491 53.762-34.795 78.332-4.586 7.896-9.644 15.477-15.338 22.675-38.929 49.136-102.098 72.14-164.517 81.512a491.775 491.775 0 0 1-13.593 1.839c-66.765 8.041-134.666 4.91-199.897 17.603-35.716 6.952-73.368 20.281-93.292 50.984-23.906 36.834-14.453 86.449 4.748 125.882 13.064 26.843 30.206 51.704 44.076 78.013 6.516 12.347 12.309 25.017 16.622 38.347 27.444 84.776-12.823 181.177-80.135 239.915-67.328 58.737-156.624 85.721-244.814 99.821m955.46-929.984c-29.222-23.878-74.695-17.514-104.824 5.22-30.113 22.735-47.945 57.93-62.547 92.742-14.602 34.812-27.398 71.18-50.932 100.673-41.971 52.57-111.589 74.947-178.414 82.365-66.842 7.434-134.845 2.728-201.097 14.249-36.661 6.37-75.33 19.789-95.798 50.881-24.565 37.32-14.726 87.824 5.207 127.821 19.934 39.997 48.945 75.593 63.126 117.969 28.809 86.116-11.981 184.364-80.463 243.945-68.482 59.581-159.416 86.599-249.063 100.699"
          opacity=".54"/>
    <defs>
        <linearGradient id="a" x1="773.617" x2="-340.901" y1="-73.37" y2="810.394" gradientUnits="userSpaceOnUse">
            <stop stop-color="#EAE4FF"/>
            <stop offset=".229" stop-color="#CCBDFF"/>
            <stop offset=".711" stop-color="#8662FF"/>
            <stop offset="1" stop-color="#6C40FF"/>
        </linearGradient>
    </defs>
</svg>
