<?xml version="1.0" standalone="no"?>
<!DOCTYPE svg PUBLIC "-//W3C//DTD SVG 20010904//EN"
 "http://www.w3.org/TR/2001/REC-SVG-20010904/DTD/svg10.dtd">
<svg version="1.0" xmlns="http://www.w3.org/2000/svg"
 width="700.000000pt" height="700.000000pt" viewBox="0 0 700.000000 700.000000"
 preserveAspectRatio="xMidYMid meet">
<metadata>
Created by potrace 1.14, written by Peter Selinger 2001-2017
</metadata>
<g transform="translate(0.000000,700.000000) scale(0.100000,-0.100000)"
fill="#000000" stroke="none">
<path d="M3329 6996 c-2 -2 -47 -6 -99 -10 -301 -20 -644 -94 -952 -207 -62
-23 -117 -45 -123 -49 -5 -4 -21 -11 -34 -15 -42 -13 -213 -97 -330 -162 -740
-414 -1308 -1088 -1591 -1888 -37 -106 -109 -355 -116 -405 -3 -19 -7 -43 -10
-52 -8 -27 -24 -128 -49 -303 -20 -137 -26 -532 -12 -690 15 -161 15 -162 53
-390 8 -50 54 -235 81 -325 164 -560 476 -1076 899 -1491 96 -94 140 -134 244
-223 163 -138 473 -334 705 -445 229 -110 597 -234 788 -266 18 -3 68 -12 112
-20 71 -13 106 -18 205 -30 200 -25 647 -26 800 -1 14 3 48 7 75 10 233 26
665 142 859 231 30 14 57 25 60 25 3 0 65 29 139 65 495 240 938 607 1273
1055 318 424 550 961 639 1475 18 106 37 256 44 355 9 119 7 478 -3 565 -3 28
-8 75 -12 105 -18 179 -86 492 -144 670 -196 594 -541 1121 -1001 1529 -132
118 -142 126 -241 199 -312 231 -654 406 -1023 525 -107 34 -325 90 -395 102
-19 3 -60 10 -90 15 -99 17 -114 19 -185 25 -38 4 -83 9 -100 11 -36 5 -461
14 -466 10z"/>
</g>
</svg>
