<svg width="36" height="36" viewBox="0 0 36 36" fill="none" xmlns="http://www.w3.org/2000/svg">
    <g id="Icons">
        <path id="Vector"
              d="M33.5838 2.69022C33.571 2.62803 33.5407 2.5708 33.4965 2.52522C33.4523 2.47964 33.396 2.44761 33.3342 2.43288C29.216 1.426 19.7006 5.01405 14.5453 10.1673C13.6258 11.0793 12.7876 12.0698 12.0401 13.1274C10.4503 12.9868 8.86054 13.1042 7.50562 13.6948C3.68273 15.3774 2.56968 19.7677 2.2596 21.6563C2.24202 21.7597 2.24865 21.8657 2.27898 21.9661C2.30932 22.0665 2.36253 22.1584 2.43442 22.2348C2.50632 22.3111 2.59494 22.3697 2.69333 22.406C2.79171 22.4422 2.89716 22.4552 3.0014 22.4438L9.14038 21.7667C9.14477 22.2295 9.1727 22.6919 9.22406 23.1519C9.25495 23.4713 9.39675 23.7698 9.62484 23.9956L12.0021 26.3673C12.2281 26.595 12.5265 26.7368 12.8459 26.768C13.3033 26.8192 13.763 26.8471 14.2233 26.8517L13.5497 32.983C13.5384 33.0872 13.5515 33.1925 13.5878 33.2909C13.6242 33.3892 13.6828 33.4777 13.7591 33.5496C13.8353 33.6215 13.9272 33.6747 14.0275 33.7051C14.1279 33.7355 14.2338 33.7422 14.3372 33.7248C16.2223 33.4224 20.6203 32.3094 22.293 28.4865C22.8837 27.1315 23.0046 25.5495 22.8682 23.9675C23.9284 23.2199 24.9214 22.3815 25.8361 21.4615C31.0076 16.3161 34.5752 7.01303 33.5838 2.69022ZM20.6766 15.3233C20.2043 14.8514 19.8827 14.25 19.7523 13.5952C19.6219 12.9405 19.6886 12.2618 19.944 11.645C20.1993 11.0281 20.6319 10.5009 21.187 10.1299C21.742 9.759 22.3947 9.561 23.0623 9.561C23.7299 9.561 24.3825 9.759 24.9375 10.1299C25.4926 10.5009 25.9252 11.0281 26.1806 11.645C26.4359 12.2618 26.5027 12.9405 26.3722 13.5952C26.2418 14.25 25.9202 14.8514 25.448 15.3233C25.1348 15.6368 24.7629 15.8856 24.3536 16.0554C23.9442 16.2251 23.5054 16.3125 23.0623 16.3125C22.6191 16.3125 22.1803 16.2251 21.7709 16.0554C21.3616 15.8856 20.9897 15.6368 20.6766 15.3233Z"
              fill="white"/>
        <path id="Vector_2"
              d="M11.8406 28.0849C11.4553 28.4709 10.8373 28.6214 10.0934 28.7501C8.42203 29.0348 6.94617 27.5906 7.24641 25.901C7.36102 25.2605 7.69992 24.3626 7.91086 24.1516C7.95697 24.1064 7.98765 24.0478 7.99857 23.9842C8.00948 23.9205 8.00006 23.8551 7.97165 23.7971C7.94324 23.7391 7.89728 23.6915 7.84029 23.6611C7.78331 23.6308 7.7182 23.6191 7.65422 23.6278C6.7196 23.7422 5.8501 24.1659 5.18414 24.8316C3.53109 26.486 3.375 32.625 3.375 32.625C3.375 32.625 9.5175 32.4689 11.1705 30.8145C11.8383 30.149 12.2625 29.2782 12.375 28.3423C12.401 28.0484 12.0431 27.8733 11.8406 28.0849Z"
              fill="#D8CCFF"/>
    </g>
</svg>
