<svg width="36" height="36" viewBox="0 0 36 36" fill="none" xmlns="http://www.w3.org/2000/svg">
    <g id="Icons">
        <path id="Vector"
              d="M23.6249 18C22.1793 18 20.7815 17.3545 19.6874 16.1831C18.6236 15.0405 17.9739 13.5169 17.8593 11.8941C17.737 10.163 18.265 8.57109 19.3457 7.41094C20.4264 6.25078 21.9374 5.625 23.6249 5.625C25.3005 5.625 26.8157 6.26203 27.8929 7.41937C28.9806 8.58797 29.5101 10.177 29.3877 11.8934C29.2703 13.5183 28.6213 15.0412 27.5596 16.1824C26.4684 17.3545 25.0712 18 23.6249 18ZM32.8942 30.375H14.3563C14.0583 30.3766 13.7638 30.3098 13.4957 30.1797C13.2275 30.0497 12.9927 29.8598 12.8095 29.6248C12.615 29.37 12.4808 29.0745 12.4167 28.7605C12.3527 28.4464 12.3605 28.122 12.4396 27.8114C13.0316 25.4341 14.4984 23.4626 16.6809 22.1105C18.618 20.9109 21.0838 20.25 23.6249 20.25C26.2159 20.25 28.6171 20.8828 30.5655 22.0816C32.7529 23.4267 34.2217 25.4095 34.8109 27.8156C34.8891 28.1264 34.896 28.4509 34.8313 28.7647C34.7665 29.0786 34.6317 29.3738 34.4369 29.6283C34.2538 29.8622 34.0196 30.0512 33.7522 30.1806C33.4848 30.31 33.1913 30.3765 32.8942 30.375ZM10.3359 18.2812C7.86156 18.2812 5.68609 15.9806 5.4843 13.1534C5.38445 11.7049 5.83586 10.3655 6.74992 9.3832C7.65414 8.41078 8.92961 7.875 10.3359 7.875C11.7421 7.875 13.0077 8.41359 13.9169 9.39164C14.838 10.3816 15.288 11.7183 15.1825 13.1548C14.9807 15.9813 12.8059 18.2812 10.3359 18.2812ZM14.9526 20.4926C13.7158 19.8879 12.1105 19.5855 10.3366 19.5855C8.26515 19.5855 6.25351 20.1255 4.67148 21.1057C2.87781 22.2188 1.67125 23.8395 1.18398 25.7963C1.11268 26.0777 1.10593 26.3716 1.16425 26.6561C1.22258 26.9405 1.34446 27.2081 1.52078 27.4387C1.68809 27.6535 1.90242 27.8271 2.14731 27.946C2.3922 28.065 2.66111 28.1262 2.93336 28.125H10.738C10.8698 28.125 10.9973 28.0787 11.0984 27.9943C11.1996 27.9099 11.2679 27.7927 11.2914 27.663C11.2991 27.6187 11.309 27.5745 11.3202 27.5309C11.9165 25.136 13.3136 23.1124 15.378 21.6373C15.4539 21.5825 15.515 21.5097 15.5556 21.4254C15.5963 21.3411 15.6153 21.248 15.6109 21.1545C15.6065 21.061 15.5789 20.9701 15.5305 20.89C15.482 20.8099 15.4144 20.7431 15.3337 20.6958C15.2233 20.6311 15.0967 20.5629 14.9526 20.4926Z"
              fill="white"/>
    </g>
</svg>
