<svg width="24" height="24" viewBox="0 0 24 24" fill="none" xmlns="http://www.w3.org/2000/svg">
<g id="icon">
<path id="Vector" d="M12 4C7.58192 4 4 7.58192 4 12C4 16.4181 7.58192 20 12 20C16.4181 20 20 16.4181 20 12C20 7.58192 16.4181 4 12 4ZM15.6923 13.2308H12C11.8368 13.2308 11.6803 13.1659 11.5649 13.0505C11.4495 12.9351 11.3846 12.7786 11.3846 12.6154V7.07692C11.3846 6.91371 11.4495 6.75719 11.5649 6.64178C11.6803 6.52637 11.8368 6.46154 12 6.46154C12.1632 6.46154 12.3197 6.52637 12.4351 6.64178C12.5506 6.75719 12.6154 6.91371 12.6154 7.07692V12H15.6923C15.8555 12 16.012 12.0648 16.1275 12.1802C16.2429 12.2956 16.3077 12.4522 16.3077 12.6154C16.3077 12.7786 16.2429 12.9351 16.1275 13.0505C16.012 13.1659 15.8555 13.2308 15.6923 13.2308Z" fill="#B199FF"/>
</g>
</svg>
