<svg width="20" height="21" viewBox="0 0 20 21" fill="none" xmlns="http://www.w3.org/2000/svg">
    <g id="united states" clip-path="url(#clip0_252_46591)">
        <path id="Vector"
              d="M10 20.5C15.5228 20.5 20 16.0228 20 10.5C20 4.97715 15.5228 0.5 10 0.5C4.47715 0.5 0 4.97715 0 10.5C0 16.0228 4.47715 20.5 10 20.5Z"
              fill="#F9FAFD"/>
        <g id="Group">
            <path id="Vector_2"
                  d="M9.56543 10.4998H20.0002C20.0002 9.59725 19.8799 8.72287 19.6557 7.89111H9.56543V10.4998Z"
                  fill="#D80027"/>
            <path id="Vector_3"
                  d="M9.56543 5.28254H18.5325C17.9203 4.28363 17.1376 3.4007 16.225 2.67383H9.56543V5.28254Z"
                  fill="#D80027"/>
            <path id="Vector_4"
                  d="M10.0002 20.4998C12.3537 20.4998 14.5169 19.6864 16.2251 18.3259H3.77539C5.48359 19.6864 7.64676 20.4998 10.0002 20.4998Z"
                  fill="#D80027"/>
            <path id="Vector_5"
                  d="M1.46797 15.7174H18.5325C19.0239 14.9154 19.4051 14.0389 19.6557 13.1086H0.344727C0.595391 14.0389 0.976523 14.9154 1.46797 15.7174Z"
                  fill="#D80027"/>
        </g>
        <path id="Vector_6"
              d="M4.63219 2.06164H5.54348L4.69582 2.67746L5.01961 3.67391L4.17199 3.05809L3.32438 3.67391L3.60406 2.81309C2.85773 3.43477 2.20359 4.16313 1.66453 4.97469H1.95652L1.41695 5.36668C1.33289 5.50691 1.25227 5.64938 1.175 5.79395L1.43266 6.58695L0.951953 6.2377C0.832461 6.49086 0.723164 6.74973 0.624922 7.01398L0.908789 7.88774H1.95652L1.10887 8.50356L1.43266 9.5L0.585039 8.88418L0.0773047 9.25309C0.0264844 9.6616 0 10.0777 0 10.5H10C10 4.97719 10 4.32609 10 0.5C8.02453 0.5 6.18301 1.07305 4.63219 2.06164ZM5.01961 9.5L4.17199 8.88418L3.32438 9.5L3.64816 8.50356L2.80051 7.88774H3.84824L4.17199 6.89129L4.49574 7.88774H5.54348L4.69582 8.50356L5.01961 9.5ZM4.69582 5.59051L5.01961 6.58695L4.17199 5.97113L3.32438 6.58695L3.64816 5.59051L2.80051 4.97469H3.84824L4.17199 3.97824L4.49574 4.97469H5.54348L4.69582 5.59051ZM8.60656 9.5L7.75895 8.88418L6.91133 9.5L7.23512 8.50356L6.38746 7.88774H7.4352L7.75895 6.89129L8.0827 7.88774H9.13043L8.28277 8.50356L8.60656 9.5ZM8.28277 5.59051L8.60656 6.58695L7.75895 5.97113L6.91133 6.58695L7.23512 5.59051L6.38746 4.97469H7.4352L7.75895 3.97824L8.0827 4.97469H9.13043L8.28277 5.59051ZM8.28277 2.67746L8.60656 3.67391L7.75895 3.05809L6.91133 3.67391L7.23512 2.67746L6.38746 2.06164H7.4352L7.75895 1.0652L8.0827 2.06164H9.13043L8.28277 2.67746Z"
              fill="#0052B4"/>
    </g>
    <defs>
        <clipPath id="clip0_252_46591">
            <rect width="20" height="20" fill="white" transform="translate(0 0.5)"/>
        </clipPath>
    </defs>
</svg>
